<svg width="24" height="26" viewBox="0 0 24 26" fill="none" xmlns="http://www.w3.org/2000/svg">
<path d="M6.45964 10.3833L2.48212 12.4741C1.57073 12.9532 1 13.8979 1 14.9276V16.9029C1 17.9043 1.54013 18.8278 2.41293 19.3187L10.7172 23.9897C11.5403 24.4527 12.5424 24.4647 13.3764 24.0217L21.3718 19.7746C22.2773 19.2936 22.8433 18.352 22.8433 17.3267V14.9279C22.8433 13.8981 22.2724 12.9532 21.3608 12.4742L17.3813 10.3833" stroke="#F36A1D" stroke-width="1.5" stroke-miterlimit="10"/>
<path d="M6.11766 5.52737C6.06651 5.65351 6.00056 5.77131 5.91328 5.87575L5.37922 6.51485C5.12418 6.82007 5.26626 7.2867 5.64813 7.39798V7.39798C5.8835 7.46656 6.04534 7.6823 6.04534 7.92746V9.88503C6.04534 10.3332 6.26206 10.7537 6.62707 11.0138L8.12929 12.084C8.49429 12.3441 8.71102 12.7646 8.71102 13.2128V13.3825C8.71102 13.8823 8.98008 14.3433 9.41518 14.5892L11.1382 15.5627C12.0452 16.0751 13.1681 15.4198 13.1681 14.3781V14.3781C13.1681 13.9853 13.3376 13.6139 13.5983 13.3201C14.7557 12.0157 17.4875 7.99116 11.9136 3.71068C8.27072 0.906638 6.48497 4.6217 6.11766 5.52737Z" stroke="#F36A1D" stroke-width="1.5" stroke-miterlimit="10"/>
<path d="M13.1905 13.7224L13.8833 14.1137C14.7904 14.6261 15.9132 13.9708 15.9132 12.9291V12.9291C15.9132 12.5363 16.0827 12.1649 16.3434 11.8711C17.5009 10.5666 20.2326 6.5421 14.6588 2.26164C12.1594 0.343699 10.5391 1.47852 9.64105 2.67899" stroke="#F36A1D" stroke-width="1.5" stroke-miterlimit="10"/>
</svg>
