<svg width="15" height="20" viewBox="0 0 15 20" fill="none" xmlns="http://www.w3.org/2000/svg">
<path d="M1.24823 7.78191C1.24823 4.35888 4.0815 1.58276 7.5868 1.58276C7.82539 1.58276 8.06796 1.59636 8.31252 1.62162C10.7939 1.89165 13.3627 4.19763 13.818 6.59686C14.2733 8.98055 13.3229 11.1816 11.6349 12.5493C11.2412 12.8679 10.9012 13.2448 10.5891 13.6391L9.65658 14.8183C9.47167 15.0515 9.23109 15.238 8.95472 15.3604C8.51134 15.5566 8.01627 15.6557 7.55897 15.6557C7.10167 15.6557 6.64437 15.5643 6.21689 15.3837L6.14929 15.3545C5.89082 15.2457 5.69 15.0437 5.5727 14.7931C5.53293 14.7057 5.48521 14.6163 5.43153 14.5328C4.95435 13.7868 4.31413 13.1593 3.61227 12.6076C2.17277 11.475 1.24823 9.73043 1.24823 7.78191Z" stroke="#F36A1D" stroke-width="1.5"/>
<path d="M8.84082 14.4215L8.22754 14.7379L7.46582 14.8209L6.65723 14.6139L6.33691 14.4635L6.31055 14.4186L7.69629 14.194L8.84082 14.4215Z" fill="#F36A1D" stroke="#F36A1D" stroke-width="1.5"/>
<path d="M11.274 15.1816V17.2934C11.274 18.2181 9.64764 18.9796 7.63155 18.9796C5.61545 18.9796 3.99701 18.2181 3.99701 17.2934V15.1816C3.99701 15.578 4.29525 15.9509 4.79032 16.2346C5.46236 16.6231 6.48631 16.8679 7.63155 16.8679C8.77679 16.8679 9.8067 16.6212 10.4787 16.2346C10.9758 15.9509 11.2721 15.578 11.2721 15.1816H11.274Z" stroke="#F36A1D" stroke-width="1.5" stroke-miterlimit="10"/>
<path d="M11.2741 15.1816C11.2741 15.5779 10.9759 15.9509 10.4808 16.2346C9.80878 16.6231 8.78483 16.8679 7.63362 16.8679C6.48242 16.8679 5.46443 16.6212 4.7924 16.2346C4.29534 15.9509 3.99908 15.5779 3.99908 15.1816C3.99908 14.2491 5.62548 13.4954 7.63362 13.4954C9.64177 13.4954 11.2761 14.2491 11.2761 15.1816H11.2741Z" fill="white" stroke="#F36A1D" stroke-width="1.5" stroke-miterlimit="10"/>
<path d="M5.42401 7.23703L6.62492 6.6717C6.85357 6.56291 7.12596 6.6989 7.17169 6.94368L7.41824 8.25694C7.46397 8.49589 7.72244 8.62994 7.9491 8.53475L9.58743 7.84898" stroke="#F36A1D" stroke-width="1.5" stroke-miterlimit="10" stroke-linecap="round"/>
</svg>
