<svg width="24" height="26" viewBox="0 0 24 26" fill="none" xmlns="http://www.w3.org/2000/svg">
<path d="M6.98732 12.8481L4.02042 14.2465C3.04975 14.704 2.43036 15.6807 2.43036 16.7538V17.9639C2.43036 18.9676 2.97295 19.8929 3.84887 20.3829L10.7866 24.2641C11.6068 24.723 12.6037 24.735 13.4347 24.2959L20.0926 20.7783C21.0012 20.2983 21.5696 19.3551 21.5696 18.3276V16.6437C21.5696 15.6282 21.0142 14.6939 20.122 14.2087L17.6202 12.8481" stroke="#F36A1D" stroke-width="1.5" stroke-miterlimit="10" stroke-linecap="round"/>
<path d="M5.77216 1V11.9252L17.6203 18.0127V7.07661L5.77216 1Z" stroke="#F36A1D" stroke-width="1.5" stroke-linecap="round" stroke-linejoin="round"/>
<path d="M11.5443 11.3291V16.7975L12.956 15.0849L15.4937 15.1308L11.5443 11.3291Z" fill="white" stroke="#F36A1D" stroke-width="1.5" stroke-linecap="round" stroke-linejoin="round"/>
<path d="M16.9671 9.86622C17.3337 10.0591 17.7872 9.91839 17.9801 9.55185C18.1731 9.1853 18.0323 8.73177 17.6658 8.53885L16.9671 9.86622ZM5.42285 3.79028L16.9671 9.86622L17.6658 8.53885L6.12147 2.4629L5.42285 3.79028Z" fill="#F36A1D"/>
</svg>
