<svg width="24" height="24" viewBox="0 0 24 24" fill="none" xmlns="http://www.w3.org/2000/svg">
<g clip-path="url(#clip0_459_15404)">
<path d="M6.44738 9.38318L2.47639 11.4736C1.56583 11.953 0.995758 12.8973 0.995758 13.9263V15.9039C0.995758 16.9047 1.53523 17.8277 2.40717 18.3189L10.6953 22.9877C11.5192 23.4517 12.5227 23.4638 13.3575 23.0198L21.337 18.7748C22.2417 18.2935 22.807 17.3524 22.807 16.3277V13.9266C22.807 12.8974 22.2367 11.953 21.3259 11.4737L17.353 9.38318" stroke="#F36A1D" stroke-width="1.5" stroke-miterlimit="10"/>
<path d="M5.64308 2.01857C5.64308 1.78606 5.93474 1.65026 6.12569 1.78291C6.75763 2.22191 7.93709 2.84851 9.2215 2.55687C9.59568 2.47191 10.0099 2.57875 10.227 2.8951C11.0784 4.13553 13.2337 7.0276 14.9664 7.25907C15.0851 7.27493 15.1826 7.37094 15.1826 7.49072V11.4108C15.1826 12.6685 14.4345 13.8057 13.2796 14.3037V14.3037C11.3179 15.1494 9.03299 14.4175 7.92792 12.5892L7.07713 11.1817C6.13898 9.62966 5.64308 7.85063 5.64308 6.03707V2.01857Z" stroke="#F36A1D" stroke-width="1.5" stroke-linecap="round" stroke-linejoin="round"/>
<path d="M5.81984 1.70582L7.58961 0.252808C7.58961 0.252808 9.65185 2.2076 11.8029 1.18624C11.8029 1.18624 14.8962 6.12393 17.1292 6.12393V10.438C17.1292 11.6182 16.5254 12.7164 15.5288 13.3486V13.3486" stroke="#F36A1D" stroke-width="1.5" stroke-linecap="round" stroke-linejoin="round"/>
</g>
<defs>
<clipPath id="clip0_459_15404">
<rect width="24" height="24" fill="white"/>
</clipPath>
</defs>
</svg>
