<svg width="24" height="24" viewBox="0 0 24 24" fill="none" xmlns="http://www.w3.org/2000/svg">
<g clip-path="url(#clip0_459_15412)">
<path d="M5.30773 11.4615L2.6637 12.6095C1.65098 13.0491 0.995758 14.0479 0.995758 15.152V16.4229C0.995758 17.4643 1.57941 18.4178 2.50679 18.8914L10.8083 23.1314C11.5804 23.5257 12.4924 23.5361 13.2733 23.1595L21.2715 19.3016C22.2299 18.8393 22.8391 17.8691 22.8391 16.805V15.1662C22.8391 14.0549 22.1754 13.0511 21.1529 12.6158L18.4413 11.4615" stroke="#F36A1D" stroke-width="1.5" stroke-miterlimit="10"/>
<path d="M4.45111 3.38462V10.991L14.4615 16.068V8.76024L8.74313 6.29871L7.79888 4.60642L4.45111 3.38462Z" stroke="#F36A1D" stroke-width="1.5" stroke-linejoin="round"/>
<path d="M6.51093 4.07701V2.15393L9.8587 3.37572L10.8029 5.06801L16.5213 7.52955V14.8373L14.4082 13.8462" stroke="#F36A1D" stroke-width="1.5" stroke-linejoin="round"/>
<path d="M8.39932 2.9231V0.923077L11.7471 2.14487L12.6913 3.83716L18.4097 6.2987V13.6064L16.5542 12.7692" stroke="#F36A1D" stroke-width="1.5" stroke-linejoin="round"/>
</g>
<defs>
<clipPath id="clip0_459_15412">
<rect width="24" height="24" fill="white"/>
</clipPath>
</defs>
</svg>
