<svg width="24" height="24" viewBox="0 0 24 24" fill="none" xmlns="http://www.w3.org/2000/svg">
<g clip-path="url(#clip0_459_15393)">
<path d="M6.67506 11.8554L2.79243 13.3219C1.71379 13.7293 1 14.7619 1 15.9149V16.7602C1 17.8256 1.6107 18.7967 2.57097 19.2583L10.8708 23.2479C11.6106 23.6035 12.47 23.6129 13.2174 23.2737L21.2173 19.6421C22.2074 19.1926 22.8433 18.2056 22.8433 17.1182V15.7062C22.8433 14.6593 22.2535 13.7017 21.3185 13.2308L16.4712 10.7891" stroke="#F36A1D" stroke-width="1.5" stroke-miterlimit="10"/>
<path d="M5.81885 11.2358V0.685547L16.3439 6.63489V16.7732L5.81885 11.2358Z" stroke="#F36A1D" stroke-width="1.5" stroke-miterlimit="10" stroke-linejoin="round"/>
<path d="M9.18108 8.13269L8.00456 8.65823L9.18108 10.1496" stroke="#F36A1D" stroke-width="1.5" stroke-miterlimit="10" stroke-linejoin="round"/>
<path d="M10.8619 8.44299L10.0215 11.0805" stroke="#F36A1D" stroke-width="1.5" stroke-miterlimit="10" stroke-linejoin="round"/>
<path d="M11.701 9.3739L13.0456 11.3133L11.701 11.7012" stroke="#F36A1D" stroke-width="1.5" stroke-miterlimit="10" stroke-linejoin="round"/>
<path d="M6.00635 3.35278L16.3429 9.09334" stroke="#F36A1D" stroke-width="1.5" stroke-miterlimit="10" stroke-linejoin="round"/>
</g>
<defs>
<clipPath id="clip0_459_15393">
<rect width="24" height="24" fill="white"/>
</clipPath>
</defs>
</svg>
