<svg width="50" height="52" viewBox="0 0 50 52" fill="none" xmlns="http://www.w3.org/2000/svg">
<g style="mix-blend-mode:multiply">
<path d="M1.875 43.5041L11.7987 36.6339L21.7223 43.8858L11.7987 50.756L1.875 43.5041Z" fill="white" stroke="#C3C3BF" stroke-linecap="round" stroke-linejoin="round" stroke-dasharray="4 4"/>
<path d="M27.829 43.5041L37.7526 36.6339L47.6763 43.8858L37.7526 50.756L27.829 43.5041Z" fill="white" stroke="#C3C3BF" stroke-linecap="round" stroke-linejoin="round" stroke-dasharray="4 4"/>
<path d="M1.875 25.9469L11.7987 19.0767L21.7223 26.3286L11.7987 33.1988L1.875 25.9469Z" fill="white" stroke="#C3C3BF" stroke-linecap="round" stroke-linejoin="round" stroke-dasharray="4 4"/>
<path d="M27.829 25.9469L37.7526 19.0767L47.6763 26.3286L37.7526 33.1988L27.829 25.9469Z" fill="white" stroke="#C3C3BF" stroke-linecap="round" stroke-linejoin="round" stroke-dasharray="4 4"/>
<path d="M14.8525 33.5806V7.6261L24.7762 14.8783V40.8325L14.8525 33.5806Z" fill="white" stroke="#777674" stroke-linecap="round" stroke-linejoin="round"/>
<path d="M34.6992 34.7256V7.6261L24.7756 14.8783V40.8325L34.6992 34.7256Z" fill="white" stroke="#777674" stroke-linecap="round" stroke-linejoin="round"/>
<path d="M14.8525 7.62633L24.7762 0.756104L34.6999 7.62633L24.7762 14.8782L14.8525 7.62633Z" fill="white" stroke="#F36A1D" stroke-linecap="round" stroke-linejoin="round"/>
</g>
</svg>
