<svg width="51" height="52" viewBox="0 0 51 52" fill="none" xmlns="http://www.w3.org/2000/svg">
<g style="mix-blend-mode:multiply">
<path d="M25.9904 51.0001L43.4348 40.7776L25.9904 30.8914L7.56522 40.784L25.9904 51.0001Z" fill="white" stroke="#F36A1D" stroke-linecap="round" stroke-linejoin="round"/>
<path d="M34.3785 28.5701V32.4441C34.3785 32.6693 34.3482 32.8908 34.2863 33.1072C33.6748 35.298 30.0782 36.9813 25.733 36.9813C21.3879 36.9813 17.7926 35.298 17.1811 33.1072L17.0888 28.5701C17.0888 29.263 17.384 29.9199 17.9138 30.5071C19.2976 32.0435 22.2801 33.1072 25.733 33.1072C29.186 33.1072 32.171 32.0435 33.5535 30.5071C34.0833 29.9199 34.3785 29.2643 34.3785 28.5701Z" fill="white" stroke="#C3C3BF" stroke-miterlimit="10" stroke-linejoin="round"/>
<path d="M34.3785 33.2429V37.3322C34.3785 37.5699 34.3482 37.8036 34.2863 38.0321C33.6748 40.3447 30.0782 42.1214 25.733 42.1214C21.3879 42.1214 17.7926 40.3447 17.1811 38.0321L17.0888 33.2429C17.0888 33.9744 17.384 34.6677 17.9138 35.2876C19.2976 36.9094 22.2801 38.0321 25.733 38.0321C29.186 38.0321 32.171 36.9094 33.5535 35.2876C34.0833 34.6677 34.3785 33.9757 34.3785 33.2429Z" fill="white" stroke="#C3C3BF" stroke-miterlimit="10" stroke-linejoin="round"/>
<path d="M43.2565 10.8131L43.2565 40.7197" stroke="#F36A1D" stroke-linecap="round" stroke-linejoin="round" stroke-dasharray="4 4"/>
<path d="M25.5 1L25.5 30.9065" stroke="#F36A1D" stroke-linecap="round" stroke-linejoin="round" stroke-dasharray="4 4"/>
<path d="M7.74393 10.8131L7.74393 40.2524" stroke="#F36A1D" stroke-linecap="round" stroke-linejoin="round" stroke-dasharray="4 4"/>
<path d="M25.9904 35.7826L43.4348 25.5602L25.9904 15.674L7.56522 25.5679L25.9904 35.7826Z" fill="white" stroke="#F36A1D" stroke-linecap="round" stroke-linejoin="round"/>
<path d="M34.1953 21.9245C34.1953 22.63 33.9076 23.2987 33.3913 23.8965C32.0429 25.4606 29.1367 26.5435 25.7707 26.5435C22.4047 26.5435 19.4998 25.4606 18.1514 23.8965C17.6351 23.2987 17.3474 22.6312 17.3474 21.9245C17.3474 19.3725 21.1192 17.3043 25.7707 17.3043C30.4222 17.3043 34.1953 19.3725 34.1953 21.9245Z" fill="white" stroke="#F36A1D" stroke-miterlimit="10" stroke-linejoin="round"/>
<path d="M25.7717 24.9131C28.9234 24.9131 31.4783 23.4532 31.4783 21.6522C31.4783 19.8513 28.9234 18.3914 25.7717 18.3914C22.6201 18.3914 20.0652 19.8513 20.0652 21.6522C20.0652 23.4532 22.6201 24.9131 25.7717 24.9131Z" fill="white" stroke="#F36A1D" stroke-miterlimit="10" stroke-linejoin="round"/>
<path d="M34.1953 22.1957V25.9504C34.1953 26.1687 34.1657 26.3833 34.1054 26.5931C33.5095 28.7165 30.0048 30.3479 25.7707 30.3479C21.5366 30.3479 18.0332 28.7165 17.4373 26.5931L17.3474 22.1957C17.3474 22.8673 17.6351 23.5039 18.1514 24.0731C19.4998 25.5622 22.406 26.5931 25.7707 26.5931C29.1354 26.5931 32.0442 25.5622 33.3913 24.0731C33.9076 23.5039 34.1953 22.8685 34.1953 22.1957Z" fill="white" stroke="#F36A1D" stroke-miterlimit="10" stroke-linejoin="round"/>
<path d="M25.9666 21.0934L25.9666 50.9999" stroke="#F36A1D" stroke-linecap="round" stroke-linejoin="round" stroke-dasharray="4 4"/>
</g>
</svg>
