<svg width="51" height="50" viewBox="0 0 51 50" fill="none" xmlns="http://www.w3.org/2000/svg">
<g clip-path="url(#clip0_1144_34425)">
<path d="M25.1573 18.122V18.1434C25.1573 18.1434 25.1627 18.1863 25.1573 18.2077V18.2774C25.1573 18.3095 25.1573 18.3363 25.152 18.3685V18.54C25.152 18.54 25.152 18.5775 25.1466 18.5936C25.1466 18.6257 25.1466 18.6579 25.1359 18.6954C25.1305 18.749 25.1252 18.7972 25.1145 18.8454C25.1145 18.8883 25.0984 18.9312 25.093 18.974C25.0823 19.0169 25.077 19.0544 25.0662 19.0973H25.0609C25.0341 19.242 24.9966 19.3866 24.9483 19.5313C24.8787 19.735 24.7929 19.9386 24.6911 20.1422C24.6858 20.1476 24.6858 20.1529 24.6858 20.1583C24.6322 20.2548 24.5786 20.3512 24.5196 20.4477C24.4768 20.528 24.4232 20.6031 24.375 20.6781C24.3428 20.721 24.3107 20.7692 24.2785 20.8121C24.2356 20.8817 24.1874 20.946 24.1338 21.005C24.1231 21.021 24.107 21.0371 24.0963 21.0586C24.0213 21.1497 23.9409 21.2408 23.8605 21.3265C23.7748 21.423 23.6837 21.5194 23.5926 21.6105C23.4854 21.7123 23.3836 21.8088 23.2711 21.9106C23.255 21.9267 23.2336 21.9427 23.2175 21.9535C23.1532 22.0071 23.0889 22.0606 23.0192 22.1196C23.0031 22.1303 22.9924 22.141 22.9763 22.1517L22.971 22.1571C22.8745 22.2375 22.7781 22.3125 22.6762 22.3822C22.5798 22.4465 22.4887 22.5161 22.3869 22.5804C22.344 22.6126 22.3011 22.6447 22.2529 22.6715C22.1189 22.7519 21.985 22.8377 21.8456 22.918C21.7063 22.9984 21.567 23.0788 21.4223 23.1538C21.2776 23.2288 21.1329 23.3039 20.9829 23.3682C20.8329 23.4432 20.6828 23.5128 20.5274 23.5718C20.3774 23.6415 20.2273 23.7058 20.0719 23.7647H20.0666C19.9112 23.8237 19.7558 23.8826 19.595 23.9308C19.5896 23.9362 19.5843 23.9415 19.5789 23.9362C19.4235 23.9951 19.2628 24.0487 19.102 24.0969C19.0966 24.0969 19.0913 24.0969 19.0913 24.0969C18.9305 24.1505 18.7644 24.1988 18.5983 24.2416C18.4214 24.2899 18.2339 24.3274 18.057 24.3702C17.9767 24.3917 17.8963 24.4078 17.8159 24.4292C17.7355 24.4506 17.6605 24.4667 17.5801 24.4828H17.5694C17.3979 24.5203 17.2264 24.5524 17.055 24.5792H17.0442C16.8728 24.6114 16.6959 24.6382 16.5245 24.665H16.5137C15.4795 24.8097 14.4131 24.8686 13.3521 24.8472C13.2342 24.8418 13.1163 24.8418 12.9984 24.8364C12.9663 24.8364 12.9288 24.8311 12.8912 24.8311C12.8216 24.8311 12.7519 24.8311 12.6823 24.8204C12.5161 24.8097 12.3554 24.7989 12.1893 24.7829C12.1517 24.7829 12.1196 24.7829 12.0874 24.7775C11.9749 24.7668 11.8677 24.7561 11.7606 24.7453C11.707 24.74 11.6587 24.7346 11.6105 24.7293C11.5516 24.7293 11.4926 24.7186 11.4337 24.7078C11.4122 24.7078 11.3962 24.7078 11.3747 24.7025C11.2354 24.6864 11.0907 24.665 10.9514 24.6435C10.7531 24.6167 10.5549 24.5846 10.3619 24.5471C10.2494 24.5256 10.1369 24.5042 10.0243 24.4828C10.0136 24.4828 10.0083 24.4828 10.0029 24.4774C9.98147 24.4774 9.96004 24.4721 9.94396 24.4667C9.79392 24.4345 9.64923 24.4024 9.50455 24.3649C9.3545 24.3381 9.20446 24.3006 9.05977 24.2577C8.91509 24.2202 8.7704 24.1827 8.63108 24.1398C8.58285 24.1291 8.53462 24.113 8.49175 24.0969C8.47032 24.0969 8.45424 24.0862 8.43281 24.0755C8.34707 24.0541 8.26669 24.0273 8.1863 24.0005C8.122 23.9844 8.0577 23.963 7.99875 23.9362C7.91301 23.9094 7.82727 23.8772 7.74689 23.8504C7.73617 23.8451 7.73081 23.8451 7.7201 23.8397C7.70402 23.829 7.68794 23.8237 7.67187 23.8237C7.66115 23.8183 7.65579 23.8183 7.64508 23.8129C7.64508 23.8076 7.63972 23.8076 7.63972 23.8076C7.62364 23.8022 7.60756 23.7969 7.59149 23.7915C7.54326 23.7754 7.49503 23.754 7.44144 23.7379C7.42001 23.7272 7.39857 23.7165 7.37714 23.7111H7.36106C7.25925 23.6629 7.15207 23.6147 7.05026 23.5718C7.00203 23.5557 6.9538 23.5343 6.90557 23.5128C6.90022 23.5075 6.8895 23.5021 6.88414 23.5021C6.8627 23.4968 6.84127 23.4861 6.81983 23.4753C6.74481 23.4432 6.66979 23.4057 6.59477 23.3682C6.56262 23.3574 6.53046 23.3414 6.49831 23.3253C6.45008 23.2985 6.40186 23.2771 6.35363 23.2503C6.34827 23.2503 6.34827 23.2449 6.34291 23.2449C6.21966 23.186 6.10177 23.1217 5.98388 23.0574C5.97316 23.0574 5.95708 23.0466 5.94637 23.0359C5.93565 23.0306 5.93029 23.0252 5.91957 23.0252C5.90885 23.0252 5.89814 23.0145 5.88742 23.0091C5.83383 22.977 5.78025 22.9502 5.72666 22.918C5.44801 22.7573 5.18543 22.5912 4.93893 22.4143C4.69243 22.2375 4.462 22.0606 4.25301 21.8784C4.19943 21.8302 4.1512 21.782 4.09761 21.7391C4.04938 21.6962 4.00116 21.648 3.95293 21.5944C3.85111 21.4926 3.75465 21.3962 3.6582 21.2943C3.01515 20.5816 2.61325 19.8153 2.45249 19.0383C2.37211 18.6847 2.34531 18.3203 2.37211 17.9666C2.37747 17.8916 2.38283 17.8219 2.39354 17.7522C2.3989 17.6826 2.40962 17.6183 2.42034 17.5593C2.43105 17.4789 2.44713 17.4039 2.46856 17.3235C2.52215 17.0985 2.59182 16.8788 2.68291 16.6591C2.72578 16.5572 2.77401 16.4554 2.8276 16.3536C2.90262 16.2036 2.99372 16.0482 3.09017 15.8981C3.14376 15.8177 3.20271 15.732 3.26165 15.6516C3.30988 15.5873 3.35811 15.523 3.4117 15.4587C3.45993 15.3944 3.50815 15.3301 3.5671 15.2712C3.64748 15.1747 3.73858 15.0782 3.82968 14.9818C3.86183 14.9496 3.89398 14.9175 3.93149 14.88H3.93685C4.11905 14.6924 4.32268 14.5156 4.54774 14.3387C4.58525 14.3119 4.62277 14.2798 4.66563 14.2476C4.97108 14.0119 5.30868 13.7922 5.67307 13.5778C10.1101 11.0003 17.3336 11.0003 21.7974 13.5778C22.194 13.8082 22.5584 14.0494 22.8852 14.3012L22.9442 14.3495C23.0192 14.4084 23.0889 14.4674 23.1585 14.5263C23.2175 14.5745 23.2764 14.6228 23.33 14.6763C23.4157 14.746 23.4961 14.821 23.5712 14.9014C23.5819 14.9068 23.5926 14.9175 23.6033 14.9336C23.689 15.0139 23.7694 15.0997 23.8498 15.1854C24.0856 15.4426 24.2839 15.7052 24.4553 15.9731C24.4929 16.0321 24.5304 16.091 24.5625 16.1553C24.7233 16.4179 24.8465 16.6912 24.9376 16.9645C24.9644 17.0395 24.9859 17.1092 25.0073 17.1789C25.0287 17.2485 25.0448 17.3235 25.0609 17.3932C25.0769 17.4522 25.0877 17.5111 25.0984 17.5754C25.1145 17.6397 25.1252 17.704 25.1305 17.7737C25.1413 17.8487 25.1466 17.9237 25.152 18.0041C25.1573 18.047 25.1573 18.0845 25.1573 18.122Z" fill="white" stroke="#F36A1D" stroke-linecap="round" stroke-linejoin="round"/>
<path d="M6.35122 23.261C6.27084 23.2235 6.19046 23.186 6.11544 23.1431C6.07257 23.1217 6.03506 23.0949 5.99219 23.0735C6.11008 23.1378 6.22797 23.2021 6.35122 23.261Z" fill="white" stroke="#F36A1D" stroke-linecap="round" stroke-linejoin="round"/>
<path d="M8.50017 24.113H8.48945C8.48945 24.113 8.4573 24.0969 8.44122 24.0916C8.46266 24.1023 8.47873 24.1076 8.50017 24.113Z" fill="white" stroke="#F36A1D" stroke-linecap="round" stroke-linejoin="round"/>
<path d="M23.0272 22.1357C23.0272 22.1357 23.0005 22.1625 22.9844 22.1733C22.9844 22.1733 23.0112 22.1465 23.0272 22.1357Z" fill="white" stroke="#F36A1D" stroke-linecap="round" stroke-linejoin="round"/>
<path d="M24.1043 21.0747C24.0614 21.1337 24.0132 21.1872 23.9703 21.2355C23.9114 21.3051 23.8524 21.3748 23.7881 21.4391C23.7292 21.5034 23.6649 21.5677 23.6006 21.6267C23.6917 21.5356 23.7828 21.4391 23.8685 21.3426C23.9489 21.2569 24.0293 21.1658 24.1043 21.0747Z" fill="white" stroke="#F36A1D" stroke-linecap="round" stroke-linejoin="round"/>
<path d="M24.6946 20.1743C24.6517 20.2601 24.6035 20.3512 24.5499 20.4369C24.5017 20.5226 24.4481 20.6084 24.3838 20.6941C24.432 20.6191 24.4856 20.5441 24.5285 20.4637C24.5874 20.3672 24.641 20.2708 24.6946 20.1743Z" fill="white" stroke="#F36A1D" stroke-linecap="round" stroke-linejoin="round"/>
<path d="M24.9559 19.5474C24.9398 19.6117 24.913 19.6813 24.8862 19.7456C24.8701 19.7992 24.8433 19.8528 24.8219 19.9064C24.7844 19.9921 24.7469 20.0779 24.704 20.1583C24.704 20.1636 24.6987 20.169 24.6933 20.1743C24.6933 20.169 24.6933 20.1636 24.6987 20.1583C24.8005 19.9546 24.8862 19.751 24.9559 19.5474Z" fill="white" stroke="#F36A1D" stroke-linecap="round" stroke-linejoin="round"/>
<path d="M25.0739 19.1133C25.0739 19.1454 25.0686 19.1776 25.0579 19.2097C25.0311 19.3223 24.9989 19.4348 24.9561 19.5473C25.0043 19.4027 25.0418 19.258 25.0686 19.1133H25.0739Z" fill="white" stroke="#F36A1D" stroke-linecap="round" stroke-linejoin="round"/>
<path d="M25.101 18.9901C25.0957 19.0276 25.0903 19.0705 25.0796 19.1134H25.0742C25.0849 19.0705 25.0903 19.033 25.101 18.9901Z" fill="white" stroke="#F36A1D" stroke-linecap="round" stroke-linejoin="round"/>
<path d="M25.1197 18.8615C25.1197 18.8615 25.1197 18.899 25.1197 18.915C25.1144 18.9418 25.109 18.9633 25.1036 18.9901C25.109 18.9472 25.1197 18.9043 25.1251 18.8615H25.1197Z" fill="white" stroke="#F36A1D" stroke-linecap="round" stroke-linejoin="round"/>
<path d="M3.66489 21.3104C3.01113 20.6031 2.60386 19.8368 2.43774 19.0491H2.45918C2.61994 19.8314 3.02184 20.5977 3.66489 21.3104Z" fill="white" stroke="#F36A1D" stroke-linecap="round" stroke-linejoin="round"/>
<path d="M5.89417 23.0252C5.83523 22.9931 5.77628 22.9663 5.71733 22.9341C5.29935 22.693 4.92425 22.4411 4.58665 22.1678C4.47411 22.0821 4.36158 21.991 4.25977 21.8945C4.46876 22.0767 4.69918 22.2536 4.94568 22.4304C5.19218 22.6072 5.45476 22.7734 5.73341 22.9341C5.787 22.9663 5.84058 22.9931 5.89417 23.0252Z" fill="white" stroke="#F36A1D" stroke-linecap="round" stroke-linejoin="round"/>
<path d="M6.35122 23.261C6.27084 23.2235 6.19046 23.186 6.11544 23.1431C6.07257 23.1217 6.03506 23.0949 5.99219 23.0735C6.11008 23.1378 6.22797 23.2021 6.35122 23.261Z" fill="white" stroke="#F36A1D" stroke-linecap="round" stroke-linejoin="round"/>
<path d="M6.82824 23.4914C6.7157 23.4485 6.61389 23.3949 6.50671 23.3413C6.53887 23.3574 6.57102 23.3735 6.60317 23.3842C6.67819 23.4217 6.75321 23.4592 6.82824 23.4914Z" fill="white" stroke="#F36A1D" stroke-linecap="round" stroke-linejoin="round"/>
<path d="M8.49978 24.1131H8.48906C8.38725 24.0809 8.29079 24.0488 8.19434 24.0166C8.27472 24.0434 8.3551 24.0702 8.44084 24.0916C8.46227 24.1023 8.47835 24.1077 8.49978 24.1131Z" fill="white" stroke="#F36A1D" stroke-linecap="round" stroke-linejoin="round"/>
<path d="M23.0272 22.1357C23.0272 22.1357 23.0005 22.1625 22.9844 22.1733C22.9844 22.1733 23.0112 22.1465 23.0272 22.1357Z" fill="white" stroke="#F36A1D" stroke-linecap="round" stroke-linejoin="round"/>
<path d="M24.1043 21.0747C24.0614 21.1337 24.0132 21.1872 23.9703 21.2355C23.9114 21.3051 23.8524 21.3748 23.7881 21.4391C23.7292 21.5034 23.6649 21.5677 23.6006 21.6267C23.6917 21.5356 23.7828 21.4391 23.8685 21.3426C23.9489 21.2569 24.0293 21.1658 24.1043 21.0747Z" fill="white" stroke="#F36A1D" stroke-linecap="round" stroke-linejoin="round"/>
<path d="M24.6946 20.1743C24.6517 20.2601 24.6035 20.3512 24.5499 20.4369C24.5017 20.5226 24.4481 20.6084 24.3838 20.6941C24.432 20.6191 24.4856 20.5441 24.5285 20.4637C24.5874 20.3672 24.641 20.2708 24.6946 20.1743Z" fill="white" stroke="#F36A1D" stroke-linecap="round" stroke-linejoin="round"/>
<path d="M24.9559 19.5474C24.9398 19.6117 24.913 19.6813 24.8862 19.7456C24.8701 19.7992 24.8433 19.8528 24.8219 19.9064C24.7844 19.9921 24.7469 20.0779 24.704 20.1583C24.704 20.1636 24.6987 20.169 24.6933 20.1743C24.6933 20.169 24.6933 20.1636 24.6987 20.1583C24.8005 19.9546 24.8862 19.751 24.9559 19.5474Z" fill="white" stroke="#F36A1D" stroke-linecap="round" stroke-linejoin="round"/>
<path d="M25.0793 19.1133C25.0739 19.1454 25.0686 19.1776 25.0579 19.2097C25.0311 19.3223 24.9989 19.4348 24.9561 19.5473C25.0043 19.4027 25.0418 19.258 25.0686 19.1133H25.0793Z" fill="white" stroke="#F36A1D" stroke-linecap="round" stroke-linejoin="round"/>
<path d="M26.0268 19.1188L26.0161 37.7403C26.0107 39.2461 25.1855 40.7519 23.535 42.0058C23.5297 42.0165 23.5243 42.0165 23.5189 42.0165C23.4386 42.0808 23.3582 42.1398 23.2724 42.2041C23.0152 42.3863 22.7419 42.5577 22.4526 42.7292C17.6833 45.4997 9.91855 45.4997 5.11715 42.7292C4.69381 42.4827 4.30263 42.2255 3.95431 41.9522C2.31455 40.6876 1.49467 39.1818 1.50003 37.6706L1.51074 19.0652C1.51074 20.8871 2.71645 22.7145 5.12787 24.1077C7.27671 25.3509 10.0257 26.0369 12.8283 26.1655C16.2847 26.3209 19.8268 25.635 22.4633 24.1077C22.7794 23.9202 23.0742 23.7326 23.3528 23.529C25.1266 22.2483 26.0161 20.6835 26.0215 19.1188H26.0268Z" fill="white" stroke="#F36A1D" stroke-linecap="round" stroke-linejoin="round"/>
<path d="M3.66489 21.3104C3.01113 20.6031 2.60386 19.8368 2.43774 19.0491H2.45918C2.61994 19.8314 3.02184 20.5977 3.66489 21.3104Z" fill="white" stroke="#F36A1D" stroke-linecap="round" stroke-linejoin="round"/>
<path d="M4.55551 14.3547C4.33044 14.5316 4.12681 14.7084 3.94461 14.896H3.85352C3.89639 14.8585 3.93925 14.8263 3.98748 14.7888L4.55551 14.3547Z" fill="white" stroke="#F36A1D" stroke-linecap="round" stroke-linejoin="round"/>
<path d="M5.89346 23.0251C5.83452 22.993 5.77557 22.9662 5.71662 22.934C5.29865 22.6929 4.92354 22.441 4.58594 22.1677C4.70383 22.2588 4.82172 22.3446 4.94497 22.4303C5.19147 22.6071 5.45405 22.7733 5.7327 22.934C5.78629 22.9662 5.83987 22.993 5.89346 23.0251Z" fill="white" stroke="#F36A1D" stroke-linecap="round" stroke-linejoin="round"/>
<path d="M6.35122 23.261C6.27084 23.2235 6.19046 23.186 6.11544 23.1431C6.07257 23.1217 6.03506 23.0949 5.99219 23.0735C6.11008 23.1378 6.22797 23.2021 6.35122 23.261Z" fill="white" stroke="#F36A1D" stroke-linecap="round" stroke-linejoin="round"/>
<path d="M6.82824 23.4914C6.7157 23.4485 6.61389 23.3949 6.50671 23.3413C6.53887 23.3574 6.57102 23.3735 6.60317 23.3842C6.67819 23.4217 6.75321 23.4592 6.82824 23.4914Z" fill="white" stroke="#F36A1D" stroke-linecap="round" stroke-linejoin="round"/>
<path d="M8.49978 24.1131H8.48906C8.38725 24.0809 8.29079 24.0488 8.19434 24.0166C8.27472 24.0434 8.3551 24.0702 8.44084 24.0916C8.46227 24.1023 8.47835 24.1077 8.49978 24.1131Z" fill="white" stroke="#F36A1D" stroke-linecap="round" stroke-linejoin="round"/>
<path d="M23.0272 22.1357C23.0272 22.1357 23.0005 22.1625 22.9844 22.1733C22.9844 22.1733 23.0112 22.1465 23.0272 22.1357Z" fill="white" stroke="#F36A1D" stroke-linecap="round" stroke-linejoin="round"/>
<path d="M23.9713 21.2354C23.9123 21.305 23.8534 21.3747 23.7891 21.439C23.8212 21.4068 23.848 21.3747 23.8694 21.3425C23.907 21.3104 23.9391 21.2729 23.9713 21.2354Z" fill="white" stroke="#F36A1D" stroke-linecap="round" stroke-linejoin="round"/>
<path d="M24.5499 20.437C24.5017 20.5228 24.4481 20.6085 24.3838 20.6942C24.432 20.6192 24.4856 20.5442 24.5285 20.4638C24.5392 20.4531 24.5446 20.4477 24.5499 20.437Z" fill="white" stroke="#F36A1D" stroke-linecap="round" stroke-linejoin="round"/>
<path d="M24.7034 20.1583C24.7034 20.1583 24.6983 20.1684 24.6933 20.1735C24.6933 20.1684 24.6933 20.1634 24.6983 20.1583H24.7034Z" fill="white" stroke="#F36A1D" stroke-linecap="round" stroke-linejoin="round"/>
<path d="M23.7067 14.9496H23.6103C23.6103 14.9496 23.5889 14.9228 23.5781 14.9174C23.5031 14.837 23.4227 14.762 23.337 14.6924C23.2834 14.6388 23.2245 14.5905 23.1655 14.5423C23.0959 14.4834 23.0262 14.4244 22.9512 14.3655L23.5728 14.8424C23.6157 14.8799 23.6639 14.9121 23.7067 14.9496Z" fill="white" stroke="#F36A1D" stroke-linecap="round" stroke-linejoin="round"/>
<path d="M12.8999 24.8471L12.8303 26.1654C10.0277 26.0367 7.27866 25.3508 5.12982 24.1076C2.7184 22.7143 1.5127 20.887 1.5127 19.0651V19.049C1.51805 18.1755 1.79671 17.3021 2.35401 16.4768C2.72912 15.9249 3.22748 15.389 3.85445 14.896H3.94019C3.90268 14.9335 3.87053 14.9657 3.83837 14.9978C3.74728 15.0943 3.65618 15.1907 3.5758 15.2872C3.51685 15.3461 3.46862 15.4104 3.4204 15.4747C3.36681 15.539 3.31858 15.6033 3.27035 15.6676C3.21141 15.748 3.15246 15.8338 3.09887 15.9141C3.00242 16.0642 2.91132 16.2196 2.8363 16.3696C2.78271 16.4715 2.73448 16.5733 2.69161 16.6751C2.60051 16.8948 2.53085 17.1145 2.47726 17.3396C2.45583 17.4199 2.43975 17.495 2.42903 17.5753C2.41832 17.6343 2.4076 17.6986 2.40224 17.7683C2.39152 17.8379 2.38616 17.9076 2.38081 17.9826C2.35401 18.3363 2.38081 18.7007 2.46119 19.0544H2.43975C2.60587 19.8367 3.01313 20.603 3.6669 21.3104C3.75799 21.4175 3.85445 21.5194 3.96162 21.6105C4.00985 21.664 4.05808 21.7123 4.10631 21.7551C4.1599 21.798 4.20812 21.8462 4.26171 21.8945C4.36353 21.9909 4.47606 22.082 4.58859 22.1678C4.92619 22.4411 5.3013 22.6929 5.71928 22.9341C5.77823 22.9662 5.83717 22.993 5.89612 23.0252C5.90684 23.0305 5.91755 23.0359 5.92827 23.0412C5.93899 23.0412 5.94435 23.0466 5.95506 23.0519C5.96578 23.0627 5.98186 23.068 5.99257 23.0734C6.03544 23.0948 6.07295 23.1216 6.11582 23.143C6.19085 23.1859 6.27123 23.2234 6.35161 23.2609C6.35697 23.2609 6.35697 23.2663 6.36233 23.2663C6.41055 23.2984 6.45878 23.3199 6.50701 23.3413C6.61418 23.3949 6.716 23.4485 6.82853 23.4914C6.84997 23.5021 6.8714 23.5128 6.89284 23.5182C6.8982 23.5182 6.90891 23.5235 6.91427 23.5289C6.9625 23.5503 7.01073 23.5717 7.05896 23.5878C7.16077 23.6307 7.26795 23.6789 7.36976 23.7218H7.38584C7.38584 23.7218 7.42871 23.7432 7.45014 23.7539C7.50373 23.77 7.55196 23.7914 7.60019 23.8075C7.61626 23.8129 7.63234 23.8182 7.64841 23.8236C7.64841 23.8236 7.65377 23.8236 7.65377 23.829C7.66449 23.8343 7.66985 23.8343 7.68057 23.8397C7.69664 23.8397 7.71272 23.8397 7.7288 23.8558C7.73951 23.8611 7.74487 23.8611 7.75559 23.8665C7.83597 23.8986 7.92171 23.9308 8.00745 23.9522C8.06639 23.979 8.1307 24.0004 8.195 24.0165C8.29146 24.0487 8.38792 24.0808 8.48973 24.113H8.50045C8.54332 24.129 8.59155 24.1451 8.63978 24.1558C8.7791 24.1987 8.92379 24.2362 9.06847 24.2737C9.21316 24.3166 9.3632 24.3541 9.51324 24.3809C9.65793 24.4184 9.80261 24.4506 9.95266 24.4827C9.96873 24.4881 9.99017 24.4934 10.0116 24.4934C10.0116 24.4988 10.0223 24.4988 10.033 24.4988C10.1456 24.5202 10.2581 24.5417 10.3706 24.5631C10.5636 24.6006 10.7618 24.6328 10.9601 24.6596C11.0994 24.681 11.2441 24.7024 11.3834 24.7185C11.4049 24.7239 11.4209 24.7239 11.4424 24.7239C11.5013 24.7346 11.5603 24.7399 11.6192 24.7453C11.6674 24.7507 11.7157 24.756 11.7693 24.7614C11.8764 24.7721 11.9836 24.7828 12.0961 24.7935C12.1283 24.7989 12.1604 24.7989 12.198 24.7989C12.3641 24.815 12.5248 24.8257 12.691 24.8364C12.7606 24.8418 12.8303 24.8418 12.8999 24.8471Z" fill="white" stroke="#F36A1D" stroke-linecap="round" stroke-linejoin="round"/>
<path d="M3.66489 21.3104C3.01113 20.6031 2.60386 19.8368 2.43774 19.0491H2.45918C2.61994 19.8314 3.02184 20.5977 3.66489 21.3104Z" fill="white" stroke="#F36A1D" stroke-linecap="round" stroke-linejoin="round"/>
<path d="M5.89417 23.0252C5.83523 22.9931 5.77628 22.9663 5.71733 22.9341C5.29935 22.693 4.92425 22.4411 4.58665 22.1678C4.47411 22.0821 4.36158 21.991 4.25977 21.8945C4.46876 22.0767 4.69918 22.2536 4.94568 22.4304C5.19218 22.6072 5.45476 22.7734 5.73341 22.9341C5.787 22.9663 5.84058 22.9931 5.89417 23.0252Z" fill="white" stroke="#F36A1D" stroke-linecap="round" stroke-linejoin="round"/>
<path d="M6.35122 23.261C6.27084 23.2235 6.19046 23.186 6.11544 23.1431C6.07257 23.1217 6.03506 23.0949 5.99219 23.0735C6.11008 23.1378 6.22797 23.2021 6.35122 23.261Z" fill="white" stroke="#F36A1D" stroke-linecap="round" stroke-linejoin="round"/>
<path d="M6.82824 23.4914C6.7157 23.4485 6.61389 23.3949 6.50671 23.3413C6.53887 23.3574 6.57102 23.3735 6.60317 23.3842C6.67819 23.4217 6.75321 23.4592 6.82824 23.4914Z" fill="white" stroke="#F36A1D" stroke-linecap="round" stroke-linejoin="round"/>
<path d="M26.0221 19.1187C26.0167 20.6834 25.1272 22.2481 23.3534 23.5289L22.6836 22.3982C22.7854 22.3285 22.8819 22.2535 22.9783 22.1731H22.9837C22.9837 22.1731 23.0158 22.1517 23.0266 22.1356C23.0962 22.0767 23.1605 22.0231 23.2248 21.9695C23.2409 21.9588 23.2623 21.9427 23.2784 21.9266C23.3909 21.8248 23.4928 21.7283 23.5999 21.6265C23.6642 21.5676 23.7285 21.5033 23.7875 21.439C23.8518 21.3747 23.9107 21.305 23.9697 21.2353C24.0126 21.1871 24.0608 21.1335 24.1037 21.0746C24.1144 21.0532 24.1304 21.0371 24.1412 21.021C24.1947 20.9621 24.243 20.8977 24.2858 20.8281C24.318 20.7852 24.3502 20.737 24.3823 20.6941C24.4466 20.6084 24.5002 20.5226 24.5484 20.4369C24.602 20.3512 24.6502 20.2601 24.6931 20.1743C24.6985 20.169 24.7038 20.1636 24.7038 20.1582C24.7467 20.0779 24.7842 19.9921 24.8217 19.9064C24.8432 19.8528 24.8699 19.7992 24.886 19.7456C24.9128 19.6813 24.9396 19.6117 24.9557 19.5474C24.9986 19.4348 25.0307 19.3223 25.0575 19.2098C25.0682 19.1776 25.0736 19.1455 25.0789 19.1133C25.0897 19.0704 25.095 19.0276 25.1004 18.99C25.1057 18.9633 25.1111 18.9418 25.1164 18.915C25.1164 18.899 25.1164 18.8775 25.1164 18.8614C25.1272 18.8132 25.1325 18.765 25.1379 18.7114C25.1432 18.6739 25.1486 18.6417 25.1486 18.6096C25.154 18.5935 25.154 18.5721 25.154 18.556V18.497C25.1647 18.406 25.1647 18.3149 25.1593 18.2238C25.1647 18.2023 25.1593 18.1809 25.1593 18.1594V18.138C25.1593 18.1005 25.1593 18.063 25.154 18.0201C25.1486 17.9397 25.1432 17.8647 25.1325 17.7897C25.1272 17.72 25.1164 17.6557 25.1004 17.5914C25.0897 17.5271 25.0789 17.4682 25.0629 17.4092C25.0468 17.3396 25.0307 17.2645 25.0093 17.1949C24.9878 17.1252 24.9664 17.0556 24.9396 16.9805C24.8485 16.7072 24.7253 16.4339 24.5645 16.1714C24.5323 16.1071 24.4948 16.0481 24.4573 15.9892C24.2858 15.7212 24.0876 15.4587 23.8518 15.2014C23.7768 15.1211 23.6964 15.0353 23.6106 14.9496H23.7017C24.3073 15.4319 24.7949 15.957 25.1647 16.4983C25.7381 17.3396 26.0221 18.2291 26.0167 19.1187H26.0221Z" fill="white" stroke="#F36A1D" stroke-linecap="round" stroke-linejoin="round"/>
<path d="M23.855 15.2014C23.7746 15.1157 23.6942 15.03 23.6085 14.9496C23.6942 15.0353 23.7746 15.1211 23.8496 15.2014H23.855Z" fill="white" stroke="#F36A1D" stroke-linecap="round" stroke-linejoin="round"/>
<path d="M11.3646 15.1157C11.3485 15.2711 11.3378 15.0675 11.3378 15.0675C11.3485 15.0836 11.3538 15.0997 11.3646 15.1157Z" stroke="#F36A1D" stroke-miterlimit="10" stroke-linejoin="round"/>
<path d="M35.6927 15.1801C35.3444 15.8338 34.8567 16.4233 34.3048 16.9217C33.7528 17.42 33.1634 17.8219 32.5418 18.1863C27.6011 21.0586 19.5362 21.0586 14.5633 18.1863C14.4079 18.0952 14.2579 18.0041 14.1078 17.913C13.9631 17.8219 13.8185 17.7255 13.6845 17.6237C12.2698 16.6966 10.7694 14.9121 10.8122 13.1116C10.7908 13.9315 10.8122 14.7514 10.8069 15.5713C10.8015 17.4682 12.0501 19.3706 14.5526 20.8174C19.4183 23.62 27.242 23.6843 32.2042 21.005L31.8184 20.7799C31.6362 20.6674 31.5236 20.4423 31.5236 20.1208C31.5236 19.467 31.9791 18.674 32.5471 18.3524C32.8312 18.1863 33.0884 18.1702 33.2759 18.2828L34.7174 19.1134C35.2104 18.5829 35.6284 17.972 35.9017 17.2968C36.1535 16.6698 36.2286 15.9946 36.2286 15.3194C36.2286 14.5745 36.2393 13.8243 36.2286 13.0795C36.2339 13.8297 36.0303 14.5424 35.6873 15.1854L35.6927 15.1801Z" fill="white" stroke="#F36A1D" stroke-miterlimit="10" stroke-linejoin="round"/>
<path d="M24.2319 6.01667C27.072 6.11312 30.0032 6.72938 32.4843 8.16015C33.54 8.76568 34.4938 9.49447 35.244 10.5341C35.9943 11.5736 36.3586 12.8061 36.1711 14.0869C36.0264 15.0729 35.5066 15.8981 34.9064 16.6591C34.8497 16.7313 34.7829 16.8036 34.7206 16.8711L34.7135 16.8788C34.6385 16.9591 34.5635 17.0395 34.4831 17.1199C34.2688 17.3235 34.0437 17.5272 33.7918 17.7254C33.4167 18.0202 32.9987 18.3042 32.5379 18.5721C30.8445 19.5581 28.9315 20.1422 27.0023 20.453C24.0711 20.9299 20.9952 20.8067 18.1283 20.0243C15.4543 19.2902 12.2498 17.8273 11.1834 15.0622C11.1727 15.0407 11.1674 15.0247 11.162 15.0086C10.0796 12.1524 12.432 9.41409 14.7309 8.03154C17.5603 6.33819 20.9899 5.90414 24.2319 6.01667Z" fill="white" stroke="#F36A1D" stroke-miterlimit="10" stroke-linecap="round" stroke-linejoin="round" stroke-dasharray="2 2"/>
<path d="M35.8632 19.7778C35.1184 20.3458 34.5343 21.364 34.4218 22.2857L32.1979 21.0049L31.8121 20.7799C31.6299 20.6673 31.5173 20.4423 31.5173 20.1208C31.5173 19.467 31.9728 18.6739 32.5408 18.3524C32.8249 18.1863 33.0821 18.1702 33.2696 18.2827L34.7111 19.1133L35.8632 19.7778Z" fill="white" stroke="#F36A1D" stroke-miterlimit="10" stroke-linejoin="round"/>
<path d="M36.575 20.1904C36.575 20.1904 36.559 20.1797 36.5482 20.1797C36.5429 20.1797 36.5375 20.1689 36.5322 20.1689L36.575 20.1904Z" stroke="#F36A1D" stroke-miterlimit="10" stroke-linejoin="round"/>
<path d="M48.9569 26.1707C48.8766 26.1278 48.7801 26.101 48.6836 26.0903C48.4211 26.0582 48.1103 26.1332 47.7834 26.3207C46.8188 26.8727 46.0418 28.2231 46.0418 29.3323C46.0418 29.8843 46.2347 30.2701 46.5455 30.4469H46.5402L34.8957 23.7271C34.5903 23.5449 34.3973 23.1591 34.3973 22.6125C34.3973 22.5053 34.3973 22.3982 34.4241 22.2856C34.5367 21.3639 35.1208 20.3458 35.8656 19.7778C35.9567 19.7081 36.0478 19.6491 36.1389 19.5956C36.6212 19.3169 37.0606 19.2955 37.3768 19.483L48.9569 26.1707Z" fill="white" stroke="#F36A1D" stroke-miterlimit="10" stroke-linejoin="round"/>
<path d="M49.5177 27.3227C49.5177 28.432 48.7407 29.7824 47.7815 30.3343C47.2939 30.613 46.8544 30.6398 46.5436 30.4469C46.2328 30.27 46.0399 29.8842 46.0399 29.3322C46.0399 28.223 46.8169 26.8726 47.7815 26.3206C48.1084 26.1331 48.4192 26.0581 48.6818 26.0902C48.7782 26.1009 48.8747 26.1277 48.9551 26.1706L49.0194 26.2081H49.014C49.3194 26.3957 49.5177 26.7761 49.5177 27.3227Z" fill="white" stroke="#F36A1D" stroke-miterlimit="10" stroke-linejoin="round"/>
<circle cx="4.19638" cy="28.0946" r="0.803806" fill="#D9D9D9"/>
<circle cx="4.19638" cy="32.9173" r="0.803806" fill="#D9D9D9"/>
<circle cx="4.19638" cy="37.7403" r="0.803806" fill="#D9D9D9"/>
<circle cx="14.3781" cy="31.8457" r="0.803806" fill="#D9D9D9"/>
<circle cx="19.7374" cy="30.238" r="0.803806" fill="#D9D9D9"/>
<circle cx="9.01865" cy="30.238" r="0.803806" fill="#D9D9D9"/>
<circle cx="14.3781" cy="36.6684" r="0.803806" fill="#D9D9D9"/>
<circle cx="19.7374" cy="35.0609" r="0.803806" fill="#D9D9D9"/>
<circle cx="9.01865" cy="35.0609" r="0.803806" fill="#D9D9D9"/>
<circle cx="14.3781" cy="41.4913" r="0.803806" fill="#D9D9D9"/>
<circle cx="19.7374" cy="39.8838" r="0.803806" fill="#D9D9D9"/>
<circle cx="9.01865" cy="39.8838" r="0.803806" fill="#D9D9D9"/>
<circle cx="23.4884" cy="28.0946" r="0.803806" fill="#D9D9D9"/>
<circle cx="23.4884" cy="32.9173" r="0.803806" fill="#D9D9D9"/>
<circle cx="23.4884" cy="37.7403" r="0.803806" fill="#D9D9D9"/>
</g>
<defs>
<clipPath id="clip0_1144_34425">
<rect width="50" height="50" fill="white" transform="translate(0.5)"/>
</clipPath>
</defs>
</svg>
