<svg width="778" height="2639" viewBox="0 0 778 2639" fill="none" xmlns="http://www.w3.org/2000/svg">
<path d="M452 1457.5V1338.17C452 1324.1 467.423 1315.47 479.417 1322.83L576.083 1382.17C588.077 1389.53 603.5 1380.9 603.5 1366.83V1257.5M603.5 1808.5V2022.08C603.5 2028.79 607.232 2034.94 613.182 2038.05L698.5 2082.5M327 943.737L309.752 934.145C304.041 930.969 300.5 924.948 300.5 918.414V741.284C300.5 727.516 285.671 718.845 273.672 725.598L88.3278 829.902C76.3289 836.655 61.5 827.984 61.5 814.216V643.394C61.5 627.464 70.307 612.839 84.387 605.388L313.705 484.032C326.525 477.248 326.467 458.863 313.604 452.16L242.682 415.2C240.516 414.072 240.535 410.965 242.714 409.863L281 390.5M697.5 1V299.762C697.5 313.955 681.841 322.564 669.857 314.961L562.084 246.581C556.228 242.865 548.759 242.845 542.882 246.527L515 264M452 1715V1834.56C452 1848.59 436.675 1857.22 424.679 1849.96L254.179 1746.75C248.791 1743.49 245.5 1737.65 245.5 1731.35V1597.5V1496.4C245.5 1482.72 260.159 1474.04 272.155 1480.62L369.5 1534M249 739.482L424.959 639.631C430.553 636.456 437.417 636.508 442.962 639.767L636.12 753.281C641.621 756.515 645 762.419 645 768.8V1014M776.5 2082.5V2188.11C776.5 2194.8 772.783 2200.95 766.85 2204.05L618 2282" stroke="#F36A1D" stroke-width="2" stroke-linecap="round" stroke-linejoin="round"/>
<path d="M355.5 2515.5L329.147 2532.08C326.293 2533.87 322.676 2533.92 319.774 2532.21L180.941 2450.13C178.19 2448.5 174.783 2448.45 171.99 2450.01L5.62921 2542.43C2.77202 2544.02 1 2547.03 1 2550.3V2624.06C1 2630.84 8.21198 2635.19 14.2058 2632.02L71 2602" stroke="#F36A1D" stroke-width="2" stroke-linecap="round"/>
</svg>
