<svg width="18" height="26" viewBox="0 0 18 26" fill="none" xmlns="http://www.w3.org/2000/svg">
<path d="M5.28032 14.4425L2.5115 15.856C1.58386 16.3295 1 17.2832 1 18.3247V18.8464C1 19.8501 1.54259 20.7753 2.41851 21.2654L7.77871 24.2641C8.59894 24.7229 9.59581 24.7349 10.4268 24.2959L15.5405 21.5941C16.4491 21.1141 17.0175 20.1709 17.0175 19.1433V18.2281C17.0175 17.2377 16.4891 16.3226 15.6314 15.8275L12.5821 14.0674" stroke="#F36A1D" stroke-width="1.5" stroke-miterlimit="10" stroke-linecap="round"/>
<path d="M2.43061 14.0783L1.30375 13.4408C1.11605 13.3347 1 13.1357 1 12.92V11.6378" fill="white"/>
<path d="M2.43061 14.0783L1.30375 13.4408C1.11605 13.3347 1 13.1357 1 12.92V11.6378" stroke="#F36A1D" stroke-width="1.5" stroke-miterlimit="10" stroke-linecap="round" stroke-linejoin="round"/>
<path d="M14.1026 18.2374V19.2223C14.1026 19.6806 13.6084 19.9688 13.2095 19.743L12.5195 19.3526" fill="white"/>
<path d="M14.1026 18.2374V19.2223C14.1026 19.6806 13.6084 19.9688 13.2095 19.743L12.5195 19.3526" stroke="#F36A1D" stroke-width="1.5" stroke-miterlimit="10" stroke-linecap="round" stroke-linejoin="round"/>
<path d="M12.891 7.59961L14.1832 8.37379C14.3636 8.48188 14.474 8.67676 14.474 8.88709V10.7517" fill="white"/>
<path d="M12.891 7.59961L14.1832 8.37379C14.3636 8.48188 14.474 8.67676 14.474 8.88709V10.7517" stroke="#F36A1D" stroke-width="1.5" stroke-miterlimit="10" stroke-linecap="round" stroke-linejoin="round"/>
<path d="M1.25427 3.61648V2.05598C1.25427 1.59105 1.76131 1.30374 2.16015 1.54266L2.91734 1.99625" fill="white"/>
<path d="M1.25427 3.61648V2.05598C1.25427 1.59105 1.76131 1.30374 2.16015 1.54266L2.91734 1.99625" stroke="#F36A1D" stroke-width="1.5" stroke-miterlimit="10" stroke-linecap="round" stroke-linejoin="round"/>
<path d="M12.967 9.16557C13.1475 9.27366 13.2579 9.46855 13.2579 9.67888V17.7253C13.2579 18.1836 12.7638 18.4718 12.3649 18.2461L2.55738 12.6973C2.3697 12.5911 2.25366 12.3922 2.25366 12.1765V3.80334C2.25366 3.3384 2.76072 3.05109 3.15956 3.29002L12.967 9.16557Z" fill="#ECEAE6" stroke="#F36A1D" stroke-width="1.5" stroke-miterlimit="10" stroke-linejoin="round"/>
</svg>
