<svg width="22" height="24" viewBox="0 0 22 24" fill="none" xmlns="http://www.w3.org/2000/svg">
<g clip-path="url(#clip0_459_15458)">
<path d="M7.40667 10.7848L3.15946 12.9241C2.22442 13.395 1.63452 14.3526 1.63452 15.3996V16.6601C1.63452 17.6638 2.17711 18.5891 3.05304 19.0791L9.99074 22.9603C10.811 23.4192 11.8078 23.4312 12.6388 22.9921L19.2968 19.4745C20.2053 18.9945 20.7738 18.0513 20.7738 17.0237V15.2926C20.7738 14.3022 20.2454 13.3871 19.3876 12.892L15.4739 10.6329" stroke="#F36A1D" stroke-width="1.5" stroke-miterlimit="10" stroke-linecap="round"/>
<g clip-path="url(#clip1_459_15458)">
<path d="M15.3089 12.1257L11.8087 16.4482C11.6313 16.6658 11.2829 16.6673 11.1071 16.4482L7.60364 12.1257C8.17948 12.7358 9.68601 13.171 11.4571 13.171C13.2281 13.171 14.7331 12.7358 15.3089 12.1257Z" stroke="#F36A1D" stroke-width="1.5" stroke-miterlimit="10"/>
<path d="M15.5565 2.31069C15.5565 3.19011 13.7209 3.90368 11.4563 3.90368C9.19163 3.90368 7.35443 3.19011 7.35443 2.31069C7.35443 1.43128 9.19002 0.716187 11.4563 0.716187C13.7225 0.716187 15.5565 1.42976 15.5565 2.31069Z" stroke="#F36A1D" stroke-width="1.5" stroke-miterlimit="10"/>
<path d="M15.5565 2.31067V11.578C15.5565 11.6312 15.55 11.6845 15.5355 11.7377C15.5307 11.759 15.5242 11.7803 15.5162 11.8016L15.3097 12.1227C15.3097 12.1227 15.3081 12.1242 15.3081 12.1257C14.7323 12.7358 13.2257 13.171 11.4563 13.171C9.68682 13.171 8.17867 12.7358 7.60283 12.1257C7.60283 12.1257 7.60283 12.1242 7.60122 12.1242L7.39476 11.8016C7.38669 11.7803 7.38024 11.759 7.3754 11.7377C7.36088 11.6845 7.35443 11.6312 7.35443 11.578V2.31067C7.35443 3.19008 9.19002 3.90366 11.4563 3.90366C13.7225 3.90366 15.5565 3.19008 15.5565 2.31067Z" stroke="#F36A1D" stroke-width="1.5" stroke-miterlimit="10"/>
<path d="M11.4557 3.90369V13.1695" stroke="#F36A1D" stroke-width="1.5" stroke-miterlimit="10"/>
<path d="M12.4198 15.7432H10.4897L11.4547 16.6871L12.4198 15.7432Z" fill="#F36A1D"/>
</g>
</g>
<defs>
<clipPath id="clip0_459_15458">
<rect width="20.3544" height="24" fill="white" transform="translate(0.822815)"/>
</clipPath>
<clipPath id="clip1_459_15458">
<rect width="10.9367" height="17.6203" fill="white" transform="translate(5.98737 -0.303833)"/>
</clipPath>
</defs>
</svg>
