<svg width="161" height="18" viewBox="0 0 161 18" fill="none" xmlns="http://www.w3.org/2000/svg">
<path d="M154.916 0C153.619 0 152.43 0.467669 151.508 1.244C151.278 1.43574 151.066 1.65087 150.869 1.88003C150.098 2.79666 149.633 3.97519 149.633 5.2566C149.633 6.34627 149.966 7.36111 150.54 8.19824C150.733 8.47884 150.949 8.74073 151.189 8.97924C152.143 9.92861 153.464 10.5132 154.916 10.5132C157.831 10.5132 160.2 8.15615 160.2 5.2566C160.2 2.35705 157.831 0 154.916 0ZM150.479 5.2566C150.479 4.0921 150.935 3.03517 151.677 2.24481L153.948 3.26901C154.028 3.30642 154.075 3.38125 154.075 3.46543V3.93309C154.075 4.02663 154.009 4.11549 153.92 4.14355L153.36 4.30723C153.064 4.39141 152.867 4.65798 152.867 4.96197C152.867 5.26595 153.064 5.53252 153.356 5.62138L155.838 6.36965C155.932 6.39771 155.993 6.48189 155.993 6.57543V7.43594C155.993 7.54818 155.908 7.64171 155.796 7.65106L151.522 8.09067C150.869 7.32837 150.479 6.33691 150.479 5.2566ZM154.916 9.67139C153.962 9.67139 153.078 9.36741 152.35 8.85765L155.88 8.49287C156.425 8.43675 156.834 7.98311 156.834 7.44061V6.5801C156.834 6.11243 156.529 5.70088 156.078 5.56526L154.094 4.96664L154.155 4.94794C154.601 4.81699 154.916 4.40076 154.916 3.93309V3.46543C154.916 3.0492 154.672 2.67507 154.291 2.50203L152.378 1.63684C153.097 1.13644 153.972 0.841804 154.916 0.841804C157.366 0.841804 159.354 2.82004 159.354 5.2566C159.354 7.69315 157.366 9.67139 154.916 9.67139Z" fill="#F9F8F7"/>
<path d="M0 14.377H5.37602C7.19693 14.377 8.671 12.9105 8.671 11.0128C8.671 9.02874 7.19693 8.33864 7.19693 8.33864V8.25238C7.19693 8.25238 8.49758 7.47602 8.49758 5.66452C8.49758 3.76675 7.02351 2.30029 5.2026 2.30029H0V14.377ZM1.38736 13.0831V8.94248H5.37602C6.41654 8.94248 7.28364 9.8051 7.28364 11.0128C7.28364 12.2204 6.41654 13.0831 5.37602 13.0831H1.38736ZM1.38736 7.73481V3.59423H5.2026C6.24312 3.59423 7.11022 4.45685 7.11022 5.66452C7.11022 6.87219 6.24312 7.73481 5.2026 7.73481H1.38736Z" fill="#F9F8F7"/>
<path d="M10.7459 14.377H12.0466V8.85622C12.0466 7.64855 12.7403 6.95845 13.9542 6.95845H15.2549V5.75078H13.7808C12.827 5.75078 12.4801 6.09583 12.1333 6.6134H12.0466L11.8732 5.75078H10.7459V14.377Z" fill="#F9F8F7"/>
<path d="M18.8154 14.5495C20.723 14.5495 21.5034 13.3418 21.5034 13.3418H21.5901L21.7635 14.377H22.8908V8.85622C22.8908 6.78593 21.5901 5.57825 19.5091 5.57825C17.3413 5.57825 16.1274 6.87219 16.0407 8.25238H17.3413C17.428 7.47602 18.2084 6.78592 19.5091 6.78592C20.8097 6.78592 21.5901 7.56228 21.5901 8.85622V9.115H19.2489C16.8211 9.115 15.7805 10.2364 15.7805 11.8754C15.7805 13.4281 16.9945 14.5495 18.8154 14.5495ZM18.8154 13.3418C17.6882 13.3418 17.0812 12.738 17.0812 11.8754C17.0812 11.0128 17.6882 10.3227 19.2489 10.3227H21.5901V10.6677C21.5901 12.3067 20.5496 13.3418 18.8154 13.3418Z" fill="#F9F8F7"/>
<path d="M28.8785 18C31.3064 18 32.7804 16.5335 32.7804 14.377V5.75078H31.6532L31.4798 6.87219H31.3931C30.7861 6.09583 29.7456 5.57825 28.6184 5.57825C26.3639 5.57825 24.6297 7.3035 24.6297 9.8051C24.6297 12.3067 26.3639 14.0319 28.6184 14.0319C29.7456 14.0319 30.6994 13.6006 31.3931 12.8243H31.4798V14.377C31.4798 15.8434 30.4393 16.7923 28.8785 16.7923C27.231 16.7923 26.3639 15.9297 26.2772 15.0671H24.9765C25.0632 16.5335 26.4506 18 28.8785 18ZM28.7051 12.8243C27.1443 12.8243 25.9303 11.6166 25.9303 9.8051C25.9303 7.9936 27.1443 6.78592 28.7051 6.78592C30.2658 6.78592 31.4798 7.9936 31.4798 9.8051C31.4798 11.6166 30.2658 12.8243 28.7051 12.8243Z" fill="#F9F8F7"/>
<path d="M37.7243 14.5495C39.6319 14.5495 40.4123 13.3418 40.4123 13.3418H40.499L40.6724 14.377H41.7996V8.85622C41.7996 6.78593 40.499 5.57825 38.4179 5.57825C36.2502 5.57825 35.0363 6.87219 34.9495 8.25238H36.2502C36.3369 7.47602 37.1173 6.78592 38.4179 6.78592C39.7186 6.78592 40.499 7.56228 40.499 8.85622V9.115H38.1578C35.7299 9.115 34.6894 10.2364 34.6894 11.8754C34.6894 13.4281 35.9033 14.5495 37.7243 14.5495ZM37.7243 13.3418C36.597 13.3418 35.9901 12.738 35.9901 11.8754C35.9901 11.0128 36.597 10.3227 38.1578 10.3227H40.499V10.6677C40.499 12.3067 39.4585 13.3418 37.7243 13.3418Z" fill="#F9F8F7"/>
<path d="M47.5272 14.377H48.5677V3.33544H52.7298V2.30029H43.3652V3.33544H47.5272V14.377Z" fill="#F9F8F7"/>
<path d="M56.8926 14.5495C59.147 14.5495 60.1876 13.1003 60.6211 11.9617H59.4939C59.147 12.6517 58.2799 13.5144 56.8926 13.5144C55.3318 13.5144 54.0312 12.393 53.8577 10.5815H60.8292C60.8292 10.5815 60.8812 10.3227 60.8812 9.89136C60.8812 7.3035 59.147 5.57825 56.8926 5.57825C54.5514 5.57825 52.8172 7.3035 52.8172 10.0639C52.8172 12.8243 54.5514 14.5495 56.8926 14.5495ZM53.8577 9.54631C54.0312 7.73481 55.2451 6.6134 56.8926 6.6134C58.5401 6.6134 59.754 7.82107 59.8407 9.54631H53.8577Z" fill="#F9F8F7"/>
<path d="M66.3386 14.5495C68.2462 14.5495 69.7202 13.4281 70.1538 11.5303H69.0266C68.8531 12.2204 68.0728 13.5144 66.3386 13.5144C64.6044 13.5144 63.3037 12.2204 63.3037 10.0639C63.3037 7.90733 64.6044 6.6134 66.3386 6.6134C68.0728 6.6134 68.8531 7.82107 69.0266 8.51117H70.1538C69.7202 6.69966 68.2462 5.57825 66.3386 5.57825C63.9974 5.57825 62.2632 7.3035 62.2632 10.0639C62.2632 12.8243 63.9974 14.5495 66.3386 14.5495Z" fill="#F9F8F7"/>
<path d="M72.1488 14.377H73.1893V9.20126C73.1893 7.73481 74.3165 6.6134 75.8773 6.6134C77.3514 6.6134 78.3919 7.64855 78.3919 9.20126V14.377H79.4324V9.20126C79.4324 7.04471 77.9584 5.57825 75.964 5.57825C74.0564 5.57825 73.276 6.87219 73.276 6.87219H73.1893V2.30029H72.1488V14.377Z" fill="#F9F8F7"/>
<path d="M82.0331 14.377H83.0736V9.20126C83.0736 7.73481 84.2008 6.6134 85.7616 6.6134C87.2356 6.6134 88.2762 7.64855 88.2762 9.20126V14.377H89.3167V9.20126C89.3167 7.04471 87.8426 5.57825 85.8483 5.57825C83.9407 5.57825 83.1603 6.87219 83.1603 6.87219H83.0736L82.9002 5.75078H82.0331V14.377Z" fill="#F9F8F7"/>
<path d="M95.3877 14.5495C97.6422 14.5495 99.4631 12.738 99.4631 10.0639C99.4631 7.38976 97.6422 5.57825 95.3877 5.57825C93.1333 5.57825 91.3124 7.38976 91.3124 10.0639C91.3124 12.738 93.1333 14.5495 95.3877 14.5495ZM95.3877 13.5144C93.7402 13.5144 92.3529 12.1342 92.3529 10.0639C92.3529 7.99359 93.7402 6.6134 95.3877 6.6134C97.0352 6.6134 98.4226 7.99359 98.4226 10.0639C98.4226 12.1342 97.0352 13.5144 95.3877 13.5144Z" fill="#F9F8F7"/>
<path d="M101.537 14.377H102.577V2.30029H101.537V14.377Z" fill="#F9F8F7"/>
<path d="M108.742 14.5495C110.996 14.5495 112.817 12.738 112.817 10.0639C112.817 7.38976 110.996 5.57825 108.742 5.57825C106.487 5.57825 104.666 7.38976 104.666 10.0639C104.666 12.738 106.487 14.5495 108.742 14.5495ZM108.742 13.5144C107.094 13.5144 105.707 12.1342 105.707 10.0639C105.707 7.99359 107.094 6.6134 108.742 6.6134C110.389 6.6134 111.777 7.99359 111.777 10.0639C111.777 12.1342 110.389 13.5144 108.742 13.5144Z" fill="#F9F8F7"/>
<path d="M118.359 18C120.7 18 122.174 16.5335 122.174 14.377V5.75078H121.307L121.134 7.13097H121.047C120.7 6.6134 119.746 5.57825 118.099 5.57825C115.931 5.57825 114.197 7.3035 114.197 9.8051C114.197 12.3067 115.931 14.0319 118.099 14.0319C119.746 14.0319 120.7 12.9968 121.047 12.4792H121.134V14.377C121.134 15.9297 120.093 16.9649 118.359 16.9649C116.625 16.9649 115.758 16.1022 115.671 15.0671H114.631C114.752 16.6198 116.105 18 118.359 18ZM118.186 12.9968C116.538 12.9968 115.238 11.7029 115.238 9.8051C115.238 7.90733 116.538 6.6134 118.186 6.6134C119.833 6.6134 121.134 7.90733 121.134 9.8051C121.134 11.7029 119.833 12.9968 118.186 12.9968Z" fill="#F9F8F7"/>
<path d="M124.862 14.377H125.902V5.75078H124.862V14.377ZM124.775 3.76675H125.989V2.55908H124.775V3.76675Z" fill="#F9F8F7"/>
<path d="M132.067 14.5495C134.321 14.5495 135.362 13.1003 135.795 11.9617H134.668C134.321 12.6517 133.454 13.5144 132.067 13.5144C130.506 13.5144 129.205 12.393 129.032 10.5815H136.003C136.003 10.5815 136.055 10.3227 136.055 9.89136C136.055 7.3035 134.321 5.57825 132.067 5.57825C129.726 5.57825 127.991 7.3035 127.991 10.0639C127.991 12.8243 129.726 14.5495 132.067 14.5495ZM129.032 9.54631C129.205 7.73481 130.419 6.6134 132.067 6.6134C133.714 6.6134 134.928 7.82107 135.015 9.54631H129.032Z" fill="#F9F8F7"/>
<path d="M140.732 14.5495C142.9 14.5495 144.027 13.4281 144.027 12.0479C144.027 10.754 143.334 10.0466 141.686 9.71884L139.952 9.37379C138.998 9.18401 138.565 8.68369 138.565 7.99359C138.565 7.3035 139.258 6.6134 140.646 6.6134C142.12 6.6134 142.9 7.38976 142.9 8.25238H143.941C143.941 6.78592 142.727 5.57825 140.646 5.57825C138.651 5.57825 137.524 6.69966 137.524 7.99359C137.524 9.37379 138.304 10.0639 139.779 10.3572L141.513 10.7022C142.553 10.9093 142.987 11.3578 142.987 12.0479C142.987 12.8243 142.293 13.5144 140.732 13.5144C139.241 13.5144 138.339 12.7553 138.339 11.8754H137.351C137.351 13.2556 138.669 14.5495 140.732 14.5495Z" fill="#F9F8F7"/>
</svg>
