<svg width="667" height="360" viewBox="0 0 667 360" fill="none" xmlns="http://www.w3.org/2000/svg">
<path opacity="0.1" fill-rule="evenodd" clip-rule="evenodd" d="M194.737 -355.6C194.737 -373.273 209.064 -387.6 226.737 -387.6H381.565C399.238 -387.6 413.565 -373.273 413.565 -355.6V23.4376C413.565 41.1107 399.239 55.4376 381.565 55.4376H250.71C233.037 55.4376 218.71 69.7645 218.71 87.4376V290.368C218.71 316.609 188.864 331.696 167.734 316.135L13.0243 202.2C4.83483 196.169 0 186.604 0 176.434V-89.2656C0 -106.939 14.3269 -121.266 32 -121.266H162.737C180.41 -121.266 194.737 -135.593 194.737 -153.266V-355.6ZM468.555 206.734C468.555 224.407 454.228 238.734 436.555 238.734H299.677C282.004 238.734 267.677 253.061 267.677 270.734V460.725C267.677 478.398 282.004 492.725 299.677 492.725H454.387C472.06 492.725 486.387 478.398 486.387 460.725V385.675C486.387 368.002 500.714 353.675 518.387 353.675H655.265C672.938 353.675 687.265 339.348 687.265 321.675V166.91C687.265 156.103 681.81 146.026 672.762 140.117L518.051 39.0849C496.767 25.1854 468.555 40.457 468.555 65.8779V206.734Z" fill="#E85502"/>
</svg>
