<svg width="226" height="31" viewBox="0 0 226 31" fill="none" xmlns="http://www.w3.org/2000/svg">
<path d="M17.0961 0H13.3487C5.9879 0 0 6.02039 0 13.4181V17.1858C0 24.5866 5.9879 30.6039 13.3457 30.6039H17.0931C24.4539 30.6039 30.4388 24.5835 30.4388 17.1858V13.4181C30.4418 6.02039 24.4539 0 17.0961 0ZM25.7264 16.8675L21.8207 23.6163C21.2697 24.5682 20.2438 25.162 19.1479 25.162H11.2939C10.195 25.162 9.17212 24.5682 8.62112 23.6163L4.71544 16.8675C4.15835 15.9034 4.15835 14.7036 4.71544 13.7395L8.62112 6.99063C9.17516 6.03876 10.198 5.44498 11.2939 5.44498H17.1905C18.4934 5.44498 19.3306 6.83148 18.7339 7.99454L17.848 9.71465C17.4675 10.4584 16.7034 10.9236 15.8724 10.9236H9.62266C9.38826 10.9236 9.15385 11.0063 8.99555 11.1807C8.7368 11.4654 8.7094 11.8755 8.91336 12.1785L13.5314 19.2395C13.6806 19.4691 13.9332 19.6068 14.2041 19.6068H20.8618C21.1418 19.6068 21.4189 19.4783 21.568 19.2395C21.7781 18.8967 21.7294 18.4927 21.4615 18.2234L19.8054 16.5584C19.6532 16.4053 19.4493 16.3196 19.2362 16.3196H15.9332C15.2605 16.3196 14.8282 15.6034 15.1357 15.0035L16.6091 12.1295C16.9896 11.3858 17.7537 10.9206 18.5847 10.9206H22.5665C23.5163 10.9206 24.3961 11.4286 24.871 12.252L25.7264 13.7333C26.2835 14.6975 26.2835 15.8973 25.7264 16.8614V16.8675Z" fill="white"/>
<path d="M36.4329 16.9257C36.4329 10.6758 40.8713 6.21326 46.4969 6.21326C52.1226 6.21326 55.0785 10.3789 55.8212 13.6538H51.8273C50.9384 11.7195 49.3128 9.93506 46.5 9.93506C42.9474 9.93506 40.2838 12.6132 40.2838 16.9288C40.2838 21.2443 42.9474 23.9225 46.5 23.9225C50.3478 23.9225 52.1226 20.7975 52.1226 19.46V19.31H46.9444V16.335H55.9704V27.3443H53.0115L52.7162 24.9631H52.567C52.567 24.9631 50.6431 27.6412 46.5 27.6412C40.8774 27.6412 36.4359 23.1787 36.4359 16.9288L36.4329 16.9257Z" fill="white"/>
<path d="M58.1865 19.7507C58.1865 15.1382 61.4408 11.8663 65.8822 11.8663C70.0253 11.8663 73.2826 15.1382 73.2826 19.4538C73.2826 20.3475 73.1335 20.9413 73.1335 20.9413H61.8882C62.1835 23.0256 63.8122 24.5131 65.8822 24.5131C67.657 24.5131 68.695 23.4725 68.9903 22.8757H72.8382C72.5429 24.0663 70.619 27.6381 65.8822 27.6381C61.4438 27.6381 58.1865 24.3662 58.1865 19.7538V19.7507ZM69.5809 18.4132C69.2856 16.4788 67.9523 14.9913 65.8822 14.9913C63.663 14.9913 62.3297 16.4788 61.8882 18.4132H69.5839H69.5809Z" fill="white"/>
<path d="M74.9082 19.7507C74.9082 15.1382 78.1624 11.8663 82.6039 11.8663C87.0454 11.8663 90.2996 15.1382 90.2996 19.7507C90.2996 24.3632 87.0454 27.635 82.6039 27.635C78.1624 27.635 74.9082 24.3632 74.9082 19.7507ZM86.5979 19.7507C86.5979 17.0726 84.8231 15.2882 82.6039 15.2882C80.3847 15.2882 78.6099 17.0726 78.6099 19.7507C78.6099 22.4288 80.3847 24.2132 82.6039 24.2132C84.8231 24.2132 86.5979 22.4288 86.5979 19.7507Z" fill="white"/>
<path d="M93.1094 6.51013H100.065C105.837 6.51013 109.98 10.8257 109.98 16.9257C109.98 23.0257 105.837 27.3412 100.065 27.3412H93.1094V6.51013ZM100.065 25.1069C104.358 25.1069 107.612 21.835 107.612 16.9226C107.612 12.0102 104.358 8.73832 100.065 8.73832H95.4778V25.1039H100.065V25.1069Z" fill="white"/>
<path d="M112.199 23.0256C112.199 20.1975 113.974 18.2632 118.117 18.2632H122.111V17.8163C122.111 15.5851 120.781 14.2445 118.559 14.2445C116.337 14.2445 115.006 15.4351 114.86 16.7726H112.641C112.79 14.3914 114.86 12.1602 118.562 12.1602C122.264 12.1602 124.334 14.2445 124.334 17.8133V27.3351H122.41L122.114 25.5507H121.965C121.965 25.5507 120.632 27.635 117.378 27.635C114.123 27.635 112.199 25.7007 112.199 23.0226V23.0256ZM122.114 20.9413V20.3475H118.12C115.457 20.3475 114.422 21.5381 114.422 23.0256C114.422 24.5131 115.457 25.5538 117.381 25.5538C120.34 25.5538 122.117 23.7694 122.117 20.9413H122.114Z" fill="white"/>
<path d="M126.553 23.0255H128.772C128.772 24.363 130.105 25.5536 132.471 25.5536C134.836 25.5536 136.023 24.513 136.023 23.3224C136.023 22.1318 135.283 21.388 133.509 21.0911L130.994 20.6443C128.331 20.1974 126.851 18.8599 126.851 16.4787C126.851 14.0974 128.626 12.1631 132.328 12.1631C136.029 12.1631 138.099 14.3943 138.099 16.7756H135.88C135.88 15.438 134.55 14.2474 132.328 14.2474C130.105 14.2474 129.073 15.2881 129.073 16.4787C129.073 17.5193 129.664 18.2355 131.442 18.563L133.956 19.0099C136.915 19.5455 138.248 20.9442 138.248 23.3254C138.248 25.7067 136.325 27.641 132.477 27.641C128.629 27.641 126.559 25.4098 126.559 23.0286L126.553 23.0255Z" fill="white"/>
<path d="M140.76 6.51013H142.979V14.0976H143.128C143.128 14.0976 144.608 12.1632 147.567 12.1632C150.97 12.1632 153.485 14.6914 153.485 18.4132V27.3412H151.265V18.4132C151.265 16.032 149.491 14.2476 147.271 14.2476C144.903 14.2476 142.979 16.1819 142.979 18.4132V27.3412H140.76V6.51013Z" fill="white"/>
<path d="M159.405 25.2569H159.256L158.961 27.3412H157.037V6.51013H159.256V14.5445H159.405C160.59 13.057 162.069 12.1632 164.142 12.1632C167.99 12.1632 170.949 15.2882 170.949 19.9007C170.949 24.5132 167.99 27.6381 164.142 27.6381C162.069 27.6381 160.59 26.7444 159.405 25.2569ZM168.73 19.9007C168.73 16.4788 166.511 14.2476 163.993 14.2476C161.476 14.2476 159.256 16.4788 159.256 19.9007C159.256 23.3225 161.476 25.5538 163.993 25.5538C166.511 25.5538 168.73 23.3225 168.73 19.9007Z" fill="white"/>
<path d="M172.575 19.9005C172.575 15.2881 175.683 12.1631 179.677 12.1631C183.671 12.1631 186.779 15.2881 186.779 19.9005C186.779 24.513 183.671 27.638 179.677 27.638C175.683 27.638 172.575 24.513 172.575 19.9005ZM184.563 19.9005C184.563 16.4787 182.343 14.2474 179.68 14.2474C177.016 14.2474 174.797 16.4787 174.797 19.9005C174.797 23.3224 177.016 25.5536 179.68 25.5536C182.343 25.5536 184.563 23.3224 184.563 19.9005Z" fill="white"/>
<path d="M188.706 23.0256C188.706 20.1975 190.481 18.2632 194.624 18.2632H198.618V17.8163C198.618 15.5851 197.287 14.2445 195.065 14.2445C192.843 14.2445 191.513 15.4351 191.366 16.7726H189.147C189.296 14.3914 191.366 12.1602 195.068 12.1602C198.77 12.1602 200.84 14.2445 200.84 17.8133V27.3351H198.916L198.621 25.5507H198.472C198.472 25.5507 197.138 27.635 193.884 27.635C190.63 27.635 188.706 25.7007 188.706 23.0226V23.0256ZM198.621 20.9413V20.3475H194.627C191.963 20.3475 190.928 21.5381 190.928 23.0256C190.928 24.5131 191.963 25.5538 193.887 25.5538C196.846 25.5538 198.621 23.7694 198.621 20.9413Z" fill="white"/>
<path d="M204.243 12.4601H206.167L206.462 13.9476H206.612C207.202 13.0539 207.796 12.4601 209.424 12.4601H211.939V14.5444H209.72C207.647 14.5444 206.466 15.735 206.466 17.8163V27.3381H204.246V12.4601H204.243Z" fill="white"/>
<path d="M212.088 19.9007C212.088 15.2882 215.047 12.1632 218.895 12.1632C220.968 12.1632 222.447 13.057 223.632 14.5445H223.781V6.51013H226V27.3412H224.076L223.781 25.2569H223.632C222.447 26.7444 220.968 27.6381 218.895 27.6381C215.047 27.6381 212.088 24.5132 212.088 19.9007ZM223.778 19.9007C223.778 16.4788 221.559 14.2476 219.041 14.2476C216.523 14.2476 214.304 16.4788 214.304 19.9007C214.304 23.3225 216.523 25.5538 219.041 25.5538C221.559 25.5538 223.778 23.3225 223.778 19.9007Z" fill="white"/>
</svg>
