<svg width="119" height="32" viewBox="0 0 119 32" fill="none" xmlns="http://www.w3.org/2000/svg">
<path d="M28.8907 11.1975C27.6646 10.5031 26.2972 10.1559 24.7885 10.1559C23.2797 10.1559 21.8844 10.5031 20.6582 11.1975C19.4321 11.8918 18.4562 12.8396 17.7306 14.0408C17.0035 15.242 16.6414 16.6131 16.6414 18.1512C16.6414 19.6893 17.0035 21.0604 17.7306 22.2616C18.4562 23.4628 19.4365 24.4105 20.673 25.1049C21.9079 25.7992 23.2797 26.1464 24.7885 26.1464C26.2972 26.1464 27.6366 25.7992 28.8627 25.1049C30.0889 24.4105 31.0692 23.4628 31.8051 22.2616C32.5411 21.0604 32.9091 19.6907 32.9091 18.1512C32.9091 16.6116 32.5455 15.2185 31.8198 14.0276C31.0942 12.8352 30.1183 11.8933 28.8922 11.1975H28.8907ZM28.48 20.5301C28.1121 21.2347 27.6131 21.7826 26.9802 22.1766C26.3487 22.5707 25.6172 22.7684 24.787 22.7684C23.9568 22.7684 23.1929 22.5707 22.5526 22.1766C21.9108 21.7826 21.4074 21.2332 21.0395 20.5301C20.6715 19.827 20.4875 19.033 20.4875 18.1512C20.4875 17.2693 20.6715 16.4578 21.0395 15.7722C21.4074 15.0881 21.9108 14.5432 22.5526 14.1389C23.1929 13.7361 23.9392 13.5339 24.787 13.5339C25.6348 13.5339 26.3472 13.7361 26.9802 14.1389C27.6116 14.5432 28.1121 15.0867 28.48 15.7722C28.848 16.4578 29.032 17.2503 29.032 18.1512C29.032 19.0521 28.848 19.827 28.48 20.5301Z" fill="#F0EBD8"/>
<path d="M46.339 12.258C45.8547 11.6853 45.2954 11.2224 44.6551 10.8737C43.7779 10.3947 42.7637 10.1559 41.6141 10.1559C40.1996 10.1559 38.9352 10.4797 37.8239 11.1271C36.7111 11.7746 35.8339 12.6609 35.1936 13.7873C34.5518 14.9138 34.2324 16.1985 34.2324 17.6443C34.2324 19.0902 34.5533 20.3573 35.1936 21.5013C35.8339 22.6468 36.7214 23.5477 37.8534 24.204C38.9853 24.8617 40.2673 25.1898 41.701 25.1898C42.8329 25.1898 43.8411 24.9555 44.7272 24.4852C45.2645 24.2011 45.7355 23.8319 46.1418 23.3807V25.0478C46.1418 25.7992 45.9813 26.4408 45.6604 26.9755C45.3396 27.5102 44.8921 27.9189 44.3166 28.2001C43.7411 28.4814 43.0757 28.622 42.3221 28.622C41.3418 28.622 40.5161 28.4008 39.8463 27.9599C39.1766 27.519 38.7292 26.9418 38.5025 26.2284L35.0508 27.5234C35.3717 28.4243 35.8854 29.208 36.5919 29.8745C37.2999 30.541 38.1433 31.061 39.1236 31.4375C40.1039 31.8125 41.1696 32 42.3206 32C43.7911 32 45.0879 31.6997 46.2095 31.0991C47.3311 30.4985 48.2186 29.6723 48.8692 28.622C49.5198 27.5703 49.8451 26.3793 49.8451 25.0463V10.4914H46.3375V12.2551L46.339 12.258ZM45.631 19.8123C45.291 20.432 44.8244 20.9154 44.2312 21.2625C43.6365 21.6097 42.9433 21.7826 42.1514 21.7826C41.3595 21.7826 40.6559 21.6039 40.0436 21.2479C39.4313 20.8919 38.9499 20.4041 38.6011 19.7845C38.2522 19.1649 38.0786 18.4617 38.0786 17.6736C38.0786 16.8855 38.2522 16.1765 38.6011 15.5481C38.9499 14.9197 39.4357 14.426 40.0583 14.0701C40.6809 13.7141 41.3786 13.5354 42.1514 13.5354C42.9241 13.5354 43.6086 13.7141 44.2018 14.0701C44.7964 14.4275 45.2674 14.9197 45.6163 15.5481C45.9651 16.1765 46.1403 16.8855 46.1403 17.6736C46.1403 18.4617 45.971 19.1942 45.631 19.8138V19.8123Z" fill="#F0EBD8"/>
<path d="M64.2453 11.2253C63.0765 10.5119 61.7651 10.156 60.3137 10.156C59.1259 10.156 58.0794 10.3859 57.1741 10.8459C56.5574 11.1594 56.0319 11.5593 55.5903 12.0412V4.49719H51.884V25.8095H55.3637V24.0736C55.8612 24.6654 56.4764 25.1371 57.2168 25.4858C58.15 25.9267 59.173 26.1479 60.2858 26.1479C61.7754 26.1479 63.1045 25.7963 64.2747 25.0917C65.4434 24.3886 66.3678 23.4262 67.0463 22.2059C67.7249 20.9857 68.0649 19.6351 68.0649 18.1512C68.0649 16.6673 67.7205 15.2991 67.0331 14.0964C66.3442 12.8953 65.4154 11.9387 64.2467 11.2253H64.2453ZM63.6653 20.5448C63.2973 21.2391 62.7836 21.7841 62.1242 22.1781C61.4633 22.5722 60.7097 22.7699 59.8619 22.7699C59.014 22.7699 58.3208 22.5722 57.6687 22.1781C57.0181 21.7841 56.5088 21.2391 56.1408 20.5448C55.7729 19.8504 55.5889 19.0521 55.5889 18.1512C55.5889 17.2503 55.7729 16.4769 56.1408 15.7723C56.5088 15.0677 57.0181 14.5198 57.6687 14.1257C58.3193 13.7317 59.0494 13.5339 59.8619 13.5339C60.6744 13.5339 61.4648 13.7361 62.1242 14.1389C62.7836 14.5432 63.2988 15.0867 63.6653 15.7723C64.0333 16.4578 64.2173 17.2503 64.2173 18.1512C64.2173 19.0521 64.0333 19.8504 63.6653 20.5448Z" fill="#F0EBD8"/>
<path d="M81.6478 11.1975C80.4217 10.5031 79.0543 10.1559 77.5455 10.1559C76.0368 10.1559 74.6414 10.5031 73.4153 11.1975C72.1892 11.8918 71.2133 12.8396 70.4877 14.0408C69.7605 15.242 69.3984 16.6131 69.3984 18.1512C69.3984 19.6893 69.762 21.0604 70.4877 22.2616C71.2133 23.4628 72.1936 24.4105 73.43 25.1049C74.665 25.7992 76.0368 26.1464 77.5455 26.1464C79.0543 26.1464 80.3937 25.7992 81.6184 25.1049C82.8445 24.4105 83.8248 23.4628 84.5607 22.2616C85.2967 21.0604 85.6647 19.6907 85.6647 18.1512C85.6647 16.6116 85.3011 15.2185 84.5754 14.0276C83.8498 12.8352 82.8739 11.8933 81.6478 11.1975ZM81.2371 20.5301C80.8691 21.2347 80.3702 21.7826 79.7372 22.1766C79.1058 22.5707 78.3742 22.7684 77.5441 22.7684C76.7139 22.7684 75.95 22.5707 75.3097 22.1766C74.6679 21.7826 74.1645 21.2332 73.7965 20.5301C73.4286 19.827 73.2446 19.033 73.2446 18.1512C73.2446 17.2693 73.4286 16.4578 73.7965 15.7722C74.1645 15.0881 74.6679 14.5432 75.3097 14.1389C75.95 13.7361 76.6962 13.5339 77.5441 13.5339C78.3919 13.5339 79.1043 13.7361 79.7372 14.1389C80.3687 14.5432 80.8691 15.0867 81.2371 15.7722C81.6051 16.4578 81.7891 17.2503 81.7891 18.1512C81.7891 19.0521 81.6051 19.827 81.2371 20.5301Z" fill="#F0EBD8"/>
<path d="M99.2957 11.1975C98.0696 10.5031 96.7022 10.1559 95.1935 10.1559C93.6848 10.1559 92.2894 10.5031 91.0633 11.1975C89.8372 11.8918 88.8613 12.8396 88.1356 14.0408C87.4085 15.242 87.0464 16.6131 87.0464 18.1512C87.0464 19.6893 87.4099 21.0604 88.1356 22.2616C88.8613 23.4628 89.8416 24.4105 91.078 25.1049C92.3129 25.7992 93.6848 26.1464 95.1935 26.1464C96.7022 26.1464 98.0417 25.7992 99.2678 25.1049C100.494 24.4105 101.474 23.4628 102.21 22.2616C102.946 21.0604 103.314 19.6907 103.314 18.1512C103.314 16.6116 102.951 15.2185 102.225 14.0276C101.499 12.8352 100.523 11.8933 99.2972 11.1975H99.2957ZM98.8865 20.5301C98.5186 21.2347 98.0196 21.7826 97.3867 22.1766C96.7552 22.5707 96.0236 22.7684 95.1935 22.7684C94.3633 22.7684 93.5994 22.5707 92.9591 22.1766C92.3173 21.7826 91.814 21.2332 91.446 20.5301C91.078 19.827 90.894 19.033 90.894 18.1512C90.894 17.2693 91.078 16.4578 91.446 15.7722C91.814 15.0881 92.3173 14.5432 92.9591 14.1389C93.5994 13.7361 94.3457 13.5339 95.1935 13.5339C96.0413 13.5339 96.7537 13.7361 97.3867 14.1389C98.0181 14.5432 98.5186 15.0867 98.8865 15.7722C99.2545 16.4578 99.4385 17.2503 99.4385 18.1512C99.4385 19.0521 99.2545 19.827 98.8865 20.5301Z" fill="#F0EBD8"/>
<path d="M114.621 25.8095H118.865L113.066 16.66L118.752 10.4943H114.14L108.313 16.5662V4.49719H104.606V25.8095H108.313V21.1351L110.306 19.0067L114.621 25.8095Z" fill="#F0EBD8"/>
<path d="M15.6348 11.0744C18.845 9.62416 22.8413 6.22714 22.8413 0.0585946H19.2219C19.2219 3.53325 17.4997 5.60896 15.835 6.80429C15.8482 6.64169 15.86 6.47909 15.86 6.3121C15.8615 2.83158 13.0133 0 9.51452 0C6.01575 0 3.16758 2.83305 3.16758 6.31649C3.16758 9.79994 6.01428 12.633 9.51452 12.633C10.2991 12.633 11.0468 12.4836 11.7415 12.2243C10.6729 16.115 7.31399 18.9964 0 22.7449L0.828693 26.1478H14.5927V22.5457H7.57894C12.2126 19.4461 15.0342 16.0329 15.6377 11.0744H15.6348ZM9.51452 9.03089C8.01021 9.03089 6.78704 7.81359 6.78704 6.31649C6.78704 4.8194 8.01021 3.6021 9.51452 3.6021C11.0188 3.6021 12.242 4.81794 12.242 6.3121C12.242 7.80626 11.0188 9.03089 9.51452 9.03089Z" fill="#F0EBD8"/>
</svg>
