<svg width="1312" height="266" viewBox="0 0 1312 266" fill="none" xmlns="http://www.w3.org/2000/svg">
<path d="M233 241.846H268.84C280.979 241.846 290.807 232.07 290.807 219.418C290.807 206.191 280.979 201.591 280.979 201.591V201.016C280.979 201.016 289.65 195.84 289.65 183.763C289.65 171.111 279.823 161.335 267.684 161.335H233V241.846ZM242.249 233.22V205.616H268.84C275.777 205.616 281.557 211.367 281.557 219.418C281.557 227.469 275.777 233.22 268.84 233.22H242.249ZM242.249 197.565V169.961H267.684C274.621 169.961 280.401 175.712 280.401 183.763C280.401 191.814 274.621 197.565 267.684 197.565H242.249Z" fill="#FEF9EF"/>
<path d="M304.639 241.846H313.31V205.041C313.31 196.99 317.935 192.389 326.028 192.389H334.699V184.338H324.872C318.513 184.338 316.201 186.639 313.888 190.089H313.31L312.154 184.338H304.639V241.846Z" fill="#FEF9EF"/>
<path d="M358.436 242.996C371.153 242.996 376.356 234.945 376.356 234.945H376.934L378.09 241.846H385.605V205.041C385.605 191.239 376.934 183.188 363.06 183.188C348.609 183.188 340.516 191.814 339.938 201.016H348.609C349.187 195.84 354.389 191.239 363.06 191.239C371.731 191.239 376.934 196.415 376.934 205.041V206.766H361.326C345.14 206.766 338.203 214.242 338.203 225.169C338.203 235.52 346.296 242.996 358.436 242.996ZM358.436 234.945C350.921 234.945 346.874 230.92 346.874 225.169C346.874 219.418 350.921 214.817 361.326 214.817H376.934V217.118C376.934 228.044 369.997 234.945 358.436 234.945Z" fill="#FEF9EF"/>
<path d="M425.523 266C441.709 266 451.536 256.223 451.536 241.846V184.338H444.021L442.865 191.814H442.287C438.24 186.639 431.303 183.188 423.789 183.188C408.759 183.188 397.198 194.69 397.198 211.367C397.198 228.044 408.759 239.546 423.789 239.546C431.303 239.546 437.662 236.671 442.287 231.495H442.865V241.846C442.865 251.623 435.928 257.949 425.523 257.949C414.54 257.949 408.759 252.198 408.181 246.447H399.51C400.088 256.223 409.337 266 425.523 266ZM424.367 231.495C413.962 231.495 405.869 223.444 405.869 211.367C405.869 199.29 413.962 191.239 424.367 191.239C434.772 191.239 442.865 199.29 442.865 211.367C442.865 223.444 434.772 231.495 424.367 231.495Z" fill="#FEF9EF"/>
<path d="M484.495 242.996C497.212 242.996 502.415 234.945 502.415 234.945H502.993L504.149 241.846H511.664V205.041C511.664 191.239 502.993 183.188 489.119 183.188C474.667 183.188 466.575 191.814 465.996 201.016H474.667C475.245 195.84 480.448 191.239 489.119 191.239C497.79 191.239 502.993 196.415 502.993 205.041V206.766H487.385C471.199 206.766 464.262 214.242 464.262 225.169C464.262 235.52 472.355 242.996 484.495 242.996ZM484.495 234.945C476.98 234.945 472.933 230.92 472.933 225.169C472.933 219.418 476.98 214.817 487.385 214.817H502.993V217.118C502.993 228.044 496.056 234.945 484.495 234.945Z" fill="#FEF9EF"/>
<path d="M549.848 241.846H556.784V168.236H584.531V161.335H522.1V168.236H549.848V241.846Z" fill="#FEF9EF"/>
<path d="M612.283 242.996C627.313 242.996 634.25 233.335 637.14 225.744H629.625C627.313 230.345 621.532 236.095 612.283 236.095C601.878 236.095 593.207 228.619 592.051 216.543H638.527C638.527 216.543 638.874 214.817 638.874 211.942C638.874 194.69 627.313 183.188 612.283 183.188C596.675 183.188 585.114 194.69 585.114 213.092C585.114 231.495 596.675 242.996 612.283 242.996ZM592.051 209.642C593.207 197.565 601.3 190.089 612.283 190.089C623.266 190.089 631.359 198.14 631.937 209.642H592.051Z" fill="#FEF9EF"/>
<path d="M675.256 242.996C687.974 242.996 697.801 235.52 700.691 222.869H693.176C692.02 227.469 686.817 236.095 675.256 236.095C663.695 236.095 655.024 227.469 655.024 213.092C655.024 198.715 663.695 190.089 675.256 190.089C686.817 190.089 692.02 198.14 693.176 202.741H700.691C697.801 190.664 687.974 183.188 675.256 183.188C659.648 183.188 648.087 194.69 648.087 213.092C648.087 231.495 659.648 242.996 675.256 242.996Z" fill="#FEF9EF"/>
<path d="M713.991 241.846H720.928V207.341C720.928 197.565 728.443 190.089 738.848 190.089C748.675 190.089 755.612 196.99 755.612 207.341V241.846H762.548V207.341C762.548 192.964 752.721 183.188 739.426 183.188C726.708 183.188 721.506 191.814 721.506 191.814H720.928V161.335H713.991V241.846Z" fill="#FEF9EF"/>
<path d="M779.886 241.846H786.823V207.341C786.823 197.565 794.338 190.089 804.743 190.089C814.57 190.089 821.507 196.99 821.507 207.341V241.846H828.443V207.341C828.443 192.964 818.616 183.188 805.321 183.188C792.603 183.188 787.401 191.814 787.401 191.814H786.823L785.667 184.338H779.886V241.846Z" fill="#FEF9EF"/>
<path d="M868.917 242.996C883.947 242.996 896.086 230.92 896.086 213.092C896.086 195.265 883.947 183.188 868.917 183.188C853.887 183.188 841.748 195.265 841.748 213.092C841.748 230.92 853.887 242.996 868.917 242.996ZM868.917 236.095C857.934 236.095 848.685 226.894 848.685 213.092C848.685 199.29 857.934 190.089 868.917 190.089C879.9 190.089 889.149 199.29 889.149 213.092C889.149 226.894 879.9 236.095 868.917 236.095Z" fill="#FEF9EF"/>
<path d="M909.91 241.846H916.847V161.335H909.91V241.846Z" fill="#FEF9EF"/>
<path d="M957.943 242.996C972.973 242.996 985.113 230.92 985.113 213.092C985.113 195.265 972.973 183.188 957.943 183.188C942.914 183.188 930.774 195.265 930.774 213.092C930.774 230.92 942.914 242.996 957.943 242.996ZM957.943 236.095C946.96 236.095 937.711 226.894 937.711 213.092C937.711 199.29 946.96 190.089 957.943 190.089C968.927 190.089 978.176 199.29 978.176 213.092C978.176 226.894 968.927 236.095 957.943 236.095Z" fill="#FEF9EF"/>
<path d="M1022.06 266C1037.67 266 1047.49 256.223 1047.49 241.846V184.338H1041.71L1040.56 193.539H1039.98C1037.67 190.089 1031.31 183.188 1020.32 183.188C1005.87 183.188 994.312 194.69 994.312 211.367C994.312 228.044 1005.87 239.546 1020.32 239.546C1031.31 239.546 1037.67 232.645 1039.98 229.194H1040.56V241.846C1040.56 252.198 1033.62 259.099 1022.06 259.099C1010.5 259.099 1004.72 253.348 1004.14 246.447H997.202C998.012 256.798 1007.03 266 1022.06 266ZM1020.9 232.645C1009.92 232.645 1001.25 224.019 1001.25 211.367C1001.25 198.715 1009.92 190.089 1020.9 190.089C1031.89 190.089 1040.56 198.715 1040.56 211.367C1040.56 224.019 1031.89 232.645 1020.9 232.645Z" fill="#FEF9EF"/>
<path d="M1065.41 241.846H1072.35V184.338H1065.41V241.846ZM1064.83 171.111H1072.92V163.06H1064.83V171.111Z" fill="#FEF9EF"/>
<path d="M1113.44 242.996C1128.47 242.996 1135.41 233.335 1138.3 225.744H1130.78C1128.47 230.345 1122.69 236.095 1113.44 236.095C1103.04 236.095 1094.37 228.619 1093.21 216.543H1139.69C1139.69 216.543 1140.03 214.817 1140.03 211.942C1140.03 194.69 1128.47 183.188 1113.44 183.188C1097.84 183.188 1086.27 194.69 1086.27 213.092C1086.27 231.495 1097.84 242.996 1113.44 242.996ZM1093.21 209.642C1094.37 197.565 1102.46 190.089 1113.44 190.089C1124.43 190.089 1132.52 198.14 1133.1 209.642H1093.21Z" fill="#FEF9EF"/>
<path d="M1171.21 242.996C1185.67 242.996 1193.18 235.52 1193.18 226.319C1193.18 217.693 1188.56 212.977 1177.57 210.792L1166.01 208.492C1159.65 207.226 1156.76 203.891 1156.76 199.29C1156.76 194.69 1161.39 190.089 1170.64 190.089C1180.46 190.089 1185.67 195.265 1185.67 201.016H1192.6C1192.6 191.239 1184.51 183.188 1170.64 183.188C1157.34 183.188 1149.83 190.664 1149.83 199.29C1149.83 208.492 1155.03 213.092 1164.85 215.048L1176.42 217.348C1183.35 218.728 1186.24 221.718 1186.24 226.319C1186.24 231.495 1181.62 236.095 1171.21 236.095C1161.27 236.095 1155.26 231.035 1155.26 225.169H1148.67C1148.67 234.37 1157.46 242.996 1171.21 242.996Z" fill="#FEF9EF"/>
<path d="M7.92 105V28H17.82L58.19 88.61V28H68.09V105H58.19L17.82 44.28V105H7.92ZM101.035 106.32C96.6347 106.32 92.9314 105.587 89.9247 104.12C86.918 102.58 84.6447 100.563 83.1047 98.07C81.638 95.5033 80.9047 92.79 80.9047 89.93C80.9047 83.99 83.0314 79.48 87.2847 76.4C91.6114 73.2467 97.258 71.67 104.225 71.67C107.305 71.67 110.091 71.89 112.585 72.33C115.078 72.77 117.131 73.2833 118.745 73.87V71.45C118.745 66.7567 117.498 63.2367 115.005 60.89C112.585 58.47 109.321 57.26 105.215 57.26C101.841 57.26 98.908 57.9567 96.4147 59.35C93.9947 60.7433 92.4914 63.09 91.9047 66.39H82.0047C82.4447 62.5033 83.7647 59.2767 85.9647 56.71C88.238 54.1433 91.0614 52.2367 94.4347 50.99C97.808 49.7433 101.401 49.12 105.215 49.12C112.988 49.12 118.818 51.1733 122.705 55.28C126.665 59.3133 128.645 64.7033 128.645 71.45V87.84C128.645 90.48 128.791 92.4233 129.085 93.67C129.451 94.9167 130.038 95.6867 130.845 95.98C131.651 96.2733 132.751 96.42 134.145 96.42H134.915V105H132.825C129.231 105 126.298 104.413 124.025 103.24C121.751 102.067 120.211 99.72 119.405 96.2C117.718 99.06 115.371 101.48 112.365 103.46C109.431 105.367 105.655 106.32 101.035 106.32ZM102.575 98.29C105.801 98.29 108.551 97.4833 110.825 95.87C113.171 94.2567 115.005 92.13 116.325 89.49C117.645 86.85 118.378 84.0633 118.525 81.13C116.838 80.6167 114.785 80.1767 112.365 79.81C109.945 79.37 107.525 79.15 105.105 79.15C100.118 79.15 96.488 80.14 94.2147 82.12C92.0147 84.0267 90.9147 86.4467 90.9147 89.38C90.9147 91.9467 91.9047 94.0733 93.8847 95.76C95.938 97.4467 98.8347 98.29 102.575 98.29ZM154.257 105L133.577 50.44H144.027L160.087 95.54L176.147 50.44H186.377L165.807 105H154.257ZM198.131 105V50.44H208.031V105H198.131ZM197.031 39.99V27.89H209.021V39.99H197.031ZM249.061 130.52C244.294 130.52 239.931 129.677 235.971 127.99C232.011 126.377 228.674 123.993 225.961 120.84C223.321 117.76 221.634 113.983 220.901 109.51H230.691C231.718 113.177 233.881 116.147 237.181 118.42C240.554 120.767 244.478 121.94 248.951 121.94C252.471 121.94 255.624 121.17 258.411 119.63C261.198 118.163 263.398 115.927 265.011 112.92C266.698 109.987 267.541 106.357 267.541 102.03V94.22C266.368 96.2 264.791 98.1067 262.811 99.94C260.904 101.7 258.594 103.167 255.881 104.34C253.241 105.44 250.161 105.99 246.641 105.99C241.508 105.99 236.851 104.743 232.671 102.25C228.491 99.7567 225.191 96.3833 222.771 92.13C220.351 87.8033 219.141 82.9267 219.141 77.5C219.141 72 220.351 67.1233 222.771 62.87C225.191 58.6167 228.491 55.28 232.671 52.86C236.851 50.3667 241.508 49.12 246.641 49.12C251.408 49.12 255.588 50.1833 259.181 52.31C262.848 54.4367 265.634 56.9667 267.541 59.9V50.44H277.441V101.7C277.441 107.713 276.194 112.847 273.701 117.1C271.281 121.427 267.908 124.727 263.581 127C259.328 129.347 254.488 130.52 249.061 130.52ZM248.181 97.41C251.848 97.41 255.111 96.5667 257.971 94.88C260.831 93.1933 263.068 90.8467 264.681 87.84C266.294 84.8333 267.101 81.3867 267.101 77.5C267.101 73.54 266.294 70.0933 264.681 67.16C263.068 64.1533 260.831 61.8433 257.971 60.23C255.111 58.5433 251.848 57.7 248.181 57.7C244.588 57.7 241.361 58.5433 238.501 60.23C235.641 61.8433 233.368 64.1533 231.681 67.16C230.068 70.0933 229.261 73.54 229.261 77.5C229.261 81.3133 230.068 84.76 231.681 87.84C233.368 90.8467 235.641 93.1933 238.501 94.88C241.361 96.5667 244.588 97.41 248.181 97.41ZM308.814 106.32C304.414 106.32 300.711 105.587 297.704 104.12C294.697 102.58 292.424 100.563 290.884 98.07C289.417 95.5033 288.684 92.79 288.684 89.93C288.684 83.99 290.811 79.48 295.064 76.4C299.391 73.2467 305.037 71.67 312.004 71.67C315.084 71.67 317.871 71.89 320.364 72.33C322.857 72.77 324.911 73.2833 326.524 73.87V71.45C326.524 66.7567 325.277 63.2367 322.784 60.89C320.364 58.47 317.101 57.26 312.994 57.26C309.621 57.26 306.687 57.9567 304.194 59.35C301.774 60.7433 300.271 63.09 299.684 66.39H289.784C290.224 62.5033 291.544 59.2767 293.744 56.71C296.017 54.1433 298.841 52.2367 302.214 50.99C305.587 49.7433 309.181 49.12 312.994 49.12C320.767 49.12 326.597 51.1733 330.484 55.28C334.444 59.3133 336.424 64.7033 336.424 71.45V87.84C336.424 90.48 336.571 92.4233 336.864 93.67C337.231 94.9167 337.817 95.6867 338.624 95.98C339.431 96.2733 340.531 96.42 341.924 96.42H342.694V105H340.604C337.011 105 334.077 104.413 331.804 103.24C329.531 102.067 327.991 99.72 327.184 96.2C325.497 99.06 323.151 101.48 320.144 103.46C317.211 105.367 313.434 106.32 308.814 106.32ZM310.354 98.29C313.581 98.29 316.331 97.4833 318.604 95.87C320.951 94.2567 322.784 92.13 324.104 89.49C325.424 86.85 326.157 84.0633 326.304 81.13C324.617 80.6167 322.564 80.1767 320.144 79.81C317.724 79.37 315.304 79.15 312.884 79.15C307.897 79.15 304.267 80.14 301.994 82.12C299.794 84.0267 298.694 86.4467 298.694 89.38C298.694 91.9467 299.684 94.0733 301.664 95.76C303.717 97.4467 306.614 98.29 310.354 98.29ZM369.883 105C366.803 105 364.2 104.633 362.073 103.9C359.947 103.093 358.333 101.627 357.233 99.5C356.207 97.3733 355.693 94.3667 355.693 90.48V58.8H346.233V50.44H355.693V37.13H365.593V50.44H380.993V58.8H365.593V88.94C365.593 91.2867 365.777 93.01 366.143 94.11C366.51 95.21 367.28 95.9067 368.453 96.2C369.627 96.42 371.313 96.53 373.513 96.53H380.223V105H369.883ZM413.557 106.32C408.277 106.32 403.583 105.147 399.477 102.8C395.443 100.38 392.253 97.0433 389.907 92.79C387.633 88.5367 386.497 83.55 386.497 77.83C386.497 72.0367 387.633 67.0133 389.907 62.76C392.18 58.4333 395.37 55.0967 399.477 52.75C403.583 50.33 408.313 49.12 413.667 49.12C419.02 49.12 423.603 50.33 427.417 52.75C431.303 55.0967 434.273 58.2133 436.327 62.1C438.453 65.9867 439.517 70.24 439.517 74.86C439.517 75.5933 439.517 76.4 439.517 77.28C439.517 78.0867 439.48 78.9667 439.407 79.92H393.867V72.66H429.727C429.507 67.8933 427.857 64.1533 424.777 61.44C421.77 58.7267 417.993 57.37 413.447 57.37C410.367 57.37 407.507 58.0667 404.867 59.46C402.227 60.78 400.1 62.7967 398.487 65.51C396.947 68.15 396.177 71.45 396.177 75.41V78.38C396.177 82.7067 396.983 86.3367 398.597 89.27C400.21 92.2033 402.337 94.4033 404.977 95.87C407.617 97.3367 410.44 98.07 413.447 98.07C417.113 98.07 420.193 97.2267 422.687 95.54C425.18 93.8533 427.013 91.5433 428.187 88.61H437.977C437.023 91.91 435.447 94.9167 433.247 97.63C431.047 100.343 428.26 102.47 424.887 104.01C421.587 105.55 417.81 106.32 413.557 106.32ZM487.528 105V28H499.078L529.438 96.2L524.818 96.42L554.738 28H566.398V105H556.498V37.68L560.018 38.67L530.868 105H523.278L493.798 38.67L497.428 37.68V105H487.528ZM600.999 106.32C595.059 106.32 590.219 104.34 586.479 100.38C582.739 96.42 580.869 90.3333 580.869 82.12V50.44H590.769V81.13C590.769 86.7033 591.869 90.8833 594.069 93.67C596.342 96.4567 599.459 97.85 603.419 97.85C608.039 97.85 611.669 96.2 614.309 92.9C616.949 89.5267 618.269 84.7967 618.269 78.71V50.44H628.169V105H618.269V96.2C616.656 99.3533 614.346 101.847 611.339 103.68C608.406 105.44 604.959 106.32 600.999 106.32ZM660.089 105C657.009 105 654.405 104.633 652.279 103.9C650.152 103.093 648.539 101.627 647.439 99.5C646.412 97.3733 645.899 94.3667 645.899 90.48V58.8H636.439V50.44H645.899V37.13H655.799V50.44H671.199V58.8H655.799V88.94C655.799 91.2867 655.982 93.01 656.349 94.11C656.715 95.21 657.485 95.9067 658.659 96.2C659.832 96.42 661.519 96.53 663.719 96.53H670.429V105H660.089ZM701.29 106.32C695.35 106.32 690.51 104.34 686.77 100.38C683.03 96.42 681.16 90.3333 681.16 82.12V50.44H691.06V81.13C691.06 86.7033 692.16 90.8833 694.36 93.67C696.633 96.4567 699.75 97.85 703.71 97.85C708.33 97.85 711.96 96.2 714.6 92.9C717.24 89.5267 718.56 84.7967 718.56 78.71V50.44H728.46V105H718.56V96.2C716.947 99.3533 714.637 101.847 711.63 103.68C708.697 105.44 705.25 106.32 701.29 106.32ZM759.5 106.32C755.1 106.32 751.396 105.587 748.39 104.12C745.383 102.58 743.11 100.563 741.57 98.07C740.103 95.5033 739.37 92.79 739.37 89.93C739.37 83.99 741.496 79.48 745.75 76.4C750.076 73.2467 755.723 71.67 762.69 71.67C765.77 71.67 768.556 71.89 771.05 72.33C773.543 72.77 775.596 73.2833 777.21 73.87V71.45C777.21 66.7567 775.963 63.2367 773.47 60.89C771.05 58.47 767.786 57.26 763.68 57.26C760.306 57.26 757.373 57.9567 754.88 59.35C752.46 60.7433 750.956 63.09 750.37 66.39H740.47C740.91 62.5033 742.23 59.2767 744.43 56.71C746.703 54.1433 749.526 52.2367 752.9 50.99C756.273 49.7433 759.866 49.12 763.68 49.12C771.453 49.12 777.283 51.1733 781.17 55.28C785.13 59.3133 787.11 64.7033 787.11 71.45V87.84C787.11 90.48 787.256 92.4233 787.55 93.67C787.916 94.9167 788.503 95.6867 789.31 95.98C790.116 96.2733 791.216 96.42 792.61 96.42H793.38V105H791.29C787.696 105 784.763 104.413 782.49 103.24C780.216 102.067 778.676 99.72 777.87 96.2C776.183 99.06 773.836 101.48 770.83 103.46C767.896 105.367 764.12 106.32 759.5 106.32ZM761.04 98.29C764.266 98.29 767.016 97.4833 769.29 95.87C771.636 94.2567 773.47 92.13 774.79 89.49C776.11 86.85 776.843 84.0633 776.99 81.13C775.303 80.6167 773.25 80.1767 770.83 79.81C768.41 79.37 765.99 79.15 763.57 79.15C758.583 79.15 754.953 80.14 752.68 82.12C750.48 84.0267 749.38 86.4467 749.38 89.38C749.38 91.9467 750.37 94.0733 752.35 95.76C754.403 97.4467 757.3 98.29 761.04 98.29ZM804.245 105V25.8H814.145V105H804.245ZM828.556 105V25.8H838.456V105H828.556ZM849.927 129.2V121.06H861.037C862.064 121.06 862.907 120.877 863.567 120.51C864.301 120.217 864.997 119.52 865.657 118.42C866.317 117.32 867.124 115.67 868.077 113.47L874.237 99.94L873.357 105.11L849.487 50.44H860.157L877.867 92.35L896.567 50.44H906.907L877.317 116.11C875.997 119.043 874.861 121.39 873.907 123.15C872.954 124.91 872.037 126.193 871.157 127C870.351 127.88 869.397 128.467 868.297 128.76C867.271 129.053 865.914 129.2 864.227 129.2H849.927ZM20.68 237L4.73 182.44H14.63L27.06 229.3L24.53 229.19L38.72 182.44H49.94L64.13 229.19L61.6 229.3L74.03 182.44H83.93L67.98 237H57.86L43.01 188.16H45.65L30.8 237H20.68ZM94.7243 237V182.44H104.624V237H94.7243ZM93.6243 171.99V159.89H105.614V171.99H93.6243ZM137.075 237C133.995 237 131.392 236.633 129.265 235.9C127.138 235.093 125.525 233.627 124.425 231.5C123.398 229.373 122.885 226.367 122.885 222.48V190.8H113.425V182.44H122.885V169.13H132.785V182.44H148.185V190.8H132.785V220.94C132.785 223.287 132.968 225.01 133.335 226.11C133.702 227.21 134.472 227.907 135.645 228.2C136.818 228.42 138.505 228.53 140.705 228.53H147.415V237H137.075ZM158.586 237V157.8H168.486V191.68C170.32 188.38 172.886 185.813 176.186 183.98C179.56 182.073 183.226 181.12 187.186 181.12C193.566 181.12 198.626 183.1 202.366 187.06C206.18 191.02 208.086 197.107 208.086 205.32V237H198.296V206.31C198.296 200.737 197.16 196.557 194.886 193.77C192.686 190.983 189.35 189.59 184.876 189.59C180.256 189.59 176.37 191.277 173.216 194.65C170.063 197.95 168.486 202.643 168.486 208.73V237H158.586Z" fill="#FCE6C5"/>
<path d="M1235 154C1227.63 154 1220.88 156.669 1215.65 161.1C1214.34 162.194 1213.14 163.422 1212.02 164.73C1207.64 169.961 1205 176.687 1205 184C1205 190.219 1206.89 196.011 1210.15 200.788C1211.25 202.39 1212.47 203.884 1213.83 205.246C1219.25 210.664 1226.75 214 1235 214C1251.55 214 1265 200.548 1265 184C1265 167.452 1251.55 154 1235 154ZM1209.8 184C1209.8 177.354 1212.39 171.322 1216.61 166.811L1229.5 172.657C1229.96 172.87 1230.22 173.297 1230.22 173.778V176.447C1230.22 176.98 1229.85 177.488 1229.34 177.648L1226.17 178.582C1224.48 179.062 1223.36 180.584 1223.36 182.319C1223.36 184.053 1224.48 185.575 1226.14 186.082L1240.23 190.352C1240.77 190.512 1241.11 190.993 1241.11 191.527V196.438C1241.11 197.078 1240.63 197.612 1239.99 197.665L1215.73 200.174C1212.02 195.824 1209.8 190.165 1209.8 184ZM1235 209.196C1229.58 209.196 1224.56 207.461 1220.43 204.552L1240.47 202.47C1243.57 202.149 1245.89 199.56 1245.89 196.464V191.553C1245.89 188.884 1244.15 186.536 1241.59 185.762L1230.33 182.345L1230.68 182.238C1233.21 181.491 1235 179.116 1235 176.447V173.778C1235 171.402 1233.61 169.267 1231.45 168.279L1220.59 163.342C1224.67 160.486 1229.64 158.804 1235 158.804C1248.91 158.804 1260.2 170.094 1260.2 184C1260.2 197.906 1248.91 209.196 1235 209.196Z" fill="#FEF9EF" stroke="#FEF9EF"/>
</svg>
