<svg width="121" height="120" viewBox="0 0 121 120" fill="none" xmlns="http://www.w3.org/2000/svg">
<path d="M33 27.1617V68.897L97.1772 105.808V63.1445L33 27.1617Z" stroke="#F36A1D" stroke-width="1.35406" stroke-linejoin="round"/>
<path d="M33 27.1619L53.8474 15.0001L119.66 53.1071V93.9991L97.1772 105.808V63.1446L33 27.1619Z" stroke="#F36A1D" stroke-width="1.35406" stroke-linejoin="round"/>
<path d="M37.8984 35.6747V65.7589L92.9123 98.2638V66.8458L37.8984 35.6747Z" stroke="#F36A1D" stroke-width="1.35406" stroke-linejoin="round"/>
<path d="M40.7916 73.421V73.421C40.5848 76.7208 42.2942 79.8453 45.1844 81.4507L82.5901 102.228C84.4091 103.238 86.6443 101.923 86.6443 99.8423V99.8423L40.7916 73.421Z" stroke="#F36A1D" stroke-width="1.35406" stroke-linejoin="round"/>
<path d="M96.9805 64.1596L119.999 53.6656" stroke="#F36A1D" stroke-width="1.35406" stroke-linejoin="round"/>
<path d="M45.2941 51.2339L45.4801 59.6049L44.2051 58.7833L44.0519 51.8878L44.0106 51.8613L42.3923 52.0512L42.3614 50.6614L44.0809 50.4522L45.2941 51.2339ZM49.8722 62.5925C49.3063 62.2278 48.8168 61.7445 48.4037 61.1426C47.9928 60.5394 47.6714 59.8447 47.4394 59.0586C47.2096 58.2713 47.0846 57.4212 47.0643 56.5084C47.0463 55.597 47.1379 54.8905 47.339 54.389C47.5424 53.8861 47.8419 53.5957 48.2376 53.5177C48.6357 53.4411 49.1165 53.5845 49.6801 53.9477C50.2437 54.3109 50.732 54.7921 51.145 55.3913C51.558 55.9905 51.8794 56.6811 52.109 57.463C52.341 58.2463 52.4671 59.0931 52.4873 60.0032C52.5076 60.9188 52.4162 61.6307 52.2129 62.139C52.0119 62.646 51.7125 62.9391 51.3145 63.0184C50.9188 63.0992 50.4381 62.9572 49.8722 62.5925ZM49.8437 61.3132C50.2836 61.5966 50.625 61.5628 50.8679 61.2117C51.113 60.8593 51.2243 60.1804 51.202 59.1749C51.1872 58.51 51.1164 57.9137 50.9895 57.3861C50.8626 56.8585 50.6901 56.4115 50.4719 56.0453C50.2537 55.6764 49.9991 55.3982 49.7081 55.2107C49.2705 54.9287 48.9303 54.9646 48.6875 55.3184C48.4447 55.6696 48.3332 56.343 48.353 57.3389C48.3656 58.005 48.4342 58.6025 48.5589 59.1314C48.6858 59.6618 48.8584 60.1114 49.0766 60.4804C49.2948 60.8466 49.5505 61.1242 49.8437 61.3132ZM54.4797 64.4136C54.2712 64.2792 54.0906 64.0769 53.9378 63.8065C53.7849 63.5334 53.7069 63.2736 53.7036 63.0271C53.6959 62.7804 53.7646 62.6178 53.9096 62.5394C54.0546 62.461 54.2314 62.4889 54.4399 62.6233C54.6415 62.7532 54.8187 62.9534 54.9715 63.2237C55.1266 63.4956 55.208 63.7549 55.2158 64.0016C55.2172 64.1663 55.1839 64.2939 55.1159 64.3844C55.0502 64.4764 54.9609 64.5263 54.8482 64.5342C54.7377 64.5409 54.6149 64.5007 54.4797 64.4136ZM54.3875 60.2649C54.179 60.1305 53.9984 59.9281 53.8456 59.6578C53.6927 59.3847 53.6147 59.1249 53.6115 58.8784C53.6037 58.6317 53.6724 58.4691 53.8174 58.3907C53.9624 58.3095 54.1391 58.3361 54.3476 58.4705C54.5492 58.6004 54.7265 58.8019 54.8793 59.075C55.0344 59.3469 55.1158 59.6061 55.1236 59.8529C55.1249 60.0149 55.0916 60.1411 55.0236 60.2316C54.9579 60.3236 54.8687 60.3735 54.7559 60.3814C54.6455 60.3908 54.5227 60.352 54.3875 60.2649ZM59.1338 68.5611C58.5679 68.1964 58.0784 67.7131 57.6653 67.1112C57.2545 66.508 56.9331 65.8133 56.701 65.0273C56.4713 64.2399 56.3462 63.3899 56.326 62.477C56.308 61.5656 56.3995 60.8591 56.6007 60.3576C56.804 59.8548 57.1036 59.5643 57.4993 59.4863C57.8973 59.4097 58.3781 59.5531 58.9417 59.9163C59.5053 60.2795 59.9936 60.7607 60.4066 61.3599C60.8197 61.9592 61.141 62.6497 61.3707 63.4316C61.6026 64.2149 61.7287 65.0617 61.7489 65.9718C61.7693 66.8874 61.6778 67.5993 61.4746 68.1076C61.2736 68.6146 60.9741 68.9077 60.5761 68.987C60.1805 69.0678 59.6997 68.9258 59.1338 68.5611ZM59.1054 67.2818C59.5453 67.5653 59.8866 67.5314 60.1295 67.1803C60.3746 66.8279 60.486 66.149 60.4636 65.1435C60.4489 64.4786 60.378 63.8823 60.2511 63.3547C60.1242 62.8271 59.9517 62.3801 59.7335 62.0139C59.5153 61.645 59.2607 61.3668 58.9698 61.1793C58.5322 60.8973 58.192 60.9332 57.9492 61.287C57.7063 61.6382 57.5948 62.3117 57.6147 63.3075C57.6272 63.9736 57.6958 64.5712 57.8205 65.1C57.9475 65.6304 58.12 66.0801 58.3383 66.449C58.5564 66.8152 58.8121 67.0928 59.1054 67.2818ZM65.5886 72.7209C65.0227 72.3562 64.5332 71.8729 64.1201 71.2709C63.7093 70.6677 63.3878 69.9731 63.1558 69.187C62.9261 68.3997 62.801 67.5496 62.7808 66.6368C62.7628 65.7254 62.8543 65.0189 63.0555 64.5173C63.2588 64.0145 63.5584 63.7241 63.9541 63.646C64.3521 63.5695 64.8329 63.7128 65.3965 64.076C65.9601 64.4392 66.4484 64.9205 66.8614 65.5197C67.2745 66.1189 67.5958 66.8095 67.8255 67.5913C68.0574 68.3747 68.1835 69.2214 68.2037 70.1315C68.2241 71.0471 68.1326 71.759 67.9294 72.2673C67.7284 72.7743 67.4289 73.0675 67.0309 73.1468C66.6353 73.2275 66.1545 73.0856 65.5886 72.7209ZM65.5602 71.4415C66.0001 71.725 66.3414 71.6912 66.5843 71.3401C66.8294 70.9877 66.9408 70.3088 66.9184 69.3032C66.9036 68.6384 66.8328 68.0421 66.7059 67.5145C66.579 66.9868 66.4065 66.5399 66.1883 66.1737C65.9701 65.8048 65.7155 65.5265 65.4246 65.339C64.987 65.057 64.6468 65.093 64.404 65.4468C64.1611 65.7979 64.0496 66.4714 64.0695 67.4673C64.082 68.1334 64.1506 68.7309 64.2753 69.2598C64.4023 69.7902 64.5748 70.2398 64.7931 70.6087C65.0112 70.9749 65.2669 71.2525 65.5602 71.4415ZM72.8114 77.2184L71.4505 76.3414L73.7422 69.5672L75.3162 70.5815L77.9835 80.5516L76.6226 79.6745L74.5949 71.8088L74.5399 71.7734L72.8114 77.2184ZM72.7831 73.965L76.4946 76.3569L76.5217 77.575L72.8102 75.1831L72.7831 73.965ZM78.7245 72.778L80.2847 73.7834L82.5089 81.1957L82.5914 81.2488L84.5461 76.5297L86.1063 77.5351L86.2923 85.9061L85.0689 85.1177L84.9411 79.3667L84.8758 79.3247L83.0579 83.7976L82.1438 83.2085L80.0711 76.2162L80.0058 76.1742L80.1339 81.9374L78.9105 81.149L78.7245 72.778Z" fill="#F36A1D"/>
</svg>
