<svg width="122" height="120" viewBox="0 0 122 120" fill="none" xmlns="http://www.w3.org/2000/svg">
<path d="M94.6958 53.0075V106.471L35 77.5806L35.0027 24.9986L75.9035 44.1923L94.6958 53.0075Z" stroke="#F36A1D" stroke-width="1.4272" stroke-linecap="round" stroke-linejoin="round"/>
<path d="M38.6875 74.7262L38.6879 30.7825L74.3343 47.51L91.0115 55.3343V100.306L38.6875 74.7262Z" stroke="#F36A1D" stroke-width="1.4272" stroke-linecap="round" stroke-linejoin="round"/>
<path d="M54.5312 74.2859V48.3322C54.5312 46.3284 56.6242 44.9999 58.4518 45.8513L84.2673 57.8593C85.2327 58.307 85.8517 59.2759 85.8517 60.3402V87.2261C85.8517 89.2666 83.6924 90.5951 81.8648 89.6776L56.0788 76.7888C55.1282 76.3117 54.5312 75.3502 54.5312 74.2933V74.2859Z" stroke="#F36A1D" stroke-width="1.4272" stroke-linecap="round" stroke-linejoin="round"/>
<path d="M54.5312 74.2711V49.844C54.5312 48.6916 55.7251 47.9283 56.779 48.4127L81.2826 59.7088C82.2775 60.1638 82.9113 61.1547 82.9113 62.241V89.949L56.101 76.774C55.1429 76.3042 54.5386 75.3353 54.5386 74.2711H54.5312Z" stroke="#F36A1D" stroke-width="1.4272" stroke-linecap="round" stroke-linejoin="round"/>
<path d="M120.466 41.0089V89.7118L94.6931 106.471V53.0075L75.9008 44.1923L35 24.9986L60.7732 13L120.466 41.0089Z" stroke="#F36A1D" stroke-width="1.4272" stroke-linecap="round" stroke-linejoin="round"/>
<path d="M94.6953 53.0075L119.287 40.8303" stroke="#F36A1D" stroke-width="1.4272" stroke-linecap="round" stroke-linejoin="round"/>
<path d="M71.1172 66.5199L72.9012 65.4495" stroke="#F36A1D" stroke-width="1.4272" stroke-linejoin="round"/>
<path d="M72.5469 70.8014L74.6877 69.731" stroke="#F36A1D" stroke-width="1.4272" stroke-linejoin="round"/>
<path d="M68.625 63.3087L70.409 62.2383" stroke="#F36A1D" stroke-width="1.4272" stroke-linejoin="round"/>
<circle cx="5.70609" cy="5.70609" r="5.70609" transform="matrix(0.857493 0.514496 -0.132164 0.991228 63.3516 60.2063)" stroke="#F36A1D" stroke-width="1.4272"/>
<path d="M64.9076 62.4154C66.0388 60.9253 68.0156 60.6209 70.0873 61.8639C73.0014 63.6123 74.9997 67.7605 74.5505 71.1292C74.2179 73.6242 72.6359 74.9917 70.6536 74.8228" stroke="#F36A1D" stroke-width="1.4272" stroke-linecap="round"/>
</svg>
