<svg width="120" height="120" viewBox="0 0 120 120" fill="none" xmlns="http://www.w3.org/2000/svg">
<path d="M36.1505 18.9199L32.1679 87.3038L85.3492 104.172L89.2684 35.5212L36.1505 18.9199Z" stroke="#F36A1D" stroke-width="1.37327" stroke-linejoin="round"/>
<path d="M41.36 15.9965L36.1525 18.9194L89.2705 35.5208L94.338 33.1947L41.36 15.9965Z" stroke="#F36A1D" stroke-width="1.37327" stroke-linejoin="round"/>
<path d="M85.3509 104.172L90.5727 100.124L94.3376 33.1957L89.2701 35.5217L85.3509 104.172Z" stroke="#F36A1D" stroke-width="1.37327" stroke-linejoin="round"/>
<path d="M41.0198 27.5992L37.7909 82.5962L80.0086 95.8857L83.228 40.8492L41.0198 27.5992Z" stroke="#F36A1D" stroke-width="1.37327" stroke-linejoin="round"/>
<path d="M44.4769 32.6753L41.5448 79.4559L76.8208 90.7419L80.2875 43.8395L44.4769 32.6753Z" stroke="#F36A1D" stroke-width="1.37327" stroke-linejoin="round"/>
<path d="M91.2797 88.9142L102.148 91.4569L91.9995 74.6996L91.2797 88.9142Z" stroke="#F36A1D" stroke-width="1.37327" stroke-linejoin="round"/>
<path d="M75.8753 88.0819C76.0943 78.2267 68.7109 68.0532 59.384 65.3587C50.0571 62.6643 42.3186 68.4692 42.0995 78.3245" stroke="#F36A1D" stroke-width="1.37327" stroke-linecap="round"/>
<path d="M65.2675 86.1076C65.3445 82.642 62.6173 79.0268 59.1761 78.0327C55.7349 77.0386 52.8829 79.042 52.8059 82.5075" stroke="#F36A1D" stroke-width="1.37327" stroke-linecap="round"/>
<circle cx="7.30183" cy="7.30183" r="7.30183" transform="matrix(0.960714 0.27754 -0.0222167 0.999753 52.7305 46.686)" stroke="#F36A1D" stroke-width="1.37327"/>
<circle cx="2.51056" cy="2.51056" r="2.51056" transform="matrix(0.960714 0.27754 -0.0222167 0.999753 57.0859 71.5378)" stroke="#F36A1D" stroke-width="1.37327"/>
</svg>
