<svg width="120" height="121" viewBox="0 0 120 121" fill="none" xmlns="http://www.w3.org/2000/svg">
<path d="M58.3524 82.6128C61.9083 82.6128 64.7908 80.8832 64.7908 78.7497C64.7908 76.6163 61.9083 74.8867 58.3524 74.8867C54.7966 74.8867 51.9141 76.6163 51.9141 78.7497C51.9141 80.8832 54.7966 82.6128 58.3524 82.6128Z" stroke="#F36A1D" stroke-width="2" stroke-miterlimit="10"/>
<path d="M58.357 92.914C71.3926 92.914 81.9601 86.5724 81.9601 78.7496C81.9601 70.9268 71.3926 64.5852 58.357 64.5852C45.3214 64.5852 34.7539 70.9268 34.7539 78.7496C34.7539 86.5724 45.3214 92.914 58.357 92.914Z" stroke="#F36A1D" stroke-width="2" stroke-miterlimit="10"/>
<path d="M58.3548 100.64C78.5021 100.64 94.8346 90.8394 94.8346 78.7496C94.8346 66.6598 78.5021 56.8591 58.3548 56.8591C38.2076 56.8591 21.875 66.6598 21.875 78.7496C21.875 90.8394 38.2076 100.64 58.3548 100.64Z" stroke="#F36A1D" stroke-width="2" stroke-miterlimit="10"/>
<path d="M107.713 78.7496C107.713 80.282 107.52 81.7885 107.147 83.2565C103.528 97.4724 83.067 108.366 58.3566 108.366C33.6461 108.366 13.1849 97.4724 9.56658 83.2565C9.19315 81.7885 9 80.282 9 78.7496C9 62.3962 31.0965 49.1331 58.3566 49.1331C85.6166 49.1331 107.713 62.3962 107.713 78.7496Z" stroke="#F36A1D" stroke-width="2" stroke-miterlimit="10"/>
<path d="M107.713 78.7496V87.7634C107.713 104.117 85.6166 117.38 58.3566 117.38C31.0965 117.38 9 104.117 9 87.7634V78.7496C9 80.282 9.19315 81.7885 9.56658 83.2565C13.1849 97.4724 33.6461 108.366 58.3566 108.366C83.067 108.366 103.528 97.4724 107.147 83.2565C107.52 81.7885 107.713 80.282 107.713 78.7496Z" stroke="#F36A1D" stroke-width="2" stroke-linecap="round" stroke-linejoin="round"/>
<path d="M58.3516 78.7498V1" stroke="#F36A1D" stroke-width="2" stroke-linecap="round" stroke-linejoin="round"/>
<path d="M94.8335 38.1236L71.2305 32.3935V18.3192L94.8335 38.1236Z" fill="black" stroke="#F36A1D" stroke-width="2" stroke-linecap="round" stroke-linejoin="round"/>
<path d="M58.3516 3.47241L75.0913 16.9415V30.7067L58.3516 24.307V3.47241Z" fill="black" stroke="#F36A1D" stroke-width="2" stroke-linecap="round" stroke-linejoin="round"/>
</svg>
