<svg width="121" height="121" viewBox="0 0 121 121" fill="none" xmlns="http://www.w3.org/2000/svg">
<path d="M56.9714 108.55L27.491 91.6702C22.7994 88.9839 21.2162 83.0028 23.9526 78.3025C24.7796 76.8819 25.9465 75.6792 27.3542 74.8249L61.5716 53.9379L95.5511 73.3938L63.0491 93.2987C59.9858 94.9122 57.4404 97.36 55.6944 100.359C53.8974 103.446 54.9407 107.387 58.0218 109.151C59.4573 109.973 61.2472 109.946 62.6826 109.084L98.1983 87.4906L85.7985 79.8671" stroke="#F36A1D" stroke-width="1.59048" stroke-linecap="round" stroke-linejoin="round"/>
<path d="M79.918 64.4427L69.3612 71.4702L59.6803 65.9272L70.2196 58.8896" stroke="#F36A1D" stroke-width="1.59048" stroke-linecap="round" stroke-linejoin="round"/>
<path d="M69.9572 9.99194V33.3405C69.9572 40.0706 67.43 46.5525 62.8477 51.5312L96.8957 71.7767L101.256 65.0466C104.075 60.7023 105.574 55.6272 105.574 50.4554V30.072L69.9572 9.99194Z" stroke="#F36A1D" stroke-width="1.59048" stroke-linecap="round" stroke-linejoin="round"/>
<path d="M84.2117 1.00012L69.9648 9.99201L105.568 30.0721L120.009 22.0456L84.2117 1.00012Z" stroke="#F36A1D" stroke-width="1.59048" stroke-linecap="round" stroke-linejoin="round"/>
<path d="M105.551 74.4524L119.992 64.3159V22.0457L105.551 30.0722V74.4524Z" stroke="#F36A1D" stroke-width="1.59048" stroke-linecap="round" stroke-linejoin="round"/>
<path d="M105.556 74.4522L98.2383 70.5079L102.504 62.9836L105.556 55.3376V74.4522Z" stroke="#F36A1D" stroke-width="1.59048" stroke-linecap="round" stroke-linejoin="round"/>
<path d="M62.5208 81.9552L48.2264 72.3545L49.1442 71.7426L63.4386 81.3433L62.5208 81.9552ZM55.3792 73.9004C54.884 73.6278 54.3419 73.5208 53.753 73.5797C53.164 73.6385 52.5785 73.862 51.9965 74.25C51.601 74.5137 51.3229 74.7738 51.1622 75.0304C50.9978 75.2844 50.9396 75.525 50.9877 75.752C51.0395 75.9765 51.1882 76.1713 51.4339 76.3363C51.6312 76.4788 51.8527 76.5702 52.0986 76.6105C52.3483 76.6484 52.6129 76.6488 52.8925 76.6119C53.1683 76.5725 53.4572 76.5069 53.7593 76.4151C54.0576 76.3209 54.3596 76.2092 54.6655 76.08L55.9409 75.5585C56.5526 75.3002 57.1604 75.0943 57.7644 74.9407C58.3684 74.7871 58.9592 74.6996 59.5369 74.6782C60.1146 74.6567 60.6717 74.7138 61.2081 74.8494C61.7483 74.9825 62.2585 75.2078 62.7387 75.5253C63.4348 75.9978 63.8624 76.5248 64.0217 77.1061C64.181 77.6824 64.07 78.287 63.6888 78.9198C63.3075 79.5475 62.6506 80.1724 61.7178 80.7942C60.7925 81.4111 59.8451 81.8533 58.8757 82.121C57.91 82.3862 56.9577 82.4606 56.0187 82.3443C55.0798 82.223 54.1896 81.8923 53.3483 81.3521L55.6933 79.7888C56.1028 80.0289 56.533 80.1706 56.9839 80.2137C57.4348 80.2519 57.8895 80.2053 58.3481 80.0739C58.8068 79.9376 59.245 79.7301 59.6629 79.4515C60.0733 79.1779 60.3701 78.9003 60.5532 78.6189C60.74 78.3349 60.8113 78.0657 60.767 77.8112C60.7227 77.5568 60.5628 77.3371 60.2874 77.1521C60.0305 76.9795 59.7381 76.8855 59.4102 76.87C59.086 76.852 58.7169 76.8987 58.3031 77.0102C57.8929 77.1193 57.4287 77.2793 56.9103 77.4904L55.3496 78.1124C54.1487 78.5991 53.019 78.8615 51.9605 78.8996C50.9021 78.9377 49.9522 78.6717 49.1109 78.1017C48.4148 77.6391 47.9946 77.1097 47.8503 76.5135C47.7097 75.9147 47.8225 75.2989 48.1888 74.6661C48.5552 74.0334 49.1562 73.4384 49.992 72.8812C50.8426 72.3141 51.7303 71.9166 52.6549 71.6887C53.5833 71.4584 54.4834 71.3989 55.3553 71.5101C56.2272 71.6213 57.0093 71.902 57.7018 72.352L55.3792 73.9004Z" fill="#F36A1D"/>
</svg>
