<svg width="122" height="120" viewBox="0 0 122 120" fill="none" xmlns="http://www.w3.org/2000/svg">
<path d="M120.5 61.6983L112.879 58.3032L113.966 48.3062L120.5 61.6983Z" fill="black" stroke="#F36A1D" stroke-width="2" stroke-linecap="round" stroke-linejoin="round"/>
<path d="M113.969 48.3063L103.482 116.239L60 94.0985L71.1327 25.0052L113.969 48.3063Z" stroke="#F36A1D" stroke-width="2" stroke-linecap="round" stroke-linejoin="round"/>
<path d="M118.812 109.138L103.484 116.239L113.972 48.3063L118.812 109.138Z" fill="black" stroke="#F36A1D" stroke-width="2" stroke-linecap="round" stroke-linejoin="round"/>
<path d="M73.5687 39.6627C81.0237 42.976 87.0671 39.0216 87.0671 30.8303C87.0671 22.639 81.0237 13.3126 73.5687 9.99929C66.1138 6.68597 60.0703 10.6404 60.0703 18.8317C60.0703 27.023 66.1138 36.3494 73.5687 39.6627Z" fill="black" stroke="#F36A1D" stroke-width="2" stroke-linecap="round" stroke-linejoin="round"/>
<path d="M73.8516 14.1223V24.7682L82.4921 30.4042" stroke="#F36A1D" stroke-width="2" stroke-linecap="round" stroke-linejoin="round"/>
<path d="M83.9844 76.7364L91.9555 36.3826L107.898 45.3501L99.4285 83.213L83.9844 76.7364Z" stroke="#F36A1D" stroke-width="2" stroke-linejoin="round"/>
</svg>
