<svg width="140" height="120" viewBox="0 0 140 120" fill="none" xmlns="http://www.w3.org/2000/svg">
<path d="M65.0547 67.7957C65.4304 67.6146 65.8358 67.6053 66.2578 67.5702L66.604 67.5443C68.244 67.378 69.8396 66.9251 71.1001 66.1931V66.1913C72.7419 65.2393 73.5638 63.9916 73.5675 62.7421L73.5601 65.633C73.5564 66.8826 72.7327 68.1303 71.0927 69.0822C70.4794 69.4383 69.7874 69.7284 69.0492 69.9515" stroke="#F36A1D" stroke-width="1.5" stroke-linejoin="round"/>
<path d="M20.7942 82.8367L8.00926 75.4651L8 78.3561L20.7849 85.7277C21.0108 85.8589 21.418 85.7794 21.4476 85.589L21.455 82.6981C21.4254 82.8903 21.02 82.9679 20.7923 82.8367H20.7942Z" stroke="#F36A1D" stroke-width="1.5" stroke-linejoin="round"/>
<path d="M35.876 79.6723C35.1652 79.2619 34.3008 78.907 33.2883 78.6279C31.1763 78.053 28.7052 78.0364 26.6006 78.5928C23.4113 79.4283 21.7028 81.0327 21.4566 82.6963L21.4492 85.5873C21.6954 83.9237 23.4039 82.3193 26.5932 81.4838C28.6996 80.9255 31.1689 80.944 33.2809 81.5189C34.2934 81.7962 35.1578 82.1529 35.8686 82.5633C37.5438 83.53 37.6828 83.8339 37.6791 85.0982L38.386 83.1695C38.3897 81.9052 37.5512 80.6372 35.876 79.6723Z" stroke="#F36A1D" stroke-width="1.5" stroke-linejoin="round"/>
<path d="M43.2358 95.7759L43.2266 98.665L78.2255 78.3543L78.2329 75.4652L43.2358 95.7759Z" stroke="#F36A1D" stroke-width="1.5" stroke-linejoin="round"/>
<path d="M30.4676 88.4136C30.3861 88.3656 30.3491 88.3083 30.3491 88.2528L30.3398 91.1438C30.3398 91.1992 30.3769 91.2565 30.4583 91.3046L43.2284 98.6669L43.2377 95.776L30.4676 88.4136Z" stroke="#F36A1D" stroke-width="1.5" stroke-linejoin="round"/>
<path d="M65.0541 67.7978C65.4299 67.6148 65.8371 67.6055 66.2573 67.5722L66.6034 67.5464C68.2434 67.38 69.839 66.9271 71.0995 66.1951C74.3962 64.282 74.3906 61.1748 71.0736 59.2616C70.7201 59.0583 70.3276 58.8679 69.8982 58.6923C67.0754 57.5333 63.2642 57.5075 60.3933 58.6147C58.3349 59.4243 57.1059 60.611 56.7357 61.8568L56.6468 62.1193C56.5728 62.3374 56.5284 62.5371 56.1378 62.7293L43.0049 55.1581L8.00781 75.4651L20.7927 82.8367C21.0186 82.9679 21.4258 82.8885 21.4554 82.6981C21.7016 81.0345 23.4101 79.43 26.5994 78.5945C28.7058 78.0363 31.1751 78.0548 33.2871 78.6296C34.2996 78.9069 35.164 79.2637 35.8748 79.674C39.1992 81.5909 39.2251 84.6944 35.9229 86.6112C34.4662 87.456 32.6022 87.9273 30.7031 88.0308C30.3717 88.0493 30.2218 88.2748 30.4643 88.4153L43.2344 95.7777L78.2333 75.467L65.0541 67.7996V67.7978Z" stroke="#F36A1D" stroke-width="1.5" stroke-linejoin="round"/>
<path d="M73.5582 49.6822L60.7732 42.3106L60.7658 45.2016L73.5507 52.5732C73.7766 52.7044 74.1838 52.6249 74.2134 52.4345L74.2208 49.5436C74.1912 49.7358 73.7858 49.8134 73.5582 49.6822Z" stroke="#F36A1D" stroke-width="1.5" stroke-linejoin="round"/>
<path d="M88.6342 46.514C87.9253 46.1055 87.0646 45.7506 86.0539 45.4733C83.9419 44.8985 81.4708 44.88 79.3662 45.4382C76.1769 46.2737 74.4684 47.8782 74.2222 49.5418L74.2148 52.4327C74.461 50.7691 76.1695 49.1647 79.3588 48.3292C81.4652 47.771 83.9345 47.7894 86.0465 48.3643C87.0572 48.6416 87.9179 48.9965 88.6268 49.405C90.302 50.3699 90.723 51.4021 90.723 51.4021C90.723 51.4021 91.1386 51.2793 91.1423 50.0131C91.146 48.7469 90.3094 47.4789 88.6342 46.514Z" stroke="#F36A1D" stroke-width="1.5" stroke-linejoin="round"/>
<path d="M83.2332 55.2569C83.1517 55.2088 83.1147 55.1515 83.1147 55.0961L83.1055 57.987C83.1055 58.0425 83.1425 58.0998 83.2239 58.1479L95.9941 65.5102L96.0015 62.6192L83.2313 55.2569H83.2332Z" stroke="#F36A1D" stroke-width="1.5" stroke-linejoin="round"/>
<path d="M96.0014 62.6211L95.9922 65.5103L130.991 45.1995L130.998 42.3104L96.0014 62.6211Z" stroke="#F36A1D" stroke-width="1.5" stroke-linejoin="round"/>
<path d="M60.7734 42.3106L95.7723 21.9999H95.7742L98.6009 23.6297L113.68 32.3236L131.001 42.3106L96.0019 62.6213L83.2318 55.259C82.9893 55.1203 83.1392 54.893 83.4705 54.8763C85.3678 54.771 87.2318 54.3015 88.6737 53.4641C91.9778 51.5473 91.9611 48.4345 88.633 46.5158C87.9222 46.1073 87.0633 45.7524 86.0527 45.4751C83.9407 44.9003 81.4714 44.8818 79.365 45.44C76.1757 46.2755 74.4672 47.88 74.221 49.5436C74.1914 49.734 73.7842 49.8134 73.5584 49.6822L60.7734 42.3106Z" stroke="#F36A1D" stroke-width="1.5" stroke-linejoin="round"/>
</svg>
