<svg width="1418" height="942" viewBox="0 0 1418 942" fill="none" xmlns="http://www.w3.org/2000/svg">
<path d="M1147.6 233.07L541.805 354.046C529.977 356.408 522.915 368.623 526.771 380.052L570.952 511.005C573.02 517.134 577.925 521.885 584.118 523.756L1027.05 657.578C1037.59 660.761 1048.71 654.834 1051.95 644.314L1170.63 258.564C1175.09 244.085 1162.46 230.103 1147.6 233.07Z" fill="#967E6E" fill-opacity="0.02" stroke="url(#paint0_linear_459_18793)" stroke-opacity="0.5" stroke-width="2"/>
<path d="M599.845 593.625C595.169 578.481 609.127 564.175 624.382 568.476L1043.76 686.718C1054.19 689.658 1065.07 683.759 1068.29 673.415L1199.4 252.386C1202.33 242.96 1211.71 237.085 1221.47 238.556L1399.98 265.437C1409.76 266.91 1417 275.318 1417 285.214V906.708C1417 916.853 1409.4 925.39 1399.33 926.572L1273.46 941.329C1272.49 941.443 1271.51 941.485 1270.53 941.456L716.295 924.926C707.745 924.671 700.304 919.008 697.781 910.835L599.845 593.625Z" fill="url(#paint1_linear_459_18793)" fill-opacity="0.04" stroke="url(#paint2_linear_459_18793)" stroke-opacity="0.08"/>
<path d="M447.385 250.591C453.775 248.616 460.547 252.245 462.44 258.661L479.5 316.5L673.628 911.047C676.228 919.01 670.077 927.119 661.708 926.761L35.4875 899.991C29.0653 899.717 24 894.43 24 888.002V390.35C24 385.088 27.4281 380.44 32.4552 378.886L447.385 250.591Z" fill="url(#paint3_linear_459_18793)" fill-opacity="0.04" stroke="url(#paint4_linear_459_18793)" stroke-opacity="0.12"/>
<path d="M506.362 323.145L425.095 -7.22263C421.994 -19.8271 431.536 -32 444.516 -32H1356.8C1375.14 -32 1383.81 -9.37468 1370.16 2.87985L1147.96 202.444C1145.36 204.774 1142.21 206.385 1138.8 207.118L529.984 337.921C519.41 340.193 508.945 333.647 506.362 323.145Z" fill="url(#paint5_linear_459_18793)" fill-opacity="0.04" stroke="url(#paint6_linear_459_18793)"/>
<path d="M-23.2992 339.401L-14.0035 -26.6716C-13.7248 -37.649 -4.64746 -46.3487 6.3319 -46.161L380.43 -39.7662C389.586 -39.6096 397.466 -33.2546 399.559 -24.3395L453.2 204.182C455.616 214.475 449.604 224.87 439.478 227.908L2.44317 359.064C-10.5931 362.977 -23.6447 353.007 -23.2992 339.401Z" fill="url(#paint7_linear_459_18793)" fill-opacity="0.04" stroke="url(#paint8_linear_459_18793)"/>
<defs>
<linearGradient id="paint0_linear_459_18793" x1="829" y1="191.5" x2="829" y2="663.333" gradientUnits="userSpaceOnUse">
<stop stop-color="#191919"/>
<stop offset="1" stop-color="#302823" stop-opacity="0"/>
</linearGradient>
<linearGradient id="paint1_linear_459_18793" x1="1003.5" y1="887.5" x2="761.59" y2="470.223" gradientUnits="userSpaceOnUse">
<stop stop-color="#967E6E"/>
<stop offset="1" stop-color="#967E6E" stop-opacity="0"/>
</linearGradient>
<linearGradient id="paint2_linear_459_18793" x1="1003.5" y1="887.5" x2="761.59" y2="470.223" gradientUnits="userSpaceOnUse">
<stop offset="0.236666" stop-color="#967E6E"/>
<stop offset="1" stop-color="#967E6E" stop-opacity="0"/>
</linearGradient>
<linearGradient id="paint3_linear_459_18793" x1="415" y1="781" x2="-82.4657" y2="539.836" gradientUnits="userSpaceOnUse">
<stop stop-color="#967E6E"/>
<stop offset="1" stop-color="#967E6E" stop-opacity="0"/>
</linearGradient>
<linearGradient id="paint4_linear_459_18793" x1="329.25" y1="198" x2="547.464" y2="525.563" gradientUnits="userSpaceOnUse">
<stop stop-color="#967E6E" stop-opacity="0"/>
<stop offset="1" stop-color="#967E6E"/>
</linearGradient>
<linearGradient id="paint5_linear_459_18793" x1="434.5" y1="89.5" x2="975.149" y2="300.906" gradientUnits="userSpaceOnUse">
<stop stop-color="#967E6E"/>
<stop offset="1" stop-color="#967E6E" stop-opacity="0"/>
</linearGradient>
<linearGradient id="paint6_linear_459_18793" x1="712.25" y1="128" x2="712.25" y2="345" gradientUnits="userSpaceOnUse">
<stop stop-color="#191919"/>
<stop offset="1" stop-color="#302823" stop-opacity="0"/>
</linearGradient>
<linearGradient id="paint7_linear_459_18793" x1="340" y1="245.5" x2="-51.749" y2="343.511" gradientUnits="userSpaceOnUse">
<stop stop-color="#967E6E"/>
<stop offset="1" stop-color="#967E6E" stop-opacity="0"/>
</linearGradient>
<linearGradient id="paint8_linear_459_18793" x1="176.75" y1="150" x2="176.75" y2="367" gradientUnits="userSpaceOnUse">
<stop stop-color="#191919"/>
<stop offset="1" stop-color="#302823" stop-opacity="0"/>
</linearGradient>
</defs>
</svg>
