<svg width="491" height="300" viewBox="0 0 491 300" fill="none" xmlns="http://www.w3.org/2000/svg">
<path fill-rule="evenodd" clip-rule="evenodd" d="M237.663 -116C237.663 -133.673 251.99 -148 269.663 -148H472.17C489.843 -148 504.17 -133.673 504.17 -116V189.198C504.17 206.871 489.843 221.198 472.17 221.198H298.859C281.186 221.198 266.859 235.525 266.859 253.198V417.772C266.859 441.603 241.741 457.073 220.459 446.348L18.0955 344.376C7.30351 338.938 0.495605 327.884 0.495605 315.799V105.945C0.495605 88.2722 14.8225 73.9453 32.4956 73.9453H205.663C223.336 73.9453 237.663 59.6184 237.663 41.9453V-116ZM571.14 341.945C571.14 359.618 556.813 373.945 539.14 373.945H358.495C340.822 373.945 326.495 388.272 326.495 405.945V553.604C326.495 571.277 340.822 585.604 358.495 585.604H560.858C578.531 585.604 592.858 571.277 592.858 553.604V501.729C592.858 484.056 607.185 469.729 624.858 469.729H805.504C823.177 469.729 837.504 455.403 837.504 437.729V320.407C837.504 307.784 830.083 296.341 818.559 291.191L616.195 200.767C595.028 191.309 571.14 206.798 571.14 229.983V341.945Z" fill="#EA374C"/>
</svg>
