<svg width="217" height="263" viewBox="0 0 217 263" fill="none" xmlns="http://www.w3.org/2000/svg">
<path d="M14.3574 200.655C14.2002 214.699 19.4927 228.323 29.3965 238.279C41.2916 250.227 62.514 261.807 100.243 262.226C179.106 263.065 254.04 254.157 272.904 214.856C291.769 175.555 276.572 102.717 183.823 94.8572C94.2691 87.2591 15.5102 101.617 14.3574 200.655Z" fill="#F9F9F9"/>
<path d="M272.905 214.856C254.041 254.157 179.107 263.065 100.244 262.226C99.1955 262.226 98.1475 262.174 97.0995 262.174C97.0471 262.174 97.0471 262.174 97.0471 262.174C92.1738 261.912 88.9773 261.755 87.9293 261.65C87.8769 261.65 87.7721 261.65 87.7197 261.65C87.6673 261.65 87.6149 261.65 87.5625 261.65C210.705 237.755 265.307 136.673 265.779 135.782C283.333 161.302 283.281 193.162 272.905 214.856Z" fill="#F2F2F2"/>
<path d="M130.217 36.3251C130.217 36.3251 132.575 45.6525 130.479 51.4166C128.383 57.1808 124.243 58.1764 124.243 58.1764C124.243 58.1764 124.714 41.9844 124.19 37.7923C123.666 33.6002 130.217 36.3251 130.217 36.3251Z" fill="#4D4D4D"/>
<path d="M127.387 38.7877L126.601 39.0497C124.871 39.6261 123.876 41.5126 124.452 43.2942L124.19 42.5606C121.413 34.124 112.295 29.5127 103.806 32.3424L100.19 33.5476C91.8062 36.3248 87.2473 45.3902 90.0246 53.7744L91.2822 57.4949C94.0595 65.8791 103.125 70.438 111.509 67.6607L115.23 66.4031C124.714 63.259 126.024 54.8748 125.972 50.3159C125.972 48.4295 127.177 46.7527 128.959 46.1763L129.692 45.9142C131.421 45.3378 132.417 43.4514 131.841 41.6698L131.579 40.8837C131.055 39.1545 129.168 38.2113 127.387 38.7877Z" fill="#F7D3B2"/>
<path d="M126.759 47.9058C126.759 47.9058 121.361 63.2593 98.5669 66.351C98.5669 66.351 105.589 70.5955 113.92 66.875C122.252 63.1545 123.719 63.4689 126.759 47.9058Z" fill="#EFCBA5"/>
<path d="M68.6452 90.8747C69.6408 92.08 71.2129 92.4992 72.6801 92.0276C75.7194 90.9796 80.5403 88.9883 81.2215 86.4731C82.2695 82.805 75.9814 79.1369 71.7893 80.1849C67.5972 81.2329 65.606 87.2067 65.606 87.2067L68.6452 90.8747Z" fill="#EFCBA5"/>
<path d="M130.479 192.952C130.479 192.952 144.103 211.712 128.383 262.541C128.383 262.541 143.055 264.113 166.112 259.921C166.112 259.921 181.937 235.187 180.574 174.979C180.574 174.979 163.492 187.817 130.479 192.952Z" fill="#91D5DE"/>
<path d="M160.138 186.088C160.138 186.088 176.854 198.087 173.448 241.476C173.448 241.476 182.723 202.961 180.575 174.979L160.138 186.088Z" fill="#84C8D1"/>
<path d="M171.456 74.7352C171.456 74.7352 173.972 72.8488 179.736 70.7527C185.5 68.6567 193.36 67.6087 197.552 72.8488C201.744 78.0889 213.272 112.674 211.7 125.25C210.128 137.826 193.674 153.023 184.871 157.215C184.871 157.215 177.849 125.512 164.644 100.464L155.998 86.1063C155.946 86.1063 157.937 81.8618 171.456 74.7352Z" fill="#FFD105"/>
<path d="M164.016 99.1018C164.016 99.1018 185.5 136.831 194.932 136.307C204.364 135.783 208.661 133.949 208.661 133.949C208.661 133.949 201.535 148.83 184.871 157.215C184.871 157.215 165.954 103.713 164.016 99.1018Z" fill="#FFB600"/>
<path d="M129.902 65.1983C129.902 65.1983 145.675 45.6003 155.631 52.4124C165.587 59.2245 173.972 71.8008 173.972 72.8488C173.972 73.8969 158.933 81.0234 155.946 86.1063C155.946 86.1063 145.046 69.6 129.902 65.1983Z" fill="#FFD105"/>
<path d="M132.051 65.5649C132.051 65.5649 166.111 74.4731 173.972 72.9011C173.972 72.9011 164.697 78.4556 155.946 86.1586C155.946 86.1062 134.671 67.399 132.051 65.5649Z" fill="#FFB600"/>
<path d="M112.662 96.1147C112.662 96.1147 112.715 96.4292 112.715 97.0056C112.82 99.94 112.767 109.634 107.946 117.966C102.182 127.922 70.2175 135.782 64.4534 135.782C64.4534 135.782 61.8334 141.547 62.3574 147.311C62.8814 153.075 105.85 153.599 116.855 148.359C116.855 148.359 120.523 101.984 112.662 96.1147Z" fill="#EA374C"/>
<path d="M90.1297 81.8094C86.4616 84.4294 78.0775 88.0975 75.9814 87.0495C73.8854 86.0015 64.558 71.7484 64.558 71.7484C64.558 71.7484 57.641 58.7529 58.1651 54.0368C58.6891 49.3207 68.1213 48.2727 73.3614 46.7006C74.7238 46.2814 76.1386 47.1198 77.4487 48.6919C77.2391 48.7443 62.8288 51.9407 62.3571 53.5128C61.8331 55.0848 64.9772 63.993 69.1693 71.3292C73.3614 78.6653 76.977 82.019 78.6015 81.9142C80.1735 81.8094 89.1341 77.8269 91.4922 75.8881C92.645 78.6653 92.4354 80.1326 90.1297 81.8094Z" fill="#4D4D4D"/>
<path d="M91.4402 75.8356C89.0821 77.7744 80.174 81.7569 78.5495 81.8617C76.9775 81.9665 73.3094 78.6129 69.1173 71.2767C64.9252 63.9405 61.7812 55.0323 62.3052 53.4603C62.8292 51.8883 77.1871 48.6918 77.3967 48.6394C81.222 53.0411 84.8901 63.4165 87.9817 69.1806C89.5538 72.1151 90.759 74.2112 91.4402 75.8356Z" fill="#F2F2F2"/>
<path d="M184.975 158.315C184.975 160.568 183.665 161.983 182.303 162.822C180.783 163.765 179.211 164.079 179.211 164.079C179.211 164.079 179.735 165.651 179.211 168.271C178.687 170.891 179.735 170.367 162.443 178.752C145.308 187.031 136.662 190.647 124.557 187.765C124.452 187.765 124.295 187.712 124.19 187.66C111.614 184.516 113.186 158.315 115.282 131.067C117.378 103.818 109.518 84.4295 109.518 84.4295C108.47 81.8095 112.662 76.0453 118.95 69.7572C125.238 63.4691 130.478 65.5651 130.478 65.5651C165.063 73.9493 184.975 153.599 184.975 158.315Z" fill="#FC3D59"/>
<path d="M182.199 173.878C156.155 191.799 132.889 194.524 129.064 192.323C126.444 190.856 125.134 188.812 124.558 187.712C136.662 190.646 145.308 187.031 162.444 178.699C179.736 170.315 178.688 170.839 179.212 168.219C179.736 165.599 179.212 164.027 179.212 164.027C179.212 164.027 180.784 163.765 182.304 162.769C184.871 172.306 182.199 173.878 182.199 173.878Z" fill="#EA374C"/>
<path d="M162.81 208.987C149.501 208.934 140.33 196.096 140.226 195.939L141.064 195.31C141.169 195.415 150.025 207.834 162.81 207.886V208.987Z" fill="#51C3C4"/>
<path d="M131.527 180.428L130.479 180.219C131.998 172.568 128.435 154.385 128.383 154.228L129.431 154.018C129.588 154.752 133.099 172.516 131.527 180.428Z" fill="white"/>
<path d="M108.208 96.5865L107.16 96.4817C107.213 96.2196 107.999 89.3551 115.387 80.0801C122.776 70.8575 130.217 64.779 130.269 64.7266L130.95 65.565C130.898 65.6174 123.509 71.5911 116.226 80.7613C108.994 89.7743 108.208 96.534 108.208 96.5865Z" fill="#D01F26"/>
<path d="M149.343 93.3378C149.343 93.3378 153.011 137.879 139.911 142.071C126.811 146.263 92.75 138.927 76.5057 104.342C76.5057 104.342 74.4097 100.674 74.4097 98.0539L84.8899 90.7177C93.7981 108.534 116.855 117.442 119.999 114.822C123.143 112.202 122.095 90.7177 122.095 90.7177C122.095 90.7177 121.571 82.8575 129.955 78.6654C138.339 74.4733 149.867 79.7135 149.343 93.3378Z" fill="#FC3D59"/>
<path d="M119.475 122.21C118.951 118.437 119.475 116.813 119.475 116.708L120.47 117.023L119.999 116.865L120.523 117.023C120.523 117.023 120.051 118.542 120.523 122.001L119.475 122.21Z" fill="#D01F26"/>
<path d="M122.252 119.905C121.675 119.328 120.732 117.023 120.575 116.604L121.57 116.237C121.99 117.285 122.723 118.909 123.038 119.224L122.252 119.905Z" fill="#DD2641"/>
<path d="M71.2654 96.4292C71.2654 96.4292 71.6846 99.6257 72.9946 102.875C74.3046 106.071 84.7324 97.844 86.9333 95.0667C89.1341 92.2895 84.3132 88.2022 83.4748 88.6214C82.584 89.093 70.8461 95.0668 71.2654 96.4292Z" fill="#FC3D59"/>
<path d="M86.9863 95.2764C86.9863 95.2764 83.5803 105.285 78.2353 107.486C78.2353 107.486 77.0825 105.285 75.9297 102.875L86.9863 95.2764Z" fill="#EA374C"/>
<path d="M133.885 66.6133C133.885 66.6133 119.475 75.5215 121.571 90.7178C123.667 105.914 123.405 102.298 123.405 102.298L125.029 86.2113C125.448 82.91 126.654 79.766 128.54 77.0411C130.95 73.5826 134.619 69.4429 138.444 68.8141C138.444 68.8141 137.291 67.7137 133.885 66.6133Z" fill="#FFD105"/>
<path d="M145.675 136.778C145.675 136.778 159.876 149.931 182.408 146.787L184.033 153.284C184.033 153.284 156.365 160.725 142.374 140.656C142.374 140.603 144.103 136.726 145.675 136.778Z" fill="#FFD105"/>
<path d="M170.827 157.896C151.649 157.896 143.264 147.259 143.16 147.154L143.998 146.525C144.103 146.63 153.273 158.21 174.6 156.743L174.653 157.791C173.343 157.844 172.085 157.896 170.827 157.896Z" fill="#DD2641"/>
<path d="M61.8331 73.949C61.8331 73.949 73.8853 63.9928 73.3613 67.6609C72.8373 71.329 71.2653 72.901 69.1692 76.0451C69.1692 76.0451 73.3613 77.0931 74.4093 81.2852C75.4573 85.4773 68.1212 90.1934 68.1212 90.1934C68.1212 90.1934 57.641 79.1891 61.8331 73.949Z" fill="#F7D3B2"/>
<path d="M53.6587 252.899H53.6063C53.1871 252.846 52.8727 252.48 52.8727 252.06C56.96 202.332 47.5278 180.533 38.934 170.996C32.0171 163.345 25.1001 163.083 25.0477 163.083C24.6285 163.083 24.2617 162.716 24.2617 162.297C24.2617 161.878 24.6285 161.511 25.0477 161.511C25.3621 161.511 32.5935 161.721 39.982 169.843C48.8378 179.59 58.532 201.808 54.3923 252.165C54.4447 252.584 54.0779 252.899 53.6587 252.899Z" fill="#E6E6E6"/>
<path d="M13.9387 172.044C21.6368 172.044 27.8774 165.804 27.8774 158.105C27.8774 150.407 21.6368 144.167 13.9387 144.167C6.24056 144.167 0 150.407 0 158.105C0 165.804 6.24056 172.044 13.9387 172.044Z" fill="#E6E6E6"/>
<path d="M209.866 252.428C209.499 252.428 209.133 252.166 209.08 251.746C206.512 236.078 217.359 230.891 217.464 230.838C217.884 230.681 218.303 230.838 218.512 231.205C218.67 231.624 218.512 232.044 218.145 232.253C217.726 232.463 208.242 237.074 210.652 251.484C210.705 251.904 210.443 252.323 210.023 252.375C209.971 252.428 209.919 252.428 209.866 252.428Z" fill="#E6E6E6"/>
<path d="M224.277 236.55C229.139 236.55 233.08 232.609 233.08 227.747C233.08 222.885 229.139 218.943 224.277 218.943C219.415 218.943 215.474 222.885 215.474 227.747C215.474 232.609 219.415 236.55 224.277 236.55Z" fill="#E6E6E6"/>
<path d="M156.575 84.6915L155.736 84.0627C155.841 83.9055 158.514 80.2374 168.47 74.4733C178.269 68.8139 180.574 68.6567 180.784 68.6567V69.7048C180.732 69.7048 178.478 69.9144 168.994 75.4165C159.3 81.0234 156.627 84.6915 156.575 84.6915Z" fill="white"/>
<path d="M199.072 97.5297C186.863 96.4817 174.915 74.054 174.391 73.1108L175.334 72.6392C175.439 72.8488 187.544 95.4861 199.177 96.5341L199.072 97.5297Z" fill="#FFB600"/>
<path d="M202.216 101.67C199.753 101.67 196.609 101.355 193.15 100.098C185.71 97.4251 173.5 78.1939 172.976 77.3555L173.867 76.7791C173.972 76.9887 186.443 96.5867 193.517 99.1019C200.644 101.617 206.775 100.15 206.827 100.15L207.089 101.146C206.984 101.198 205.098 101.67 202.216 101.67Z" fill="#FFB600"/>
<path d="M204.888 97.5297V96.4817C204.888 96.4817 205.884 96.4293 207.823 95.4861L208.294 96.4293C206.146 97.4773 204.993 97.5297 204.888 97.5297Z" fill="#FFB600"/>
<path d="M193.675 151.241C191.421 114.927 161.658 81.4426 161.396 81.1282L162.182 80.447C162.496 80.7614 192.469 114.508 194.723 151.189L193.675 151.241Z" fill="white"/>
<path d="M178.582 134.368L178.425 133.32C178.53 133.32 189.692 131.171 210.547 112.779L211.228 113.565C190.058 132.219 179.002 134.263 178.582 134.368Z" fill="white"/>
<path d="M151.544 67.7134C150.967 67.7134 150.391 67.661 149.814 67.6086C140.277 66.5605 134.828 60.3248 134.618 60.0628L135.404 59.3816C135.457 59.434 140.801 65.5649 149.919 66.5605C158.985 67.5562 167.736 59.434 167.84 59.3816L168.574 60.1676C168.207 60.482 160.4 67.7134 151.544 67.7134Z" fill="#FFB600"/>
<path d="M162.757 61.7918L162.181 60.901C163.333 60.115 165.325 58.6478 165.692 57.9666L166.635 58.4382C166.006 59.591 163.071 61.5822 162.757 61.7918Z" fill="#FFB600"/>
<path d="M183.614 136.202L183.142 135.258C184.4 134.63 186.339 133.581 186.653 133.267L187.387 134.001C186.863 134.577 184.19 135.94 183.614 136.202Z" fill="white"/>
<path d="M210.442 118.385L209.813 117.547C209.813 117.547 211.91 115.975 212.905 114.979L213.639 115.713C212.591 116.761 210.547 118.281 210.442 118.385Z" fill="white"/>
<path d="M126.497 164.498L125.449 164.341C126.182 159.573 125.449 154.07 125.449 154.018L126.497 153.861C126.549 154.07 127.283 159.573 126.497 164.498Z" fill="white"/>
<path d="M67.2836 139.817C67.2836 139.817 74.4102 149.407 82.7943 149.931C91.1785 150.455 90.0257 151.974 90.0257 151.974C90.0257 151.974 62.3579 152.027 62.3579 147.835C62.3579 143.643 67.2836 139.817 67.2836 139.817Z" fill="#DD2641"/>
<path d="M60.1568 137.197C60.2092 136.988 60.052 136.726 59.8424 136.673L52.4014 134.211C42.9692 131.067 39.3012 132.639 41.9212 135.259C44.5413 137.879 51.8774 143.643 54.4975 143.119C57.0651 142.595 59.1088 142.071 60.1568 137.197Z" fill="#F7D3B2"/>
<path d="M49.0479 140.341C49.0479 140.341 45.0654 139.451 45.0654 140.499C45.0654 141.547 50.3579 144.481 53.9736 143.276C57.6417 142.071 49.0479 140.341 49.0479 140.341Z" fill="#F7D3B2"/>
<path d="M184.505 69.5476C184.452 69.4428 180.313 57.3905 189.902 49.4255L190.583 50.2116C181.57 57.7573 185.448 69.076 185.5 69.1808L184.505 69.5476Z" fill="#4D4D4D"/>
<path d="M193.36 52.4646C196.254 52.4646 198.6 50.1185 198.6 47.2245C198.6 44.3305 196.254 41.9844 193.36 41.9844C190.466 41.9844 188.12 44.3305 188.12 47.2245C188.12 50.1185 190.466 52.4646 193.36 52.4646Z" fill="#FC3D59"/>
<path d="M181.517 70.1765C181.517 70.1765 181.831 74.421 187.072 72.8489C192.312 71.2769 191.683 69.3381 191.683 69.3381C191.683 69.3381 186.495 68.552 181.517 70.1765Z" fill="#FFB600"/>
<path d="M67.5969 135.101C67.5969 135.101 67.0729 146.21 65.5009 149.354C63.9288 152.498 57.6407 148.044 58.1647 146.263C58.6887 144.481 61.3088 135.573 62.8808 135.154C64.4528 134.682 67.5969 133.791 67.5969 135.101Z" fill="#FC3D59"/>
<path d="M131.998 143.485C122.461 143.485 115.859 140.079 115.544 139.922L116.016 138.979C116.121 139.031 125.081 143.695 136.976 142.123C147.404 140.761 148.19 125.407 148.976 110.577C149.081 108.639 149.186 106.7 149.291 104.866L150.339 104.918C150.234 106.805 150.129 108.691 150.024 110.63C149.238 125.931 148.4 141.704 137.134 143.171C135.352 143.381 133.623 143.485 131.998 143.485Z" fill="white"/>
<path d="M89.6061 51.7836C89.6061 51.7836 70.2177 29.3559 98.5143 16.7797C126.811 4.20338 130.479 2.10733 133.099 14.1596C135.719 26.2119 129.117 38.6833 129.117 38.6833C129.117 38.6833 125.396 38.8405 125.082 40.0982C124.715 41.4082 124.715 43.5042 124.715 43.5042C124.715 43.5042 123.143 46.1243 121.571 45.0763C119.999 44.0282 116.697 33.548 113.868 32.238C111.091 30.928 106.217 31.6616 102.864 32.6048C99.5099 33.548 98.4619 35.6441 97.4139 37.7401C96.3659 39.8362 93.5886 37.3209 92.593 38.8405C91.5974 40.3602 89.0821 42.7706 89.6061 51.7836Z" fill="#534741"/>
<path d="M91.7543 32.7619C91.6495 32.5523 89.239 27.9934 90.811 22.7533C91.9639 19.0328 94.7935 15.8887 99.3524 13.5307C107.999 8.97179 113.763 7.08535 118.426 5.56571C121.204 4.67489 123.562 3.88888 126.077 2.73605C130.583 0.640006 131.265 0.273199 131.317 0.168396C131.212 0.273199 131.055 0.482803 131.212 0.744809C131.317 1.00681 131.579 1.05922 131.736 1.05922L131.369 0.0635939C131.946 -0.146011 132.156 0.220797 132.156 0.3256C132.365 0.902012 132.365 0.902012 126.496 3.62687C123.981 4.7797 121.57 5.56571 118.741 6.50893C114.13 8.02857 108.365 9.91501 99.824 14.4215C95.5795 16.6748 92.8547 19.5568 91.8067 23.0153C90.3394 27.8362 92.6451 32.1855 92.6451 32.2379L91.7543 32.7619Z" fill="#1A1A1A"/>
<path d="M87.877 261.65C88.925 261.702 92.1738 261.912 96.9947 262.174C93.8507 262.069 90.8114 261.912 87.877 261.65Z" fill="#F9F9F9"/>
<path d="M110.304 47.9057C111.143 49.6873 110.933 50.6305 110.252 50.945C109.571 51.2594 108.732 50.8402 107.894 49.0585C107.056 47.2769 106.898 45.5476 107.58 45.2332C108.261 44.9188 109.466 46.1241 110.304 47.9057Z" fill="#534741"/>
<path d="M98.7234 53.6701C99.5618 55.4517 99.3522 56.395 98.671 56.7094C97.9898 57.0238 97.1514 56.6046 96.313 54.8229C95.4746 53.0413 95.3174 51.312 95.9986 50.9976C96.6798 50.6832 97.885 51.8885 98.7234 53.6701Z" fill="#534741"/>
</svg>
