<svg width="1392" height="720" viewBox="0 0 1392 720" fill="none" xmlns="http://www.w3.org/2000/svg">
<g style="mix-blend-mode:screen" opacity="0.16">
<path d="M123.716 650.757L14.8706 502.169C1.84215 484.383 7.71659 459.171 27.2645 448.975L229.109 343.702L625.766 127.696C640.369 119.743 647.626 102.824 643.322 86.7621L603.947 -60.1883C599.227 -77.8027 582.082 -89.1058 564.033 -86.5019L323.006 -51.7289C318.136 -51.0263 313.462 -49.3329 309.272 -46.7533L-202.448 268.307C-212.733 274.639 -219.157 285.707 -219.554 297.778L-231.503 660.708C-232.156 680.551 -216.621 697.177 -196.779 697.87L93.4175 708.009C123.458 709.059 141.479 675.006 123.716 650.757Z" stroke="#F4F3F1"/>
</g>
<g style="mix-blend-mode:screen" opacity="0.16">
<path d="M543.67 234.943L98.6438 473.071C79.1521 483.501 73.5078 508.83 86.7267 526.549L165.008 631.479C171.588 640.3 181.828 645.641 192.827 645.992L673.165 661.28C698.08 662.073 716.299 637.999 708.767 614.236L595.173 255.888C588.339 234.331 563.609 224.273 543.67 234.943Z" stroke="#F4F3F1"/>
</g>
<g style="mix-blend-mode:screen" opacity="0.16">
<path d="M1077.7 -61.8036L621.786 182.151C602.295 192.581 596.65 217.91 609.869 235.629L688.386 340.876C694.832 349.516 704.797 354.828 715.563 355.362L1377.01 388.202C1407.52 389.717 1426.03 355.053 1407.81 330.541L1123.76 -51.5013C1113.08 -65.8678 1093.49 -70.2497 1077.7 -61.8036Z" stroke="#F4F3F1"/>
</g>
</svg>
