<svg width="686" height="680" viewBox="0 0 686 680" fill="none" xmlns="http://www.w3.org/2000/svg">
<path d="M45.944 642.096C45.4409 687.035 62.377 730.633 94.0692 762.493C132.133 800.725 200.045 837.783 320.777 839.124C573.141 841.807 812.928 813.301 873.294 687.538C933.661 561.776 885.032 328.696 588.232 303.543C301.661 279.229 49.633 325.174 45.944 642.096Z" fill="#F9F9F9"/>
<path d="M873.297 687.538C812.931 813.301 573.143 841.807 320.78 839.124C317.426 839.124 314.072 838.957 310.719 838.957C310.551 838.957 310.551 838.957 310.551 838.957C294.956 838.118 284.728 837.615 281.374 837.28C281.206 837.28 280.871 837.28 280.703 837.28C280.536 837.28 280.368 837.28 280.2 837.28C674.256 760.816 848.983 437.355 850.492 434.504C906.666 516.166 906.498 618.117 873.297 687.538Z" fill="#F2F2F2"/>
<path d="M416.693 116.24C416.693 116.24 424.238 146.088 417.531 164.533C410.824 182.978 397.577 186.164 397.577 186.164C397.577 186.164 399.086 134.35 397.409 120.935C395.732 107.521 416.693 116.24 416.693 116.24Z" fill="#4D4D4D"/>
<path d="M407.638 124.121L405.122 124.96C399.589 126.804 396.403 132.841 398.247 138.542L397.409 136.194C388.522 109.197 359.345 94.4412 332.18 103.496L320.61 107.353C293.781 116.24 279.192 145.249 288.079 172.079L292.104 183.984C300.991 210.814 330 225.402 356.83 216.515L368.735 212.49C399.086 202.429 403.278 175.6 403.11 161.012C403.11 154.975 406.967 149.609 412.668 147.765L415.016 146.926C420.549 145.082 423.735 139.045 421.891 133.344L421.052 130.828C419.376 125.295 413.339 122.277 407.638 124.121Z" fill="#F7D3B2"/>
<path d="M405.627 153.299C405.627 153.299 388.356 202.43 315.414 212.323C315.414 212.323 337.883 225.906 364.545 214C391.206 202.094 395.902 203.101 405.627 153.299Z" fill="#EFCBA5"/>
<path d="M219.665 290.799C222.851 294.656 227.882 295.997 232.577 294.488C242.302 291.134 257.729 284.762 259.909 276.714C263.263 264.976 243.141 253.238 229.726 256.592C216.311 259.945 209.939 279.061 209.939 279.061L219.665 290.799Z" fill="#EFCBA5"/>
<path d="M417.533 617.447C417.533 617.447 461.13 677.478 410.825 840.131C410.825 840.131 457.777 845.161 531.557 831.747C531.557 831.747 582.198 752.6 577.838 559.932C577.838 559.932 523.173 601.014 417.533 617.447Z" fill="#91D5DE"/>
<path d="M512.442 595.481C512.442 595.481 565.933 633.88 555.034 772.722C555.034 772.722 584.714 649.475 577.839 559.932L512.442 595.481Z" fill="#84C8D1"/>
<path d="M548.66 239.152C548.66 239.152 556.709 233.116 575.154 226.409C593.599 219.701 618.752 216.347 632.167 233.116C645.581 249.884 682.472 360.555 677.441 400.799C672.411 441.043 619.758 489.672 591.587 503.086C591.587 503.086 569.118 401.638 526.861 321.485L499.194 275.54C499.026 275.54 505.398 261.957 548.66 239.152Z" fill="#FFD105"/>
<path d="M524.85 317.125C524.85 317.125 593.6 437.857 623.783 436.181C653.966 434.504 667.716 428.635 667.716 428.635C667.716 428.635 644.911 476.257 591.588 503.086C591.588 503.086 531.054 331.881 524.85 317.125Z" fill="#FFB600"/>
<path d="M415.687 208.634C415.687 208.634 466.16 145.921 498.02 167.719C529.88 189.518 556.709 229.762 556.709 233.116C556.709 236.47 508.584 259.275 499.026 275.54C499.026 275.54 464.148 222.72 415.687 208.634Z" fill="#FFD105"/>
<path d="M422.562 209.808C422.562 209.808 531.556 238.314 556.709 233.284C556.709 233.284 527.029 251.058 499.026 275.707C499.026 275.54 430.946 215.677 422.562 209.808Z" fill="#FFB600"/>
<path d="M360.519 307.567C360.519 307.567 360.687 308.573 360.687 310.418C361.022 319.808 360.855 350.83 345.428 377.491C326.982 409.351 224.696 434.504 206.25 434.504C206.25 434.504 197.866 452.949 199.543 471.394C201.22 489.839 338.72 491.516 373.934 474.748C373.934 474.748 385.672 326.348 360.519 307.567Z" fill="#EA374C"/>
<path d="M288.415 261.79C276.677 270.174 249.848 281.912 243.141 278.559C236.433 275.205 206.586 229.595 206.586 229.595C206.586 229.595 184.451 188.009 186.128 172.918C187.805 157.826 217.988 154.473 234.757 149.442C239.116 148.101 243.644 150.784 247.836 155.814C247.165 155.982 201.052 166.211 199.543 171.241C197.866 176.272 207.927 204.778 221.342 228.253C234.757 251.729 246.327 262.461 251.525 262.126C256.555 261.79 285.229 249.046 292.775 242.842C296.464 251.729 295.793 256.424 288.415 261.79Z" fill="#4D4D4D"/>
<path d="M292.608 242.673C285.062 248.878 256.556 261.622 251.358 261.957C246.328 262.292 234.59 251.561 221.175 228.085C207.76 204.609 197.699 176.103 199.376 171.073C201.053 166.042 246.998 155.813 247.669 155.646C259.91 169.731 271.648 202.932 281.541 221.378C286.572 230.768 290.428 237.475 292.608 242.673Z" fill="#F2F2F2"/>
<path d="M591.922 506.607C591.922 513.818 587.73 518.345 583.37 521.028C578.507 524.046 573.477 525.053 573.477 525.053C573.477 525.053 575.153 530.083 573.477 538.467C571.8 546.851 575.153 545.175 519.818 572.004C464.985 598.498 437.317 610.068 398.583 600.845C398.247 600.845 397.744 600.678 397.409 600.51C357.165 590.449 362.195 506.607 368.903 419.412C375.61 332.217 350.457 270.174 350.457 270.174C347.104 261.789 360.518 243.344 380.64 223.222C400.762 203.1 417.531 209.808 417.531 209.808C528.202 236.637 591.922 491.516 591.922 506.607Z" fill="#FC3D59"/>
<path d="M583.036 556.41C499.697 613.758 425.246 622.478 413.005 615.435C404.621 610.74 400.429 604.2 398.584 600.679C437.319 610.069 464.987 598.499 519.819 571.837C575.155 545.008 571.801 546.685 573.478 538.3C575.155 529.916 573.478 524.886 573.478 524.886C573.478 524.886 578.508 524.047 583.371 520.861C591.588 551.38 583.036 556.41 583.036 556.41Z" fill="#EA374C"/>
<path d="M520.993 668.758C478.402 668.59 449.057 627.507 448.722 627.004L451.405 624.992C451.74 625.328 480.079 665.069 520.993 665.236V668.758Z" fill="#51C3C4"/>
<path d="M420.886 577.37L417.533 576.699C422.395 552.217 410.993 494.031 410.825 493.528L414.179 492.857C414.682 495.205 425.917 552.05 420.886 577.37Z" fill="white"/>
<path d="M346.267 309.077L342.913 308.741C343.081 307.903 345.596 285.936 369.239 256.256C392.883 226.744 416.694 207.293 416.862 207.125L419.041 209.808C418.874 209.976 395.23 229.092 371.922 258.436C348.782 287.278 346.267 308.909 346.267 309.077Z" fill="#D01F26"/>
<path d="M477.897 298.681C477.897 298.681 489.635 441.212 447.714 454.626C405.793 468.041 296.799 444.565 244.817 333.894C244.817 333.894 238.11 322.156 238.11 313.772L271.647 290.296C300.153 347.309 373.934 375.815 383.995 367.431C394.056 359.047 390.702 290.296 390.702 290.296C390.702 290.296 389.025 265.144 415.854 251.729C442.684 238.315 479.574 255.083 477.897 298.681Z" fill="#FC3D59"/>
<path d="M382.319 391.074C380.642 379 382.319 373.802 382.319 373.467L385.504 374.473L383.995 373.97L385.672 374.473C385.672 374.473 384.163 379.336 385.672 390.403L382.319 391.074Z" fill="#D01F26"/>
<path d="M391.206 383.695C389.361 381.851 386.343 374.473 385.84 373.131L389.026 371.958C390.367 375.311 392.715 380.509 393.721 381.515L391.206 383.695Z" fill="#DD2641"/>
<path d="M228.049 308.573C228.049 308.573 229.39 318.802 233.582 329.198C237.774 339.427 271.143 313.101 278.186 304.214C285.229 295.326 269.802 282.247 267.119 283.588C264.268 285.098 226.707 304.214 228.049 308.573Z" fill="#FC3D59"/>
<path d="M278.356 304.884C278.356 304.884 267.456 336.912 250.353 343.955C250.353 343.955 246.664 336.912 242.975 329.198L278.356 304.884Z" fill="#EA374C"/>
<path d="M428.432 213.162C428.432 213.162 382.319 241.668 389.027 290.296C395.734 338.924 394.895 327.354 394.895 327.354L400.094 275.875C401.435 265.311 405.292 255.25 411.328 246.531C419.042 235.464 430.78 222.217 443.021 220.205C443.021 220.205 439.332 216.683 428.432 213.162Z" fill="#FFD105"/>
<path d="M466.161 437.69C466.161 437.69 511.603 479.778 583.707 469.717L588.905 490.51C588.905 490.51 500.368 514.321 455.597 450.098C455.597 449.931 461.13 437.522 466.161 437.69Z" fill="#FFD105"/>
<path d="M546.648 505.266C485.276 505.266 458.446 471.226 458.111 470.891L460.794 468.879C461.129 469.214 490.474 506.272 558.721 501.577L558.889 504.931C554.696 505.099 550.672 505.266 546.648 505.266Z" fill="#DD2641"/>
<path d="M197.866 236.637C197.866 236.637 236.433 204.777 234.756 216.515C233.08 228.253 228.049 233.283 221.342 243.344C221.342 243.344 234.756 246.698 238.11 260.112C241.464 273.527 217.988 288.619 217.988 288.619C217.988 288.619 184.451 253.405 197.866 236.637Z" fill="#F7D3B2"/>
<path d="M171.708 809.276H171.54C170.199 809.108 169.192 807.934 169.192 806.593C182.272 647.461 152.089 577.705 124.589 547.187C102.454 522.705 80.3201 521.866 80.1525 521.866C78.811 521.866 77.6372 520.693 77.6372 519.351C77.6372 518.01 78.811 516.836 80.1525 516.836C81.1586 516.836 104.299 517.507 127.942 543.498C156.281 574.687 187.302 645.785 174.055 806.928C174.223 808.27 173.049 809.276 171.708 809.276Z" fill="#E6E6E6"/>
<path d="M44.6038 550.541C69.2378 550.541 89.2076 530.571 89.2076 505.937C89.2076 481.303 69.2378 461.333 44.6038 461.333C19.9698 461.333 0 481.303 0 505.937C0 530.571 19.9698 550.541 44.6038 550.541Z" fill="#E6E6E6"/>
<path d="M501.039 271.013L498.356 269C498.692 268.497 507.244 256.759 539.104 238.314C570.46 220.204 577.838 219.701 578.509 219.701V223.055C578.341 223.055 571.131 223.726 540.78 241.333C509.759 259.275 501.207 271.013 501.039 271.013Z" fill="white"/>
<path d="M637.03 312.095C597.959 308.741 559.728 236.973 558.051 233.954L561.069 232.445C561.404 233.116 600.139 305.555 637.365 308.909L637.03 312.095Z" fill="#FFB600"/>
<path d="M647.091 325.342C639.21 325.342 629.149 324.335 618.082 320.311C594.271 311.759 555.201 250.219 553.524 247.536L556.375 245.692C556.71 246.363 596.619 309.076 619.256 317.125C642.061 325.174 661.68 320.479 661.847 320.479L662.686 323.665C662.351 323.832 656.314 325.342 647.091 325.342Z" fill="#FFB600"/>
<path d="M655.643 312.095V308.741C655.643 308.741 658.829 308.574 665.033 305.555L666.542 308.574C659.667 311.927 655.978 312.095 655.643 312.095Z" fill="#FFB600"/>
<path d="M619.759 483.971C612.548 367.766 517.304 260.616 516.466 259.61L518.981 257.43C519.987 258.437 615.902 366.425 623.113 483.803L619.759 483.971Z" fill="white"/>
<path d="M571.465 429.977L570.962 426.623C571.297 426.623 607.014 419.748 673.752 360.891L675.932 363.406C608.188 423.102 572.806 429.641 571.465 429.977Z" fill="white"/>
<path d="M484.941 216.683C483.096 216.683 481.252 216.515 479.407 216.348C448.889 212.994 431.45 193.04 430.779 192.201L433.294 190.021C433.462 190.189 450.565 209.808 479.742 212.994C508.752 216.18 536.755 190.189 537.09 190.021L539.438 192.537C538.264 193.543 513.279 216.683 484.941 216.683Z" fill="#FFB600"/>
<path d="M520.824 197.735L518.979 194.884C522.669 192.369 529.041 187.674 530.214 185.494L533.233 187.003C531.22 190.692 521.83 197.064 520.824 197.735Z" fill="#FFB600"/>
<path d="M587.564 435.845L586.055 432.826C590.079 430.814 596.283 427.46 597.29 426.454L599.637 428.802C597.96 430.646 589.408 435.006 587.564 435.845Z" fill="white"/>
<path d="M673.416 378.833L671.404 376.15C671.404 376.15 678.111 371.119 681.297 367.933L683.645 370.281C680.291 373.634 673.751 378.497 673.416 378.833Z" fill="white"/>
<path d="M404.789 526.394L401.436 525.891C403.783 510.632 401.436 493.025 401.436 492.857L404.789 492.354C404.957 493.025 407.304 510.631 404.789 526.394Z" fill="white"/>
<path d="M215.308 447.415C215.308 447.415 238.113 478.101 264.942 479.778C291.771 481.455 288.082 486.318 288.082 486.318C288.082 486.318 199.545 486.486 199.545 473.071C199.545 459.656 215.308 447.415 215.308 447.415Z" fill="#DD2641"/>
<path d="M192.501 439.031C192.669 438.36 192.166 437.522 191.495 437.354L167.684 429.473C137.501 419.412 125.763 424.443 134.147 432.827C142.531 441.211 166.007 459.656 174.391 457.979C182.608 456.303 189.147 454.626 192.501 439.031Z" fill="#F7D3B2"/>
<path d="M156.953 449.092C156.953 449.092 144.209 446.241 144.209 449.595C144.209 452.949 161.145 462.339 172.715 458.482C184.453 454.626 156.953 449.092 156.953 449.092Z" fill="#F7D3B2"/>
<path d="M590.415 222.552C590.247 222.217 577 183.65 607.686 158.162L609.866 160.677C581.025 184.824 593.433 221.043 593.601 221.379L590.415 222.552Z" fill="#4D4D4D"/>
<path d="M618.753 167.887C628.014 167.887 635.522 160.379 635.522 151.118C635.522 141.858 628.014 134.35 618.753 134.35C609.492 134.35 601.985 141.858 601.985 151.118C601.985 160.379 609.492 167.887 618.753 167.887Z" fill="#FC3D59"/>
<path d="M580.855 224.564C580.855 224.564 581.862 238.147 598.63 233.116C615.398 228.086 613.386 221.881 613.386 221.881C613.386 221.881 596.785 219.366 580.855 224.564Z" fill="#FFB600"/>
<path d="M216.311 432.324C216.311 432.324 214.634 467.873 209.603 477.934C204.573 487.995 184.451 473.741 186.128 468.04C187.805 462.339 196.189 433.833 201.219 432.491C206.25 430.982 216.311 428.132 216.311 432.324Z" fill="#FC3D59"/>
<path d="M422.395 459.153C391.877 459.153 370.749 448.254 369.743 447.751L371.252 444.732C371.587 444.9 400.261 459.824 438.325 454.793C471.694 450.434 474.209 401.302 476.725 353.848C477.06 347.644 477.395 341.439 477.731 335.57L481.085 335.738C480.749 341.775 480.414 347.811 480.078 354.015C477.563 402.979 474.88 453.452 438.828 458.147C433.127 458.818 427.593 459.153 422.395 459.153Z" fill="white"/>
<path d="M286.739 165.707C286.739 165.707 224.697 93.9387 315.246 53.6947C405.795 13.4506 417.533 6.74329 425.917 45.3105C434.301 83.8777 413.173 123.786 413.173 123.786C413.173 123.786 401.267 124.289 400.261 128.314C399.087 132.506 399.087 139.213 399.087 139.213C399.087 139.213 394.057 147.597 389.026 144.244C383.996 140.89 373.432 107.353 364.377 103.161C355.49 98.9692 339.895 101.317 329.163 104.335C318.432 107.353 315.078 114.061 311.724 120.768C308.371 127.475 299.483 119.427 296.297 124.289C293.111 129.152 285.063 136.866 286.739 165.707Z" fill="#534741"/>
<path d="M293.615 104.838C293.279 104.167 285.566 89.5788 290.596 72.8105C294.285 60.9049 303.34 50.8439 317.929 43.2982C345.597 28.7097 364.042 22.6731 378.966 17.8103C387.853 14.9597 395.399 12.4444 403.447 8.75536C417.868 2.04802 420.048 0.874234 420.216 0.538867C419.88 0.874234 419.377 1.54497 419.88 2.38339C420.216 3.2218 421.054 3.38949 421.557 3.38949L420.383 0.2035C422.228 -0.467234 422.899 0.706551 422.899 1.04192C423.569 2.88644 423.569 2.88644 404.789 11.606C396.74 15.295 389.027 17.8103 379.972 20.8286C365.216 25.6914 346.77 31.728 319.438 46.1488C305.856 53.3592 297.136 62.5818 293.782 73.6489C289.087 89.0758 296.465 102.993 296.465 103.161L293.615 104.838Z" fill="#1A1A1A"/>
<path d="M352.974 153.298C355.657 159 354.987 162.018 352.807 163.024C350.627 164.03 347.944 162.689 345.261 156.987C342.578 151.286 342.075 145.753 344.255 144.747C346.435 143.74 350.291 147.597 352.974 153.298Z" fill="#534741"/>
<path d="M315.915 171.744C318.598 177.445 317.927 180.464 315.747 181.47C313.567 182.476 310.884 181.134 308.201 175.433C305.518 169.732 305.015 164.198 307.195 163.192C309.375 162.186 313.232 166.043 315.915 171.744Z" fill="#534741"/>
<path d="M543.573 85.96C543.573 85.1136 543.331 84.5091 542.847 84.0255C542.605 83.7836 542.122 83.4209 541.396 83.5418C540.55 83.5418 539.583 84.0255 539.462 85.8391C539.341 86.8063 539.341 87.7736 539.341 88.8617C539.22 99.5016 538.011 109.053 535.351 118C532.449 127.915 527.976 137.225 521.688 146.655L521.447 146.897C520.963 147.502 519.875 149.074 521.567 150.283C521.93 150.645 522.414 150.766 522.776 150.766C522.897 150.766 523.018 150.766 523.139 150.766C523.986 150.645 524.469 149.799 524.832 149.315L524.953 149.074C526.162 147.381 527.25 145.567 528.217 143.875L528.338 143.633C537.406 128.761 542.484 111.955 543.331 93.698V91.5217C543.573 89.5872 543.573 87.7736 543.573 85.96Z" fill="white"/>
<path d="M541.394 54.7658C539.943 54.7658 538.734 53.5568 538.734 52.1059V24.66C538.734 23.2091 539.943 22 541.394 22C542.845 22 544.054 23.2091 544.054 24.66V52.1059C544.054 53.5568 542.845 54.7658 541.394 54.7658Z" fill="white"/>
<path d="M524.106 71.3302H496.66C495.209 71.3302 494 70.1211 494 68.6702C494 67.2193 495.209 66.0103 496.66 66.0103H524.106C525.557 66.0103 526.766 67.2193 526.766 68.6702C526.645 70.1211 525.557 71.3302 524.106 71.3302Z" fill="white"/>
<path d="M526.403 62.6254C525.92 62.6254 525.557 62.5045 525.073 62.2627L501.376 48.4793C500.166 47.7538 499.683 46.182 500.408 44.8521C501.134 43.643 502.705 43.1593 504.035 43.8848L527.733 57.6682C528.942 58.3937 529.426 59.9655 528.701 61.2954C528.217 62.1418 527.371 62.6254 526.403 62.6254Z" fill="white"/>
<path d="M518.424 110.867C517.94 110.867 517.577 110.746 517.094 110.504C515.885 109.779 515.401 108.207 516.126 106.877L529.91 83.1792C530.635 81.9701 532.207 81.4865 533.537 82.2119C534.746 82.9374 535.23 84.5092 534.504 85.8392L520.721 109.537C520.237 110.383 519.391 110.867 518.424 110.867Z" fill="white"/>
<path d="M502.463 93.8189C501.617 93.8189 500.65 93.3352 500.166 92.4889C499.441 91.2798 499.803 89.5871 501.133 88.8617L524.831 75.0783C526.04 74.3528 527.733 74.7155 528.458 76.0455C529.184 77.2546 528.821 78.9473 527.491 79.6727L503.793 93.4562C503.31 93.698 502.826 93.8189 502.463 93.8189Z" fill="white"/>
<path d="M532.568 56.6999C531.722 56.6999 530.876 56.2163 530.271 55.4908L516.004 32.0348C515.279 30.8258 515.641 29.1331 516.85 28.4076C518.059 27.6822 519.752 28.0449 520.478 29.254L534.745 52.71C535.47 53.919 535.107 55.6117 533.898 56.3372C533.415 56.579 532.931 56.6999 532.568 56.6999Z" fill="white"/>
<path d="M559.894 71.3302H587.34C588.791 71.3302 590 70.1211 590 68.6702C590 67.2193 588.791 66.0103 587.34 66.0103H559.894C558.443 66.0103 557.234 67.2193 557.234 68.6702C557.355 70.1211 558.443 71.3302 559.894 71.3302Z" fill="white"/>
<path d="M557.597 62.6254C558.08 62.6254 558.443 62.5045 558.927 62.2627L582.624 48.4793C583.833 47.7538 584.317 46.182 583.592 44.8521C582.866 43.643 581.294 43.1593 579.964 43.8848L556.267 57.6682C555.058 58.3937 554.574 59.9655 555.299 61.2954C555.783 62.1418 556.629 62.6254 557.597 62.6254Z" fill="white"/>
<path d="M565.576 110.867C566.059 110.867 566.422 110.746 566.906 110.504C568.115 109.779 568.598 108.207 567.873 106.877L554.09 83.1792C553.364 81.9701 551.792 81.4865 550.462 82.2119C549.253 82.9374 548.77 84.5092 549.495 85.8392L563.279 109.537C563.762 110.383 564.609 110.867 565.576 110.867Z" fill="white"/>
<path d="M581.657 93.8189C582.503 93.8189 583.47 93.3352 583.954 92.4889C584.679 91.2798 584.317 89.5871 582.987 88.8617L559.168 75.0783C557.959 74.3528 556.266 74.7155 555.541 76.0455C554.815 77.2546 555.178 78.9473 556.508 79.6727L580.206 93.4562C580.689 93.698 581.173 93.8189 581.657 93.8189Z" fill="white"/>
<path d="M551.552 56.6999C552.398 56.6999 553.245 56.2163 553.849 55.4908L568.116 32.0348C568.842 30.8258 568.479 29.1331 567.27 28.4076C566.061 27.6822 564.368 28.0449 563.643 29.254L549.376 52.71C548.65 53.919 549.013 55.6117 550.222 56.3372C550.585 56.579 551.068 56.6999 551.552 56.6999Z" fill="white"/>
<path d="M551.671 69.7591C551.55 75.3208 547.076 79.6734 541.515 79.5525C535.832 79.4316 531.6 74.8372 531.721 69.0336C531.842 63.7137 536.437 59.2401 541.757 59.361C547.318 59.4819 551.792 64.0764 551.671 69.7591Z" fill="white"/>
</svg>
