<svg width="50" height="52" viewBox="0 0 50 52" fill="none" xmlns="http://www.w3.org/2000/svg">
<g style="mix-blend-mode:multiply">
<path d="M1.875 43.5043L11.7987 36.634L21.7223 43.8859L11.7987 50.7562L1.875 43.5043Z" fill="white" stroke="#C3C3BF" stroke-linecap="round" stroke-linejoin="round" stroke-dasharray="4 4"/>
<path d="M27.8291 43.5043L37.7528 36.634L47.6764 43.8859L37.7528 50.7562L27.8291 43.5043Z" fill="white" stroke="#C3C3BF" stroke-linecap="round" stroke-linejoin="round" stroke-dasharray="4 4"/>
<path d="M1.875 25.947L11.7987 19.0768L21.7223 26.3287L11.7987 33.1989L1.875 25.947Z" fill="white" stroke="#C3C3BF" stroke-linecap="round" stroke-linejoin="round" stroke-dasharray="4 4"/>
<path d="M27.8291 25.947L37.7528 19.0768L47.6764 26.3287L37.7528 33.1989L27.8291 25.947Z" fill="white" stroke="#C3C3BF" stroke-linecap="round" stroke-linejoin="round" stroke-dasharray="4 4"/>
<path d="M14.8525 33.5806V7.62616L24.7762 14.8783V40.8325L14.8525 33.5806Z" fill="white" stroke="#777674" stroke-linecap="round" stroke-linejoin="round"/>
<path d="M34.6992 34.7257V7.62616L24.7756 14.8783V40.8325L34.6992 34.7257Z" fill="white" stroke="#777674" stroke-linecap="round" stroke-linejoin="round"/>
<path d="M14.8525 7.62639L24.7762 0.756165L34.6999 7.62639L24.7762 14.8783L14.8525 7.62639Z" fill="white" stroke="#FC3D59" stroke-linecap="round" stroke-linejoin="round"/>
</g>
</svg>
