<svg width="50" height="50" viewBox="0 0 50 50" fill="none" xmlns="http://www.w3.org/2000/svg">
<g style="mix-blend-mode:multiply">
<path d="M24.6576 18.122V18.1434C24.6576 18.1434 24.6629 18.1863 24.6576 18.2077V18.2774C24.6576 18.3095 24.6576 18.3363 24.6522 18.3685V18.54C24.6522 18.54 24.6522 18.5775 24.6469 18.5935C24.6469 18.6257 24.6469 18.6578 24.6361 18.6954C24.6308 18.7489 24.6254 18.7972 24.6147 18.8454C24.6147 18.8883 24.5986 18.9311 24.5933 18.974C24.5826 19.0169 24.5772 19.0544 24.5665 19.0973H24.5611C24.5343 19.2419 24.4968 19.3866 24.4486 19.5313C24.3789 19.7349 24.2932 19.9386 24.1914 20.1422C24.186 20.1476 24.186 20.1529 24.186 20.1583C24.1324 20.2547 24.0788 20.3512 24.0199 20.4477C23.977 20.528 23.9234 20.6031 23.8752 20.6781C23.8431 20.7209 23.8109 20.7692 23.7787 20.812C23.7359 20.8817 23.6876 20.946 23.6341 21.005C23.6233 21.021 23.6073 21.0371 23.5965 21.0585C23.5215 21.1496 23.4411 21.2407 23.3608 21.3265C23.275 21.4229 23.1839 21.5194 23.0928 21.6105C22.9857 21.7123 22.8838 21.8088 22.7713 21.9106C22.7552 21.9267 22.7338 21.9427 22.7177 21.9534C22.6534 22.007 22.5891 22.0606 22.5195 22.1196C22.5034 22.1303 22.4927 22.141 22.4766 22.1517L22.4712 22.1571C22.3748 22.2375 22.2783 22.3125 22.1765 22.3821C22.08 22.4465 21.9889 22.5161 21.8871 22.5804C21.8443 22.6126 21.8014 22.6447 21.7532 22.6715C21.6192 22.7519 21.4852 22.8376 21.3459 22.918C21.2066 22.9984 21.0672 23.0788 20.9226 23.1538C20.7779 23.2288 20.6332 23.3038 20.4831 23.3681C20.3331 23.4432 20.1831 23.5128 20.0277 23.5718C19.8776 23.6414 19.7276 23.7057 19.5722 23.7647H19.5668C19.4114 23.8236 19.256 23.8826 19.0952 23.9308C19.0899 23.9362 19.0845 23.9415 19.0792 23.9362C18.9238 23.9951 18.763 24.0487 18.6022 24.0969C18.5969 24.0969 18.5915 24.0969 18.5915 24.0969C18.4308 24.1505 18.2646 24.1987 18.0985 24.2416C17.9217 24.2898 17.7341 24.3274 17.5573 24.3702C17.4769 24.3917 17.3965 24.4077 17.3161 24.4292C17.2358 24.4506 17.1607 24.4667 17.0804 24.4828H17.0696C16.8982 24.5203 16.7267 24.5524 16.5552 24.5792H16.5445C16.373 24.6114 16.1962 24.6382 16.0247 24.665H16.014C14.9797 24.8096 13.9134 24.8686 12.8523 24.8471C12.7345 24.8418 12.6166 24.8418 12.4987 24.8364C12.4665 24.8364 12.429 24.8311 12.3915 24.8311C12.3218 24.8311 12.2522 24.8311 12.1825 24.8204C12.0164 24.8096 11.8556 24.7989 11.6895 24.7828C11.652 24.7828 11.6198 24.7828 11.5877 24.7775C11.4752 24.7668 11.368 24.7561 11.2608 24.7453C11.2072 24.74 11.159 24.7346 11.1108 24.7293C11.0518 24.7293 10.9929 24.7185 10.9339 24.7078C10.9125 24.7078 10.8964 24.7078 10.875 24.7025C10.7357 24.6864 10.591 24.665 10.4516 24.6435C10.2534 24.6167 10.0551 24.5846 9.86218 24.5471C9.74965 24.5256 9.63712 24.5042 9.52458 24.4828C9.51387 24.4828 9.50851 24.4828 9.50315 24.4774C9.48172 24.4774 9.46028 24.472 9.4442 24.4667C9.29416 24.4345 9.14948 24.4024 9.00479 24.3649C8.85475 24.3381 8.7047 24.3006 8.56002 24.2577C8.41533 24.2202 8.27065 24.1827 8.13132 24.1398C8.08309 24.1291 8.03486 24.113 7.992 24.0969C7.97056 24.0969 7.95448 24.0862 7.93305 24.0755C7.84731 24.0541 7.76693 24.0273 7.68655 24.0005C7.62224 23.9844 7.55794 23.963 7.49899 23.9362C7.41326 23.9094 7.32752 23.8772 7.24714 23.8504C7.23642 23.8451 7.23106 23.8451 7.22034 23.8397C7.20427 23.829 7.18819 23.8236 7.17211 23.8236C7.1614 23.8183 7.15604 23.8183 7.14532 23.8129C7.14532 23.8076 7.13996 23.8076 7.13996 23.8076C7.12388 23.8022 7.10781 23.7968 7.09173 23.7915C7.0435 23.7754 6.99528 23.754 6.94169 23.7379C6.92025 23.7272 6.89882 23.7165 6.87738 23.7111H6.86131C6.75949 23.6629 6.65232 23.6146 6.5505 23.5718C6.50227 23.5557 6.45405 23.5343 6.40582 23.5128C6.40046 23.5075 6.38974 23.5021 6.38438 23.5021C6.36295 23.4968 6.34151 23.486 6.32008 23.4753C6.24506 23.4432 6.17003 23.4057 6.09501 23.3681C6.06286 23.3574 6.03071 23.3414 5.99856 23.3253C5.95033 23.2985 5.9021 23.277 5.85387 23.2503C5.84851 23.2503 5.84851 23.2449 5.84315 23.2449C5.7199 23.186 5.60201 23.1216 5.48412 23.0573C5.4734 23.0573 5.45733 23.0466 5.44661 23.0359C5.43589 23.0306 5.43053 23.0252 5.41982 23.0252C5.4091 23.0252 5.39838 23.0145 5.38766 23.0091C5.33408 22.977 5.28049 22.9502 5.2269 22.918C4.94825 22.7573 4.68567 22.5911 4.43917 22.4143C4.19267 22.2375 3.96225 22.0606 3.75326 21.8784C3.69967 21.8302 3.65144 21.782 3.59786 21.7391C3.54963 21.6962 3.5014 21.648 3.45317 21.5944C3.35136 21.4926 3.2549 21.3961 3.15844 21.2943C2.5154 20.5816 2.11349 19.8153 1.95273 19.0383C1.87235 18.6846 1.84556 18.3202 1.87235 17.9666C1.87771 17.8916 1.88307 17.8219 1.89379 17.7522C1.89915 17.6826 1.90986 17.6183 1.92058 17.5593C1.9313 17.4789 1.94737 17.4039 1.96881 17.3235C2.0224 17.0985 2.09206 16.8788 2.18316 16.659C2.22603 16.5572 2.27426 16.4554 2.32784 16.3536C2.40286 16.2036 2.49396 16.0482 2.59042 15.8981C2.64401 15.8177 2.70295 15.732 2.7619 15.6516C2.81013 15.5873 2.85835 15.523 2.91194 15.4587C2.96017 15.3944 3.0084 15.3301 3.06734 15.2711C3.14772 15.1747 3.23882 15.0782 3.32992 14.9818C3.36207 14.9496 3.39423 14.9175 3.43174 14.88H3.43709C3.61929 14.6924 3.82292 14.5156 4.04799 14.3387C4.0855 14.3119 4.12301 14.2798 4.16588 14.2476C4.47133 14.0118 4.80892 13.7921 5.17332 13.5778C9.61032 11.0003 16.8339 11.0003 21.2977 13.5778C21.6942 13.8082 22.0586 14.0494 22.3855 14.3012L22.4444 14.3494C22.5195 14.4084 22.5891 14.4673 22.6588 14.5263C22.7177 14.5745 22.7767 14.6227 22.8303 14.6763C22.916 14.746 22.9964 14.821 23.0714 14.9014C23.0821 14.9067 23.0928 14.9175 23.1035 14.9335C23.1893 15.0139 23.2697 15.0997 23.35 15.1854C23.5858 15.4426 23.7841 15.7052 23.9556 15.9731C23.9931 16.0321 24.0306 16.091 24.0628 16.1553C24.2235 16.4179 24.3468 16.6912 24.4379 16.9645C24.4647 17.0395 24.4861 17.1092 24.5075 17.1788C24.529 17.2485 24.545 17.3235 24.5611 17.3932C24.5772 17.4521 24.5879 17.5111 24.5986 17.5754C24.6147 17.6397 24.6254 17.704 24.6308 17.7737C24.6415 17.8487 24.6469 17.9237 24.6522 18.0041C24.6576 18.047 24.6576 18.0845 24.6576 18.122Z" fill="white" stroke="#FC3D59" stroke-linecap="round" stroke-linejoin="round"/>
<path d="M5.85122 23.261C5.77084 23.2235 5.69046 23.1859 5.61544 23.1431C5.57257 23.1216 5.53506 23.0948 5.49219 23.0734C5.61008 23.1377 5.72797 23.202 5.85122 23.261Z" fill="white" stroke="#FC3D59" stroke-linecap="round" stroke-linejoin="round"/>
<path d="M8.00035 24.113H7.98963C7.98963 24.113 7.95748 24.0969 7.94141 24.0916C7.96284 24.1023 7.97892 24.1077 8.00035 24.113Z" fill="white" stroke="#FC3D59" stroke-linecap="round" stroke-linejoin="round"/>
<path d="M22.5272 22.1357C22.5272 22.1357 22.5005 22.1625 22.4844 22.1732C22.4844 22.1732 22.5112 22.1464 22.5272 22.1357Z" fill="white" stroke="#FC3D59" stroke-linecap="round" stroke-linejoin="round"/>
<path d="M23.6043 21.0746C23.5614 21.1336 23.5132 21.1872 23.4703 21.2354C23.4114 21.3051 23.3524 21.3747 23.2881 21.439C23.2292 21.5033 23.1649 21.5676 23.1006 21.6266C23.1917 21.5355 23.2828 21.439 23.3685 21.3426C23.4489 21.2568 23.5293 21.1657 23.6043 21.0746Z" fill="white" stroke="#FC3D59" stroke-linecap="round" stroke-linejoin="round"/>
<path d="M24.1946 20.1744C24.1517 20.2601 24.1035 20.3512 24.0499 20.4369C24.0017 20.5227 23.9481 20.6084 23.8838 20.6942C23.932 20.6191 23.9856 20.5441 24.0285 20.4637C24.0874 20.3673 24.141 20.2708 24.1946 20.1744Z" fill="white" stroke="#FC3D59" stroke-linecap="round" stroke-linejoin="round"/>
<path d="M24.4559 19.5474C24.4399 19.6117 24.4131 19.6814 24.3863 19.7457C24.3702 19.7993 24.3434 19.8528 24.322 19.9064C24.2845 19.9922 24.2469 20.0779 24.2041 20.1583C24.2041 20.1636 24.1987 20.169 24.1934 20.1744C24.1934 20.169 24.1934 20.1636 24.1987 20.1583C24.3005 19.9547 24.3863 19.751 24.4559 19.5474Z" fill="white" stroke="#FC3D59" stroke-linecap="round" stroke-linejoin="round"/>
<path d="M24.5739 19.1133C24.5739 19.1455 24.5686 19.1776 24.5579 19.2098C24.5311 19.3223 24.4989 19.4348 24.4561 19.5474C24.5043 19.4027 24.5418 19.258 24.5686 19.1133H24.5739Z" fill="white" stroke="#FC3D59" stroke-linecap="round" stroke-linejoin="round"/>
<path d="M24.601 18.9901C24.5957 19.0276 24.5903 19.0705 24.5796 19.1133H24.5742C24.5849 19.0705 24.5903 19.033 24.601 18.9901Z" fill="white" stroke="#FC3D59" stroke-linecap="round" stroke-linejoin="round"/>
<path d="M24.6196 18.8615C24.6196 18.8615 24.6196 18.899 24.6196 18.9151C24.6142 18.9418 24.6089 18.9633 24.6035 18.9901C24.6089 18.9472 24.6196 18.9043 24.625 18.8615H24.6196Z" fill="white" stroke="#FC3D59" stroke-linecap="round" stroke-linejoin="round"/>
<path d="M3.16464 21.3104C2.51088 20.603 2.10362 19.8367 1.9375 19.049H1.95893C2.1197 19.8314 2.5216 20.5977 3.16464 21.3104Z" fill="white" stroke="#FC3D59" stroke-linecap="round" stroke-linejoin="round"/>
<path d="M5.39417 23.0251C5.33523 22.993 5.27628 22.9662 5.21733 22.934C4.79935 22.6929 4.42425 22.441 4.08665 22.1677C3.97411 22.082 3.86158 21.9909 3.75977 21.8945C3.96876 22.0767 4.19918 22.2535 4.44568 22.4303C4.69218 22.6072 4.95476 22.7733 5.23341 22.934C5.287 22.9662 5.34058 22.993 5.39417 23.0251Z" fill="white" stroke="#FC3D59" stroke-linecap="round" stroke-linejoin="round"/>
<path d="M5.85122 23.261C5.77084 23.2235 5.69046 23.1859 5.61544 23.1431C5.57257 23.1216 5.53506 23.0948 5.49219 23.0734C5.61008 23.1377 5.72797 23.202 5.85122 23.261Z" fill="white" stroke="#FC3D59" stroke-linecap="round" stroke-linejoin="round"/>
<path d="M6.32836 23.4914C6.21583 23.4485 6.11401 23.3949 6.00684 23.3413C6.03899 23.3574 6.07114 23.3735 6.10329 23.3842C6.17831 23.4217 6.25334 23.4592 6.32836 23.4914Z" fill="white" stroke="#FC3D59" stroke-linecap="round" stroke-linejoin="round"/>
<path d="M7.99978 24.113H7.98906C7.88725 24.0808 7.79079 24.0487 7.69434 24.0165C7.77472 24.0433 7.8551 24.0701 7.94084 24.0915C7.96227 24.1023 7.97835 24.1076 7.99978 24.113Z" fill="white" stroke="#FC3D59" stroke-linecap="round" stroke-linejoin="round"/>
<path d="M22.5272 22.1357C22.5272 22.1357 22.5005 22.1625 22.4844 22.1732C22.4844 22.1732 22.5112 22.1464 22.5272 22.1357Z" fill="white" stroke="#FC3D59" stroke-linecap="round" stroke-linejoin="round"/>
<path d="M23.6043 21.0746C23.5614 21.1336 23.5132 21.1872 23.4703 21.2354C23.4114 21.3051 23.3524 21.3747 23.2881 21.439C23.2292 21.5033 23.1649 21.5676 23.1006 21.6266C23.1917 21.5355 23.2828 21.439 23.3685 21.3426C23.4489 21.2568 23.5293 21.1657 23.6043 21.0746Z" fill="white" stroke="#FC3D59" stroke-linecap="round" stroke-linejoin="round"/>
<path d="M24.1946 20.1744C24.1517 20.2601 24.1035 20.3512 24.0499 20.4369C24.0017 20.5227 23.9481 20.6084 23.8838 20.6942C23.932 20.6191 23.9856 20.5441 24.0285 20.4637C24.0874 20.3673 24.141 20.2708 24.1946 20.1744Z" fill="white" stroke="#FC3D59" stroke-linecap="round" stroke-linejoin="round"/>
<path d="M24.4559 19.5474C24.4399 19.6117 24.4131 19.6814 24.3863 19.7457C24.3702 19.7993 24.3434 19.8528 24.322 19.9064C24.2845 19.9922 24.2469 20.0779 24.2041 20.1583C24.2041 20.1636 24.1987 20.169 24.1934 20.1744C24.1934 20.169 24.1934 20.1636 24.1987 20.1583C24.3005 19.9547 24.3863 19.751 24.4559 19.5474Z" fill="white" stroke="#FC3D59" stroke-linecap="round" stroke-linejoin="round"/>
<path d="M24.5793 19.1133C24.5739 19.1455 24.5686 19.1776 24.5579 19.2098C24.5311 19.3223 24.4989 19.4348 24.4561 19.5474C24.5043 19.4027 24.5418 19.258 24.5686 19.1133H24.5793Z" fill="white" stroke="#FC3D59" stroke-linecap="round" stroke-linejoin="round"/>
<path d="M25.5268 19.1187L25.5161 37.7402C25.5107 39.246 24.6855 40.7518 23.035 42.0057C23.0297 42.0165 23.0243 42.0165 23.0189 42.0165C22.9386 42.0808 22.8582 42.1397 22.7724 42.204C22.5152 42.3862 22.2419 42.5577 21.9526 42.7292C17.1833 45.4996 9.41855 45.4996 4.61715 42.7292C4.19381 42.4827 3.80263 42.2254 3.45431 41.9522C1.81455 40.6875 0.994667 39.1817 1.00003 37.6705L1.01074 19.0651C1.01074 20.8871 2.21645 22.7144 4.62787 24.1077C6.77671 25.3509 9.52573 26.0368 12.3283 26.1654C15.7847 26.3208 19.3268 25.6349 21.9633 24.1077C22.2794 23.9201 22.5742 23.7326 22.8528 23.5289C24.6266 22.2482 25.5161 20.6835 25.5215 19.1187H25.5268Z" fill="white" stroke="#FC3D59" stroke-linecap="round" stroke-linejoin="round"/>
<path d="M3.16464 21.3104C2.51088 20.603 2.10362 19.8367 1.9375 19.049H1.95893C2.1197 19.8314 2.5216 20.5977 3.16464 21.3104Z" fill="white" stroke="#FC3D59" stroke-linecap="round" stroke-linejoin="round"/>
<path d="M4.05551 14.3548C3.83044 14.5316 3.62681 14.7085 3.44461 14.896H3.35352C3.39639 14.8585 3.43925 14.8263 3.48748 14.7888L4.05551 14.3548Z" fill="white" stroke="#FC3D59" stroke-linecap="round" stroke-linejoin="round"/>
<path d="M5.39346 23.0252C5.33452 22.993 5.27557 22.9662 5.21662 22.9341C4.79865 22.6929 4.42354 22.4411 4.08594 22.1678C4.20383 22.2589 4.32172 22.3446 4.44497 22.4303C4.69147 22.6072 4.95405 22.7733 5.2327 22.9341C5.28629 22.9662 5.33987 22.993 5.39346 23.0252Z" fill="white" stroke="#FC3D59" stroke-linecap="round" stroke-linejoin="round"/>
<path d="M5.85122 23.261C5.77084 23.2235 5.69046 23.1859 5.61544 23.1431C5.57257 23.1216 5.53506 23.0948 5.49219 23.0734C5.61008 23.1377 5.72797 23.202 5.85122 23.261Z" fill="white" stroke="#FC3D59" stroke-linecap="round" stroke-linejoin="round"/>
<path d="M6.32836 23.4914C6.21583 23.4485 6.11401 23.3949 6.00684 23.3413C6.03899 23.3574 6.07114 23.3735 6.10329 23.3842C6.17831 23.4217 6.25334 23.4592 6.32836 23.4914Z" fill="white" stroke="#FC3D59" stroke-linecap="round" stroke-linejoin="round"/>
<path d="M7.99978 24.113H7.98906C7.88725 24.0808 7.79079 24.0487 7.69434 24.0165C7.77472 24.0433 7.8551 24.0701 7.94084 24.0915C7.96227 24.1023 7.97835 24.1076 7.99978 24.113Z" fill="white" stroke="#FC3D59" stroke-linecap="round" stroke-linejoin="round"/>
<path d="M22.5272 22.1357C22.5272 22.1357 22.5005 22.1625 22.4844 22.1732C22.4844 22.1732 22.5112 22.1464 22.5272 22.1357Z" fill="white" stroke="#FC3D59" stroke-linecap="round" stroke-linejoin="round"/>
<path d="M23.4713 21.2353C23.4123 21.305 23.3534 21.3747 23.2891 21.439C23.3212 21.4068 23.348 21.3747 23.3694 21.3425C23.407 21.3104 23.4391 21.2728 23.4713 21.2353Z" fill="white" stroke="#FC3D59" stroke-linecap="round" stroke-linejoin="round"/>
<path d="M24.0499 20.4369C24.0017 20.5227 23.9481 20.6084 23.8838 20.6942C23.932 20.6191 23.9856 20.5441 24.0285 20.4637C24.0392 20.453 24.0446 20.4477 24.0499 20.4369Z" fill="white" stroke="#FC3D59" stroke-linecap="round" stroke-linejoin="round"/>
<path d="M24.2035 20.1583C24.2035 20.1583 24.1984 20.1684 24.1934 20.1734C24.1934 20.1684 24.1934 20.1633 24.1984 20.1583H24.2035Z" fill="white" stroke="#FC3D59" stroke-linecap="round" stroke-linejoin="round"/>
<path d="M23.2067 14.9496H23.1103C23.1103 14.9496 23.0889 14.9228 23.0781 14.9175C23.0031 14.8371 22.9227 14.7621 22.837 14.6924C22.7834 14.6388 22.7245 14.5906 22.6655 14.5424C22.5959 14.4834 22.5262 14.4245 22.4512 14.3655L23.0728 14.8424C23.1157 14.88 23.1639 14.9121 23.2067 14.9496Z" fill="white" stroke="#FC3D59" stroke-linecap="round" stroke-linejoin="round"/>
<path d="M12.3999 24.8472L12.3303 26.1654C9.52768 26.0368 6.77866 25.3509 4.62982 24.1077C2.2184 22.7144 1.0127 20.8871 1.0127 19.0651V19.049C1.01805 18.1756 1.29671 17.3021 1.85401 16.4769C2.22912 15.9249 2.72748 15.389 3.35445 14.896H3.44019C3.40268 14.9336 3.37053 14.9657 3.33837 14.9979C3.24728 15.0943 3.15618 15.1908 3.0758 15.2872C3.01685 15.3462 2.96862 15.4105 2.9204 15.4748C2.86681 15.5391 2.81858 15.6034 2.77035 15.6677C2.71141 15.7481 2.65246 15.8338 2.59887 15.9142C2.50242 16.0642 2.41132 16.2196 2.3363 16.3697C2.28271 16.4715 2.23448 16.5733 2.19161 16.6751C2.10051 16.8948 2.03085 17.1145 1.97726 17.3396C1.95583 17.42 1.93975 17.495 1.92903 17.5754C1.91832 17.6343 1.9076 17.6986 1.90224 17.7683C1.89152 17.838 1.88616 17.9076 1.88081 17.9827C1.85401 18.3363 1.88081 18.7007 1.96119 19.0544H1.93975C2.10587 19.8368 2.51313 20.6031 3.1669 21.3104C3.25799 21.4176 3.35445 21.5194 3.46162 21.6105C3.50985 21.6641 3.55808 21.7123 3.60631 21.7552C3.6599 21.7981 3.70812 21.8463 3.76171 21.8945C3.86353 21.991 3.97606 22.0821 4.08859 22.1678C4.42619 22.4411 4.8013 22.693 5.21928 22.9341C5.27823 22.9663 5.33717 22.993 5.39612 23.0252C5.40684 23.0306 5.41755 23.0359 5.42827 23.0413C5.43899 23.0413 5.44435 23.0466 5.45506 23.052C5.46578 23.0627 5.48186 23.0681 5.49257 23.0734C5.53544 23.0949 5.57295 23.1217 5.61582 23.1431C5.69085 23.186 5.77123 23.2235 5.85161 23.261C5.85697 23.261 5.85697 23.2663 5.86233 23.2663C5.91055 23.2985 5.95878 23.3199 6.00701 23.3414C6.11418 23.3949 6.216 23.4485 6.32853 23.4914C6.34997 23.5021 6.3714 23.5128 6.39284 23.5182C6.3982 23.5182 6.40891 23.5236 6.41427 23.5289C6.4625 23.5504 6.51073 23.5718 6.55896 23.5879C6.66077 23.6307 6.76795 23.679 6.86976 23.7218H6.88584C6.88584 23.7218 6.92871 23.7433 6.95014 23.754C7.00373 23.7701 7.05196 23.7915 7.10019 23.8076C7.11626 23.8129 7.13234 23.8183 7.14841 23.8236C7.14841 23.8236 7.15377 23.8236 7.15377 23.829C7.16449 23.8344 7.16985 23.8344 7.18057 23.8397C7.19664 23.8397 7.21272 23.8397 7.2288 23.8558C7.23951 23.8612 7.24487 23.8612 7.25559 23.8665C7.33597 23.8987 7.42171 23.9308 7.50745 23.9523C7.56639 23.979 7.6307 24.0005 7.695 24.0166C7.79146 24.0487 7.88792 24.0809 7.98973 24.113H8.00045C8.04332 24.1291 8.09155 24.1452 8.13978 24.1559C8.2791 24.1988 8.42379 24.2363 8.56847 24.2738C8.71316 24.3166 8.8632 24.3542 9.01324 24.381C9.15793 24.4185 9.30261 24.4506 9.45266 24.4828C9.46873 24.4881 9.49017 24.4935 9.5116 24.4935C9.5116 24.4988 9.52232 24.4988 9.53304 24.4988C9.64557 24.5203 9.75811 24.5417 9.87064 24.5631C10.0636 24.6007 10.2618 24.6328 10.4601 24.6596C10.5994 24.681 10.7441 24.7025 10.8834 24.7185C10.9049 24.7239 10.9209 24.7239 10.9424 24.7239C11.0013 24.7346 11.0603 24.74 11.1192 24.7453C11.1674 24.7507 11.2157 24.7561 11.2693 24.7614C11.3764 24.7721 11.4836 24.7829 11.5961 24.7936C11.6283 24.7989 11.6604 24.7989 11.698 24.7989C11.8641 24.815 12.0248 24.8257 12.191 24.8364C12.2606 24.8418 12.3303 24.8418 12.3999 24.8472Z" fill="white" stroke="#FC3D59" stroke-linecap="round" stroke-linejoin="round"/>
<path d="M3.16464 21.3104C2.51088 20.603 2.10362 19.8367 1.9375 19.049H1.95893C2.1197 19.8314 2.5216 20.5977 3.16464 21.3104Z" fill="white" stroke="#FC3D59" stroke-linecap="round" stroke-linejoin="round"/>
<path d="M5.39417 23.0251C5.33523 22.993 5.27628 22.9662 5.21733 22.934C4.79935 22.6929 4.42425 22.441 4.08665 22.1677C3.97411 22.082 3.86158 21.9909 3.75977 21.8945C3.96876 22.0767 4.19918 22.2535 4.44568 22.4303C4.69218 22.6072 4.95476 22.7733 5.23341 22.934C5.287 22.9662 5.34058 22.993 5.39417 23.0251Z" fill="white" stroke="#FC3D59" stroke-linecap="round" stroke-linejoin="round"/>
<path d="M5.85122 23.261C5.77084 23.2235 5.69046 23.1859 5.61544 23.1431C5.57257 23.1216 5.53506 23.0948 5.49219 23.0734C5.61008 23.1377 5.72797 23.202 5.85122 23.261Z" fill="white" stroke="#FC3D59" stroke-linecap="round" stroke-linejoin="round"/>
<path d="M6.32836 23.4914C6.21583 23.4485 6.11401 23.3949 6.00684 23.3413C6.03899 23.3574 6.07114 23.3735 6.10329 23.3842C6.17831 23.4217 6.25334 23.4592 6.32836 23.4914Z" fill="white" stroke="#FC3D59" stroke-linecap="round" stroke-linejoin="round"/>
<path d="M25.5221 19.1186C25.5167 20.6834 24.6272 22.2481 22.8534 23.5289L22.1836 22.3982C22.2854 22.3285 22.3819 22.2535 22.4783 22.1731H22.4837C22.4837 22.1731 22.5158 22.1517 22.5266 22.1356C22.5962 22.0766 22.6605 22.0231 22.7248 21.9695C22.7409 21.9588 22.7623 21.9427 22.7784 21.9266C22.8909 21.8248 22.9928 21.7283 23.0999 21.6265C23.1642 21.5676 23.2285 21.5033 23.2875 21.439C23.3518 21.3747 23.4107 21.305 23.4697 21.2353C23.5126 21.1871 23.5608 21.1335 23.6037 21.0746C23.6144 21.0531 23.6304 21.0371 23.6412 21.021C23.6947 20.962 23.743 20.8977 23.7858 20.8281C23.818 20.7852 23.8502 20.737 23.8823 20.6941C23.9466 20.6084 24.0002 20.5226 24.0484 20.4369C24.102 20.3511 24.1502 20.26 24.1931 20.1743C24.1985 20.1689 24.2038 20.1636 24.2038 20.1582C24.2467 20.0779 24.2842 19.9921 24.3217 19.9064C24.3432 19.8528 24.3699 19.7992 24.386 19.7456C24.4128 19.6813 24.4396 19.6116 24.4557 19.5473C24.4986 19.4348 24.5307 19.3223 24.5575 19.2097C24.5682 19.1776 24.5736 19.1454 24.5789 19.1133C24.5897 19.0704 24.595 19.0275 24.6004 18.99C24.6057 18.9632 24.6111 18.9418 24.6164 18.915C24.6164 18.8989 24.6164 18.8775 24.6164 18.8614C24.6272 18.8132 24.6325 18.765 24.6379 18.7114C24.6432 18.6739 24.6486 18.6417 24.6486 18.6096C24.654 18.5935 24.654 18.5721 24.654 18.556V18.497C24.6647 18.4059 24.6647 18.3148 24.6593 18.2237C24.6647 18.2023 24.6593 18.1809 24.6593 18.1594V18.138C24.6593 18.1005 24.6593 18.063 24.654 18.0201C24.6486 17.9397 24.6432 17.8647 24.6325 17.7897C24.6272 17.72 24.6164 17.6557 24.6004 17.5914C24.5897 17.5271 24.5789 17.4682 24.5629 17.4092C24.5468 17.3396 24.5307 17.2645 24.5093 17.1949C24.4878 17.1252 24.4664 17.0555 24.4396 16.9805C24.3485 16.7072 24.2253 16.4339 24.0645 16.1714C24.0323 16.1071 23.9948 16.0481 23.9573 15.9892C23.7858 15.7212 23.5876 15.4586 23.3518 15.2014C23.2768 15.121 23.1964 15.0353 23.1106 14.9496H23.2017C23.8073 15.4319 24.2949 15.957 24.6647 16.4982C25.2381 17.3396 25.5221 18.2291 25.5167 19.1186H25.5221Z" fill="white" stroke="#FC3D59" stroke-linecap="round" stroke-linejoin="round"/>
<path d="M23.3549 15.2014C23.2745 15.1157 23.1941 15.03 23.1084 14.9496C23.1941 15.0353 23.2745 15.1211 23.3495 15.2014H23.3549Z" fill="white" stroke="#FC3D59" stroke-linecap="round" stroke-linejoin="round"/>
<path d="M10.8647 15.1157C10.8486 15.2711 10.8379 15.0675 10.8379 15.0675C10.8486 15.0836 10.854 15.0996 10.8647 15.1157Z" stroke="#FC3D59" stroke-miterlimit="10" stroke-linejoin="round"/>
<path d="M35.1929 15.1801C34.8446 15.8338 34.357 16.4233 33.805 16.9216C33.2531 17.42 32.6636 17.8219 32.042 18.1863C27.1013 21.0586 19.0364 21.0586 14.0636 18.1863C13.9082 18.0952 13.7581 18.0041 13.6081 17.913C13.4634 17.8219 13.3187 17.7255 13.1847 17.6236C11.77 16.6966 10.2696 14.9121 10.3125 13.1116C10.291 13.9315 10.3125 14.7514 10.3071 15.5713C10.3018 17.4682 11.5503 19.3706 14.0529 20.8174C18.9186 23.62 26.7423 23.6843 31.7044 21.005L31.3186 20.7799C31.1364 20.6674 31.0239 20.4423 31.0239 20.1208C31.0239 19.467 31.4794 18.6739 32.0474 18.3524C32.3314 18.1863 32.5886 18.1702 32.7762 18.2828L34.2177 19.1134C34.7107 18.5828 35.1286 17.972 35.4019 17.2968C35.6538 16.6698 35.7288 15.9946 35.7288 15.3194C35.7288 14.5745 35.7395 13.8243 35.7288 13.0795C35.7342 13.8297 35.5305 14.5424 35.1876 15.1854L35.1929 15.1801Z" fill="white" stroke="#FC3D59" stroke-miterlimit="10" stroke-linejoin="round"/>
<path d="M23.732 6.01664C26.5721 6.11309 29.5033 6.72935 31.9844 8.16012C33.04 8.76565 33.9939 9.49444 34.7441 10.534C35.4943 11.5736 35.8587 12.8061 35.6712 14.0868C35.5265 15.0729 35.0067 15.8981 34.4065 16.659C34.3497 16.7313 34.283 16.8036 34.2207 16.871L34.2136 16.8787C34.1386 16.9591 34.0635 17.0395 33.9832 17.1199C33.7688 17.3235 33.5437 17.5271 33.2919 17.7254C32.9168 18.0201 32.4988 18.3041 32.038 18.5721C30.3446 19.5581 28.4315 20.1422 26.5024 20.453C23.5712 20.9299 20.4953 20.8067 17.6284 20.0243C14.9544 19.2902 11.7499 17.8272 10.6835 15.0621C10.6728 15.0407 10.6674 15.0246 10.6621 15.0085C9.57961 12.1524 11.9321 9.41406 14.231 8.03151C17.0604 6.33816 20.4899 5.9041 23.732 6.01664Z" fill="white" stroke="#FC3D59" stroke-miterlimit="10" stroke-linecap="round" stroke-linejoin="round" stroke-dasharray="2 2"/>
<path d="M35.3635 19.7778C34.6186 20.3458 34.0345 21.364 33.922 22.2857L31.6981 21.0049L31.3123 20.7799C31.1301 20.6673 31.0176 20.4423 31.0176 20.1207C31.0176 19.467 31.4731 18.6739 32.0411 18.3524C32.3251 18.1862 32.5823 18.1702 32.7699 18.2827L34.2114 19.1133L35.3635 19.7778Z" fill="white" stroke="#FC3D59" stroke-miterlimit="10" stroke-linejoin="round"/>
<path d="M36.0751 20.1904C36.0751 20.1904 36.059 20.1797 36.0483 20.1797C36.0429 20.1797 36.0376 20.169 36.0322 20.169L36.0751 20.1904Z" stroke="#FC3D59" stroke-miterlimit="10" stroke-linejoin="round"/>
<path d="M48.4571 26.1707C48.3767 26.1279 48.2802 26.1011 48.1838 26.0904C47.9212 26.0582 47.6104 26.1332 47.2835 26.3208C46.3189 26.8727 45.5419 28.2231 45.5419 29.3324C45.5419 29.8843 45.7348 30.2701 46.0456 30.447H46.0403L34.3958 23.7272C34.0904 23.545 33.8975 23.1591 33.8975 22.6126C33.8975 22.5054 33.8975 22.3982 33.9243 22.2857C34.0368 21.364 34.6209 20.3458 35.3657 19.7778C35.4568 19.7081 35.5479 19.6492 35.639 19.5956C36.1213 19.317 36.5607 19.2955 36.8769 19.4831L48.4571 26.1707Z" fill="white" stroke="#FC3D59" stroke-miterlimit="10" stroke-linejoin="round"/>
<path d="M49.0178 27.3228C49.0178 28.4321 48.2408 29.7825 47.2816 30.3344C46.794 30.6131 46.3546 30.6399 46.0438 30.447C45.733 30.2701 45.54 29.8843 45.54 29.3324C45.54 28.2231 46.3171 26.8727 47.2816 26.3208C47.6085 26.1332 47.9193 26.0582 48.1819 26.0903C48.2783 26.101 48.3748 26.1278 48.4552 26.1707L48.5195 26.2082H48.5141C48.8196 26.3958 49.0178 26.7762 49.0178 27.3228Z" fill="white" stroke="#FC3D59" stroke-miterlimit="10" stroke-linejoin="round"/>
<circle cx="3.69638" cy="28.0946" r="0.803806" fill="#D9D9D9"/>
<circle cx="3.69638" cy="32.9174" r="0.803806" fill="#D9D9D9"/>
<circle cx="3.69638" cy="37.7403" r="0.803806" fill="#D9D9D9"/>
<circle cx="13.878" cy="31.8457" r="0.803806" fill="#D9D9D9"/>
<circle cx="19.2374" cy="30.238" r="0.803806" fill="#D9D9D9"/>
<circle cx="8.51865" cy="30.238" r="0.803806" fill="#D9D9D9"/>
<circle cx="13.878" cy="36.6685" r="0.803806" fill="#D9D9D9"/>
<circle cx="19.2374" cy="35.0609" r="0.803806" fill="#D9D9D9"/>
<circle cx="8.51865" cy="35.0609" r="0.803806" fill="#D9D9D9"/>
<circle cx="13.878" cy="41.4913" r="0.803806" fill="#D9D9D9"/>
<circle cx="19.2374" cy="39.8837" r="0.803806" fill="#D9D9D9"/>
<circle cx="8.51865" cy="39.8837" r="0.803806" fill="#D9D9D9"/>
<circle cx="22.9884" cy="28.0946" r="0.803806" fill="#D9D9D9"/>
<circle cx="22.9884" cy="32.9174" r="0.803806" fill="#D9D9D9"/>
<circle cx="22.9884" cy="37.7403" r="0.803806" fill="#D9D9D9"/>
</g>
</svg>
