<svg width="50" height="52" viewBox="0 0 50 52" fill="none" xmlns="http://www.w3.org/2000/svg">
<g style="mix-blend-mode:multiply">
<path d="M25.4906 51L42.935 40.7775L25.4906 30.8913L7.06543 40.784L25.4906 51Z" fill="white" stroke="#FC3D59" stroke-linecap="round" stroke-linejoin="round"/>
<path d="M33.8786 28.5701V32.4441C33.8786 32.6693 33.8483 32.8908 33.7863 33.1072C33.1748 35.298 29.5782 36.9813 25.2331 36.9813C20.8879 36.9813 17.2926 35.298 16.6811 33.1072L16.5889 28.5701C16.5889 29.263 16.8841 29.9199 17.4139 30.5071C18.7977 32.0435 21.7801 33.1072 25.2331 33.1072C28.686 33.1072 31.6711 32.0435 33.0536 30.5071C33.5834 29.9199 33.8786 29.2643 33.8786 28.5701Z" fill="white" stroke="#C3C3BF" stroke-miterlimit="10" stroke-linejoin="round"/>
<path d="M33.8786 33.243V37.3323C33.8786 37.57 33.8483 37.8037 33.7863 38.0322C33.1748 40.3447 29.5782 42.1215 25.2331 42.1215C20.8879 42.1215 17.2926 40.3447 16.6811 38.0322L16.5889 33.243C16.5889 33.9744 16.8841 34.6678 17.4139 35.2876C18.7977 36.9094 21.7801 38.0322 25.2331 38.0322C28.686 38.0322 31.6711 36.9094 33.0536 35.2876C33.5834 34.6678 33.8786 33.9757 33.8786 33.243Z" fill="white" stroke="#C3C3BF" stroke-miterlimit="10" stroke-linejoin="round"/>
<path d="M42.7568 10.8131L42.7568 40.7197" stroke="#FC3D59" stroke-linecap="round" stroke-linejoin="round" stroke-dasharray="4 4"/>
<path d="M25 1L25 30.9065" stroke="#FC3D59" stroke-linecap="round" stroke-linejoin="round" stroke-dasharray="4 4"/>
<path d="M7.24414 10.8131L7.24414 40.2524" stroke="#FC3D59" stroke-linecap="round" stroke-linejoin="round" stroke-dasharray="4 4"/>
<path d="M25.4906 35.7826L42.935 25.5601L25.4906 15.6739L7.06543 25.5679L25.4906 35.7826Z" fill="white" stroke="#FC3D59" stroke-linecap="round" stroke-linejoin="round"/>
<path d="M33.6955 21.9245C33.6955 22.63 33.4078 23.2987 32.8916 23.8965C31.5431 25.4606 28.6369 26.5435 25.2709 26.5435C21.905 26.5435 19 25.4606 17.6516 23.8965C17.1353 23.2987 16.8477 22.6312 16.8477 21.9245C16.8477 19.3725 20.6194 17.3043 25.2709 17.3043C29.9224 17.3043 33.6955 19.3725 33.6955 21.9245Z" fill="white" stroke="#FC3D59" stroke-miterlimit="10" stroke-linejoin="round"/>
<path d="M25.272 24.913C28.4236 24.913 30.9785 23.4531 30.9785 21.6522C30.9785 19.8512 28.4236 18.3913 25.272 18.3913C22.1203 18.3913 19.5654 19.8512 19.5654 21.6522C19.5654 23.4531 22.1203 24.913 25.272 24.913Z" fill="white" stroke="#FC3D59" stroke-miterlimit="10" stroke-linejoin="round"/>
<path d="M33.6955 22.1957V25.9504C33.6955 26.1687 33.6659 26.3833 33.6056 26.5931C33.0097 28.7165 29.505 30.3479 25.2709 30.3479C21.0368 30.3479 17.5334 28.7165 16.9376 26.5931L16.8477 22.1957C16.8477 22.8673 17.1353 23.5039 17.6516 24.0731C19 25.5622 21.9062 26.5931 25.2709 26.5931C28.6356 26.5931 31.5444 25.5622 32.8916 24.0731C33.4078 23.5039 33.6955 22.8685 33.6955 22.1957Z" fill="white" stroke="#FC3D59" stroke-miterlimit="10" stroke-linejoin="round"/>
<path d="M25.4668 21.0934L25.4668 50.9999" stroke="#FC3D59" stroke-linecap="round" stroke-linejoin="round" stroke-dasharray="4 4"/>
</g>
</svg>
