<svg width="443" height="204" viewBox="0 0 443 204" fill="none" xmlns="http://www.w3.org/2000/svg">
<g clip-path="url(#clip0_1042_22150)">
<path d="M0 4C0 1.79086 1.79086 0 4 0H438.667C440.876 0 442.667 1.79086 442.667 4V200C442.667 202.209 440.876 204 438.667 204H3.99999C1.79085 204 0 202.209 0 200V4Z" fill="#FC3D59"/>
<mask id="mask0_1042_22150" style="mask-type:alpha" maskUnits="userSpaceOnUse" x="-1" y="0" width="444" height="210">
<rect x="-1" width="444" height="210" rx="8" fill="white"/>
</mask>
<g mask="url(#mask0_1042_22150)">
<path d="M-15.0008 177.252C-12.2932 186.434 -6.98012 194.526 -0.11944 199.533C8.11855 205.54 20.8856 209.909 39.5827 204.522C78.6573 193.237 286.84 140.273 288.353 111.812C290.703 67.601 204.029 0.513255 -25.0104 53.1761C-70.6996 61.6561 -34.0991 112.496 -15.0008 177.252Z" fill="#EA374C"/>
<path d="M519.222 110.386C532.158 115.001 541.898 125.463 547.995 137.77C548.462 175.284 484.727 192.918 423.59 222.4C394.335 236.491 373.565 235.708 359.808 230.999C354.531 229.184 349.68 226.404 345.519 222.879C344.978 205.533 317.329 183.979 340.548 160.65C377.896 123.073 473.801 98.4317 512.507 108.295C514.638 108.838 516.923 109.566 519.222 110.386Z" fill="#CD4C5B"/>
<path d="M321.059 133.596C320.733 133.596 320.407 133.487 320.189 133.161C319.864 132.618 319.972 131.967 320.407 131.641L331.161 124.145C350.606 110.458 373.526 103.288 397.316 103.288H549.18C549.832 103.288 550.266 103.723 550.266 104.375C550.266 105.027 549.832 105.461 549.18 105.461H397.316C373.961 105.461 351.583 112.522 332.465 125.992L321.71 133.487C321.493 133.596 321.276 133.596 321.059 133.596Z" fill="#F97A89"/>
<path d="M88.809 120.002H-63.8151C-64.4669 120.002 -64.9014 119.567 -64.9014 118.915C-64.9014 118.263 -64.4669 117.829 -63.8151 117.829H88.809C89.4608 117.829 89.8953 118.263 89.8953 118.915C89.8953 119.567 89.4608 120.002 88.809 120.002Z" fill="#F97A89"/>
<path d="M131.001 147.653C130.935 155.481 133.155 163.075 137.309 168.625C142.298 175.285 151.199 181.74 167.024 181.974C200.101 182.412 231.53 177.447 239.442 155.539C247.354 133.632 240.98 93.0307 202.079 88.6492C164.518 84.4138 131.485 92.4465 131.001 147.653Z" fill="#F9F9F9"/>
<path d="M178.487 82.4999C176.869 73.9376 181.635 65.6556 189.457 62.5629L192.178 76.9653C192.847 80.5041 196.26 82.8323 199.799 82.1636L213.954 79.489C213.831 87.7907 207.87 95.1708 199.382 96.7747C189.676 98.5829 180.32 92.2005 178.487 82.4999Z" fill="#F2F2F2"/>
<path d="M199.521 84.1345C202.704 105.234 227.697 118.958 255.345 114.788C282.993 110.617 302.827 90.1321 299.644 69.0325C296.462 47.9329 271.469 34.2091 243.82 38.3794C216.172 42.5497 196.339 63.035 199.521 84.1345Z" fill="#F2F2F2"/>
<path d="M279.54 85.5084C279.54 85.5084 276.898 92.2435 269.887 94.3702C262.877 96.4969 264.254 95.6556 264.254 95.6556C264.254 95.6556 270.785 88.2667 272.165 82.2509C273.546 76.235 282.492 80.9802 279.54 85.5084Z" fill="#5E4F49"/>
<path d="M277.911 78.2393L277.011 78.059C276.531 77.9605 276.036 77.9578 275.555 78.051C275.073 78.1443 274.615 78.3316 274.206 78.6023C273.797 78.8729 273.446 79.2217 273.172 79.6284C272.899 80.0352 272.708 80.4919 272.611 80.9726L272.779 80.1437C273.729 75.4661 272.782 70.6028 270.147 66.6233C267.511 62.6438 263.403 59.8739 258.726 58.9227L254.554 58.0779C252.256 57.61 249.888 57.5996 247.586 58.0471C245.284 58.4946 243.093 59.3913 241.138 60.686C239.182 61.9806 237.501 63.6479 236.19 65.5925C234.879 67.5371 233.964 69.721 233.498 72.0192L232.602 76.3244C232.135 78.6241 232.126 80.9932 232.575 83.2965C233.024 85.5997 233.923 87.7919 235.219 89.7476C236.516 91.7033 238.186 93.3843 240.133 94.6944C242.079 96.0045 244.265 96.918 246.566 97.3828L250.9 98.2589C261.817 100.478 267.733 93.1004 270.236 88.6532C270.738 87.7617 271.51 87.0522 272.44 86.6266C273.371 86.201 274.412 86.0811 275.415 86.2842L276.255 86.4537C276.735 86.5514 277.23 86.5536 277.711 86.46C278.192 86.3665 278.65 86.1791 279.058 85.9085C279.467 85.6379 279.818 85.2895 280.092 84.8831C280.366 84.4767 280.557 84.0204 280.655 83.5401L280.835 82.6405C280.933 82.1595 280.935 81.6638 280.841 81.1821C280.746 80.7003 280.558 80.2418 280.286 79.8329C280.015 79.4241 279.665 79.0728 279.257 78.7994C278.85 78.5259 278.392 78.3356 277.911 78.2393Z" fill="#F7D3B2"/>
<path d="M239.728 47.501C239.728 47.501 234.125 44.1108 231.413 49.1681C228.701 54.2254 231.071 67.4091 240.461 65.3313C247.777 63.7287 251.484 65.442 251.484 65.442C245.544 61.0616 241.373 54.6957 239.728 47.501Z" fill="#534741"/>
<path d="M245.951 38.3852C245.951 38.3852 236.995 42.4495 240.295 55.1763C243.594 67.9032 257.936 64.931 261.171 68.3893C264.407 71.8476 266.163 75.5697 263.928 82.4299C261.693 89.2901 271.398 88.4323 272.799 80.1674C273.149 79.3801 273.765 78.7405 274.538 78.3597C275.311 77.9789 276.193 77.8809 277.031 78.0827C280.146 78.7165 281.26 80.61 280.838 82.6628C280.838 82.6628 288.262 66.0309 276.931 59.8405C256.468 48.6509 256.402 35.1838 245.951 38.3852Z" fill="#5E4F49"/>
<path d="M264.546 74.7675C264.421 74.7599 264.302 74.7096 264.209 74.6249C264.117 74.5403 264.056 74.4264 264.037 74.3023C263.836 72.5186 263.043 70.8536 261.786 69.5725C260.529 68.2914 258.879 67.468 257.099 67.2334C248.533 66.2408 240.1 64.1954 239.084 51.5255C238.136 39.3912 246.671 35.5979 246.757 35.556C246.891 35.4997 247.042 35.4986 247.177 35.5532C247.311 35.6077 247.419 35.7133 247.476 35.847C247.532 35.9809 247.533 36.1316 247.479 36.2663C247.424 36.401 247.319 36.5085 247.185 36.5655C246.863 36.7076 239.274 40.1117 240.179 51.4366C241.13 63.2952 248.779 65.1596 257.241 66.1429C257.302 66.1483 264.057 66.8564 265.165 74.1447C265.187 74.2886 265.151 74.4354 265.065 74.5528C264.979 74.6702 264.85 74.7487 264.706 74.7709C264.653 74.7776 264.599 74.7764 264.546 74.7675Z" fill="#736357"/>
<path d="M282.991 75.3098L282.893 75.301C282.753 75.2616 282.635 75.1686 282.563 75.0423C282.492 74.916 282.474 74.7666 282.512 74.6267C284.782 66.3298 278.06 61.2223 277.775 61.0091C277.717 60.966 277.668 60.9117 277.631 60.8496C277.594 60.7874 277.569 60.7185 277.559 60.6467C277.548 60.575 277.552 60.502 277.57 60.4318C277.588 60.3615 277.619 60.2956 277.663 60.2376C277.75 60.1215 277.879 60.0444 278.023 60.0232C278.166 60.0021 278.312 60.0385 278.429 60.1246C278.507 60.1812 286.042 65.8806 283.566 74.9313C283.527 75.0504 283.45 75.1529 283.345 75.2217C283.241 75.2905 283.116 75.3216 282.991 75.3098Z" fill="#998675"/>
<path d="M239.144 65.9299C237.093 65.8033 235.126 65.065 233.498 63.8102C231.614 62.2413 230.415 60 230.156 57.5618C230.151 57.4889 230.161 57.4159 230.184 57.3467C230.208 57.2776 230.245 57.2139 230.293 57.159C230.341 57.1042 230.4 57.0594 230.465 57.0272C230.531 56.995 230.602 56.9761 230.675 56.9714C230.748 56.9667 230.821 56.9765 230.89 57.0001C230.959 57.0236 231.023 57.0606 231.078 57.1088C231.132 57.157 231.177 57.2156 231.209 57.2811C231.242 57.3467 231.261 57.4179 231.265 57.4908C231.519 59.6245 232.576 61.5816 234.22 62.965C236.37 64.6924 239.48 65.2596 243.446 64.657C243.591 64.6349 243.738 64.6712 243.856 64.7579C243.974 64.8446 244.053 64.9745 244.075 65.1192C244.097 65.2638 244.061 65.4113 243.974 65.5292C243.887 65.6471 243.757 65.7257 243.613 65.7478C242.136 65.9849 240.636 66.0461 239.144 65.9299Z" fill="#736357"/>
<path d="M242.495 87.3393L242.938 87.5668C244.292 88.2737 245.805 88.6209 247.331 88.5749C248.858 88.5289 250.347 88.0914 251.656 87.3042" fill="#DDDDDD"/>
<path d="M246.205 89.0859C244.975 88.9747 243.779 88.6253 242.684 88.0569L242.241 87.824C242.112 87.7567 242.015 87.6409 241.971 87.5019C241.927 87.3629 241.94 87.2122 242.007 87.0829C242.075 86.9537 242.19 86.8564 242.329 86.8125C242.468 86.7687 242.619 86.7818 242.748 86.8491L243.217 87.0954C244.489 87.7546 245.908 88.0781 247.34 88.0352C248.772 87.9924 250.169 87.5847 251.399 86.8507C251.461 86.8134 251.529 86.7887 251.601 86.778C251.673 86.7674 251.746 86.7709 251.816 86.7885C251.886 86.8061 251.952 86.8374 252.01 86.8806C252.068 86.9238 252.117 86.978 252.154 87.0401C252.191 87.1021 252.216 87.1709 252.227 87.2424C252.237 87.314 252.234 87.387 252.216 87.4571C252.199 87.5273 252.167 87.5933 252.124 87.6514C252.081 87.7094 252.027 87.7584 251.965 87.7954C250.23 88.8249 248.213 89.2767 246.205 89.0859Z" fill="#534741"/>
<path d="M218.629 72.3197L218.002 72.3509C216.575 72.4472 215.55 73.6851 215.647 75.1121L215.58 74.5377C215.028 67.7328 209.073 62.654 202.268 63.2066L199.387 63.4946C192.626 64.0388 187.582 69.9419 188.126 76.7033L188.352 79.7314C188.897 86.4928 194.791 91.4929 201.553 90.9488L204.581 90.7225C212.186 90.1049 214.682 84.1089 215.51 80.6954C215.823 79.2794 217.029 78.2773 218.491 78.1291L219.066 78.0628C220.493 77.9666 221.517 76.7286 221.421 75.3016L221.39 74.6752C221.25 73.2567 220.012 72.2319 218.629 72.3197Z" fill="#F4DAB8"/>
<path d="M217.199 63.7876C214.71 62.5992 212.12 63.689 212.12 63.689C212.12 63.689 216.311 60.8426 214.794 60.0077C213.233 59.1812 209.688 58.6043 206.888 58.3795C205.28 58.2399 198.404 57.4961 192.933 60.5004C191.546 61.2666 189.848 63.2226 188.979 64.5659C186.61 68.1881 187.562 73.5601 188.101 73.5458C188.641 73.5314 189.11 71.9946 191.957 73.159C193.432 73.7762 202.188 68.1465 206.917 70.1653C211.29 71.982 211.828 78.2476 211.652 78.7337C211.475 79.2197 216.13 77.3676 215.865 75.0698C215.799 74.4954 216.062 73.9924 216.316 73.672C217.569 72.2092 219.341 72.4977 220.484 73.4958C221.081 74.0123 221.077 74.6908 221.151 75.5349C221.247 76.9619 220.094 77.7729 218.675 77.9127L218.136 77.927C216.709 78.0232 215.631 79.4522 215.31 80.8246C214.981 82.1535 214.449 83.8379 213.414 85.4846C213.394 85.8498 213.731 86.1909 214.08 86.1233C224.169 84.5718 221.822 73.6426 221.822 73.6426C221.128 70.2986 218.28 67.96 218.28 67.96C218.28 67.96 220.032 68.8398 220.824 68.7313C221.712 68.6494 219.689 64.976 217.199 63.7876Z" fill="#C7B299"/>
<path d="M192.327 72.0479C192.284 72.0564 192.284 72.0564 192.24 72.0648C192.014 72.0635 191.798 71.8796 191.799 71.6535C191.782 71.5664 191.696 71.3572 191.654 71.1395C191.005 68.9613 188.972 62.4437 194.331 59.3257C198.066 57.1551 201.338 56.7911 203.993 56.5018C205.542 56.3367 206.865 56.1703 207.859 55.7063C208.068 55.6205 208.355 55.7004 208.441 55.9097C208.527 56.1189 208.447 56.4055 208.237 56.4912C207.078 57.0326 205.703 57.1639 204.066 57.3459C201.499 57.6183 198.322 58.009 194.744 60.0586C190.032 62.7803 191.885 68.8359 192.499 70.8399C192.636 71.3104 192.713 71.4761 192.695 71.6151C192.65 71.8497 192.501 72.0141 192.327 72.0479Z" fill="#736357"/>
<path d="M215.142 126.666C215.094 126.658 215.046 126.651 214.998 126.644C214.861 126.574 214.498 126.372 214.585 125.795C214.68 125.17 215.044 124.389 215.352 123.649C215.584 123.094 216.025 122.129 215.972 121.826C215.876 121.811 215.677 121.83 215.215 121.957C212.375 122.855 198.447 124.582 190.632 119.368C187.249 117.037 185.289 113.741 184.946 109.51C184.638 106.022 185.474 103.101 187.431 100.889C190.762 97.0673 196.91 96.0802 201.462 95.8842C206.702 95.694 211.734 96.5538 216.503 98.5045C221.922 100.701 225.204 103.705 226.204 107.495C227.558 112.517 224.599 117.773 221.903 121.298C221.667 121.557 216.68 126.898 215.142 126.666ZM216.173 120.824C216.414 120.86 216.599 120.937 216.769 121.111C217.314 121.734 216.873 122.7 216.285 123.987C216.053 124.542 215.774 125.09 215.653 125.563C216.937 124.872 220.374 121.656 221.173 120.597C223.744 117.25 226.556 112.317 225.295 107.652C224.333 104.262 221.263 101.486 216.165 99.4367C211.485 97.5486 206.598 96.7106 201.509 96.8746C197.156 97.0516 191.263 97.9789 188.12 101.535C186.343 103.527 185.6 106.168 185.896 109.408C186.234 113.343 188.038 116.369 191.21 118.472C199.299 123.826 213.37 121.481 214.969 120.986C215.327 120.892 215.789 120.766 216.173 120.824Z" fill="#CCCCCC"/>
<path d="M290.56 147.306C280.994 147.77 272.699 141.326 270.518 132.341L286.61 131.561C290.564 131.37 293.616 128.007 293.424 124.053L292.658 108.237C301.677 109.629 308.809 117.238 309.268 126.722C309.766 137.562 301.399 146.781 290.56 147.306Z" fill="#F2F2F2"/>
<path d="M289.393 126.873L288.952 126.633C287.936 126.103 286.719 126.521 286.189 127.537L286.384 127.116C288.847 122.234 286.896 116.277 282.014 113.814L279.904 112.763C275.055 110.312 269.177 112.254 266.726 117.103L265.617 119.267C263.166 124.116 265.108 129.995 269.957 132.445L272.121 133.554C277.578 136.307 281.787 133.25 283.778 131.263C284.583 130.425 285.825 130.244 286.886 130.753L287.307 130.947C288.322 131.477 289.54 131.059 290.069 130.043L290.31 129.602C290.827 128.62 290.409 127.403 289.393 126.873Z" fill="#E4B291"/>
<path d="M296.9 128.191C296.44 128.512 296.121 128.962 295.889 129.482C294.71 132.341 292.894 132.536 291.754 132.339C291.085 132.203 290.424 132.45 290.001 132.975C289.085 134.112 288.151 134.484 288.151 134.484C285.311 134.373 283.289 131.763 283.289 131.763C284.296 130.281 285.04 130.217 285.918 130.506C286.329 130.621 286.783 130.828 287.295 130.981C288.31 131.511 289.527 131.092 290.057 130.077L290.298 129.635C290.827 128.62 290.409 127.403 289.393 126.873L288.952 126.633C288.257 126.26 287.455 126.378 286.845 126.795C286.774 126.883 285.763 128.477 285.073 128.296C283.592 127.896 286.048 125.779 286.51 124.131C286.985 122.451 286.338 121.338 282.842 119.732C279.313 118.115 281.467 116.302 279.523 115.009C277.578 113.716 275.71 114.764 274.385 113.436C273.46 112.561 272.607 112.509 272.059 112.456C271.98 112.464 271.718 112.556 271.651 112.532C271.41 112.669 271.435 112.603 271.194 112.741C269.334 113.867 267.497 115.646 266.26 118.559C266.26 118.559 266.193 118.535 266.139 118.476C265.511 118.129 263.158 116.608 264.54 113.408C264.747 112.954 264.775 112.472 264.691 111.986C264.409 110.706 264.27 107.925 267.233 105.466C268.889 104.073 270.55 103.479 271.947 103.393C273.028 103.341 274.012 102.836 274.584 101.911C275.653 100.263 278.009 98.1081 283.12 98.5334C287.099 98.8405 288.961 100.558 289.808 101.745C290.3 102.459 291.07 102.935 291.918 103.099C294.019 103.465 297.784 104.754 300.322 109.338C302.321 112.925 301.8 115.953 301.309 117.476C301.069 118.22 301.042 119.006 301.185 119.742C301.771 123.561 298.781 126.806 296.9 128.191Z" fill="#333333"/>
<path d="M296.696 122.733C296.663 122.72 296.663 122.72 296.63 122.708C296.476 122.612 296.405 122.396 296.512 122.209C297.237 121.077 297.276 119.954 297.179 119.198C297.082 118.441 297.221 117.659 297.527 116.939C298.111 115.678 298.675 113.046 296.123 109.821C293.926 107.069 291.509 106.131 289.866 105.86C288.76 105.676 287.781 105.046 287.172 104.137C286.809 103.585 286.289 103.353 286.289 103.353C286.123 103.291 286.018 103.063 286.126 102.875C286.188 102.709 286.416 102.604 286.604 102.712C286.637 102.724 287.29 103.006 287.782 103.72C288.296 104.479 289.099 104.968 290.014 105.157C291.79 105.478 294.374 106.478 296.7 109.391C299.522 112.907 298.847 115.839 298.214 117.233C297.958 117.82 297.834 118.456 297.923 119.134C298.017 120.002 297.982 121.316 297.128 122.59C297.033 122.744 296.863 122.795 296.696 122.733Z" fill="#736357"/>
<path d="M166.287 145.652L167.159 145.332C169.16 144.639 171.273 145.735 171.966 147.736L171.725 146.915C168.547 137.318 173.732 126.953 183.329 123.775L187.473 122.425C196.942 119.275 207.178 124.487 210.343 134.02L211.784 138.279C214.948 147.812 209.8 158.035 200.267 161.199L196.008 162.64C185.281 166.192 178.415 159.459 175.313 155.283C174.069 153.533 171.846 152.864 169.767 153.507L168.945 153.748C166.944 154.441 164.832 153.345 164.139 151.344L163.819 150.472C163.19 148.457 164.272 146.281 166.287 145.652Z" fill="#F7D3B2"/>
<path d="M154.543 114.04C160.774 112.718 166.926 116.716 168.249 122.947C168.33 123.332 168.399 123.654 168.416 124.053C171.776 120.587 176.469 117.711 182.609 116.274C208.697 110.134 212.884 133.346 212.884 133.346C212.884 133.346 211.543 136.517 200.118 138.674C186.559 141.215 179.751 132.859 179.751 132.859C179.751 132.859 182.699 140.423 173.558 147.331C172.855 147.816 171.901 147.75 171.416 147.047C170.657 146 169.278 144.883 167.071 145.552C163.427 146.729 164.517 151.868 167.272 152.827C170.027 153.787 172.725 150.999 176.362 155.799C180.182 160.829 181.172 160.753 181.287 160.662C180.916 160.808 166.263 166.737 162.035 147.762C161.071 143.536 161.01 139.454 161.765 135.736C160.971 136.106 160.163 136.411 159.264 136.602C153.032 137.925 146.88 133.926 145.558 127.695C144.236 121.464 148.311 115.362 154.543 114.04Z" fill="#534741"/>
<path d="M202.014 135.586C207.346 134.454 211.992 131.991 215.683 128.187C215.963 127.926 215.946 127.527 215.685 127.247C215.424 126.966 215.025 126.984 214.745 127.245C211.155 130.893 206.623 133.265 201.484 134.356C190.6 136.531 182.087 129.946 182.009 129.895C181.697 129.693 181.298 129.711 181.096 130.022C180.893 130.334 180.911 130.733 181.222 130.935C181.612 131.188 190.295 137.939 201.757 135.64C201.821 135.627 201.885 135.613 202.014 135.586Z" fill="#736357"/>
<path d="M199.761 152.176C201.046 151.903 202.276 151.374 203.388 150.601L203.797 150.313C204.091 150.116 204.137 149.703 203.941 149.409C203.744 149.115 203.331 149.069 203.037 149.265L202.629 149.554C200.24 151.269 197.153 151.588 194.421 150.423C194.059 150.298 193.687 150.444 193.549 150.742C193.425 151.104 193.571 151.476 193.869 151.614C195.771 152.352 197.834 152.585 199.761 152.176Z" fill="#534741"/>
<path d="M211.315 144.344C209.8 144.498 208.515 144.068 208.445 143.382C208.375 142.696 209.547 142.015 211.062 141.861C212.578 141.706 213.863 142.137 213.933 142.822C214.003 143.508 212.831 144.189 211.315 144.344Z" fill="#EF756C"/>
<path d="M183.501 149.492C183.227 148.704 184.615 147.505 186.602 146.814C188.588 146.122 190.421 146.2 190.695 146.988C190.97 147.776 189.581 148.975 187.595 149.667C185.608 150.358 183.775 150.28 183.501 149.492Z" fill="#EF756C"/>
</g>
</g>
<path d="M4 0.5H438.667C440.6 0.500181 442.167 2.06712 442.167 4V200C442.167 201.933 440.6 203.5 438.667 203.5H4C2.06701 203.5 0.5 201.933 0.5 200V4C0.5 2.067 2.067 0.5 4 0.5Z" stroke="black" stroke-opacity="0.04"/>
<defs>
<clipPath id="clip0_1042_22150">
<path d="M0 4C0 1.79086 1.79086 0 4 0H438.667C440.876 0 442.667 1.79086 442.667 4V200C442.667 202.209 440.876 204 438.667 204H3.99999C1.79085 204 0 202.209 0 200V4Z" fill="white"/>
</clipPath>
</defs>
</svg>
