<svg width="444" height="204" viewBox="0 0 444 204" fill="none" xmlns="http://www.w3.org/2000/svg">
<g clip-path="url(#clip0_1042_22219)">
<path d="M0.666504 4C0.666504 1.79086 2.45737 0 4.6665 0H439.333C441.542 0 443.333 1.79086 443.333 4V200C443.333 202.209 441.542 204 439.333 204H4.66649C2.45736 204 0.666504 202.209 0.666504 200V4Z" fill="#FFB600"/>
<path d="M-22.9681 165.824C-23.0926 176.941 -18.9032 187.725 -11.0637 195.606C-1.64801 205.063 15.1509 214.23 45.0157 214.562C107.441 215.226 436.836 226.715 451.769 195.606C474.964 147.282 377.634 43.4663 17.7426 24.5956C-53.1447 18.5812 -22.0971 87.4294 -22.9681 165.824Z" fill="#FDC535"/>
<path d="M210.691 149.683C221.38 160.746 225.952 176.088 225.952 191.471C207.77 229.352 135.038 215.361 59.0236 214.553C22.6578 214.149 2.20205 203.037 -9.26326 191.471C-13.6575 187.026 -17.1425 181.824 -19.5669 176.217C-11.4856 158.54 -28.5173 123.162 6.38372 111.292C62.5486 92.1499 171.05 115.103 204.992 144.246C206.86 145.85 208.792 147.716 210.691 149.683Z" fill="#FF9945"/>
<path d="M265.1 210.061L263.656 209.673C264.595 202.893 263.801 175.19 263.656 169.862C247.123 168.894 126.621 170.153 95.5024 171.412C63.8787 172.671 7.77926 177.611 7.27386 177.611L7.20166 175.674C7.77926 175.577 63.8787 170.734 95.5024 169.475C127.126 168.215 250.733 166.859 264.451 167.925L265.1 168.022V168.894C265.1 170.25 266.183 202.312 265.1 210.061Z" fill="#FFE297"/>
<path d="M29.5158 217.736C24.9988 202.469 25.2699 74.1868 28.9738 26.2166L30.7806 26.3972C27.0767 74.2772 26.8056 202.108 31.3226 217.285L29.5158 217.736Z" fill="#FFE297"/>
<path d="M143.004 145.621C142.935 149.727 143.684 153.805 145.207 157.618C146.73 161.431 148.997 164.903 151.875 167.832C158.899 174.896 171.437 181.725 193.703 181.96C240.271 182.452 284.518 177.192 295.658 153.985C306.797 130.778 297.824 87.7688 243.056 83.1275C190.194 78.647 143.67 87.1407 143.004 145.621Z" fill="#F9F9F9"/>
<path d="M301.023 132.864L300.797 134.188C300.779 133.863 300.76 133.545 300.735 133.22C300.936 132.988 301.023 132.864 301.023 132.864Z" fill="#F9F9F9"/>
<path d="M221.43 158.8C156.693 166.108 146.903 120.592 146.903 120.592C144.474 127.684 143.116 135.974 143.004 145.621C142.935 149.727 143.684 153.805 145.207 157.618C146.73 161.431 148.997 164.903 151.875 167.832C158.902 174.896 171.44 181.728 193.706 181.969C238.962 182.449 282.028 177.492 294.64 155.913C295.009 155.294 295.349 154.654 295.661 153.994C298.09 148.929 299.813 144.291 299.813 136.577C299.813 136.268 299.835 135.93 299.841 135.605C297.452 137.929 280.728 152.107 221.43 158.8Z" fill="#F2F2F2"/>
<path d="M256.253 145.748C256.253 145.748 249.065 159.242 239.154 169.431L238.084 144.325C238.084 144.325 237.821 149.359 256.253 145.748Z" fill="#FFD105"/>
<path d="M252.1 84.2135C252.1 84.2135 240.283 89.9285 227.916 91.1415L230.391 104.112C230.391 104.112 243.953 97.7445 245.645 95.43C247.338 93.1156 253.087 90.0956 252.1 84.2135Z" fill="#EA374C"/>
<path d="M231.957 112.241C231.957 112.241 242.873 106.64 246.859 91.6954C250.844 76.7503 271.95 82.1033 273.881 87.1314C275.811 92.1595 274.524 129.958 258.007 147.416C258.007 147.416 238.48 146.005 237.406 140.405L231.957 112.241Z" fill="#FC3D59"/>
<path d="M236.577 136.122C236.577 136.122 261.723 125.552 271.025 102.705C271.025 102.705 274.571 117.622 266.383 134.349C266.383 134.349 262.556 143.078 258.809 146.698C258.563 146.931 258.27 147.107 257.949 147.214C257.628 147.321 257.288 147.356 256.952 147.317C253.239 146.933 240.67 145.361 237.428 141.231L236.577 136.122Z" fill="#EA374C"/>
<path d="M281.363 22.5087C278.547 22.9848 275.941 24.301 273.887 26.2847C271.833 28.2683 270.427 30.8267 269.853 33.6239C269.279 36.4212 269.564 39.3266 270.671 41.9588C271.778 44.591 273.655 46.827 276.056 48.3733L276.025 48.4197C275.211 49.8003 274.28 51.1079 273.24 52.3277C273.119 52.4697 273.038 52.6411 273.004 52.8246C272.97 53.0082 272.986 53.1973 273.048 53.373C273.111 53.5487 273.219 53.7048 273.362 53.8255C273.504 53.9462 273.675 54.0272 273.859 54.0604C277.817 54.7319 280.976 51.8728 282.811 50.5918C284.804 50.722 286.803 50.4288 288.675 49.7313C290.547 49.0338 292.251 47.948 293.673 46.5451C295.096 45.1423 296.205 43.4542 296.929 41.5919C297.652 39.7296 297.973 37.7353 297.871 35.74C297.768 33.7447 297.245 31.7937 296.334 30.0153C295.424 28.2369 294.147 26.6713 292.589 25.4216C291.03 24.1718 289.224 23.2661 287.29 22.764C285.357 22.262 283.339 22.175 281.369 22.5087H281.363Z" fill="#51C3C4"/>
<path d="M275.053 54.4688C274.633 54.47 274.214 54.4348 273.8 54.3636C273.566 54.3241 273.347 54.223 273.165 54.0707C272.984 53.9184 272.846 53.7205 272.766 53.4973C272.68 53.268 272.658 53.02 272.7 52.779C272.742 52.5379 272.849 52.3126 273.008 52.1265C273.985 50.9812 274.866 49.7568 275.641 48.4661C273.241 46.8504 271.381 44.5524 270.3 41.8688C269.22 39.1852 268.969 36.2393 269.58 33.4116C270.191 30.584 271.636 28.0045 273.728 26.0063C275.82 24.0081 278.463 22.6831 281.316 22.2023C284.137 21.7255 287.036 22.096 289.647 23.267C292.257 24.4381 294.462 26.357 295.982 28.7812C297.502 31.2054 298.269 34.0259 298.186 36.8859C298.103 39.746 297.173 42.5172 295.515 44.8489C294.097 46.8455 292.195 48.449 289.987 49.5088C287.779 50.5685 285.338 51.0498 282.894 50.9074C282.686 51.0559 282.463 51.2168 282.225 51.3963C280.527 52.6494 278.067 54.4688 275.053 54.4688ZM281.415 22.815C278.66 23.2793 276.11 24.5661 274.101 26.5062C272.091 28.4464 270.715 30.9491 270.154 33.6856C269.593 36.4221 269.873 39.2643 270.957 41.8388C272.041 44.4132 273.879 46.5995 276.229 48.1102L276.482 48.2742L276.294 48.5836C275.473 49.9789 274.531 51.3 273.481 52.5319C273.393 52.6355 273.335 52.7606 273.311 52.8944C273.288 53.0282 273.3 53.1658 273.348 53.293C273.39 53.4141 273.463 53.5216 273.562 53.6039C273.66 53.6862 273.778 53.7403 273.905 53.7603C277.231 54.3265 280.013 52.2658 281.857 50.9043C282.135 50.7001 282.392 50.5082 282.627 50.3442L282.717 50.2824H282.822C283.893 50.3505 284.967 50.2955 286.025 50.1184C288.725 49.6612 291.228 48.4141 293.22 46.5344C295.211 44.6548 296.6 42.2271 297.212 39.5582C297.824 36.8892 297.631 34.0987 296.658 31.5394C295.684 28.98 293.974 26.7666 291.743 25.179C290.264 24.1209 288.589 23.3669 286.816 22.9606C285.043 22.5543 283.207 22.5037 281.415 22.8119V22.815Z" fill="#6AD3D3"/>
<path d="M283.707 47.9401C290.087 47.9401 295.258 42.7686 295.258 36.3893C295.258 30.0101 290.087 24.8386 283.707 24.8386C277.328 24.8386 272.157 30.0101 272.157 36.3893C272.157 42.7686 277.328 47.9401 283.707 47.9401Z" fill="#9DDCE0"/>
<path d="M256.497 147.28C256.071 148.409 255.554 149.5 254.95 150.544C254.22 151.668 243.347 150.009 238.325 145.977L237.396 140.408C237.396 140.408 240.163 145.408 256.497 147.28Z" fill="#D01F26"/>
<path d="M271.077 84.8354C271.077 84.8354 273.72 83.9814 275.459 86.8683C277.198 89.7552 298.86 112.943 286.066 127.622C273.271 142.301 251.72 130.407 252.701 127.248C253.682 124.089 257.104 113.29 260.529 112.807C263.954 112.324 272.51 113.915 272.51 113.915C272.51 113.915 268.775 90.4793 271.077 84.8354Z" fill="#FC3D59"/>
<path d="M278.736 116.301C271.619 113.188 262.955 113.157 262.772 113.157V112.538C262.844 112.538 271.705 112.538 278.986 115.734L278.736 116.301Z" fill="white"/>
<path d="M258.583 114.354C258.032 113.187 257.04 112.286 255.826 111.848C254.482 111.426 253.093 111.161 251.689 111.059C250.569 111.884 249.679 112.981 249.102 114.246C248.09 116.412 248.399 118.986 249.984 119.469C251.568 119.952 255.244 119.506 255.244 119.506L258.583 114.354Z" fill="#F7D3B2"/>
<path d="M257.159 114.596C257.159 114.596 257.654 111.288 256.918 109.159C256.182 107.03 255.003 105.226 254.542 106.931C254.081 108.636 253.613 110.468 254.402 112.089C255.191 113.711 255.841 115.258 257.159 114.596Z" fill="#EFCBA5"/>
<path d="M268.364 133.634H267.686C262.627 133.495 259.576 131.923 257.555 130.88C257.28 130.738 257.023 130.605 256.782 130.488C253.969 129.111 254.269 127.059 254.514 125.413L254.579 124.955L255.198 125.036C255.176 125.19 255.154 125.345 255.13 125.506C254.897 127.102 254.653 128.752 257.06 129.931C257.305 130.051 257.565 130.187 257.846 130.33C259.814 131.348 262.797 132.882 267.711 133.015C277.612 133.294 284.952 127.276 286.675 123.996L287.223 124.284C285.199 128.13 277.866 133.634 268.364 133.634Z" fill="#D01F26"/>
<path d="M272.135 114.051C270.412 105.697 270.152 91.1261 270.152 90.9775H270.771C270.771 91.123 271.031 105.644 272.742 113.937L272.135 114.051Z" fill="white"/>
<path d="M230.19 101.585L230.023 100.987C230.122 100.959 239.881 98.2242 244.813 94.5173L245.185 95.0124C240.163 98.7905 230.595 101.47 230.19 101.585Z" fill="#D01F26"/>
<path d="M254.761 121.403L254.198 121.146C257.181 114.627 259.192 113.587 259.276 113.55L259.545 114.107L259.412 113.828L259.551 114.107C259.53 114.116 257.62 115.159 254.761 121.403Z" fill="#D01F26"/>
<path d="M256.327 122.319L255.764 122.059C258.753 115.542 260.758 114.506 260.844 114.466L261.114 115.023L260.977 114.744L261.117 115.02C261.098 115.029 259.189 116.062 256.327 122.319Z" fill="#D01F26"/>
<path d="M239.897 112.111C237.554 109.549 237.752 105.39 237.762 105.214L238.381 105.248C238.381 105.288 238.189 109.326 240.355 111.693L239.897 112.111Z" fill="#D01F26"/>
<path d="M240.556 109.772C240.054 109.117 239.697 108.364 239.51 107.561C239.322 106.758 239.307 105.924 239.467 105.115L240.064 105.273L239.754 105.195L240.064 105.273C239.935 105.993 239.956 106.731 240.127 107.442C240.298 108.153 240.615 108.821 241.057 109.404L240.556 109.772Z" fill="#D01F26"/>
<path d="M257.828 92.5866C261.129 92.4257 266.352 91.0395 272.061 85.08C272.061 85.08 262.853 79.3371 254.34 83.0657C249.612 85.1388 250.095 87.7348 251.457 89.6316C252.188 90.6163 253.154 91.4025 254.267 91.9186C255.379 92.4347 256.603 92.6643 257.828 92.5866Z" fill="#EA374C"/>
<path d="M271.941 64.8221L271.418 64.853C270.853 64.885 270.324 65.1398 269.947 65.5616C269.569 65.9834 269.375 66.5376 269.406 67.1025L269.382 66.6198C269.305 65.2708 268.964 63.9499 268.377 62.7327C267.79 61.5155 266.97 60.4259 265.962 59.5259C264.954 58.626 263.778 57.9335 262.503 57.4878C261.227 57.0422 259.876 56.8522 258.527 56.9287L256.095 57.0649C253.392 57.2181 250.86 58.439 249.056 60.4589C247.253 62.4788 246.325 65.1323 246.478 67.8359L246.621 70.3453C246.774 73.0482 247.994 75.5797 250.013 77.3831C252.033 79.1865 254.685 80.1141 257.388 79.9621L259.898 79.8198C266.256 79.4608 268.456 74.5225 269.196 71.7005C269.349 71.1366 269.675 70.6351 270.129 70.2669C270.583 69.8987 271.141 69.6826 271.724 69.6491L272.213 69.6212C272.493 69.6058 272.767 69.5354 273.019 69.4139C273.272 69.2925 273.498 69.1224 273.685 68.9135C273.872 68.7046 274.015 68.4609 274.108 68.1963C274.201 67.9317 274.24 67.6515 274.224 67.3717L274.193 66.8488C274.179 66.5675 274.11 66.2917 273.989 66.0373C273.868 65.7829 273.698 65.555 273.489 65.3666C273.279 65.1782 273.035 65.0331 272.769 64.9396C272.503 64.8462 272.222 64.8062 271.941 64.8221Z" fill="#F7D3B2"/>
<path d="M270.037 70.3297C270.037 70.3297 264.158 78.9007 249.615 77.007C250.861 78.1624 252.353 79.0195 253.979 79.5137C255.605 80.0079 257.322 80.1263 259 79.8599C264.761 78.9626 265.575 79.4267 270.037 70.3297Z" fill="#EFCBA5"/>
<path d="M279.515 34.6844C279.515 34.6844 279.515 38.478 282.764 39.9013C286.013 41.3246 289.138 40.0746 289.138 40.0746C289.199 40.4417 289.112 40.818 288.896 41.1212C288.681 41.4245 288.354 41.63 287.987 41.6929L282.844 42.5592C282.528 42.6129 282.205 42.6037 281.892 42.5323C281.58 42.4609 281.285 42.3285 281.024 42.1429C280.762 41.9572 280.54 41.7219 280.37 41.4504C280.2 41.1788 280.085 40.8764 280.032 40.5604L279.252 35.9221C279.226 35.4934 279.317 35.0656 279.515 34.6844Z" fill="#F9F9F9"/>
<path d="M246.491 66.496C246.491 66.496 248.26 61.4741 253.465 61.2111C264.585 60.6542 266.003 66.4713 269.196 71.7005C269.196 71.7005 267.008 80.8377 255.984 79.9435C255.984 79.9435 255.476 80.9027 255.649 81.7505C255.823 82.5983 271.569 84.1702 272.528 74.7669C272.528 74.7669 277.584 72.6412 275.852 65.4316C274.119 58.2221 268.735 52.241 262.546 51.158C256.358 50.075 244.312 54.1965 246.491 66.496Z" fill="#FFB600"/>
<path d="M256.336 82.0661C255.847 82.8122 255.481 83.6324 255.253 84.4951C254.965 85.7575 262.116 86.4073 265.625 85.9586C269.134 85.51 273.924 83.6813 280.629 84.9283C287.334 86.1752 288.111 87.0633 288.111 87.0633C288.111 87.0633 291.663 85.8256 291.653 82.0754C291.644 78.3252 290.187 78.5975 290.187 78.5975C290.187 78.5975 280.975 75.2155 266.207 81.537C266.207 81.537 262.342 82.8489 256.336 82.0661Z" fill="#FFB600"/>
<path d="M287.195 84.6436C287.151 84.6432 287.107 84.6333 287.067 84.6146C287.027 84.5959 286.991 84.5689 286.963 84.5353C286.926 84.4951 283.212 80.355 274.276 82.5891C264.14 85.1232 259.446 84.3899 259.251 84.3589C259.21 84.3522 259.171 84.3376 259.136 84.3159C259.101 84.2941 259.071 84.2657 259.047 84.2322C259.023 84.1987 259.006 84.1609 258.996 84.1208C258.987 84.0807 258.986 84.0391 258.992 83.9985C258.999 83.9578 259.014 83.9189 259.036 83.884C259.057 83.849 259.086 83.8186 259.119 83.7946C259.153 83.7706 259.191 83.7535 259.231 83.7441C259.271 83.7348 259.312 83.7334 259.353 83.7401C259.399 83.7401 264.137 84.4765 274.125 81.9795C283.451 79.6465 287.266 83.9412 287.43 84.1238C287.484 84.1858 287.511 84.2665 287.505 84.3483C287.499 84.4301 287.461 84.5063 287.399 84.5601C287.343 84.6121 287.271 84.6418 287.195 84.6436Z" fill="#FFD105"/>
<path d="M246.63 60.4345C248.01 60.1251 258.295 59.4381 264.607 51.715C264.607 51.715 259.239 49.1499 252.54 53.0888C247.676 55.9417 246.63 60.4345 246.63 60.4345Z" fill="#FFD105"/>
<path d="M291.991 44.4343C289.875 46.5873 286.999 47.826 283.98 47.8851C280.962 47.9441 278.04 46.8189 275.84 44.7502C273.641 42.6816 272.339 39.8341 272.214 36.8175C272.088 33.8008 273.148 30.8549 275.168 28.6105C274.882 30.8181 275.117 33.062 275.855 35.1623C276.592 37.2626 277.811 39.161 279.415 40.7053C281.018 42.2496 282.961 43.3969 285.087 44.0552C287.214 44.7135 289.465 44.8645 291.66 44.4962C291.768 44.4776 291.88 44.4591 291.991 44.4343Z" fill="#91D5DE"/>
<path d="M285.029 31.8347L284.769 30.2876C284.69 29.8179 284.427 29.399 284.039 29.1229C283.651 28.8467 283.169 28.7359 282.699 28.8147C282.535 28.8424 282.379 28.9021 282.238 28.9904C282.098 29.0787 281.976 29.1938 281.88 29.3292C281.784 29.4645 281.716 29.6175 281.679 29.7793C281.642 29.9411 281.638 30.1085 281.666 30.2721L282.012 32.3328C282.049 32.5511 281.998 32.775 281.869 32.9555C281.741 33.1359 281.547 33.258 281.328 33.2951C281.005 33.348 280.696 33.4643 280.418 33.6374C280.141 33.8106 279.9 34.0371 279.71 34.3038C279.521 34.5706 279.386 34.8723 279.314 35.1915C279.241 35.5107 279.233 35.8411 279.289 36.1635L279.447 37.0917L280.02 40.4954C280.13 41.1405 280.492 41.7156 281.025 42.0948C281.559 42.4741 282.221 42.6266 282.866 42.519L287.981 41.6557C288.348 41.5929 288.675 41.3873 288.89 41.0841C289.106 40.7809 289.193 40.4045 289.132 40.0374L288.959 39.0164C289.326 38.9543 289.653 38.7489 289.869 38.4455C290.085 38.142 290.172 37.7653 290.11 37.3981L289.769 35.3837C289.912 35.3598 290.048 35.3079 290.171 35.2311C290.293 35.1543 290.399 35.0541 290.483 34.9363C290.567 34.8184 290.626 34.6852 290.658 34.5443C290.69 34.4034 290.694 34.2576 290.67 34.1151L290.462 32.8774C290.414 32.5902 290.253 32.334 290.016 32.1652C289.779 31.9963 289.484 31.9286 289.197 31.977L285.998 32.5185C285.889 32.5376 285.778 32.535 285.67 32.5109C285.563 32.4868 285.461 32.4417 285.371 32.3781C285.281 32.3146 285.204 32.2338 285.146 32.1406C285.087 32.0473 285.047 31.9433 285.029 31.8347Z" fill="white"/>
<path d="M277.087 35.7726L278.091 35.603L279.109 41.6287L278.106 41.7983C277.646 41.876 277.174 41.7679 276.794 41.4978C276.414 41.2277 276.157 40.8178 276.08 40.3582L275.648 37.8014C275.609 37.5737 275.615 37.3405 275.667 37.1152C275.718 36.8899 275.813 36.6769 275.947 36.4885C276.081 36.3001 276.25 36.1398 276.446 36.017C276.642 35.8942 276.86 35.8111 277.087 35.7726Z" fill="#51C3C4"/>
<path d="M274.781 85.9586C274.781 85.9586 278.902 104.833 283.024 111.811C287.145 118.788 289.686 120.515 289.686 120.515C289.686 120.515 292.433 111.18 284.97 99.0286C284.97 99.0441 276.984 88.1926 274.781 85.9586Z" fill="#F27279"/>
<path d="M253.353 74.8844C253.23 74.8844 253.103 74.8844 252.97 74.8628C252.644 74.8448 252.326 74.7603 252.034 74.6145C251.742 74.4687 251.484 74.2646 251.274 74.0149C250.91 73.5192 250.741 72.9067 250.801 72.2946L251.42 72.3719L251.11 72.3348L251.42 72.3719C251.382 72.8219 251.506 73.2706 251.769 73.6374C251.929 73.821 252.124 73.9705 252.343 74.0768C252.563 74.1831 252.801 74.2442 253.044 74.2563C253.293 74.3003 253.549 74.2927 253.795 74.2342C254.042 74.1757 254.274 74.0674 254.477 73.9159C254.83 73.5925 255.057 73.1538 255.117 72.6782L255.736 72.7339C255.663 73.377 255.355 73.9706 254.873 74.4017C254.439 74.737 253.901 74.908 253.353 74.8844Z" fill="#534741"/>
<path d="M250.974 151.757L250.603 151.265C252.803 149.597 253.387 146.2 253.387 146.166L254.006 146.265C253.969 146.414 253.375 149.941 250.974 151.757Z" fill="#FC3D59"/>
<path d="M248.935 150.913L248.561 150.408C250.767 148.737 251.345 145.343 251.345 145.309L251.964 145.408C251.921 145.569 251.336 149.093 248.935 150.913Z" fill="#FC3D59"/>
<path d="M246.351 150.619L245.977 150.127C248.183 148.456 248.762 145.061 248.762 145.027L249.381 145.126C249.334 145.275 248.74 148.799 246.351 150.619Z" fill="#FC3D59"/>
<path d="M243.749 149.7L243.378 149.208C245.581 147.537 246.163 144.142 246.163 144.108L246.782 144.207C246.744 144.356 246.15 147.883 243.749 149.7Z" fill="#FC3D59"/>
<path d="M235.442 61.6398L152.051 63.707C150.95 63.7342 150.081 64.6482 150.108 65.7484L152.739 171.878C152.766 172.979 153.68 173.848 154.78 173.821L238.172 171.754C239.272 171.727 240.142 170.813 240.114 169.713L237.484 63.5825C237.456 62.4823 236.542 61.6125 235.442 61.6398Z" fill="white"/>
<path d="M154.741 174.132C154.14 174.131 153.564 173.896 153.134 173.476C152.705 173.056 152.456 172.485 152.442 171.885L149.812 65.7565C149.798 65.1464 150.026 64.5555 150.446 64.113C150.866 63.6706 151.445 63.4127 152.055 63.3956L235.447 61.3225H235.503C236.104 61.3231 236.681 61.5583 237.111 61.9779C237.541 62.3974 237.79 62.9683 237.805 63.5689L240.444 169.701C240.459 170.31 240.23 170.901 239.81 171.343C239.389 171.785 238.811 172.042 238.201 172.058L154.809 174.132H154.741ZM235.5 61.9414H235.46L152.067 64.0145C151.621 64.0266 151.198 64.2152 150.891 64.5388C150.583 64.8625 150.417 65.2948 150.427 65.7411L153.067 171.873C153.072 172.094 153.121 172.312 153.211 172.514C153.301 172.717 153.429 172.899 153.59 173.052C153.748 173.206 153.936 173.327 154.142 173.407C154.349 173.486 154.569 173.522 154.79 173.513L238.176 171.449C238.397 171.443 238.615 171.394 238.817 171.304C239.019 171.214 239.202 171.086 239.354 170.925C239.506 170.765 239.626 170.576 239.705 170.37C239.784 170.163 239.822 169.943 239.816 169.722L237.177 63.5906C237.167 63.1503 236.986 62.7313 236.671 62.4232C236.357 62.115 235.934 61.9421 235.494 61.9414H235.5Z" fill="#F2F2F2"/>
<path d="M229.469 68.2772L158.401 70.0389C157.301 70.0661 156.431 70.9801 156.459 72.0803L158.375 149.393C158.402 150.494 159.316 151.363 160.417 151.336L231.484 149.574C232.585 149.547 233.454 148.633 233.427 147.533L231.511 70.2199C231.483 69.1197 230.569 68.2499 229.469 68.2772Z" fill="#91D5DE"/>
<path d="M156.885 99.4588C156.885 99.4588 160.264 79.9653 179.315 78.4553C198.366 76.9453 199.91 109.806 232.492 109.088L233.501 149.7L158.166 151.572L156.885 99.4588Z" fill="#51C3C4"/>
<path d="M212.191 105.428C204.889 105.428 199.669 100.591 194.628 95.9499C189.805 91.485 185.25 87.2675 179.095 87.1685H178.87C166.493 87.1685 159.478 103.658 159.407 103.825L158.834 103.586C158.906 103.413 166.078 86.5497 178.87 86.5497H179.105C185.497 86.6518 190.352 91.1477 195.049 95.4951C200 100.078 205.121 104.818 212.191 104.818C222.046 104.818 228.569 98.9915 229.72 96.0211L230.295 96.2439C229.092 99.3536 222.343 105.428 212.191 105.428Z" fill="#84C8D1"/>
<path d="M223.913 104.023L186.964 104.939L188.101 150.831L225.051 149.915L223.913 104.023Z" fill="#F9F9F9"/>
<path d="M192.583 104.796L192.199 89.384L163.754 90.0895L165.273 151.222L188.109 150.656L186.973 104.936L192.583 104.796Z" fill="#E6E6E6"/>
<path d="M187.409 122.56C187.409 122.56 191.073 138.721 206.556 144.22C214.638 147.094 224.945 145.148 224.945 145.148L225.063 149.904L188.115 150.832L187.409 122.56Z" fill="#F2F2F2"/>
<path d="M164.868 134.838C164.868 134.838 166.647 144.74 176.577 146.519C184.182 147.889 187.991 145.9 187.991 145.9L188.115 150.851L165.283 151.395L164.868 134.838Z" fill="#DDDDDD"/>
<path d="M154.762 174.132C154.156 174.13 153.575 173.892 153.141 173.469C152.708 173.045 152.457 172.469 152.442 171.863L151.978 153.462C151.978 153.428 151.978 153.406 151.978 153.397H152.596V153.428C152.596 153.673 152.77 155.903 155.344 158.459C159.28 162.361 168.748 166.978 191.463 166.814C211.671 166.662 223.643 161.909 230.1 157.949C237.078 153.682 239.321 149.424 239.343 149.381L239.897 148.304L240.429 169.691C240.444 170.307 240.214 170.904 239.789 171.35C239.364 171.796 238.78 172.055 238.164 172.071L154.815 174.144L154.762 174.132ZM152.661 155.823L153.061 171.848C153.072 172.292 153.256 172.715 153.574 173.026C153.891 173.337 154.318 173.511 154.762 173.513H154.806L238.155 171.449C238.378 171.444 238.599 171.394 238.804 171.304C239.008 171.213 239.193 171.083 239.347 170.921C239.502 170.759 239.623 170.568 239.703 170.359C239.784 170.15 239.822 169.927 239.816 169.704L239.34 150.563C238.306 152.073 235.701 155.251 230.431 158.475C223.89 162.476 211.823 167.265 191.472 167.426C168.482 167.6 158.884 162.865 154.877 158.868C153.97 157.987 153.221 156.957 152.661 155.823Z" fill="#F2F2F2"/>
<path d="M190.089 119.618L189.749 108.169L221.693 107.219L222.034 118.668L190.089 119.618ZM190.398 108.763L190.708 118.974L221.415 118.046L221.105 107.835L190.398 108.763Z" fill="#E6E6E6"/>
<path d="M190.872 147.914L190.095 121.895L222.04 120.942L222.813 146.961H222.504L190.872 147.914ZM190.733 122.495L191.469 147.277L222.176 146.349L221.44 121.567L190.733 122.495Z" fill="#E6E6E6"/>
<path d="M214.255 112.498C218.678 112.498 222.263 108.913 222.263 104.49C222.263 100.067 218.678 96.4821 214.255 96.4821C209.833 96.4821 206.248 100.067 206.248 104.49C206.248 108.913 209.833 112.498 214.255 112.498Z" fill="#84C8D1"/>
<path d="M213.076 113.104C210.833 113.076 208.693 112.162 207.122 110.561C205.552 108.961 204.678 106.804 204.692 104.561C204.706 102.319 205.607 100.173 207.198 98.5919C208.788 97.0111 210.94 96.1239 213.182 96.1239C215.425 96.1239 217.577 97.0111 219.167 98.5919C220.758 100.173 221.659 102.319 221.673 104.561C221.687 106.804 220.813 108.961 219.242 110.561C217.672 112.162 215.532 113.076 213.289 113.104H213.076ZM213.076 96.7792H212.875C210.814 96.8366 208.858 97.7021 207.43 99.1887C206.002 100.675 205.216 102.664 205.241 104.725C205.266 106.787 206.101 108.755 207.565 110.207C209.029 111.658 211.005 112.475 213.066 112.482H213.264C215.325 112.425 217.28 111.56 218.709 110.074C220.137 108.587 220.923 106.599 220.899 104.538C220.874 102.477 220.04 100.508 218.576 99.0564C217.113 97.6049 215.137 96.787 213.076 96.7792Z" fill="#91D5DE"/>
<path d="M167.155 135.247L166.087 92.3359L190.594 91.717L190.869 102.804L186.023 102.924L167.155 135.247ZM166.719 92.9393L167.718 133.062L185.665 102.324L190.241 102.21L189.993 92.3575L166.719 92.9393Z" fill="#DDDDDD"/>
<path d="M194.272 104.84C194.199 104.841 194.128 104.817 194.072 104.771C194.015 104.725 193.977 104.661 193.963 104.589C193.944 104.496 192.261 95.3435 200.092 90.6124C200.162 90.5809 200.241 90.5763 200.314 90.5997C200.387 90.6231 200.449 90.6726 200.487 90.7389C200.526 90.8051 200.538 90.8832 200.523 90.9582C200.507 91.0331 200.464 91.0996 200.402 91.1446C192.948 95.6467 194.544 104.382 194.56 104.471C194.575 104.552 194.558 104.635 194.512 104.703C194.467 104.771 194.396 104.818 194.315 104.833L194.272 104.84Z" fill="#4D4D4D"/>
<path d="M202.837 93.1806C204.968 93.1806 206.695 91.4531 206.695 89.3221C206.695 87.1911 204.968 85.4636 202.837 85.4636C200.706 85.4636 198.979 87.1911 198.979 89.3221C198.979 91.4531 200.706 93.1806 202.837 93.1806Z" fill="#FC3D59"/>
<path d="M211.167 172.547L181.815 173.278C182.229 169.73 183.909 166.451 186.547 164.043C189.185 161.636 192.603 160.261 196.174 160.172C199.744 160.083 203.227 161.286 205.981 163.56C208.736 165.833 210.577 169.025 211.167 172.547Z" fill="#FFD105"/>
</g>
<path d="M4.6665 0.5H439.333C441.266 0.500165 442.833 2.06711 442.833 4V200C442.833 201.933 441.266 203.5 439.333 203.5H4.6665C2.73351 203.5 1.1665 201.933 1.1665 200V4C1.1665 2.067 2.73351 0.5 4.6665 0.5Z" stroke="black" stroke-opacity="0.04"/>
<defs>
<clipPath id="clip0_1042_22219">
<path d="M0.666504 4C0.666504 1.79086 2.45737 0 4.6665 0H439.333C441.542 0 443.333 1.79086 443.333 4V200C443.333 202.209 441.542 204 439.333 204H4.66649C2.45736 204 0.666504 202.209 0.666504 200V4Z" fill="white"/>
</clipPath>
</defs>
</svg>
