<svg width="443" height="204" viewBox="0 0 443 204" fill="none" xmlns="http://www.w3.org/2000/svg">
<g clip-path="url(#clip0_1042_22294)">
<path d="M0.333496 4C0.333496 1.79086 2.12436 0 4.3335 0H439C441.209 0 443 1.79086 443 4V200C443 202.209 441.209 204 439 204H4.33349C2.12435 204 0.333496 202.209 0.333496 200V4Z" fill="#57C9F7"/>
<path d="M17.0033 136.409C16.8207 162.692 24.3039 188.152 38.5401 206.769C55.6052 229.127 85.9941 250.755 140.11 251.485C253.178 253.037 360.588 236.336 387.601 162.874C414.613 89.4117 398.917 -19.8238 265.954 -34.5162C137.555 -48.6612 18.6459 -48.8437 17.0033 136.409Z" fill="#3BB1E0"/>
<path d="M209.404 48.3457C177.213 48.3457 164.735 32.7025 153.703 18.7774C147.554 11.0011 141.677 3.67682 133.087 -0.120941C98.5453 -15.1311 62.1953 -2.47193 61.8336 -2.38151L61.2007 -4.09954C61.5624 -4.18996 98.5453 -17.1204 133.72 -1.83897C142.762 2.13964 148.73 9.64473 155.06 17.6019C166.091 31.5271 178.66 47.351 212.116 46.4468L212.207 48.2553C211.212 48.2553 210.308 48.3457 209.404 48.3457Z" fill="#1D8DB8"/>
<path d="M423.375 212.781C391.185 212.781 378.706 197.137 367.675 183.212C361.526 175.436 355.649 168.112 347.058 164.314C312.517 149.304 276.167 161.963 275.805 162.053L275.172 160.335C275.534 160.245 312.517 147.315 347.691 162.596C356.734 166.575 362.702 174.08 369.031 182.037C380.063 195.962 392.632 211.786 426.088 210.882L426.178 212.69C425.184 212.69 424.28 212.781 423.375 212.781Z" fill="#1D8DB8"/>
<path d="M140.003 144.201C139.888 152.825 143.165 161.162 149.202 167.256C156.503 174.615 169.554 181.687 192.666 181.917C241.017 182.434 287.012 176.972 298.568 152.825C310.124 128.678 300.81 84.0065 243.892 79.2346C189.044 74.6352 140.693 83.4316 140.003 144.201Z" fill="#F9F9F9"/>
<path d="M298.625 152.883C287.069 176.972 241.075 182.434 192.724 181.974C169.612 181.744 156.561 174.615 149.259 167.313C143.165 161.162 139.888 152.825 140.003 144.201C140.06 141.442 140.175 138.739 140.405 136.21C146.097 142.361 157.711 147.823 181.11 147.651C234.291 147.363 303.684 155.815 300.407 116.892L302.937 132.013C303.052 139.659 301.442 146.903 298.625 152.883Z" fill="#F2F2F2"/>
<path d="M222.792 44.2791L221.7 44.6241C219.17 45.4864 217.848 48.1886 218.71 50.6608L218.365 49.6259C214.341 37.5525 201.29 31.0558 189.217 35.0803L184.042 36.8051C172.084 40.8295 165.587 53.7654 169.612 65.7239L171.394 71.0707C175.418 83.0291 188.354 89.5258 200.313 85.5013L205.659 83.7191C219.17 79.1771 221.01 67.2187 220.953 60.722C220.953 58.0198 222.62 55.6052 225.207 54.8003L226.242 54.4553C228.772 53.5929 230.094 50.8908 229.231 48.4186L228.887 47.3262C228.024 44.739 225.322 43.4167 222.792 44.2791Z" fill="#F7D3B2"/>
<path d="M194.736 86.6512C208.937 82.9141 212.674 76.59 214.283 69.1734C215.893 61.7569 220.895 59.2847 220.895 59.2847C220.895 59.2847 222.102 71.3581 216.181 76.5325C216.181 76.5325 212.501 82.3967 205.602 84.1215L194.736 86.6512Z" fill="#EFCBA5"/>
<path d="M207.901 88.4909C207.901 88.4909 196.288 91.0206 193.413 94.2402C193.413 94.2402 192.781 96.4824 192.436 99.357C192.436 99.357 190.136 100.104 187.836 101.082C185.364 102.117 183.582 104.244 183.007 106.831C181.8 112.235 180.247 123.389 181.57 142.419C182.605 158.057 183.582 168.233 184.214 174.212C184.674 178.294 188.066 181.399 192.148 181.514C210.776 181.916 261.082 181.859 279.71 169.268C279.71 169.268 275.973 117.41 270.626 94.6426C269.246 88.7209 263.784 84.6964 257.69 85.1563L207.901 88.4909Z" fill="#FC3D59"/>
<path d="M275.686 127.298C275.686 127.298 262.865 156.62 239.063 166.566C215.261 176.512 203.36 181.342 203.36 181.342C203.36 181.342 256.713 183.929 279.538 168.808C279.538 168.808 277.238 140.464 275.686 127.298Z" fill="#EA374C"/>
<path d="M295.118 146.788C295.118 146.788 294.198 109.993 283.677 83.5464C273.156 57.0998 270.799 55.6625 270.799 55.6625C270.799 55.6625 253.838 67.6209 249.181 72.6228C244.524 77.6247 264.589 148.973 272.408 153.055C280.227 157.137 295.348 151.905 295.118 146.788Z" fill="#DD2641"/>
<path d="M262.692 61.5842L273.788 52.2704C273.788 52.2704 279.25 58.0771 279.595 62.5616C279.94 67.046 273.616 75.7274 273.616 75.7274C273.616 75.7274 255.161 76.3598 262.692 61.5842Z" fill="#EA374C"/>
<path d="M217.503 73.3705C217.56 71.9332 218.595 70.7258 219.975 70.3809L225.954 68.9435C225.954 68.9435 266.831 58.8248 269.476 58.8823C272.121 58.9398 271.776 61.642 271.431 67.3337C271.086 73.0255 271.603 99.2997 267.464 114.133C264.359 125.171 266.429 136.325 267.694 141.269C268.096 142.764 267.176 144.259 265.682 144.661C256.253 147.019 225.207 154.608 209.856 156.562C208.476 156.735 207.154 155.872 206.809 154.493C205.199 148.111 201.577 130.288 207.327 119.595C213.996 107.234 216.928 84.754 217.503 73.3705Z" fill="white"/>
<path d="M209.511 156.677C208.189 156.677 206.982 155.757 206.637 154.435C204.912 147.421 201.462 130.001 207.212 119.365C213.996 106.774 216.813 83.7191 217.33 73.2555C217.388 71.7607 218.48 70.4383 219.918 70.0934L225.897 68.6561C227.564 68.2536 266.659 58.5948 269.476 58.5948C270.166 58.5948 270.684 58.8248 271.086 59.2273C272.006 60.2621 271.891 62.4469 271.661 66.1839L271.603 67.2762C271.546 68.3686 271.488 70.3234 271.488 72.738C271.316 83.0292 270.971 102.174 267.636 114.075C264.647 124.884 266.487 135.635 267.866 141.154C268.039 141.902 267.924 142.707 267.521 143.397C267.119 144.086 266.487 144.546 265.739 144.719C256.54 147.019 225.264 154.665 209.856 156.62C209.799 156.677 209.626 156.677 209.511 156.677ZM217.675 73.3705C217.158 83.8341 214.398 106.946 207.557 119.595C201.865 130.116 205.314 147.421 207.039 154.378C207.384 155.642 208.591 156.505 209.914 156.332C225.264 154.378 256.54 146.731 265.739 144.431C266.429 144.259 267.004 143.856 267.349 143.224C267.694 142.649 267.809 141.902 267.636 141.269C266.257 135.75 264.359 124.941 267.406 114.075C270.741 102.174 271.028 83.0867 271.258 72.7955C271.316 70.3234 271.316 68.4261 271.373 67.2762L271.431 66.1839C271.661 62.6768 271.776 60.3771 270.913 59.4572C270.626 59.1123 270.166 58.9398 269.534 58.9398C266.774 58.9398 226.472 68.886 226.069 69.001L220.09 70.4383C218.71 70.8408 217.733 71.9906 217.675 73.3705Z" fill="#E6E6E6"/>
<path d="M200.888 181.687C198.128 139.314 197.898 105.681 197.898 105.336H198.53C198.53 105.681 198.818 139.314 201.52 181.629L200.888 181.687Z" fill="#D01F26"/>
<path d="M198.645 181.687C195.885 143.224 195.713 107.521 195.713 107.176H196.345C196.345 107.521 196.518 143.224 199.277 181.629L198.645 181.687Z" fill="#D01F26"/>
<path d="M204.165 157.252C203.82 157.252 203.532 157.195 203.187 157.022C202.612 156.792 202.152 156.275 201.922 155.7C201.463 154.435 202.037 153.055 203.302 152.595C204.567 152.135 205.947 152.71 206.407 153.975L205.832 154.205C205.487 153.285 204.452 152.825 203.532 153.228C202.612 153.573 202.152 154.607 202.555 155.527C202.727 155.987 203.072 156.332 203.475 156.505C203.935 156.677 204.395 156.677 204.855 156.505L205.085 157.08C204.74 157.195 204.452 157.252 204.165 157.252Z" fill="white"/>
<path d="M205.429 171.05C204.797 171.05 204.222 170.82 203.762 170.36C203.302 169.9 203.015 169.326 203.015 168.693C203.015 168.061 203.245 167.428 203.705 166.968C204.165 166.508 204.739 166.221 205.372 166.221C206.004 166.221 206.637 166.451 207.097 166.911L206.637 167.371C205.947 166.681 204.797 166.681 204.165 167.428C203.82 167.773 203.647 168.233 203.647 168.693C203.647 169.153 203.82 169.613 204.165 169.958C204.854 170.648 206.004 170.648 206.637 169.9L207.097 170.36C206.694 170.82 206.062 171.05 205.429 171.05Z" fill="white"/>
<path d="M244.697 48.7634C244.697 48.7634 233.716 53.9378 230.209 57.3873C226.702 60.8369 225.61 67.391 226.127 69.5758C226.644 71.7605 230.324 71.933 231.186 71.358C231.186 71.358 233.199 72.8528 236.016 72.2204C238.833 71.588 238.948 70.5531 238.948 70.5531C238.948 70.5531 240.27 71.8755 244.41 71.243C248.549 70.6106 251.481 64.6314 251.941 63.884C252.401 63.1366 263.095 60.6644 263.095 60.6644C263.095 60.6644 265.337 57.5023 264.532 54.0527C263.727 50.6032 252.459 46.6362 244.697 48.7634Z" fill="#F7D3B2"/>
<path d="M216.756 74.6926C216.756 74.6926 219.975 73.3703 222.907 72.7953C225.84 72.2204 229.404 70.4956 230.727 73.7152C232.049 76.9348 229.922 78.5446 227.507 80.5568C225.092 82.5691 218.596 84.8688 216.641 83.144C214.686 81.4192 214.629 75.555 216.756 74.6926Z" fill="#F7D3B2"/>
<path d="M231.474 71.4156L230.841 71.3581C230.899 71.0132 231.876 62.7342 234.291 60.1471C236.706 57.5599 239.408 56.5825 239.523 56.5825L239.753 57.2149C239.753 57.2149 237.051 58.1923 234.751 60.607C232.509 63.0217 231.474 71.3581 231.474 71.4156Z" fill="#C7B299"/>
<path d="M239.235 70.6107H238.603C238.603 70.3807 238.89 64.459 242.283 61.6419C245.042 59.3422 245.1 59.3996 245.33 59.6296C245.387 59.7446 245.502 59.9171 245.272 60.2045L244.812 59.8021C244.812 59.8596 244.812 59.9746 244.87 60.0896C244.985 60.2045 245.157 60.2045 245.215 60.2045C245.157 60.262 244.755 60.492 242.742 62.1593C239.523 64.689 239.235 70.5532 239.235 70.6107Z" fill="#C7B299"/>
<path d="M226.299 77.9697C225.609 77.9697 225.034 77.7398 224.517 77.2798C223.08 75.8425 223.252 72.7954 223.252 72.6804L223.884 72.7379C223.884 72.7954 223.712 75.67 224.919 76.8774C225.322 77.2798 225.782 77.4523 226.414 77.3948C229.519 77.1648 231.933 75.785 231.933 75.785L232.278 76.36C232.163 76.4174 229.691 77.8548 226.472 78.0847C226.414 77.9697 226.357 77.9697 226.299 77.9697Z" fill="#C7B299"/>
<path d="M230.439 60.3197C228.772 60.0897 227.449 60.0322 227.449 60.0322V59.3998C227.507 59.3998 228.829 59.3998 230.554 59.6872L230.439 60.3197Z" fill="#C7B299"/>
<path d="M231.244 60.0319C230.611 59.457 228.772 58.997 228.139 58.8821L228.254 58.2496C228.369 58.2496 230.784 58.7096 231.646 59.572L231.244 60.0319Z" fill="#C7B299"/>
<path d="M194.736 103.324C192.724 103.324 191.401 102.577 188.872 100.104L189.332 99.6445C192.666 102.979 193.701 102.922 197.553 102.404L197.668 103.037C196.518 103.209 195.541 103.324 194.736 103.324Z" fill="white"/>
<path d="M197.438 101.312C197.208 97.4023 196.921 90.7331 197.496 89.5833L198.071 89.8707C197.783 90.4456 197.668 93.7227 198.128 101.254L197.438 101.312Z" fill="#D01F26"/>
<path d="M186.4 77.9122C183.87 77.9122 182.663 76.8773 182.605 76.8198C182.49 76.7049 182.433 76.4749 182.548 76.3599C182.663 76.2449 182.892 76.1874 183.007 76.3024C183.007 76.3024 185.537 78.3721 191.056 76.2449C196.518 74.1177 195.368 70.5531 195.368 70.5531C195.311 70.3807 195.426 70.2082 195.598 70.1507C195.771 70.0932 195.943 70.2082 196.001 70.3807C196.001 70.4382 197.323 74.5776 191.286 76.8773C189.274 77.6247 187.664 77.9122 186.4 77.9122Z" fill="#534741"/>
<path d="M153.859 27.7212C153.859 27.7212 153.227 56.0075 174.096 53.1329C194.966 50.2583 199.508 43.1867 199.508 43.1867C199.508 43.1867 208.19 56.3525 218.768 50.6032C218.768 50.6032 217.791 47.6136 220.55 45.2564C223.31 42.8992 230.037 44.2215 229.232 51.4081C229.232 51.4081 228.944 54.2828 224.345 55.2026C219.746 56.065 220.838 63.4816 220.838 63.4816C220.838 63.4816 230.037 60.8944 230.382 48.706C230.727 36.5175 220.091 24.789 210.777 26.1114C210.777 26.1114 197.668 16.4526 161.621 26.7438C159.723 27.2612 153.859 27.7212 153.859 27.7212Z" fill="#534741"/>
<path d="M166.737 68.081C166.737 68.081 167.139 72.6229 169.209 73.4853C171.279 74.3477 177.948 71.7605 180.937 69.5758C182.03 68.7709 179.5 63.1941 179.5 63.1941C179.5 63.1941 172.199 63.999 166.737 68.081Z" fill="#D7E1F2"/>
<path d="M202.785 53.5929C202.785 53.5929 205.717 57.4449 204.625 60.492C203.533 63.5391 193.011 66.5862 189.734 66.5862C188.24 66.5862 186.802 60.4345 186.802 60.4345C186.802 60.4345 187.147 58.2498 202.785 53.5929Z" fill="#D7E1F2"/>
<path d="M204.97 56.9274L204.74 56.3525C204.855 56.295 213.881 52.443 218.653 50.2583L218.94 50.8332C214.169 53.0179 205.085 56.87 204.97 56.9274Z" fill="#BFC9D6"/>
<path d="M169.669 74.6352C169.209 74.6352 168.806 74.5777 168.461 74.4627L168.691 73.8878C170.589 74.6352 177.028 72.278 180.132 70.0358C180.707 69.6333 179.96 67.1037 178.925 64.9764L179.5 64.689C180.017 65.8388 181.742 69.6333 180.477 70.5532C177.89 72.3355 172.543 74.6352 169.669 74.6352Z" fill="#BFC9D6"/>
<path d="M189.044 67.5638V66.9313C192.264 66.9313 202.613 63.9417 203.648 61.0096C204.682 58.135 201.923 54.4554 201.865 54.3979L202.383 53.9955C202.498 54.168 205.372 58.02 204.222 61.1821C203.073 64.5741 192.034 67.5638 189.044 67.5638Z" fill="#BFC9D6"/>
<path d="M155.526 39.5647C155.526 39.5647 163.173 47.3262 180.535 42.8418C197.898 38.3574 210.087 30.3084 210.776 26.1114C210.776 26.1114 197.726 17.0851 163.92 26.1114C163.92 26.1114 161.275 27.0888 153.916 27.7212C153.859 27.7212 152.651 30.8258 155.526 39.5647Z" fill="#5E4F49"/>
<path d="M198.933 34.2753L198.818 33.6429L198.875 33.9304L198.818 33.6429C198.875 33.6429 203.015 32.723 210.546 23.9266L211.006 24.3291C203.302 33.3554 199.105 34.2178 198.933 34.2753Z" fill="#1A1A1A"/>
<path d="M281.779 150.238V149.606C281.837 149.606 289.253 149.491 297.015 142.534L297.417 142.994C289.483 150.123 282.124 150.238 281.779 150.238Z" fill="#D01F26"/>
<path d="M260.105 82.6842C246.652 84.8689 233.256 87.4561 220.033 90.6182C218.02 91.0781 218.883 94.1827 220.895 93.7228C234.176 90.6182 247.514 87.9735 260.967 85.7888C262.979 85.5013 262.117 82.3967 260.105 82.6842Z" fill="#E6E6E6"/>
<path d="M260.334 92.2852C246.766 93.7226 233.313 95.6773 219.86 98.092C217.847 98.437 218.537 101.599 220.55 101.254C233.945 98.8394 247.456 96.8847 261.024 95.4473C263.094 95.2174 262.404 92.1128 260.334 92.2852Z" fill="#E6E6E6"/>
<path d="M258.898 101.887C245.329 102.979 231.761 104.589 218.308 106.659C216.238 106.946 216.871 110.108 218.94 109.821C232.394 107.751 245.962 106.141 259.53 105.049C261.542 104.876 260.91 101.714 258.898 101.887Z" fill="#E6E6E6"/>
<path d="M221.987 137.245C221.412 136.612 220.722 136.152 219.86 135.922C219.055 135.692 218.192 135.692 217.273 135.865C216.353 136.095 215.548 136.497 214.915 137.072C214.283 137.647 213.88 138.337 213.593 139.199C213.363 140.004 213.363 140.924 213.536 141.844C213.766 142.764 214.168 143.569 214.743 144.201C215.318 144.834 216.008 145.294 216.87 145.524C217.445 145.696 218.077 145.753 218.767 145.696C218.997 145.696 219.285 145.639 219.515 145.581C220.435 145.351 221.24 144.949 221.872 144.374C222.504 143.799 222.907 143.109 223.194 142.246C223.424 141.442 223.424 140.522 223.252 139.602C222.964 138.682 222.562 137.877 221.987 137.245ZM217.618 143.396C217.158 143.281 216.813 142.994 216.468 142.649C216.123 142.304 215.95 141.844 215.778 141.327C215.663 140.809 215.663 140.292 215.778 139.832C215.893 139.372 216.123 138.969 216.468 138.682C216.813 138.337 217.215 138.164 217.733 138.049C217.847 137.992 218.02 137.992 218.135 137.992C218.48 137.935 218.825 137.992 219.17 138.107C219.63 138.222 219.975 138.509 220.32 138.854C220.607 139.199 220.837 139.659 221.01 140.234C221.125 140.752 221.125 141.269 221.01 141.729C220.895 142.189 220.665 142.591 220.32 142.879C219.975 143.224 219.572 143.396 219.055 143.511C218.537 143.569 218.077 143.569 217.618 143.396Z" fill="#51C3C4"/>
<path d="M233.026 140.579L229.231 137.647L231.416 134.543C231.588 134.255 231.646 134.025 231.588 133.738C231.531 133.45 231.358 133.22 231.128 133.048C230.898 132.875 230.611 132.818 230.323 132.875C230.036 132.933 229.806 133.105 229.633 133.335L226.931 137.187L225.552 131.265C225.494 130.92 225.322 130.69 225.034 130.518C224.804 130.346 224.459 130.346 224.172 130.403C223.827 130.461 223.597 130.633 223.424 130.92C223.252 131.208 223.252 131.495 223.309 131.783L225.896 142.879C225.954 143.224 226.126 143.454 226.414 143.626C226.644 143.741 226.874 143.799 227.104 143.799C227.161 143.799 227.219 143.799 227.276 143.741C227.621 143.684 227.851 143.511 228.024 143.224C228.196 142.994 228.196 142.649 228.139 142.362L227.621 140.004L227.966 139.487L231.703 142.362C231.933 142.534 232.221 142.649 232.566 142.591C232.853 142.534 233.141 142.419 233.313 142.132C233.543 141.844 233.6 141.557 233.543 141.269C233.428 140.982 233.256 140.752 233.026 140.579Z" fill="#51C3C4"/>
<path d="M259.185 113.73C259.128 112.753 258.265 112.006 257.288 112.063L215.836 114.65C214.859 114.708 214.111 115.57 214.169 116.547C214.226 117.467 215.031 118.215 215.951 118.215C216.008 118.215 216.008 118.215 216.066 118.215L257.518 115.628C258.553 115.513 259.243 114.708 259.185 113.73Z" fill="#E6E6E6"/>
<path d="M260.334 92.2852C246.766 93.7226 233.313 95.6773 219.86 98.092C217.847 98.437 218.537 101.599 220.55 101.254C233.945 98.8394 247.456 96.8847 261.024 95.4473C263.094 95.2174 262.404 92.1128 260.334 92.2852Z" fill="#E6E6E6"/>
<path d="M302.937 131.381L300.407 116.26C302.075 121.262 302.879 126.379 302.937 131.381Z" fill="#F9F9F9"/>
<path d="M166.507 63.4817C166.45 63.4817 166.392 63.4817 166.335 63.4242C166.22 63.3092 166.162 63.1367 166.277 62.9642C166.392 62.8493 168.634 59.9171 172.601 58.9398C172.774 58.8823 172.946 58.9972 173.004 59.1697C173.061 59.3422 172.946 59.5147 172.774 59.5722C168.979 60.4921 166.794 63.3667 166.737 63.3667C166.679 63.4817 166.622 63.4817 166.507 63.4817Z" fill="#534741"/>
<path d="M186.802 54.8002C186.744 54.8002 186.687 54.8002 186.629 54.7427C186.457 54.6277 186.457 54.4552 186.572 54.2828C186.687 54.1678 188.757 51.1782 194.276 49.9708C197.38 49.3384 200.14 50.4883 200.255 50.5457C200.428 50.6032 200.485 50.8332 200.428 50.9482C200.37 51.1207 200.14 51.1782 200.025 51.1207C200.025 51.1207 197.323 49.9708 194.448 50.6032C189.159 51.6956 187.147 54.6277 187.147 54.6277C187.032 54.7427 186.917 54.8002 186.802 54.8002Z" fill="#534741"/>
</g>
<path d="M4.3335 0.5H439C440.933 0.500165 442.5 2.06711 442.5 4V200C442.5 201.933 440.933 203.5 439 203.5H4.3335C2.4005 203.5 0.833496 201.933 0.833496 200V4C0.833496 2.067 2.4005 0.5 4.3335 0.5Z" stroke="black" stroke-opacity="0.04"/>
<defs>
<clipPath id="clip0_1042_22294">
<path d="M0.333496 4C0.333496 1.79086 2.12436 0 4.3335 0H439C441.209 0 443 1.79086 443 4V200C443 202.209 441.209 204 439 204H4.33349C2.12435 204 0.333496 202.209 0.333496 200V4Z" fill="white"/>
</clipPath>
</defs>
</svg>
