<svg width="1392" height="1127" viewBox="0 0 1392 1127" fill="none" xmlns="http://www.w3.org/2000/svg">
<path d="M1088.49 88.866L521.043 241.958C509.909 244.962 503.615 256.734 507.302 267.661L551.952 400.005C554.02 406.134 558.925 410.885 565.118 412.756L1005.93 545.939C1017.26 549.362 1029.07 542.252 1031.35 530.638L1113.33 112.019C1116.17 97.4866 1102.79 85.0087 1088.49 88.866Z" fill="#967E6E" fill-opacity="0.02"/>
<path d="M491.342 200.369L430.373 30.748C425.361 16.8065 436.718 2.44575 451.439 4.10929L960.514 61.637C969.904 62.6981 977 70.6412 977 80.0911C977 88.5706 971.257 95.9733 963.043 98.0802L515.133 212.977C505.138 215.541 494.833 210.08 491.342 200.369Z" fill="#967E6E" fill-opacity="0.02"/>
<path d="M579.314 471.405C573.496 455.795 588.196 440.33 604.081 445.35L1024.7 578.27C1036.07 581.861 1048.03 574.781 1050.35 563.092L1142.34 99.4279C1144.4 89.0693 1154.15 82.0938 1164.62 83.4979L1374.66 111.674C1384.59 113.006 1392 121.478 1392 131.496V713.5C1392 724.546 1383.05 733.5 1372 733.5H1226H690.89C682.538 733.5 675.066 728.311 672.149 720.485L579.314 471.405Z" fill="#967E6E" fill-opacity="0.02"/>
<path d="M1372 733H690.89C682.747 733 675.461 727.94 672.617 720.311L579.782 471.23C574.11 456.01 588.443 440.933 603.931 445.827L1024.55 578.747C1036.2 582.428 1048.46 575.17 1050.84 563.189L1142.83 99.5254C1144.84 89.4258 1154.35 82.6243 1164.55 83.9932L1374.59 112.169C1384.27 113.468 1391.5 121.729 1391.5 131.496V713.5C1391.5 724.27 1382.77 733 1372 733Z" stroke="#967E6E" stroke-opacity="0.12"/>
<path d="M409.211 74C414.444 74 419.073 77.3907 420.652 82.3795L455.5 192.5L604.789 611.472C607.573 619.286 601.78 627.5 593.485 627.5H12C5.37257 627.5 0 622.127 0 615.5L0 86C0 79.3726 5.37258 74 12 74H409.211Z" fill="#967E6E" fill-opacity="0.02"/>
<path d="M12 74.5H409.211C414.226 74.5 418.662 77.7494 420.175 82.5303L455.023 192.65L455.029 192.668L604.318 611.64C606.986 619.127 601.434 627 593.485 627H12C5.64873 627 0.5 621.851 0.5 615.5V86C0.500006 79.6487 5.64873 74.5 12 74.5Z" stroke="#967E6E" stroke-opacity="0.12"/>
<path d="M597.98 658C606.396 658 613.911 663.268 616.781 671.179L646.219 752.321C649.089 760.232 656.604 765.5 665.02 765.5H862.883C868.961 765.5 874.71 768.264 878.505 773.011L1124.24 1080.39C1136.22 1095.38 1122.27 1117 1103.68 1112.26L21.0606 836.338C12.2006 834.08 6 826.101 6 816.958L6 678C6 666.954 14.9543 658 26 658H597.98Z" fill="#967E6E" fill-opacity="0.02"/>
<path d="M26 658.5H597.98C606.186 658.5 613.513 663.636 616.312 671.35L645.749 752.491C648.691 760.6 656.394 766 665.02 766H862.884C868.81 766 874.414 768.695 878.114 773.323L1123.85 1080.71C1135.53 1095.32 1121.93 1116.4 1103.8 1111.78L21.1836 835.854C12.5454 833.652 6.5 825.872 6.5 816.958V678C6.5 667.23 15.2304 658.5 26 658.5Z" stroke="#967E6E" stroke-opacity="0.12"/>
</svg>
