<svg width="24" height="25" viewBox="0 0 24 25" fill="none" xmlns="http://www.w3.org/2000/svg">
<g clip-path="url(#clip0_1297_1562)">
<path d="M11.0003 24.5739C8.09085 24.5739 5.30059 23.4181 3.24331 21.3609C1.18604 19.3036 0.0302734 16.5133 0.0302734 13.6039C0.0302734 10.6945 1.18604 7.90422 3.24331 5.84695C5.30059 3.78968 8.09085 2.63391 11.0003 2.63391H12.0003L12.0133 3.63391L12.0003 12.6039H21.9703V13.6039C21.9671 16.5124 20.8103 19.3008 18.7537 21.3574C16.6971 23.4139 13.9087 24.5707 11.0003 24.5739ZM10.0123 4.68891C8.33324 4.87515 6.74093 5.53174 5.41863 6.5831C4.09633 7.63447 3.0978 9.03786 2.53799 10.6317C1.97817 12.2256 1.87983 13.9452 2.25428 15.5925C2.62873 17.2398 3.46075 18.7479 4.65456 19.9431C5.84838 21.1384 7.35545 21.9722 9.00231 22.3487C10.6492 22.7251 12.3688 22.6289 13.9634 22.071C15.558 21.5131 16.9626 20.5163 18.0155 19.1953C19.0685 17.8742 19.727 16.2827 19.9153 14.6039H10.0003L10.0123 4.68891Z" fill="#B4B4AF"/>
<path d="M16.0188 2.89206C17.3924 3.25143 18.6457 3.96991 19.6499 4.97374C20.654 5.97756 21.3729 7.23055 21.7328 8.60406H16.0188V2.89206ZM14.0188 0.638062V10.6041H23.9868C23.9739 7.96454 22.9195 5.43683 21.0529 3.57057C19.1862 1.70431 16.6583 0.650417 14.0188 0.638062Z" fill="#B4B4AF"/>
</g>
<defs>
<clipPath id="clip0_1297_1562">
<rect width="24" height="24" fill="white" transform="translate(0 0.603882)"/>
</clipPath>
</defs>
</svg>
