<svg width="1440" height="883" viewBox="0 0 1440 883" fill="none" xmlns="http://www.w3.org/2000/svg">
<path d="M448.956 -543.5H878.636C973.201 -543.5 1034.07 -443.612 990.728 -359.74L926.344 -235.203C898.603 -181.685 843.256 -147.998 782.879 -147.998H327.554C310.394 -147.998 293.198 -141.965 281.49 -129.307C262.372 -108.697 260.581 -78.7386 275.303 -56.6113L611.679 454.614V454.615C622.547 471.243 640.983 481.275 661.067 481.275H1146.13C1166.73 481.275 1187.1 471.946 1197.98 454.331H1197.98C1213.38 429.341 1209.81 399.926 1190.13 380.273L1069.55 259.824C1058.41 248.693 1043.27 242.51 1027.59 242.51H786.834C738.239 242.509 706.97 191.129 729.169 147.996L729.17 147.997L836.521 -59.9287L836.521 -59.9277C864.263 -113.446 919.609 -147.134 979.986 -147.134H1270.12C1339.1 -147.134 1402.91 -110.44 1437.61 -50.9141L1499.94 56.3193L1500.09 56.5674H1500.22C1540.64 126.132 1540.59 212.747 1500.08 282.271L1215.54 770.746C1175.39 839.538 1100.8 882.5 1021.18 882.5H448.956C369.064 882.5 294.614 839.538 254.463 770.746L-30.0811 282.271C-70.3225 213.208 -70.6371 127.281 -31.0244 57.9541L-30.0811 56.3193L254.463 -431.883L254.462 -431.884C294.749 -500.675 369.201 -543.5 448.956 -543.5Z" fill="#0B0808" fill-opacity="0.25" stroke="#353332"/>
</svg>
