<svg width="24" height="25" viewBox="0 0 24 25" fill="none" xmlns="http://www.w3.org/2000/svg">
<g clip-path="url(#clip0_1297_1573)">
<path d="M15.0004 24.6039H9.00042V21.0909C7.95768 20.7219 6.99187 20.164 6.15142 19.4449L3.10742 21.2039L0.107422 16.0039L3.15042 14.2489C2.95053 13.1613 2.95053 12.0464 3.15042 10.9589L0.107422 9.20388L3.10742 4.00388L6.15142 5.76288C6.99187 5.04381 7.95768 4.48582 9.00042 4.11688V0.603882H15.0004V4.11688C16.0432 4.48582 17.009 5.04381 17.8494 5.76288L20.8934 4.00388L23.8934 9.20388L20.8504 10.9589C21.0503 12.0464 21.0503 13.1613 20.8504 14.2489L23.8934 16.0039L20.8934 21.2039L17.8494 19.4459C17.0089 20.1646 16.0431 20.7222 15.0004 21.0909V24.6039ZM11.0004 22.6039H13.0004V19.5769L13.7514 19.3829C14.9834 19.0637 16.1048 18.414 16.9944 17.5039L17.5374 16.9509L20.1604 18.4659L21.1604 16.7339L18.5404 15.2209L18.7464 14.4749C19.0851 13.2478 19.0851 11.9519 18.7464 10.7249L18.5404 9.97888L21.1604 8.46588L20.1604 6.73388L17.5374 8.25288L16.9944 7.70388C16.1043 6.79523 14.983 6.1469 13.7514 5.82888L13.0004 5.63088V2.60388H11.0004V5.63088L10.2494 5.82488C9.01741 6.14403 7.89603 6.79377 7.00642 7.70388L6.46342 8.25688L3.84042 6.73788L2.84042 8.46988L5.46042 9.98288L5.25442 10.7289C4.91578 11.9559 4.91578 13.2518 5.25442 14.4789L5.46042 15.2249L2.84042 16.7379L3.84042 18.4699L6.46342 16.9549L7.00642 17.5079C7.89651 18.4165 9.01785 19.0649 10.2494 19.3829L11.0004 19.5769V22.6039ZM12.0004 16.6039C11.2093 16.6039 10.4359 16.3693 9.77814 15.9298C9.12034 15.4902 8.60765 14.8655 8.3049 14.1346C8.00215 13.4037 7.92294 12.5994 8.07728 11.8235C8.23162 11.0476 8.61258 10.3349 9.17199 9.77545C9.7314 9.21604 10.4441 8.83508 11.2201 8.68074C11.996 8.5264 12.8003 8.60561 13.5312 8.90836C14.2621 9.21111 14.8868 9.7238 15.3263 10.3816C15.7658 11.0394 16.0004 11.8128 16.0004 12.6039C16.0004 13.6647 15.579 14.6822 14.8288 15.4323C14.0787 16.1825 13.0613 16.6039 12.0004 16.6039ZM12.0004 10.6039C11.6049 10.6039 11.2182 10.7212 10.8893 10.9409C10.5604 11.1607 10.304 11.4731 10.1527 11.8385C10.0013 12.204 9.96168 12.6061 10.0389 12.9941C10.116 13.382 10.3065 13.7384 10.5862 14.0181C10.8659 14.2978 11.2223 14.4883 11.6102 14.5655C11.9982 14.6426 12.4003 14.603 12.7658 14.4516C13.1312 14.3003 13.4436 14.0439 13.6634 13.715C13.8831 13.3861 14.0004 12.9994 14.0004 12.6039C14.0004 12.0734 13.7897 11.5647 13.4146 11.1897C13.0396 10.8146 12.5309 10.6039 12.0004 10.6039Z" fill="#B4B4AF"/>
</g>
<defs>
<clipPath id="clip0_1297_1573">
<rect width="24" height="24" fill="white" transform="translate(0 0.603882)"/>
</clipPath>
</defs>
</svg>
