<svg width="360" height="492" viewBox="0 0 360 492" fill="none" xmlns="http://www.w3.org/2000/svg">
<path d="M151.444 -73.5H322.021C359.338 -73.4999 383.353 -34.1194 366.252 -1.05469L340.693 48.3408C329.733 69.4682 307.863 82.7676 284.007 82.7676H103.25C96.3719 82.7676 89.4584 85.1829 84.7422 90.2773C77.0575 98.5543 76.3359 110.589 82.2549 119.48V119.481L215.792 322.254C220.163 328.934 227.576 332.963 235.65 332.963H428.212C436.473 332.963 444.667 329.226 449.053 322.134V322.133C455.236 312.105 453.805 300.283 445.894 292.387L398.024 244.612C393.543 240.14 387.458 237.656 381.154 237.656H285.577C266.809 237.656 254.629 218.14 262.561 201.403L262.953 200.609L305.569 118.139L305.57 118.14C316.531 97.0123 338.399 83.7129 362.256 83.7129H477.436C504.713 83.7129 529.945 98.2111 543.664 121.729V121.728L568.411 164.26L568.556 164.509H568.606C584.509 191.982 584.463 226.145 568.465 253.577L455.506 447.324C439.621 474.517 410.11 491.5 378.609 491.5H151.444C119.836 491.5 90.3793 474.517 74.4941 447.324L-38.4648 253.577C-54.5112 226.062 -54.5111 191.775 -38.4648 164.261L74.4932 -29.3779L74.4941 -29.377C90.4334 -56.5703 119.89 -73.4999 151.444 -73.5Z" fill="#0B0808" fill-opacity="0.25" stroke="#353332"/>
</svg>
