<svg width="24" height="24" viewBox="0 0 24 24" fill="none" xmlns="http://www.w3.org/2000/svg">
<g clip-path="url(#clip0_1297_1346)">
<path d="M23.8359 8.794C23.6314 8.1429 23.2227 7.57491 22.6704 7.17403C22.1181 6.77315 21.4514 6.56067 20.7689 6.568H16.3999L15.0729 2.432C14.8643 1.78096 14.4542 1.21301 13.9019 0.810065C13.3496 0.407117 12.6836 0.189987 11.9999 0.189987C11.3163 0.189987 10.6503 0.407117 10.098 0.810065C9.54568 1.21301 9.13563 1.78096 8.92695 2.432L7.59995 6.568H3.23095C2.55069 6.56897 1.88814 6.78488 1.33793 7.1849C0.787717 7.58493 0.377989 8.14859 0.16727 8.79539C-0.0434492 9.44218 -0.0443818 10.139 0.164605 10.7864C0.373593 11.4337 0.78181 11.9985 1.33095 12.4L4.88695 15L3.53495 19.187C3.31646 19.8364 3.31369 20.539 3.52706 21.1901C3.74042 21.8412 4.15849 22.4059 4.71895 22.8C5.2698 23.2068 5.93734 23.4247 6.6221 23.4213C7.30686 23.4178 7.97219 23.1933 8.51895 22.781L11.9999 20.219L15.4819 22.778C16.0318 23.1825 16.6957 23.4021 17.3783 23.4055C18.0609 23.4088 18.7269 23.1956 19.2807 22.7965C19.8345 22.3974 20.2474 21.833 20.4602 21.1845C20.673 20.5359 20.6747 19.8366 20.4649 19.187L19.1129 15L22.6729 12.4C23.2284 12.0035 23.6414 11.4388 23.8508 10.7893C24.0603 10.1399 24.0551 9.44026 23.8359 8.794ZM21.4929 10.785L17.3489 13.814C17.1787 13.9382 17.0521 14.1129 16.9871 14.3133C16.9221 14.5137 16.922 14.7296 16.9869 14.93L18.5619 19.8C18.6416 20.047 18.641 20.3129 18.56 20.5595C18.479 20.8061 18.322 21.0207 18.1114 21.1724C17.9008 21.3241 17.6475 21.4051 17.388 21.4038C17.1284 21.4024 16.876 21.3188 16.6669 21.165L12.5919 18.165C12.4203 18.0389 12.2129 17.9709 11.9999 17.9709C11.787 17.9709 11.5796 18.0389 11.4079 18.165L7.33295 21.165C7.12403 21.3209 6.87089 21.4062 6.61021 21.4086C6.34954 21.411 6.09489 21.3302 5.88318 21.1782C5.67147 21.0261 5.5137 20.8105 5.43274 20.5627C5.35179 20.3149 5.35186 20.0478 5.43295 19.8L7.01295 14.93C7.07787 14.7296 7.07782 14.5137 7.01281 14.3133C6.9478 14.1129 6.82116 13.9382 6.65095 13.814L2.50695 10.785C2.29825 10.6322 2.14318 10.4173 2.06389 10.1711C1.9846 9.92494 1.98514 9.65998 2.06543 9.4141C2.14573 9.16822 2.30167 8.95401 2.51099 8.80205C2.72031 8.6501 2.97229 8.56818 3.23095 8.568H8.33095C8.54266 8.56799 8.74891 8.50079 8.92 8.37607C9.09108 8.25136 9.21816 8.07556 9.28295 7.874L10.8329 3.043C10.9125 2.79579 11.0685 2.58019 11.2784 2.42725C11.4882 2.27431 11.7412 2.19191 12.0009 2.19191C12.2607 2.19191 12.5137 2.27431 12.7235 2.42725C12.9334 2.58019 13.0894 2.79579 13.1689 3.043L14.7189 7.874C14.7837 8.07556 14.9108 8.25136 15.0819 8.37607C15.253 8.50079 15.4592 8.56799 15.6709 8.568H20.7709C21.0296 8.56818 21.2816 8.6501 21.4909 8.80205C21.7002 8.95401 21.8562 9.16822 21.9365 9.4141C22.0168 9.65998 22.0173 9.92494 21.938 10.1711C21.8587 10.4173 21.7036 10.6322 21.4949 10.785H21.4929Z" fill="#88F876"/>
</g>
<defs>
<clipPath id="clip0_1297_1346">
<rect width="24" height="24" fill="white"/>
</clipPath>
</defs>
</svg>
