<svg width="1312" height="264" viewBox="0 0 1312 264" fill="none" xmlns="http://www.w3.org/2000/svg">
<path d="M7.92 105V28H17.82L58.19 88.61V28H68.09V105H58.19L17.82 44.28V105H7.92ZM101.035 106.32C96.6347 106.32 92.9314 105.587 89.9247 104.12C86.918 102.58 84.6447 100.563 83.1047 98.07C81.638 95.5033 80.9047 92.79 80.9047 89.93C80.9047 83.99 83.0314 79.48 87.2847 76.4C91.6114 73.2467 97.258 71.67 104.225 71.67C107.305 71.67 110.091 71.89 112.585 72.33C115.078 72.77 117.131 73.2833 118.745 73.87V71.45C118.745 66.7567 117.498 63.2367 115.005 60.89C112.585 58.47 109.321 57.26 105.215 57.26C101.841 57.26 98.908 57.9567 96.4147 59.35C93.9947 60.7433 92.4914 63.09 91.9047 66.39H82.0047C82.4447 62.5033 83.7647 59.2767 85.9647 56.71C88.238 54.1433 91.0614 52.2367 94.4347 50.99C97.808 49.7433 101.401 49.12 105.215 49.12C112.988 49.12 118.818 51.1733 122.705 55.28C126.665 59.3133 128.645 64.7033 128.645 71.45V87.84C128.645 90.48 128.791 92.4233 129.085 93.67C129.451 94.9167 130.038 95.6867 130.845 95.98C131.651 96.2733 132.751 96.42 134.145 96.42H134.915V105H132.825C129.231 105 126.298 104.413 124.025 103.24C121.751 102.067 120.211 99.72 119.405 96.2C117.718 99.06 115.371 101.48 112.365 103.46C109.431 105.367 105.655 106.32 101.035 106.32ZM102.575 98.29C105.801 98.29 108.551 97.4833 110.825 95.87C113.171 94.2567 115.005 92.13 116.325 89.49C117.645 86.85 118.378 84.0633 118.525 81.13C116.838 80.6167 114.785 80.1767 112.365 79.81C109.945 79.37 107.525 79.15 105.105 79.15C100.118 79.15 96.488 80.14 94.2147 82.12C92.0147 84.0267 90.9147 86.4467 90.9147 89.38C90.9147 91.9467 91.9047 94.0733 93.8847 95.76C95.938 97.4467 98.8347 98.29 102.575 98.29ZM154.257 105L133.577 50.44H144.027L160.087 95.54L176.147 50.44H186.377L165.807 105H154.257ZM198.131 105V50.44H208.031V105H198.131ZM197.031 39.99V27.89H209.021V39.99H197.031ZM249.061 130.52C244.294 130.52 239.931 129.677 235.971 127.99C232.011 126.377 228.674 123.993 225.961 120.84C223.321 117.76 221.634 113.983 220.901 109.51H230.691C231.718 113.177 233.881 116.147 237.181 118.42C240.554 120.767 244.478 121.94 248.951 121.94C252.471 121.94 255.624 121.17 258.411 119.63C261.198 118.163 263.398 115.927 265.011 112.92C266.698 109.987 267.541 106.357 267.541 102.03V94.22C266.368 96.2 264.791 98.1067 262.811 99.94C260.904 101.7 258.594 103.167 255.881 104.34C253.241 105.44 250.161 105.99 246.641 105.99C241.508 105.99 236.851 104.743 232.671 102.25C228.491 99.7567 225.191 96.3833 222.771 92.13C220.351 87.8033 219.141 82.9267 219.141 77.5C219.141 72 220.351 67.1233 222.771 62.87C225.191 58.6167 228.491 55.28 232.671 52.86C236.851 50.3667 241.508 49.12 246.641 49.12C251.408 49.12 255.588 50.1833 259.181 52.31C262.848 54.4367 265.634 56.9667 267.541 59.9V50.44H277.441V101.7C277.441 107.713 276.194 112.847 273.701 117.1C271.281 121.427 267.908 124.727 263.581 127C259.328 129.347 254.488 130.52 249.061 130.52ZM248.181 97.41C251.848 97.41 255.111 96.5667 257.971 94.88C260.831 93.1933 263.068 90.8467 264.681 87.84C266.294 84.8333 267.101 81.3867 267.101 77.5C267.101 73.54 266.294 70.0933 264.681 67.16C263.068 64.1533 260.831 61.8433 257.971 60.23C255.111 58.5433 251.848 57.7 248.181 57.7C244.588 57.7 241.361 58.5433 238.501 60.23C235.641 61.8433 233.368 64.1533 231.681 67.16C230.068 70.0933 229.261 73.54 229.261 77.5C229.261 81.3133 230.068 84.76 231.681 87.84C233.368 90.8467 235.641 93.1933 238.501 94.88C241.361 96.5667 244.588 97.41 248.181 97.41ZM308.814 106.32C304.414 106.32 300.711 105.587 297.704 104.12C294.697 102.58 292.424 100.563 290.884 98.07C289.417 95.5033 288.684 92.79 288.684 89.93C288.684 83.99 290.811 79.48 295.064 76.4C299.391 73.2467 305.037 71.67 312.004 71.67C315.084 71.67 317.871 71.89 320.364 72.33C322.857 72.77 324.911 73.2833 326.524 73.87V71.45C326.524 66.7567 325.277 63.2367 322.784 60.89C320.364 58.47 317.101 57.26 312.994 57.26C309.621 57.26 306.687 57.9567 304.194 59.35C301.774 60.7433 300.271 63.09 299.684 66.39H289.784C290.224 62.5033 291.544 59.2767 293.744 56.71C296.017 54.1433 298.841 52.2367 302.214 50.99C305.587 49.7433 309.181 49.12 312.994 49.12C320.767 49.12 326.597 51.1733 330.484 55.28C334.444 59.3133 336.424 64.7033 336.424 71.45V87.84C336.424 90.48 336.571 92.4233 336.864 93.67C337.231 94.9167 337.817 95.6867 338.624 95.98C339.431 96.2733 340.531 96.42 341.924 96.42H342.694V105H340.604C337.011 105 334.077 104.413 331.804 103.24C329.531 102.067 327.991 99.72 327.184 96.2C325.497 99.06 323.151 101.48 320.144 103.46C317.211 105.367 313.434 106.32 308.814 106.32ZM310.354 98.29C313.581 98.29 316.331 97.4833 318.604 95.87C320.951 94.2567 322.784 92.13 324.104 89.49C325.424 86.85 326.157 84.0633 326.304 81.13C324.617 80.6167 322.564 80.1767 320.144 79.81C317.724 79.37 315.304 79.15 312.884 79.15C307.897 79.15 304.267 80.14 301.994 82.12C299.794 84.0267 298.694 86.4467 298.694 89.38C298.694 91.9467 299.684 94.0733 301.664 95.76C303.717 97.4467 306.614 98.29 310.354 98.29ZM369.883 105C366.803 105 364.2 104.633 362.073 103.9C359.947 103.093 358.333 101.627 357.233 99.5C356.207 97.3733 355.693 94.3667 355.693 90.48V58.8H346.233V50.44H355.693V37.13H365.593V50.44H380.993V58.8H365.593V88.94C365.593 91.2867 365.777 93.01 366.143 94.11C366.51 95.21 367.28 95.9067 368.453 96.2C369.627 96.42 371.313 96.53 373.513 96.53H380.223V105H369.883ZM413.557 106.32C408.277 106.32 403.583 105.147 399.477 102.8C395.443 100.38 392.253 97.0433 389.907 92.79C387.633 88.5367 386.497 83.55 386.497 77.83C386.497 72.0367 387.633 67.0133 389.907 62.76C392.18 58.4333 395.37 55.0967 399.477 52.75C403.583 50.33 408.313 49.12 413.667 49.12C419.02 49.12 423.603 50.33 427.417 52.75C431.303 55.0967 434.273 58.2133 436.327 62.1C438.453 65.9867 439.517 70.24 439.517 74.86C439.517 75.5933 439.517 76.4 439.517 77.28C439.517 78.0867 439.48 78.9667 439.407 79.92H393.867V72.66H429.727C429.507 67.8933 427.857 64.1533 424.777 61.44C421.77 58.7267 417.993 57.37 413.447 57.37C410.367 57.37 407.507 58.0667 404.867 59.46C402.227 60.78 400.1 62.7967 398.487 65.51C396.947 68.15 396.177 71.45 396.177 75.41V78.38C396.177 82.7067 396.983 86.3367 398.597 89.27C400.21 92.2033 402.337 94.4033 404.977 95.87C407.617 97.3367 410.44 98.07 413.447 98.07C417.113 98.07 420.193 97.2267 422.687 95.54C425.18 93.8533 427.013 91.5433 428.187 88.61H437.977C437.023 91.91 435.447 94.9167 433.247 97.63C431.047 100.343 428.26 102.47 424.887 104.01C421.587 105.55 417.81 106.32 413.557 106.32ZM487.528 105V28H499.078L529.438 96.2L524.818 96.42L554.738 28H566.398V105H556.498V37.68L560.018 38.67L530.868 105H523.278L493.798 38.67L497.428 37.68V105H487.528ZM600.999 106.32C595.059 106.32 590.219 104.34 586.479 100.38C582.739 96.42 580.869 90.3333 580.869 82.12V50.44H590.769V81.13C590.769 86.7033 591.869 90.8833 594.069 93.67C596.342 96.4567 599.459 97.85 603.419 97.85C608.039 97.85 611.669 96.2 614.309 92.9C616.949 89.5267 618.269 84.7967 618.269 78.71V50.44H628.169V105H618.269V96.2C616.656 99.3533 614.346 101.847 611.339 103.68C608.406 105.44 604.959 106.32 600.999 106.32ZM660.089 105C657.009 105 654.405 104.633 652.279 103.9C650.152 103.093 648.539 101.627 647.439 99.5C646.412 97.3733 645.899 94.3667 645.899 90.48V58.8H636.439V50.44H645.899V37.13H655.799V50.44H671.199V58.8H655.799V88.94C655.799 91.2867 655.982 93.01 656.349 94.11C656.715 95.21 657.485 95.9067 658.659 96.2C659.832 96.42 661.519 96.53 663.719 96.53H670.429V105H660.089ZM701.29 106.32C695.35 106.32 690.51 104.34 686.77 100.38C683.03 96.42 681.16 90.3333 681.16 82.12V50.44H691.06V81.13C691.06 86.7033 692.16 90.8833 694.36 93.67C696.633 96.4567 699.75 97.85 703.71 97.85C708.33 97.85 711.96 96.2 714.6 92.9C717.24 89.5267 718.56 84.7967 718.56 78.71V50.44H728.46V105H718.56V96.2C716.947 99.3533 714.637 101.847 711.63 103.68C708.697 105.44 705.25 106.32 701.29 106.32ZM759.5 106.32C755.1 106.32 751.396 105.587 748.39 104.12C745.383 102.58 743.11 100.563 741.57 98.07C740.103 95.5033 739.37 92.79 739.37 89.93C739.37 83.99 741.496 79.48 745.75 76.4C750.076 73.2467 755.723 71.67 762.69 71.67C765.77 71.67 768.556 71.89 771.05 72.33C773.543 72.77 775.596 73.2833 777.21 73.87V71.45C777.21 66.7567 775.963 63.2367 773.47 60.89C771.05 58.47 767.786 57.26 763.68 57.26C760.306 57.26 757.373 57.9567 754.88 59.35C752.46 60.7433 750.956 63.09 750.37 66.39H740.47C740.91 62.5033 742.23 59.2767 744.43 56.71C746.703 54.1433 749.526 52.2367 752.9 50.99C756.273 49.7433 759.866 49.12 763.68 49.12C771.453 49.12 777.283 51.1733 781.17 55.28C785.13 59.3133 787.11 64.7033 787.11 71.45V87.84C787.11 90.48 787.256 92.4233 787.55 93.67C787.916 94.9167 788.503 95.6867 789.31 95.98C790.116 96.2733 791.216 96.42 792.61 96.42H793.38V105H791.29C787.696 105 784.763 104.413 782.49 103.24C780.216 102.067 778.676 99.72 777.87 96.2C776.183 99.06 773.836 101.48 770.83 103.46C767.896 105.367 764.12 106.32 759.5 106.32ZM761.04 98.29C764.266 98.29 767.016 97.4833 769.29 95.87C771.636 94.2567 773.47 92.13 774.79 89.49C776.11 86.85 776.843 84.0633 776.99 81.13C775.303 80.6167 773.25 80.1767 770.83 79.81C768.41 79.37 765.99 79.15 763.57 79.15C758.583 79.15 754.953 80.14 752.68 82.12C750.48 84.0267 749.38 86.4467 749.38 89.38C749.38 91.9467 750.37 94.0733 752.35 95.76C754.403 97.4467 757.3 98.29 761.04 98.29ZM804.245 105V25.8H814.145V105H804.245ZM828.556 105V25.8H838.456V105H828.556ZM849.927 129.2V121.06H861.037C862.064 121.06 862.907 120.877 863.567 120.51C864.301 120.217 864.997 119.52 865.657 118.42C866.317 117.32 867.124 115.67 868.077 113.47L874.237 99.94L873.357 105.11L849.487 50.44H860.157L877.867 92.35L896.567 50.44H906.907L877.317 116.11C875.997 119.043 874.861 121.39 873.907 123.15C872.954 124.91 872.037 126.193 871.157 127C870.351 127.88 869.397 128.467 868.297 128.76C867.271 129.053 865.914 129.2 864.227 129.2H849.927ZM20.68 237L4.73 182.44H14.63L27.06 229.3L24.53 229.19L38.72 182.44H49.94L64.13 229.19L61.6 229.3L74.03 182.44H83.93L67.98 237H57.86L43.01 188.16H45.65L30.8 237H20.68ZM94.7243 237V182.44H104.624V237H94.7243ZM93.6243 171.99V159.89H105.614V171.99H93.6243ZM137.075 237C133.995 237 131.392 236.633 129.265 235.9C127.138 235.093 125.525 233.627 124.425 231.5C123.398 229.373 122.885 226.367 122.885 222.48V190.8H113.425V182.44H122.885V169.13H132.785V182.44H148.185V190.8H132.785V220.94C132.785 223.287 132.968 225.01 133.335 226.11C133.702 227.21 134.472 227.907 135.645 228.2C136.818 228.42 138.505 228.53 140.705 228.53H147.415V237H137.075ZM158.586 237V157.8H168.486V191.68C170.32 188.38 172.886 185.813 176.186 183.98C179.56 182.073 183.226 181.12 187.186 181.12C193.566 181.12 198.626 183.1 202.366 187.06C206.18 191.02 208.086 197.107 208.086 205.32V237H198.296V206.31C198.296 200.737 197.16 196.557 194.886 193.77C192.686 190.983 189.35 189.59 184.876 189.59C180.256 189.59 176.37 191.277 173.216 194.65C170.063 197.95 168.486 202.643 168.486 208.73V237H158.586Z" fill="#353332"/>
<path d="M236 234.847H271.84C283.979 234.847 293.807 225.07 293.807 212.418C293.807 199.192 283.979 194.591 283.979 194.591V194.016C283.979 194.016 292.65 188.84 292.65 176.763C292.65 164.112 282.823 154.335 270.684 154.335H236V234.847ZM245.249 226.22V198.616H271.84C278.777 198.616 284.557 204.367 284.557 212.418C284.557 220.469 278.777 226.22 271.84 226.22H245.249ZM245.249 190.565V162.961H270.684C277.621 162.961 283.401 168.712 283.401 176.763C283.401 184.814 277.621 190.565 270.684 190.565H245.249Z" fill="#B4B4AF"/>
<path d="M307.639 234.847H316.31V198.041C316.31 189.99 320.935 185.39 329.028 185.39H337.699V177.338H327.872C321.513 177.338 319.201 179.639 316.888 183.089H316.31L315.154 177.338H307.639V234.847Z" fill="#B4B4AF"/>
<path d="M361.436 235.997C374.153 235.997 379.356 227.946 379.356 227.946H379.934L381.09 234.847H388.605V198.041C388.605 184.239 379.934 176.188 366.06 176.188C351.609 176.188 343.516 184.814 342.938 194.016H351.609C352.187 188.84 357.389 184.239 366.06 184.239C374.731 184.239 379.934 189.415 379.934 198.041V199.767H364.326C348.14 199.767 341.203 207.243 341.203 218.169C341.203 228.521 349.296 235.997 361.436 235.997ZM361.436 227.946C353.921 227.946 349.874 223.92 349.874 218.169C349.874 212.418 353.921 207.818 364.326 207.818H379.934V210.118C379.934 221.045 372.997 227.946 361.436 227.946Z" fill="#B4B4AF"/>
<path d="M428.523 259C444.709 259 454.536 249.224 454.536 234.847V177.338H447.021L445.865 184.814H445.287C441.24 179.639 434.303 176.188 426.789 176.188C411.759 176.188 400.198 187.69 400.198 204.367C400.198 221.045 411.759 232.546 426.789 232.546C434.303 232.546 440.662 229.671 445.287 224.495H445.865V234.847C445.865 244.623 438.928 250.949 428.523 250.949C417.54 250.949 411.759 245.198 411.181 239.447H402.51C403.088 249.224 412.337 259 428.523 259ZM427.367 224.495C416.962 224.495 408.869 216.444 408.869 204.367C408.869 192.291 416.962 184.239 427.367 184.239C437.772 184.239 445.865 192.291 445.865 204.367C445.865 216.444 437.772 224.495 427.367 224.495Z" fill="#B4B4AF"/>
<path d="M487.495 235.997C500.212 235.997 505.415 227.946 505.415 227.946H505.993L507.149 234.847H514.664V198.041C514.664 184.239 505.993 176.188 492.119 176.188C477.667 176.188 469.575 184.814 468.996 194.016H477.667C478.245 188.84 483.448 184.239 492.119 184.239C500.79 184.239 505.993 189.415 505.993 198.041V199.767H490.385C474.199 199.767 467.262 207.243 467.262 218.169C467.262 228.521 475.355 235.997 487.495 235.997ZM487.495 227.946C479.98 227.946 475.933 223.92 475.933 218.169C475.933 212.418 479.98 207.818 490.385 207.818H505.993V210.118C505.993 221.045 499.056 227.946 487.495 227.946Z" fill="#B4B4AF"/>
<path d="M552.848 234.847H559.784V161.236H587.531V154.335H525.1V161.236H552.848V234.847Z" fill="#B4B4AF"/>
<path d="M615.283 235.997C630.313 235.997 637.25 226.335 640.14 218.744H632.625C630.313 223.345 624.532 229.096 615.283 229.096C604.878 229.096 596.207 221.62 595.051 209.543H641.527C641.527 209.543 641.874 207.818 641.874 204.942C641.874 187.69 630.313 176.188 615.283 176.188C599.675 176.188 588.114 187.69 588.114 206.092C588.114 224.495 599.675 235.997 615.283 235.997ZM595.051 202.642C596.207 190.565 604.3 183.089 615.283 183.089C626.266 183.089 634.359 191.14 634.937 202.642H595.051Z" fill="#B4B4AF"/>
<path d="M678.256 235.997C690.974 235.997 700.801 228.521 703.691 215.869H696.176C695.02 220.469 689.817 229.096 678.256 229.096C666.695 229.096 658.024 220.47 658.024 206.092C658.024 191.715 666.695 183.089 678.256 183.089C689.817 183.089 695.02 191.14 696.176 195.741H703.691C700.801 183.664 690.974 176.188 678.256 176.188C662.648 176.188 651.087 187.69 651.087 206.092C651.087 224.495 662.648 235.997 678.256 235.997Z" fill="#B4B4AF"/>
<path d="M716.991 234.847H723.928V200.342C723.928 190.565 731.443 183.089 741.848 183.089C751.675 183.089 758.612 189.99 758.612 200.342V234.847H765.548V200.342C765.548 185.965 755.721 176.188 742.426 176.188C729.708 176.188 724.506 184.814 724.506 184.814H723.928V154.335H716.991V234.847Z" fill="#B4B4AF"/>
<path d="M782.886 234.847H789.823V200.342C789.823 190.565 797.338 183.089 807.743 183.089C817.57 183.089 824.507 189.99 824.507 200.342V234.847H831.443V200.342C831.443 185.965 821.616 176.188 808.321 176.188C795.603 176.188 790.401 184.814 790.401 184.814H789.823L788.667 177.338H782.886V234.847Z" fill="#B4B4AF"/>
<path d="M871.917 235.997C886.947 235.997 899.086 223.92 899.086 206.092C899.086 188.265 886.947 176.188 871.917 176.188C856.887 176.188 844.748 188.265 844.748 206.092C844.748 223.92 856.887 235.997 871.917 235.997ZM871.917 229.096C860.934 229.096 851.685 219.894 851.685 206.092C851.685 192.291 860.934 183.089 871.917 183.089C882.9 183.089 892.149 192.291 892.149 206.092C892.149 219.894 882.9 229.096 871.917 229.096Z" fill="#B4B4AF"/>
<path d="M912.91 234.847H919.847V154.335H912.91V234.847Z" fill="#B4B4AF"/>
<path d="M960.943 235.997C975.973 235.997 988.113 223.92 988.113 206.092C988.113 188.265 975.973 176.188 960.943 176.188C945.914 176.188 933.774 188.265 933.774 206.092C933.774 223.92 945.914 235.997 960.943 235.997ZM960.943 229.096C949.96 229.096 940.711 219.894 940.711 206.092C940.711 192.291 949.96 183.089 960.943 183.089C971.927 183.089 981.176 192.291 981.176 206.092C981.176 219.894 971.927 229.096 960.943 229.096Z" fill="#B4B4AF"/>
<path d="M1025.06 259C1040.67 259 1050.49 249.224 1050.49 234.847V177.338H1044.71L1043.56 186.54H1042.98C1040.67 183.089 1034.31 176.188 1023.32 176.188C1008.87 176.188 997.312 187.69 997.312 204.367C997.312 221.045 1008.87 232.546 1023.32 232.546C1034.31 232.546 1040.67 225.645 1042.98 222.195H1043.56V234.847C1043.56 245.198 1036.62 252.099 1025.06 252.099C1013.5 252.099 1007.72 246.348 1007.14 239.447H1000.2C1001.01 249.799 1010.03 259 1025.06 259ZM1023.9 225.645C1012.92 225.645 1004.25 217.019 1004.25 204.367C1004.25 191.715 1012.92 183.089 1023.9 183.089C1034.89 183.089 1043.56 191.715 1043.56 204.367C1043.56 217.019 1034.89 225.645 1023.9 225.645Z" fill="#B4B4AF"/>
<path d="M1068.41 234.847H1075.35V177.338H1068.41V234.847ZM1067.83 164.112H1075.92V156.06H1067.83V164.112Z" fill="#B4B4AF"/>
<path d="M1116.44 235.997C1131.47 235.997 1138.41 226.335 1141.3 218.744H1133.78C1131.47 223.345 1125.69 229.096 1116.44 229.096C1106.04 229.096 1097.37 221.62 1096.21 209.543H1142.69C1142.69 209.543 1143.03 207.818 1143.03 204.942C1143.03 187.69 1131.47 176.188 1116.44 176.188C1100.84 176.188 1089.27 187.69 1089.27 206.092C1089.27 224.495 1100.84 235.997 1116.44 235.997ZM1096.21 202.642C1097.37 190.565 1105.46 183.089 1116.44 183.089C1127.43 183.089 1135.52 191.14 1136.1 202.642H1096.21Z" fill="#B4B4AF"/>
<path d="M1174.21 235.997C1188.67 235.997 1196.18 228.521 1196.18 219.319C1196.18 210.693 1191.56 205.977 1180.57 203.792L1169.01 201.492C1162.65 200.227 1159.76 196.891 1159.76 192.291C1159.76 187.69 1164.39 183.089 1173.64 183.089C1183.46 183.089 1188.67 188.265 1188.67 194.016H1195.6C1195.6 184.239 1187.51 176.188 1173.64 176.188C1160.34 176.188 1152.83 183.664 1152.83 192.291C1152.83 201.492 1158.03 206.092 1167.85 208.048L1179.42 210.348C1186.35 211.728 1189.24 214.719 1189.24 219.319C1189.24 224.495 1184.62 229.096 1174.21 229.096C1164.27 229.096 1158.26 224.035 1158.26 218.169H1151.67C1151.67 227.37 1160.46 235.997 1174.21 235.997Z" fill="#B4B4AF"/>
<path d="M1238 147C1230.63 147 1223.88 149.669 1218.65 154.1C1217.34 155.194 1216.14 156.422 1215.02 157.73C1210.64 162.961 1208 169.687 1208 177C1208 183.219 1209.89 189.011 1213.15 193.788C1214.25 195.39 1215.47 196.884 1216.83 198.246C1222.25 203.664 1229.75 207 1238 207C1254.55 207 1268 193.548 1268 177C1268 160.452 1254.55 147 1238 147ZM1212.8 177C1212.8 170.354 1215.39 164.322 1219.61 159.811L1232.5 165.657C1232.96 165.87 1233.22 166.297 1233.22 166.778V169.447C1233.22 169.98 1232.85 170.488 1232.34 170.648L1229.17 171.582C1227.48 172.062 1226.36 173.584 1226.36 175.319C1226.36 177.053 1227.48 178.575 1229.14 179.082L1243.23 183.352C1243.77 183.512 1244.11 183.993 1244.11 184.527V189.438C1244.11 190.078 1243.63 190.612 1242.99 190.665L1218.73 193.174C1215.02 188.824 1212.8 183.165 1212.8 177ZM1238 202.196C1232.58 202.196 1227.56 200.461 1223.43 197.552L1243.47 195.47C1246.57 195.149 1248.89 192.56 1248.89 189.464V184.553C1248.89 181.884 1247.15 179.536 1244.59 178.762L1233.33 175.345L1233.68 175.238C1236.21 174.491 1238 172.116 1238 169.447V166.778C1238 164.402 1236.61 162.267 1234.45 161.279L1223.59 156.342C1227.67 153.486 1232.64 151.804 1238 151.804C1251.91 151.804 1263.2 163.094 1263.2 177C1263.2 190.906 1251.91 202.196 1238 202.196Z" fill="#B4B4AF" stroke="#B4B4AF"/>
</svg>
