<svg width="12" height="12" viewBox="0 0 12 12" fill="none" xmlns="http://www.w3.org/2000/svg">
<g clip-path="url(#clip0_1006_3315)">
<path d="M10.125 11C9.97235 11.0058 9.82032 10.9774 9.68007 10.9169C9.53983 10.8563 9.41491 10.7651 9.3145 10.65C10.3826 9.53065 10.9851 8.04709 11 6.5V6.1395L10 5.8065V4C10 3.60217 9.84196 3.22064 9.56066 2.93934C9.27936 2.65804 8.89782 2.5 8.5 2.5H8V1.5C8 1.10218 7.84196 0.720644 7.56066 0.43934C7.27936 0.158035 6.89782 0 6.5 0L5.5 0C5.10218 0 4.72064 0.158035 4.43934 0.43934C4.15804 0.720644 4 1.10218 4 1.5V2.5H3.5C3.10218 2.5 2.72064 2.65804 2.43934 2.93934C2.15804 3.22064 2 3.60217 2 4V5.8065L1 6.1395V6.5C1.0157 8.0475 1.61933 9.53112 2.6885 10.65C2.58772 10.7655 2.46231 10.8569 2.32152 10.9174C2.18073 10.978 2.02814 11.0062 1.875 11C1.3305 11 1 10.653 1 10.5H0C0 11.313 0.859 12 1.875 12C2.3785 12.0038 2.86656 11.8263 3.25 11.5C3.63591 11.8211 4.12174 11.9974 4.62374 11.9987C5.12574 12 5.61246 11.8261 6 11.507C6.38754 11.8261 6.87426 12 7.37626 11.9987C7.87826 11.9974 8.36409 11.8211 8.75 11.5C9.13331 11.8262 9.62117 12.0037 10.1245 12C11.141 12 12 11.313 12 10.5H11C11 10.672 10.659 11 10.125 11ZM5 1.5C5 1.36739 5.05268 1.24021 5.14645 1.14645C5.24021 1.05268 5.36739 1 5.5 1H6.5C6.63261 1 6.75979 1.05268 6.85355 1.14645C6.94732 1.24021 7 1.36739 7 1.5V2.5H5V1.5ZM3 4C3 3.86739 3.05268 3.74021 3.14645 3.64645C3.24021 3.55268 3.36739 3.5 3.5 3.5H8.5C8.63261 3.5 8.75979 3.55268 8.85355 3.64645C8.94732 3.74021 9 3.86739 9 4V5.473L6 4.473L3 5.473V4ZM4.625 11C4.0805 11 3.75 10.653 3.75 10.5V10.271L3.578 10.121C2.68249 9.25493 2.12767 8.09615 2.0145 6.8555L5.5 5.6935V10.5C5.5 10.672 5.159 11 4.625 11ZM7.375 11C6.8305 11 6.5 10.653 6.5 10.5V5.6935L9.987 6.856C9.874 8.09609 9.31974 9.25446 8.425 10.1205L8.25 10.2705V10.5C8.25 10.672 7.909 11 7.375 11Z" fill="#B4B4AF"/>
</g>
<defs>
<clipPath id="clip0_1006_3315">
<rect width="12" height="12" fill="white"/>
</clipPath>
</defs>
</svg>
