<svg width="12" height="12" viewBox="0 0 12 12" fill="none" xmlns="http://www.w3.org/2000/svg">
<g clip-path="url(#clip0_1006_3318)">
<path d="M11.6226 0.378862C11.4805 0.235445 11.3065 0.127597 11.1148 0.0640861C10.9232 0.000575587 10.7192 -0.0168034 10.5196 0.0133623C7.54995 0.482386 4.7956 1.85092 2.6281 3.93436C2.24851 4.31609 1.95257 4.77269 1.75914 5.27508C1.56571 5.77746 1.47902 6.31463 1.5046 6.85236C1.5401 7.63239 1.8139 8.38278 2.2891 9.00236L0.0216064 11.2714L0.728606 11.9784L2.9956 9.71136C3.65262 10.2235 4.46259 10.5001 5.2956 10.4969C5.84871 10.4944 6.39559 10.38 6.90334 10.1606C7.41109 9.94126 7.8692 9.62142 8.2501 9.22036C10.2332 7.06231 11.5336 4.36584 11.9876 1.47036C12.0168 1.27255 11.9989 1.07064 11.9355 0.881008C11.8721 0.691375 11.7649 0.519348 11.6226 0.378862ZM2.5036 6.80386C2.48454 6.4052 2.54872 6.00694 2.69205 5.63445C2.83538 5.26196 3.05472 4.92341 3.3361 4.64036C3.5526 4.42336 3.7751 4.22286 4.0001 4.03036V7.29286L3.0051 8.28786C2.70191 7.8501 2.52811 7.33581 2.5036 6.80386ZM7.5271 8.52936C7.05095 9.04833 6.40515 9.38024 5.706 9.4653C5.00685 9.55037 4.3003 9.38301 3.7136 8.99336L6.2071 6.49986H9.0806C8.63615 7.2295 8.11539 7.90983 7.5271 8.52936ZM10.9966 1.32936C10.7598 2.78079 10.3018 4.18731 9.6386 5.49986H7.2071L8.9786 3.72836L8.2716 3.02136L5.0001 6.29286V3.25836C6.7026 2.1058 8.63486 1.33627 10.6636 1.00286C10.6782 1.00087 10.6929 0.999866 10.7076 0.999862C10.7463 0.999806 10.7847 1.00742 10.8205 1.02227C10.8563 1.03711 10.8888 1.0589 10.9161 1.08636C10.9477 1.11737 10.9714 1.15543 10.9854 1.19742C10.9994 1.2394 11.0033 1.28411 10.9966 1.32786V1.32936Z" fill="#B4B4AF"/>
</g>
<defs>
<clipPath id="clip0_1006_3318">
<rect width="12" height="12" fill="white"/>
</clipPath>
</defs>
</svg>
