<svg width="1392" height="52" viewBox="0 0 1392 52" fill="none" xmlns="http://www.w3.org/2000/svg">
<g clip-path="url(#clip0_69_10476)">
<path d="M8 0.5H32C36.1421 0.5 39.5 3.85786 39.5 8V44C39.5 48.1421 36.1421 51.5 32 51.5H8C3.85786 51.5 0.5 48.1421 0.5 44V8C0.5 3.85786 3.85786 0.5 8 0.5Z" fill="#191919"/>
<path d="M8 0.5H32C36.1421 0.5 39.5 3.85786 39.5 8V44C39.5 48.1421 36.1421 51.5 32 51.5H8C3.85786 51.5 0.5 48.1421 0.5 44V8C0.5 3.85786 3.85786 0.5 8 0.5Z" stroke="#232221"/>
<path d="M28 25.3334H12V26.6667H28V25.3334Z" fill="#4F4D4A"/>
<path d="M28 20.6667H12V22H28V20.6667Z" fill="#4F4D4A"/>
<path d="M28 30H12V31.3333H28V30Z" fill="#4F4D4A"/>
<g filter="url(#filter0_d_69_10476)">
<path d="M40 8C40 3.58172 43.5817 0 48 0H1384C1388.42 0 1392 3.58172 1392 8V44C1392 48.4183 1388.42 52 1384 52H48C43.5817 52 40 48.4183 40 44V8Z" fill="#191919"/>
<path d="M48 0.5H1384C1388.14 0.5 1391.5 3.85786 1391.5 8V44C1391.5 48.1421 1388.14 51.5 1384 51.5H48C43.8579 51.5 40.5 48.1421 40.5 44V8C40.5 3.85786 43.8579 0.5 48 0.5Z" stroke="#232221"/>
<g clip-path="url(#clip1_69_10476)">
<path d="M1100 6.5H1332C1333.93 6.5 1335.5 8.067 1335.5 10V42C1335.5 43.933 1333.93 45.5 1332 45.5H1100C1098.07 45.5 1096.5 43.933 1096.5 42V10C1096.5 8.067 1098.07 6.5 1100 6.5Z" stroke="#353332"/>
<path d="M1114.8 23.3636C1114.74 22.8598 1114.5 22.4688 1114.08 22.1903C1113.65 21.9119 1113.13 21.7727 1112.51 21.7727C1112.06 21.7727 1111.67 21.8456 1111.33 21.9915C1111 22.1373 1110.73 22.3378 1110.55 22.593C1110.36 22.8482 1110.27 23.1383 1110.27 23.4631C1110.27 23.7348 1110.33 23.9685 1110.46 24.1641C1110.59 24.3563 1110.76 24.517 1110.97 24.6463C1111.17 24.7723 1111.39 24.8767 1111.61 24.9595C1111.84 25.0391 1112.05 25.1037 1112.24 25.1534L1113.27 25.4318C1113.54 25.5014 1113.83 25.5975 1114.15 25.7202C1114.48 25.8428 1114.8 26.0102 1115.09 26.2223C1115.4 26.4311 1115.64 26.6996 1115.84 27.0277C1116.04 27.3558 1116.13 27.7585 1116.13 28.2358C1116.13 28.786 1115.99 29.2831 1115.7 29.7273C1115.42 30.1714 1115 30.5244 1114.45 30.7862C1113.9 31.0481 1113.24 31.179 1112.45 31.179C1111.73 31.179 1111.09 31.0613 1110.56 30.826C1110.03 30.5907 1109.61 30.2625 1109.31 29.8416C1109.01 29.4207 1108.84 28.9318 1108.8 28.375H1110.07C1110.1 28.7595 1110.23 29.0777 1110.46 29.3295C1110.68 29.5781 1110.97 29.7637 1111.32 29.8864C1111.67 30.0057 1112.05 30.0653 1112.45 30.0653C1112.93 30.0653 1113.35 29.9891 1113.72 29.8366C1114.1 29.6809 1114.39 29.4654 1114.61 29.1903C1114.83 28.9119 1114.94 28.5871 1114.94 28.2159C1114.94 27.8778 1114.85 27.6027 1114.66 27.3906C1114.47 27.1785 1114.22 27.0062 1113.91 26.8736C1113.6 26.741 1113.27 26.625 1112.91 26.5256L1111.66 26.1676C1110.86 25.9389 1110.23 25.6125 1109.77 25.1882C1109.31 24.764 1109.07 24.2088 1109.07 23.5227C1109.07 22.9527 1109.23 22.4555 1109.54 22.0312C1109.85 21.6037 1110.27 21.2723 1110.79 21.0369C1111.32 20.7983 1111.9 20.679 1112.55 20.679C1113.21 20.679 1113.79 20.7966 1114.3 21.032C1114.81 21.264 1115.22 21.5821 1115.52 21.9865C1115.82 22.3909 1115.98 22.8499 1115.99 23.3636H1114.8ZM1121.2 31.1591C1120.47 31.1591 1119.83 30.9967 1119.3 30.6719C1118.77 30.3438 1118.36 29.8864 1118.07 29.2997C1117.79 28.7098 1117.64 28.0237 1117.64 27.2415C1117.64 26.4593 1117.79 25.7699 1118.07 25.1733C1118.36 24.5734 1118.76 24.1061 1119.27 23.7713C1119.79 23.4332 1120.39 23.2642 1121.08 23.2642C1121.48 23.2642 1121.87 23.3305 1122.26 23.4631C1122.65 23.5956 1123 23.8111 1123.32 24.1094C1123.64 24.4044 1123.89 24.7955 1124.08 25.2827C1124.27 25.7699 1124.37 26.3698 1124.37 27.0824V27.5795H1118.48V26.5653H1123.17C1123.17 26.1345 1123.09 25.75 1122.91 25.4119C1122.74 25.0739 1122.5 24.8071 1122.19 24.6115C1121.88 24.416 1121.51 24.3182 1121.08 24.3182C1120.62 24.3182 1120.21 24.4342 1119.87 24.6662C1119.53 24.8949 1119.27 25.1932 1119.09 25.5611C1118.91 25.929 1118.82 26.3234 1118.82 26.7443V27.4205C1118.82 27.9972 1118.92 28.486 1119.12 28.8871C1119.32 29.2848 1119.6 29.5881 1119.96 29.7969C1120.31 30.0024 1120.73 30.1051 1121.2 30.1051C1121.51 30.1051 1121.79 30.062 1122.04 29.9759C1122.29 29.8864 1122.51 29.7538 1122.69 29.5781C1122.87 29.3991 1123.01 29.1771 1123.11 28.9119L1124.25 29.2301C1124.13 29.6146 1123.93 29.9527 1123.64 30.2443C1123.36 30.5327 1123.01 30.758 1122.6 30.9205C1122.19 31.0795 1121.72 31.1591 1121.2 31.1591ZM1128.4 31.179C1127.91 31.179 1127.47 31.0878 1127.08 30.9055C1126.69 30.7199 1126.37 30.4531 1126.14 30.1051C1125.91 29.7538 1125.79 29.3295 1125.79 28.8324C1125.79 28.3949 1125.88 28.0402 1126.05 27.7685C1126.22 27.4934 1126.45 27.2779 1126.74 27.1222C1127.03 26.9664 1127.35 26.8504 1127.7 26.7741C1128.05 26.6946 1128.4 26.6316 1128.76 26.5852C1129.22 26.5256 1129.6 26.4808 1129.88 26.451C1130.18 26.4179 1130.39 26.3632 1130.52 26.2869C1130.66 26.2107 1130.72 26.0781 1130.72 25.8892V25.8494C1130.72 25.3589 1130.59 24.9777 1130.32 24.706C1130.06 24.4342 1129.65 24.2983 1129.11 24.2983C1128.55 24.2983 1128.11 24.4209 1127.8 24.6662C1127.48 24.9115 1127.25 25.1733 1127.12 25.4517L1126.01 25.054C1126.21 24.59 1126.47 24.2287 1126.81 23.9702C1127.14 23.7083 1127.51 23.526 1127.9 23.4233C1128.3 23.3172 1128.69 23.2642 1129.07 23.2642C1129.32 23.2642 1129.6 23.294 1129.92 23.3537C1130.24 23.41 1130.55 23.5277 1130.85 23.7067C1131.15 23.8857 1131.4 24.1558 1131.6 24.517C1131.8 24.8783 1131.9 25.3622 1131.9 25.9688V31H1130.72V29.9659H1130.66C1130.58 30.1316 1130.45 30.3089 1130.27 30.4979C1130.08 30.6868 1129.83 30.8475 1129.53 30.9801C1129.22 31.1127 1128.84 31.179 1128.4 31.179ZM1128.58 30.125C1129.04 30.125 1129.43 30.0339 1129.75 29.8516C1130.07 29.6693 1130.31 29.4339 1130.48 29.1456C1130.64 28.8572 1130.72 28.554 1130.72 28.2358V27.1619C1130.67 27.2216 1130.56 27.2763 1130.4 27.326C1130.23 27.3724 1130.04 27.4138 1129.82 27.4503C1129.6 27.4834 1129.39 27.5133 1129.19 27.5398C1128.99 27.563 1128.82 27.5829 1128.7 27.5994C1128.39 27.6392 1128.11 27.7038 1127.84 27.7933C1127.58 27.8795 1127.37 28.0104 1127.2 28.1861C1127.04 28.3584 1126.97 28.5937 1126.97 28.892C1126.97 29.2997 1127.12 29.608 1127.42 29.8168C1127.72 30.0223 1128.11 30.125 1128.58 30.125ZM1134.04 31V23.3636H1135.17V24.517H1135.25C1135.39 24.1392 1135.64 23.8326 1136.01 23.5973C1136.37 23.362 1136.78 23.2443 1137.24 23.2443C1137.33 23.2443 1137.43 23.246 1137.56 23.2493C1137.69 23.2526 1137.79 23.2576 1137.86 23.2642V24.4574C1137.82 24.4474 1137.73 24.4325 1137.58 24.4126C1137.44 24.3894 1137.3 24.3778 1137.14 24.3778C1136.77 24.3778 1136.44 24.4557 1136.15 24.6115C1135.86 24.764 1135.63 24.9761 1135.46 25.2479C1135.29 25.5163 1135.21 25.8229 1135.21 26.1676V31H1134.04ZM1142.12 31.1591C1141.4 31.1591 1140.79 30.9901 1140.27 30.652C1139.75 30.3139 1139.35 29.8482 1139.07 29.255C1138.8 28.6617 1138.66 27.9839 1138.66 27.2216C1138.66 26.446 1138.8 25.7616 1139.08 25.1683C1139.37 24.5717 1139.77 24.1061 1140.29 23.7713C1140.81 23.4332 1141.41 23.2642 1142.1 23.2642C1142.63 23.2642 1143.12 23.3636 1143.55 23.5625C1143.98 23.7614 1144.33 24.0398 1144.61 24.3977C1144.88 24.7557 1145.05 25.1733 1145.12 25.6506H1143.95C1143.86 25.3026 1143.66 24.9943 1143.35 24.7259C1143.05 24.4541 1142.63 24.3182 1142.12 24.3182C1141.66 24.3182 1141.26 24.4375 1140.91 24.6761C1140.57 24.9115 1140.31 25.2446 1140.11 25.6754C1139.93 26.103 1139.83 26.6051 1139.83 27.1818C1139.83 27.7718 1139.92 28.2855 1140.11 28.723C1140.3 29.1605 1140.56 29.5002 1140.9 29.7422C1141.25 29.9841 1141.65 30.1051 1142.12 30.1051C1142.42 30.1051 1142.7 30.0521 1142.95 29.946C1143.2 29.84 1143.41 29.6875 1143.58 29.4886C1143.75 29.2898 1143.87 29.0511 1143.95 28.7727H1145.12C1145.05 29.2235 1144.89 29.6295 1144.63 29.9908C1144.37 30.3487 1144.03 30.6338 1143.6 30.8459C1143.17 31.0547 1142.68 31.1591 1142.12 31.1591ZM1148.01 26.4062V31H1146.84V20.8182H1148.01V24.5568H1148.11C1148.29 24.1624 1148.56 23.8492 1148.91 23.6172C1149.27 23.3819 1149.76 23.2642 1150.36 23.2642C1150.88 23.2642 1151.33 23.3686 1151.72 23.5774C1152.11 23.7829 1152.42 24.0994 1152.63 24.527C1152.85 24.9512 1152.96 25.4915 1152.96 26.1477V31H1151.79V26.2273C1151.79 25.6207 1151.63 25.1518 1151.31 24.8203C1151 24.4856 1150.57 24.3182 1150.02 24.3182C1149.63 24.3182 1149.29 24.3994 1148.98 24.5618C1148.68 24.7242 1148.44 24.9612 1148.27 25.2727C1148.1 25.5843 1148.01 25.9621 1148.01 26.4062ZM1159.2 31V20.8182H1160.44V29.9062H1165.17V31H1159.2ZM1170.02 31.1591C1169.33 31.1591 1168.73 30.995 1168.21 30.6669C1167.69 30.3388 1167.29 29.8797 1166.99 29.2898C1166.71 28.6998 1166.56 28.0104 1166.56 27.2216C1166.56 26.4261 1166.71 25.7318 1166.99 25.1385C1167.29 24.5452 1167.69 24.0845 1168.21 23.7564C1168.73 23.4283 1169.33 23.2642 1170.02 23.2642C1170.71 23.2642 1171.31 23.4283 1171.83 23.7564C1172.35 24.0845 1172.76 24.5452 1173.04 25.1385C1173.34 25.7318 1173.48 26.4261 1173.48 27.2216C1173.48 28.0104 1173.34 28.6998 1173.04 29.2898C1172.76 29.8797 1172.35 30.3388 1171.83 30.6669C1171.31 30.995 1170.71 31.1591 1170.02 31.1591ZM1170.02 30.1051C1170.55 30.1051 1170.98 29.9709 1171.31 29.7024C1171.65 29.4339 1171.9 29.081 1172.07 28.6435C1172.23 28.206 1172.31 27.732 1172.31 27.2216C1172.31 26.7112 1172.23 26.2356 1172.07 25.7947C1171.9 25.3539 1171.65 24.9976 1171.31 24.7259C1170.98 24.4541 1170.55 24.3182 1170.02 24.3182C1169.5 24.3182 1169.07 24.4541 1168.73 24.7259C1168.39 24.9976 1168.14 25.3539 1167.98 25.7947C1167.82 26.2356 1167.73 26.7112 1167.73 27.2216C1167.73 27.732 1167.82 28.206 1167.98 28.6435C1168.14 29.081 1168.39 29.4339 1168.73 29.7024C1169.07 29.9709 1169.5 30.1051 1170.02 30.1051ZM1178.38 31.1591C1177.66 31.1591 1177.04 30.9901 1176.53 30.652C1176.01 30.3139 1175.61 29.8482 1175.33 29.255C1175.05 28.6617 1174.92 27.9839 1174.92 27.2216C1174.92 26.446 1175.06 25.7616 1175.34 25.1683C1175.63 24.5717 1176.03 24.1061 1176.55 23.7713C1177.06 23.4332 1177.67 23.2642 1178.36 23.2642C1178.89 23.2642 1179.38 23.3636 1179.81 23.5625C1180.24 23.7614 1180.59 24.0398 1180.87 24.3977C1181.14 24.7557 1181.31 25.1733 1181.38 25.6506H1180.2C1180.12 25.3026 1179.92 24.9943 1179.61 24.7259C1179.3 24.4541 1178.89 24.3182 1178.38 24.3182C1177.92 24.3182 1177.52 24.4375 1177.17 24.6761C1176.83 24.9115 1176.56 25.2446 1176.37 25.6754C1176.18 26.103 1176.09 26.6051 1176.09 27.1818C1176.09 27.7718 1176.18 28.2855 1176.37 28.723C1176.56 29.1605 1176.82 29.5002 1177.16 29.7422C1177.51 29.9841 1177.91 30.1051 1178.38 30.1051C1178.68 30.1051 1178.96 30.0521 1179.21 29.946C1179.45 29.84 1179.66 29.6875 1179.84 29.4886C1180.01 29.2898 1180.13 29.0511 1180.2 28.7727H1181.38C1181.31 29.2235 1181.15 29.6295 1180.89 29.9908C1180.63 30.3487 1180.28 30.6338 1179.86 30.8459C1179.43 31.0547 1178.94 31.1591 1178.38 31.1591ZM1185.34 31.179C1184.86 31.179 1184.42 31.0878 1184.02 30.9055C1183.63 30.7199 1183.32 30.4531 1183.08 30.1051C1182.85 29.7538 1182.74 29.3295 1182.74 28.8324C1182.74 28.3949 1182.82 28.0402 1182.99 27.7685C1183.17 27.4934 1183.4 27.2779 1183.69 27.1222C1183.97 26.9664 1184.29 26.8504 1184.64 26.7741C1184.99 26.6946 1185.34 26.6316 1185.7 26.5852C1186.16 26.5256 1186.54 26.4808 1186.83 26.451C1187.12 26.4179 1187.33 26.3632 1187.46 26.2869C1187.6 26.2107 1187.67 26.0781 1187.67 25.8892V25.8494C1187.67 25.3589 1187.53 24.9777 1187.26 24.706C1187 24.4342 1186.6 24.2983 1186.06 24.2983C1185.5 24.2983 1185.06 24.4209 1184.74 24.6662C1184.42 24.9115 1184.2 25.1733 1184.07 25.4517L1182.95 25.054C1183.15 24.59 1183.42 24.2287 1183.75 23.9702C1184.08 23.7083 1184.45 23.526 1184.84 23.4233C1185.24 23.3172 1185.63 23.2642 1186.02 23.2642C1186.26 23.2642 1186.54 23.294 1186.86 23.3537C1187.18 23.41 1187.49 23.5277 1187.79 23.7067C1188.09 23.8857 1188.34 24.1558 1188.54 24.517C1188.74 24.8783 1188.84 25.3622 1188.84 25.9688V31H1187.67V29.9659H1187.61C1187.53 30.1316 1187.4 30.3089 1187.21 30.4979C1187.02 30.6868 1186.78 30.8475 1186.47 30.9801C1186.16 31.1127 1185.78 31.179 1185.34 31.179ZM1185.52 30.125C1185.98 30.125 1186.37 30.0339 1186.69 29.8516C1187.01 29.6693 1187.26 29.4339 1187.42 29.1456C1187.58 28.8572 1187.67 28.554 1187.67 28.2358V27.1619C1187.62 27.2216 1187.51 27.2763 1187.34 27.326C1187.17 27.3724 1186.98 27.4138 1186.76 27.4503C1186.55 27.4834 1186.34 27.5133 1186.13 27.5398C1185.93 27.563 1185.76 27.5829 1185.64 27.5994C1185.33 27.6392 1185.05 27.7038 1184.78 27.7933C1184.52 27.8795 1184.31 28.0104 1184.15 28.1861C1183.99 28.3584 1183.91 28.5937 1183.91 28.892C1183.91 29.2997 1184.06 29.608 1184.36 29.8168C1184.67 30.0223 1185.05 30.125 1185.52 30.125ZM1194.3 23.3636V24.358H1190.35V23.3636H1194.3ZM1191.5 21.5341H1192.67V28.8125C1192.67 29.1439 1192.72 29.3925 1192.82 29.5582C1192.92 29.7206 1193.04 29.83 1193.19 29.8864C1193.35 29.9394 1193.51 29.9659 1193.69 29.9659C1193.82 29.9659 1193.92 29.9593 1194 29.946C1194.09 29.9295 1194.15 29.9162 1194.2 29.9062L1194.44 30.9602C1194.36 30.9901 1194.25 31.0199 1194.11 31.0497C1193.97 31.0829 1193.79 31.0994 1193.57 31.0994C1193.24 31.0994 1192.91 31.0282 1192.59 30.8857C1192.28 30.7431 1192.02 30.526 1191.81 30.2344C1191.6 29.9427 1191.5 29.5748 1191.5 29.1307V21.5341ZM1196.07 31V23.3636H1197.24V31H1196.07ZM1196.66 22.0909C1196.44 22.0909 1196.24 22.013 1196.07 21.8572C1195.91 21.7015 1195.83 21.5142 1195.83 21.2955C1195.83 21.0767 1195.91 20.8894 1196.07 20.7337C1196.24 20.5779 1196.44 20.5 1196.66 20.5C1196.89 20.5 1197.09 20.5779 1197.25 20.7337C1197.42 20.8894 1197.5 21.0767 1197.5 21.2955C1197.5 21.5142 1197.42 21.7015 1197.25 21.8572C1197.09 22.013 1196.89 22.0909 1196.66 22.0909ZM1202.49 31.1591C1201.8 31.1591 1201.2 30.995 1200.68 30.6669C1200.16 30.3388 1199.76 29.8797 1199.46 29.2898C1199.18 28.6998 1199.03 28.0104 1199.03 27.2216C1199.03 26.4261 1199.18 25.7318 1199.46 25.1385C1199.76 24.5452 1200.16 24.0845 1200.68 23.7564C1201.2 23.4283 1201.8 23.2642 1202.49 23.2642C1203.18 23.2642 1203.79 23.4283 1204.3 23.7564C1204.82 24.0845 1205.23 24.5452 1205.52 25.1385C1205.81 25.7318 1205.95 26.4261 1205.95 27.2216C1205.95 28.0104 1205.81 28.6998 1205.52 29.2898C1205.23 29.8797 1204.82 30.3388 1204.3 30.6669C1203.79 30.995 1203.18 31.1591 1202.49 31.1591ZM1202.49 30.1051C1203.02 30.1051 1203.45 29.9709 1203.79 29.7024C1204.12 29.4339 1204.37 29.081 1204.54 28.6435C1204.7 28.206 1204.78 27.732 1204.78 27.2216C1204.78 26.7112 1204.7 26.2356 1204.54 25.7947C1204.37 25.3539 1204.12 24.9976 1203.79 24.7259C1203.45 24.4541 1203.02 24.3182 1202.49 24.3182C1201.97 24.3182 1201.54 24.4541 1201.2 24.7259C1200.86 24.9976 1200.61 25.3539 1200.45 25.7947C1200.29 26.2356 1200.21 26.7112 1200.21 27.2216C1200.21 27.732 1200.29 28.206 1200.45 28.6435C1200.61 29.081 1200.86 29.4339 1201.2 29.7024C1201.54 29.9709 1201.97 30.1051 1202.49 30.1051ZM1208.92 26.4062V31H1207.74V23.3636H1208.88V24.5568H1208.98C1209.16 24.169 1209.43 23.8575 1209.79 23.6222C1210.16 23.3835 1210.63 23.2642 1211.2 23.2642C1211.72 23.2642 1212.17 23.3703 1212.56 23.5824C1212.95 23.7912 1213.25 24.1094 1213.47 24.5369C1213.68 24.9612 1213.79 25.4981 1213.79 26.1477V31H1212.62V26.2273C1212.62 25.6274 1212.46 25.16 1212.15 24.8253C1211.84 24.4872 1211.41 24.3182 1210.87 24.3182C1210.49 24.3182 1210.16 24.3994 1209.86 24.5618C1209.57 24.7242 1209.34 24.9612 1209.17 25.2727C1209 25.5843 1208.92 25.9621 1208.92 26.4062Z" fill="#4F4D4A"/>
<g clip-path="url(#clip2_69_10476)">
<path d="M1324 36.586L1317.74 30.324C1319.36 28.3346 1320.16 25.7961 1319.97 23.2336C1319.78 20.6711 1318.61 18.2806 1316.7 16.5565C1314.8 14.8325 1312.3 13.9069 1309.73 13.9712C1307.16 14.0354 1304.72 15.0845 1302.9 16.9016C1301.08 18.7187 1300.04 21.1647 1299.97 23.7337C1299.91 26.3026 1300.83 28.798 1302.56 30.7036C1304.28 32.6092 1306.67 33.7793 1309.23 33.9719C1311.8 34.1644 1314.33 33.3646 1316.32 31.738L1322.59 38L1324 36.586ZM1310 32C1308.42 32 1306.87 31.5308 1305.56 30.6518C1304.24 29.7727 1303.21 28.5233 1302.61 27.0615C1302 25.5997 1301.85 23.9912 1302.15 22.4393C1302.46 20.8875 1303.22 19.462 1304.34 18.3432C1305.46 17.2244 1306.89 16.4624 1308.44 16.1537C1309.99 15.8451 1311.6 16.0035 1313.06 16.609C1314.52 17.2145 1315.77 18.2399 1316.65 19.5555C1317.53 20.8711 1318 22.4178 1318 24C1318 26.121 1317.15 28.1545 1315.65 29.6542C1314.15 31.154 1312.12 31.9976 1310 32Z" fill="#4F4D4A"/>
</g>
</g>
<path d="M1344 26C1344 16.0589 1352.06 8 1362 8C1371.94 8 1380 16.0589 1380 26C1380 35.9411 1371.94 44 1362 44C1352.06 44 1344 35.9411 1344 26Z" fill="#353332"/>
<path d="M1369.5 36H1367.83V31.7975C1367.83 31.1442 1367.57 30.5178 1367.11 30.0558C1366.65 29.5938 1366.02 29.334 1365.37 29.3334H1358.63C1357.98 29.334 1357.35 29.5938 1356.89 30.0558C1356.43 30.5178 1356.17 31.1442 1356.17 31.7975V36H1354.5V31.7975C1354.5 30.7024 1354.94 29.6524 1355.71 28.878C1356.49 28.1036 1357.54 27.668 1358.63 27.6667H1365.37C1366.46 27.668 1367.51 28.1036 1368.29 28.878C1369.06 29.6524 1369.5 30.7024 1369.5 31.7975V36Z" fill="#4F4D4A"/>
<path d="M1362 26C1361.01 26 1360.04 25.7068 1359.22 25.1573C1358.4 24.6079 1357.76 23.827 1357.38 22.9134C1357 21.9998 1356.9 20.9945 1357.1 20.0246C1357.29 19.0546 1357.77 18.1637 1358.46 17.4645C1359.16 16.7652 1360.05 16.289 1361.02 16.0961C1361.99 15.9031 1363 16.0022 1363.91 16.3806C1364.83 16.759 1365.61 17.3999 1366.16 18.2222C1366.71 19.0444 1367 20.0111 1367 21C1367 22.3257 1366.47 23.5967 1365.53 24.5341C1364.6 25.4715 1363.33 25.9987 1362 26ZM1362 17.6667C1361.34 17.6667 1360.7 17.8622 1360.15 18.2284C1359.6 18.5947 1359.17 19.1153 1358.92 19.7244C1358.67 20.3335 1358.6 21.0037 1358.73 21.6503C1358.86 22.2969 1359.18 22.8908 1359.64 23.357C1360.11 23.8232 1360.7 24.1407 1361.35 24.2693C1362 24.3979 1362.67 24.3319 1363.28 24.0796C1363.88 23.8273 1364.41 23.4001 1364.77 22.8519C1365.14 22.3037 1365.33 21.6593 1365.33 21C1365.33 20.1159 1364.98 19.2681 1364.36 18.643C1363.73 18.0179 1362.88 17.6667 1362 17.6667Z" fill="#4F4D4A"/>
</g>
</g>
<defs>
<filter id="filter0_d_69_10476" x="16" y="-14" width="1412" height="112" filterUnits="userSpaceOnUse" color-interpolation-filters="sRGB">
<feFlood flood-opacity="0" result="BackgroundImageFix"/>
<feColorMatrix in="SourceAlpha" type="matrix" values="0 0 0 0 0 0 0 0 0 0 0 0 0 0 0 0 0 0 127 0" result="hardAlpha"/>
<feOffset dx="6" dy="16"/>
<feGaussianBlur stdDeviation="15"/>
<feColorMatrix type="matrix" values="0 0 0 0 0.309804 0 0 0 0 0.298039 0 0 0 0 0.290196 0 0 0 0.08 0"/>
<feBlend mode="normal" in2="BackgroundImageFix" result="effect1_dropShadow_69_10476"/>
<feBlend mode="normal" in="SourceGraphic" in2="effect1_dropShadow_69_10476" result="shape"/>
</filter>
<clipPath id="clip0_69_10476">
<path d="M0 4C0 1.79086 1.79086 0 4 0H1388C1390.21 0 1392 1.79086 1392 4V48C1392 50.2091 1390.21 52 1388 52H3.99997C1.79083 52 0 50.2091 0 48V4Z" fill="white"/>
</clipPath>
<clipPath id="clip1_69_10476">
<rect width="240" height="40" fill="white" transform="translate(1096 6)"/>
</clipPath>
<clipPath id="clip2_69_10476">
<rect width="24" height="24" fill="white" transform="translate(1300 14)"/>
</clipPath>
</defs>
</svg>
