<svg width="1392" height="880" viewBox="0 0 1392 880" fill="none" xmlns="http://www.w3.org/2000/svg">
<path d="M272.807 635.677C273.016 640.503 270.448 645.369 266.436 647.67C262.39 649.972 257.145 649.603 253.414 646.781C249.368 643.662 246.481 637.721 241.485 637.941C239.973 638.017 238.177 638.611 237.158 637.46C236.596 636.831 236.49 635.937 236.384 635.119C235.609 630.069 232.968 625.39 229.135 622.308C224.033 623.05 218.753 618.856 218.05 613.469C217.1 605.82 208.793 602.253 204.537 595.979C202.285 592.636 200.879 588.106 197.217 586.659C192.75 587.216 189.581 592.933 191.34 597.318C192.328 599.807 194.577 601.884 194.471 604.557C194.364 607.861 190.672 610.683 191.796 613.766C192.324 615.177 193.662 615.954 194.68 616.96C198.27 620.452 197.954 627.395 194.046 630.477C190.068 633.632 184.226 632.37 180.111 629.475C179.689 626.801 177.752 624.461 175.325 623.571C174.409 623.238 173.391 623.089 172.685 622.344C170.644 620.155 173.987 616.143 172.578 613.469C171.313 611.056 167.442 611.797 165.858 609.605C164.977 608.342 165.155 606.634 165.049 605.075C164.627 599.543 159.244 595.013 153.998 595.791C153.47 595.867 152.908 596.051 152.554 596.46C152.201 596.905 152.167 597.499 152.133 598.056C151.992 600.248 151.852 602.437 151.711 604.63C151.396 609.793 154.56 620.933 147.665 622.083C141.895 623.049 138.305 614.88 132.922 613.838L136.052 602.289C136.052 602.289 137.321 599.876 138.552 596.42C139.782 593.005 139.782 592.151 138.552 585.28C137.321 578.41 132.85 582.274 129.579 574.513C126.342 566.788 123.493 567.642 119.021 562.074C114.516 556.506 112.898 558.213 107.621 554.349C102.306 550.489 100.266 548.741 95.4112 547.479C90.5218 546.18 85.629 543.173 85.2073 535.004C84.8199 526.834 90.1001 534.15 96.6078 529.432C103.119 524.678 101.113 523.824 100.266 518.7C99.4571 513.537 93.7551 512.684 89.7092 512.684C85.6291 512.684 79.5053 513.092 75.8434 508.675C72.185 504.217 71.7975 504.923 68.1356 502.361C64.4395 499.8 61.5902 495.899 57.1226 493.783C52.6549 491.63 48.5713 487.321 44.9094 484.759C53.9544 483.573 53.3921 475.96 58.9501 476.553C64.5115 477.111 65.0018 474.734 71.4067 476.517C77.8458 478.301 86.7502 475.367 87.8783 470.092C88.9686 464.82 84.5353 464.187 87.8783 459.212C91.2213 454.237 93.4363 444.544 96.7827 449.074C100.091 453.64 102.869 460.695 106.215 456.017C109.558 451.303 110.683 450.373 113.464 447.884C116.244 445.434 119.025 449.555 122.896 452.49C126.801 455.424 129.582 454.718 127.364 447.142C125.145 439.566 125.042 430.767 128.138 428.426C131.235 426.085 130.425 419.03 139.47 421.964C148.481 424.898 155.164 424.08 158.51 421.258C161.853 418.436 162.381 418.212 169.067 421.258C175.753 424.305 187.191 427.311 187.191 427.311C190.747 431.024 192.365 427.199 195.602 430.615C198.839 434.03 199.226 432.322 200.845 434.03C202.254 435.514 212.67 442.236 215.273 443.871C215.626 444.096 215.835 444.244 215.835 444.244C220.025 446.845 222.346 446.473 224.774 451.375C226.145 454.161 226.427 458.058 228.504 460.475C233.644 466.492 240.82 460.25 247.05 463.445C251.731 465.858 252.893 472.244 252.961 477.704C252.961 478.931 252.961 480.23 253.596 481.268C254.055 482.046 254.827 482.607 255.495 483.16C258.029 485.389 259.613 488.804 259.754 492.296C259.788 493.482 259.682 494.673 259.894 495.823C260.107 496.974 260.632 498.012 260.95 499.127C262.99 505.773 257.501 506.739 256.551 511.345C255.495 516.508 255.883 515.205 256.658 520.665C257.679 528.057 261.125 536.075 261.163 543.539C261.197 548.253 257.854 552.153 256.376 556.386C255.848 557.946 255.567 559.541 255.78 561.253C256.027 563.221 257.083 565.113 256.87 567.121C256.661 568.977 255.392 570.464 254.549 572.06C252.334 576.145 252.577 581.12 252.999 585.762C253.983 596.533 255.78 607.188 258.314 617.659C259.792 623.712 262.466 630.691 268.236 631.954C269.68 632.25 271.367 632.25 272.248 633.513C272.666 634.117 272.769 634.935 272.807 635.677Z" stroke="#353332"/>
<path d="M216.429 444.241C213.821 442.605 203.382 435.884 201.97 434.396C200.348 432.688 199.96 434.396 196.716 430.98C193.472 427.563 191.85 431.389 188.287 427.675C188.287 427.675 176.824 424.668 170.124 421.62C163.423 418.573 162.894 418.797 159.544 421.62C156.194 424.443 149.494 425.261 140.463 422.326C131.399 419.391 132.21 426.448 129.107 428.79C126.004 431.132 126.111 439.934 128.33 447.513C130.55 455.092 127.767 455.797 123.853 452.862C119.974 449.927 117.187 445.804 114.4 448.255C111.614 450.745 110.487 451.671 107.137 456.391C103.786 461.071 101 454.013 97.6838 449.445C94.3336 444.914 92.1104 454.61 88.7602 459.587C85.41 464.563 89.8529 465.197 88.7602 470.47C87.6297 475.747 78.7096 478.679 72.2531 476.898C65.8345 475.114 65.3397 477.491 59.7698 476.934C54.1964 476.34 54.7599 483.956 45.6989 485.143C49.3686 487.705 53.4576 492.016 57.9383 494.169C62.419 496.287 65.2744 500.188 68.9751 502.751C72.6414 505.313 73.0297 504.607 76.6995 509.066C80.3692 513.486 86.5027 513.077 90.5951 513.077C94.6531 513.077 100.364 513.931 101.175 519.096C102.024 524.221 104.03 525.075 97.5085 529.83C90.9834 534.546 85.6952 527.232 86.0835 535.404C86.5061 543.577 91.4095 546.584 96.3093 547.884C101.175 549.147 103.223 550.891 108.545 554.757C113.837 558.622 115.459 556.91 119.97 562.484C124.448 568.054 127.307 567.2 130.55 574.927C133.832 582.691 138.309 578.829 139.543 585.698C140.776 592.571 140.776 593.425 139.543 596.842C138.309 600.295 137.038 602.713 137.038 602.713L133.9 614.265C130.691 613.672 126.987 613.448 124.977 610.773C123.073 608.247 123.53 604.606 122.544 601.562C120.816 596.176 115.208 593.614 110.483 590.899C101.35 585.586 93.7666 577.341 89.042 567.533C87.104 563.559 85.3413 559.027 81.5306 557.095C78.744 555.719 75.3937 556.056 72.5383 554.829C70.3152 553.863 68.5902 552.006 66.9649 550.185C61.4294 544.054 56.2786 537.518 51.5884 530.609C50.0009 528.231 48.3447 525.741 46.015 524.181C44.0048 522.842 41.5721 522.212 39.8781 520.504C35.9266 516.602 37.5518 508.914 33.4938 505.089C31.6967 503.38 29.0852 502.859 27.216 501.227C22.5944 497.105 23.9723 489.526 20.4434 484.734C17.2685 480.387 10.1798 477.155 5.84341 474.444C0.764836 471.248 -5.726 470.803 -8.96969 465.602C-11.6155 461.331 -7.98352 454.867 -12.3199 450.893C-14.3987 449 -17.7868 448.7 -19.1268 446.177C-21.2091 442.163 -16.024 437.708 -16.5188 433.177C-16.9071 429.76 -20.2917 427.603 -21.4187 424.411C-22.9375 420.064 -20.0099 415.608 -18.0685 411.446C-7.13822 388.116 -39.6885 391.276 -46.8116 380.429C-49.2787 376.715 -49.2787 371.55 -51.7836 367.689C-55.2747 362.267 -59.1541 361.264 -60.3189 354.464C-60.7072 352.162 -62.2225 350.301 -63.7069 348.557C-69.5964 341.535 -75.5203 334.514 -81.4098 327.492C-84.8665 328.234 -88.4263 328.94 -91.8831 328.234C-95.3398 327.565 -98.7244 325.151 -99.6074 321.55C-100.205 319.059 -99.8892 315.719 -102.075 314.564C-102.532 314.304 -103.061 314.191 -103.521 313.935C-105.318 312.784 -104.614 309.96 -104.157 307.767C-103.03 302.602 -105.006 296.808 -108.988 293.54C-108.988 293.54 -100.769 292.609 -97.9134 293.058C-95.058 293.467 -93.0101 289.157 -87.2993 290.051C-81.585 290.905 -80.3858 292.613 -78.7296 288.306C-77.1078 284.035 -79.1523 280.579 -78.7296 272.406C-78.3414 264.234 -75.0633 270.253 -71.3935 270.474C-67.7272 270.658 -64.4457 268.986 -62.2947 270.249C-60.1437 271.549 -55.8761 266.388 -54.2542 258.66C-52.6324 250.933 -60.3911 248.779 -62.0129 238.899C-63.6348 229.018 -58.3466 235.037 -52.2097 232.88C-46.1072 230.726 -43.6401 221.291 -46.6741 216.535C-49.7426 211.819 -45.2997 209.662 -46.4989 201.081C-47.7325 192.499 -43.9596 190.903 -40.3276 184.439C-33.3455 172.108 -38.6336 166.534 -33.3455 160.034C-28.0917 153.534 -28.0917 162.56 -26.3289 151.083C-24.5662 139.643 -24.5662 140.569 -21.9204 133.142C-19.2746 125.752 -15.3609 110.073 -15.3609 110.073C-13.952 112.711 -10.918 113.75 -8.27214 115.013C1.1428 119.508 7.35186 129.092 13.0627 138.191C17.296 144.988 21.7045 152.234 22.0928 160.367C28.2297 161.778 35.8132 165.047 35.6345 171.659C35.6001 174.222 34.26 176.527 33.5178 178.977C32.109 183.657 33.0608 189.082 35.985 192.908C37.6068 195.731 41.3109 191.384 40.8539 188.116C40.3935 184.848 39.6891 180.24 42.7232 179.422C48.0835 178.123 52.1759 184.736 52.9491 190.49C53.6878 196.213 53.1621 202.713 56.7941 207.096C61.237 212.521 69.4905 211.703 75.3456 215.341C82.1526 219.575 84.3036 228.638 86.8429 236.553C88.5712 241.939 90.9353 246.434 95.2373 249.851C99.8932 253.528 100.811 255.682 102.398 261.107C103.845 266.011 106.171 271.248 112.59 269.54C114.318 269.095 115.974 268.128 117.775 268.201C123.699 268.461 122.111 276.522 126.028 279.232C129.413 281.61 140.56 282.986 139.604 290.156C139.357 292.124 138.055 293.945 138.333 295.95C138.687 298.292 141.048 299.664 142.037 301.821C144.154 306.388 139.182 311.629 140.168 316.642C140.591 318.907 142.25 320.913 142.212 323.254C142.106 326.486 138.828 328.604 137.732 331.651C136.746 334.51 137.907 337.779 139.883 340.008C141.824 342.198 144.466 343.573 147.044 344.912C150.603 346.733 154.167 348.553 157.764 350.374C157.094 354.684 158.328 359.252 161.046 362.52C161.963 360.884 162.949 359.252 164.465 358.286C166.018 357.355 168.275 357.468 169.261 359.064C169.722 359.806 169.825 360.808 170.426 361.514C171.237 362.48 172.615 362.444 173.845 362.629C178.288 363.298 181.886 367.866 181.676 372.586C183.721 369.875 188.201 372.289 189.26 375.593C190.318 378.861 189.576 382.539 190.318 385.919C191.057 389.224 193.208 392.456 192.256 395.651C191.62 397.805 189.751 399.292 188.94 401.374C187.531 404.939 189.858 409.137 193.101 410.994C196.311 412.85 200.156 412.999 203.822 413.147C205.196 413.223 206.715 413.332 207.667 414.374C208.196 414.932 208.512 415.674 208.76 416.379C210.454 420.987 211.546 425.815 212.003 430.719C212.477 435.583 212.725 441.382 216.429 444.241Z" stroke="#353332"/>
<path d="M253.038 398.164C256.079 396.614 259.093 394.952 262.155 393.669C269.114 390.758 278.535 390.924 282.336 397.878C283.508 400.018 284.083 402.707 285.977 404.113C287.186 405.01 288.713 405.203 290.076 405.789C296.052 408.348 297.004 416.919 297.008 423.877C301.001 424.355 302.179 430.734 299.768 434.213C297.357 437.692 293.107 438.886 289.193 439.854C286.371 440.555 281.795 443.804 279.155 443.589C277.6 443.462 276.141 442.732 274.603 442.454C271.521 441.894 268.405 443.17 265.278 443.144C262.151 443.118 258.494 440.77 258.918 437.414C256.131 437.903 253.185 438.378 250.548 437.28C245.086 435.007 242.504 426.692 236.661 426.317C234.737 426.195 232.675 427.003 230.952 426.068C229.791 425.438 229.083 424.158 228.435 422.942C226.887 420.038 225.315 417.056 224.788 413.752C223.946 408.478 227.113 402.822 231.836 401.034C234.199 400.137 235.805 401.038 238.059 401.457C241.689 402.132 240.911 402.974 245.158 401.602C247.833 400.734 250.446 399.488 253.038 398.164Z" stroke="#353332"/>
<path d="M23.3215 536.523C23.776 536.928 24.241 537.343 24.5487 537.878C25.7409 539.972 23.9893 542.584 22.0697 543.967C18.8845 546.269 14.9022 547.343 11.0457 546.946C10.3149 546.874 9.5667 546.739 8.94434 546.335C8.04927 545.756 7.5458 544.714 7.08428 543.723C5.18575 539.648 0.360738 527.135 7.82201 525.153C12.4163 523.937 20.2167 533.774 23.3215 536.523Z" stroke="#353332"/>
<path d="M239.714 313.456C242.104 315.223 243.003 318.099 245.645 319.696C249.03 321.742 252.377 321.386 256.004 320.585C257.91 320.167 260.056 320.048 261.632 321.289C262.344 321.849 262.868 322.635 263.383 323.405C265.218 326.159 267.05 328.912 268.885 331.661C269.069 331.939 269.263 332.236 269.29 332.577C269.314 332.843 269.232 333.107 269.141 333.355C267.469 337.909 262.092 339.469 257.641 338.691C253.191 337.913 249.112 335.486 244.695 334.526C237.671 332.999 230.101 335.241 223.386 332.525C215.623 329.386 213.631 319.111 221.152 314.782C225.582 312.237 235.181 310.11 239.714 313.456Z" stroke="#353332"/>
<path d="M178.035 274.607C180.543 275.299 183.049 275.994 185.557 276.686C186.243 276.874 186.952 277.077 187.506 277.62C188.06 278.16 188.414 279.145 188.137 279.96C187.966 280.463 187.597 280.807 187.243 281.122C186.395 281.868 185.515 282.592 184.526 282.969C182.566 283.715 180.463 283.009 178.495 282.303C178.029 280.793 177.558 279.214 177.68 277.602C177.803 275.991 178.723 274.35 179.998 274.238" stroke="#353332"/>
<path d="M175.595 322.21C168.602 319.683 161.37 317.91 154.047 316.923C152.385 320.255 152.811 324.451 154.436 327.801C156.06 331.156 158.732 333.786 161.547 336.072C163.764 337.871 166.19 339.537 168.932 340.053C171.673 340.565 174.804 339.682 176.379 337.23C177.747 335.107 177.712 332.328 177.625 329.749C177.542 327.275 177.209 324.351 175.168 323.186" stroke="#353332"/>
<path d="M416.127 745.273C419.759 746.346 421.841 749.522 421.098 752.036C420.36 754.586 418.56 755.843 418.56 759.024C418.56 762.204 413.904 770.927 413.904 770.927C412.283 771.222 410.661 771.518 409.074 771.147C407.521 770.776 406.147 769.818 404.632 769.447C401.21 768.597 398.214 770.74 394.971 771.294C392.995 771.626 391.02 771.258 389.082 771.478C382.382 772.328 376.6 773.992 369.76 772.919C368.561 772.735 367.328 772.476 366.269 771.809C365.105 771.107 364.26 769.926 363.308 768.888C360.206 765.636 355.657 763.936 351.283 764.415C350.332 764.527 349.414 764.71 348.463 764.638C347.477 764.527 346.559 764.084 345.608 763.752C340.811 762.016 336.544 762.791 332.068 764.75C330.937 765.229 329.704 765.748 328.577 765.377C327.907 765.153 327.344 764.674 326.743 764.343C325.19 763.493 323.321 763.716 321.558 763.936C316.69 764.602 311.863 765.229 306.995 765.895C304.775 766.191 302.518 766.486 300.295 766.119C293.737 765.009 288.339 758.318 281.784 759.279C280.478 759.463 279.245 759.945 277.94 760.053C275.789 760.201 273.707 759.351 271.7 758.465C268.986 757.32 266.303 756.135 263.589 754.954C261.579 754.104 259.356 753.03 258.511 750.887C257.206 747.524 259.782 742.532 256.855 740.536C256.079 740.018 255.093 739.91 254.282 739.427C251.743 737.986 252.131 733.992 253.365 731.259C254.598 728.525 256.398 725.604 255.553 722.719C254.917 720.576 253.048 719.207 251.32 717.951C248.534 715.991 245.679 713.96 242.398 713.182C240.739 712.811 238.907 712.703 237.533 711.594C236.403 710.708 235.805 709.227 234.781 708.23C233.232 706.75 230.975 706.494 228.965 705.939C226.921 705.42 224.732 704.164 224.382 701.985C223.925 698.88 227.518 695.664 225.862 693.038C225.405 692.3 224.591 691.857 223.853 691.41C219.056 688.417 215.882 683.314 212.852 678.362C212.395 677.587 211.9 676.773 211.759 675.848C211.512 674 212.852 672.188 214.545 671.598C216.239 671.007 218.143 671.486 219.695 672.412C221.248 673.373 222.516 674.778 224.103 675.704C228.333 678.106 234.153 676.442 237.925 679.586C239.653 681.027 240.852 683.429 243.037 683.836C245.717 684.315 248.043 681.322 250.795 681.434C251.853 681.47 252.877 681.988 253.863 682.431C257.989 684.207 263.733 683.984 265.747 679.845C267.121 677.072 266.31 673.301 268.251 670.899C270.192 668.461 273.858 668.68 276.503 667.056C278.266 665.983 279.465 664.063 281.227 662.914C282.956 661.769 285.072 661.51 287.116 661.25C290.5 660.843 294.029 660.436 297.341 661.326C301.924 662.583 305.486 666.058 309.788 668.018C312.856 669.386 316.381 670.456 319.696 671.27C321.953 671.825 324.245 672.12 326.502 672.268C333.133 672.711 339.76 672.008 346.284 673.301C349.668 674.004 353.056 674.854 356.368 675.891C361.941 677.591 367.369 679.809 372.625 682.359C376.538 684.283 380.878 686.426 384.966 685.021C387.68 684.059 389.762 681.621 392.476 680.623C396.812 678.995 402.172 682.028 403.268 686.725C403.938 689.609 403.481 693.377 405.947 694.857C407.146 695.523 408.593 695.376 409.861 695.891C413.423 697.407 413.138 702.654 413.949 706.573C415.43 713.819 423.503 718.66 430.241 716.405C430.065 722.208 426.431 723.097 423.4 728.05C420.367 733.002 415.536 737.291 413.104 738.325C410.695 739.355 412.496 744.235 416.127 745.273Z" stroke="#353332"/>
<path d="M740.528 790.39C737.494 793.632 735.732 796.166 736.79 801.086C737.46 804.293 739.116 807.161 740.597 810.106C741.301 811.485 741.971 812.938 741.971 814.539C741.971 817.11 740.068 819.346 737.917 820.614C732.31 823.892 725.364 822.03 719.194 820.131C718.067 819.757 716.902 819.386 715.985 818.602C714.752 817.56 714.044 815.883 712.601 815.138C710.766 814.169 708.547 815.211 706.537 814.764C705.514 814.539 704.634 813.944 703.751 813.384C699.979 810.886 696.169 808.352 692.362 805.857C691.761 805.447 691.163 805.037 690.459 804.852C689.861 804.703 689.188 804.703 688.556 804.779C685.488 805.004 682.314 805.821 679.387 804.815C677.061 804.031 674.91 802.168 672.474 802.466C670.64 802.651 668.633 804.107 667.081 803.025C666.445 802.579 666.06 801.794 665.459 801.311C662.109 798.628 652.799 801.834 650.333 804.667C649.663 805.487 649.065 806.457 648.148 806.94C647.017 807.571 645.643 807.314 644.41 807.052C636.687 805.563 628.754 805.338 620.997 806.38C618.492 806.714 615.885 807.201 613.415 806.529C611.862 806.083 610.419 805.226 608.794 804.928C607.138 804.63 605.41 805.04 603.716 805.302C590.493 807.426 579.634 803.624 566.376 805.378C553.716 807.056 541.304 801.166 528.575 800.237C523.429 799.863 518.245 800.273 513.133 799.38C508.055 798.487 502.871 795.989 500.298 791.257C499.452 789.729 498.923 788.051 497.9 786.675C497.017 785.557 495.89 784.736 494.725 783.992C485.206 777.768 473.817 774.824 462.672 775.681C459.182 775.942 455.619 776.574 452.201 775.681C450.191 775.121 448.356 774.079 446.453 773.146C440.177 770.089 434.006 767.184 427.201 768.415C422.583 769.272 417.963 770.092 413.345 770.949C413.345 770.949 418 762.155 418 758.949C418 755.743 419.797 754.476 420.539 751.905C421.278 749.371 419.199 746.164 415.568 745.086C411.937 744.044 410.137 739.124 412.535 738.082C414.967 737.04 419.797 732.715 422.831 727.723C425.864 722.73 429.496 721.833 429.671 715.984C431.68 715.276 433.515 714.085 435.594 713.562C437.675 713.039 439.826 713.264 441.942 713.486C452.239 714.528 462.535 715.2 472.865 715.461C477.239 715.574 481.997 714.938 486.298 715.348C491.692 715.871 496.172 723.435 500.686 722.839C503.579 722.465 505.623 719.822 508.021 718.068C512.885 714.528 520.114 714.343 523.216 709.012C524.731 706.405 524.837 703.123 525.964 700.291C527.868 695.632 532.839 692.575 537.6 693.21C542.396 693.842 546.522 698.054 547.261 703.087C558.44 707.15 571.663 706.365 581.358 713.558C583.474 715.123 586.154 712.887 588.655 712.291C592.359 711.434 595.811 714.266 599.305 715.795C605.159 718.329 611.786 717.175 618.101 717.621C624.412 718.068 631.606 721.31 632.77 727.908C634.674 727.908 636.615 727.908 638.518 727.944C639.751 728.689 638.693 730.813 637.388 731.335C636.048 731.858 634.392 731.858 633.509 733.013C632.839 733.906 632.873 735.173 632.945 736.292C633.121 739.2 633.65 742.664 636.189 743.746C639.926 745.347 645.358 740.54 647.577 744.08C646.485 748.401 644.791 753.768 648.708 757.271C650.824 759.17 653.995 758.985 656.678 758.205C659.323 757.384 661.931 756.081 664.683 755.968C668.984 755.819 673.041 758.575 677.305 758.165C680.902 757.791 683.97 755.184 687.494 754.251C691.163 753.281 695.076 754.214 698.814 753.579C701.528 753.132 704.174 751.978 706.994 752.126C709.602 752.239 712.247 753.132 714.892 752.871C716.548 752.722 717.325 751.789 719.194 752.646C720.781 753.426 722.193 754.657 723.921 754.919C725.965 755.18 728.188 754.025 729.984 755.031C730.582 755.365 731.077 755.924 731.537 756.447C733.726 759.018 735.911 761.589 738.096 764.123C738.731 764.867 739.363 765.612 739.752 766.472C740.033 767.068 740.209 767.703 740.456 768.299C741.091 769.9 742.253 771.207 743.067 772.696C743.878 774.225 744.3 776.16 743.421 777.616C743.067 778.248 742.504 778.734 742.363 779.442C742.222 780.335 742.785 781.156 743.139 781.977C744.513 785.172 742.538 788.265 740.528 790.39Z" stroke="#353332"/>
<path d="M664.445 717.147C666.659 716.202 668.905 715.473 671.236 715.529C674.235 715.6 677.183 717.248 680.114 716.587C682.424 716.065 684.208 714.203 686.388 713.268C691.56 711.048 697.463 714.416 703.038 713.73C705.145 713.471 707.187 712.624 709.312 712.662C711.936 712.708 714.416 714.098 717.036 714.059C719.826 714.017 722.653 712.368 725.277 713.331C726.806 713.895 727.963 715.27 729.519 715.747C730.37 716.006 731.279 715.978 732.14 716.198C734.051 716.688 735.549 718.519 735.677 720.522C735.838 723.102 733.917 725.385 731.723 726.698C729.53 728.01 727.012 728.655 724.753 729.848C722.76 730.902 720.993 732.373 718.975 733.381C716.389 734.673 713.493 735.156 710.648 735.625C708.134 736.038 705.617 736.451 703.1 736.864C701.413 737.141 699.687 737.431 698.182 738.258C696.726 739.059 695.541 740.327 694.033 741.027C689.405 743.173 683.743 739.273 679.008 741.16C677.955 741.58 676.949 742.287 675.819 742.231C674.824 742.182 673.96 741.552 673.027 741.195C671.257 740.516 669.294 740.841 667.403 740.806C664.111 740.743 659.479 739.168 656.597 737.6C653.811 736.08 654.18 732.6 651.122 731.553C648.808 730.759 644.947 727.989 645.243 724.695C645.674 719.958 653.136 721.45 656.053 720.669C658.866 719.909 661.628 718.351 664.445 717.147Z" stroke="#353332"/>
<path d="M776.421 795.359C777.756 794.911 779.326 795.384 780.526 794.632C781.519 794.014 781.944 792.757 782.708 791.853C784.51 789.724 787.688 789.934 790.379 790.32C792.606 790.638 794.902 790.982 796.825 792.193C799.125 793.642 800.73 796.23 803.244 797.213C803.873 797.459 804.648 797.697 804.838 798.373C804.935 798.72 804.842 799.1 804.887 799.458C805.101 801.106 807.262 801.229 808.411 801.518C810.437 802.028 812.263 802.866 814.138 803.907C813.781 804.29 814.1 804.908 814.269 805.414C814.681 806.658 814.024 807.984 813.391 809.119C812.83 810.12 812.26 811.133 811.485 811.964C810.271 813.261 807.947 814.086 806.228 814.237C804.62 814.378 803.036 813.833 801.432 813.666C799.827 813.496 797.98 813.84 797.088 815.246C796.459 816.236 796.452 817.537 795.884 818.571C794.307 821.445 789.763 820.527 787.588 822.934C786.748 823.866 786.388 825.171 785.596 826.151C783.867 828.287 780.101 827.94 778.759 825.518C777.04 822.417 779.046 817.552 776.303 815.401C774.474 813.97 771.648 814.884 769.784 813.5C769.027 812.94 768.532 812.065 767.803 811.469C766.201 810.16 763.94 810.478 761.91 810.319C759.057 810.099 756.297 808.765 754.288 806.64C752.738 805.002 751.604 802.57 752.389 800.419C753.928 796.179 760.26 796.599 763.777 796.725C765.645 796.794 767.495 797.116 769.356 797.257C772.399 797.491 773.741 796.259 776.421 795.359Z" stroke="#353332"/>
<path d="M826.863 803.063C827.284 802.815 827.729 802.586 828.042 802.198C828.419 801.726 828.558 801.071 828.932 800.591C829.418 799.967 830.206 799.752 830.943 799.582C834.928 798.674 838.978 798.097 843.044 797.864C843.887 797.816 844.797 797.801 845.487 798.33C846.061 798.77 846.387 799.52 846.955 799.967C847.811 800.643 848.976 800.48 850.033 800.403C852.635 800.214 855.56 800.931 857.004 803.292C858.285 805.383 858.023 808.247 856.957 810.479C855.886 812.707 854.137 814.44 852.418 816.124C850.729 817.78 849.041 819.439 847.352 821.094C846.819 821.619 846.268 822.162 845.976 822.879C845.562 823.887 845.725 825.051 845.575 826.141C845.117 829.541 841.886 831.551 838.937 832.781C837.347 833.442 835.696 834.037 833.994 834.041C830.641 834.052 827.512 831.791 824.165 832.005C822.385 832.12 820.469 832.907 818.909 831.968C818.244 831.565 817.754 830.897 817.309 830.224C814.955 826.633 813.464 821.863 815.064 817.806C816.399 814.41 819.456 812.88 821.379 810.05C823.177 807.405 823.938 804.785 826.863 803.063Z" stroke="#353332"/>
<path d="M866.151 817.485C866.406 819.245 864.633 820.501 863.222 821.519C858.942 824.618 856.069 829.714 855.578 835.091C855.47 836.278 855.473 837.498 855.814 838.639C856.521 841.018 858.622 842.742 860.899 843.552C863.177 844.361 865.636 844.397 868.043 844.362C870.453 844.329 872.908 844.225 875.175 843.375C877.585 842.472 879.727 840.741 882.266 840.37C884.805 840 887.306 841.047 889.789 841.702C898.308 843.958 907.258 841.684 916.052 841.562C918.86 841.522 921.691 841.702 924.449 841.173C927.208 840.644 929.963 839.283 931.478 836.843C931.774 836.368 932.021 835.764 931.777 835.256C931.631 834.95 931.331 834.753 931.035 834.601C927.619 832.838 922.684 834.745 920.18 831.765C918.8 830.128 918.825 827.612 917.522 825.91C916.338 824.363 914.186 823.661 913.433 821.851C913.064 820.965 913.106 819.961 912.918 819.018C912.458 816.704 910.466 814.804 908.195 814.512C907.039 814.365 905.719 814.552 904.838 813.76C904.054 813.058 903.95 811.867 903.636 810.849C902.703 807.822 899.583 805.972 896.521 805.652C893.46 805.332 890.419 806.242 887.469 807.138C883.597 808.319 879.776 809.15 876.419 811.468C875.186 812.317 866.151 816.866 866.151 817.485Z" stroke="#353332"/>
<path d="M927.854 808.76C929.546 810.095 930.273 812.456 931.996 813.752C933.544 814.917 935.701 815.062 937.085 816.431C938.395 817.73 938.661 819.765 938.846 821.633C938.965 822.795 939.045 824.087 938.35 825.003C937.927 825.561 937.27 825.886 936.609 826.067C934.617 826.618 932.366 825.991 930.909 824.482C929.441 822.958 928.592 820.536 926.579 820.011C925.866 819.823 925.104 819.92 924.387 819.736C922.014 819.117 921.371 815.967 921.36 813.433C921.353 812 921.364 810.432 920.508 809.306C919.463 807.93 910.152 803.192 916.39 801.773C919.795 800.991 925.425 806.841 927.854 808.76Z" stroke="#353332"/>
<path d="M969.514 801.974C969.23 805.039 969.562 808.651 972.051 810.348C973.848 811.569 976.475 811.266 977.964 809.662C979.452 808.058 979.636 805.335 978.376 803.535C977.794 802.703 976.901 801.717 977.4 800.827C979.438 800.924 981.477 801.02 983.516 801.113C984.455 801.156 985.441 801.217 986.223 801.749C987.009 802.281 987.463 803.456 986.923 804.246C991.624 805.707 995.577 799.998 1000.43 799.209C1003.99 798.63 1007.77 801.227 1008.62 804.842C1009.65 809.219 1006.8 813.984 1008.33 818.2C1009.2 820.582 1011.4 822.987 1010.28 825.251C1009.9 826.005 1009.21 826.534 1008.52 826.998C1003.64 830.274 997.779 831.589 992.008 832.385C989.554 832.725 987.027 832.978 984.617 832.385C982.204 831.792 979.895 830.206 979.006 827.82C978.32 825.977 978.483 823.744 977.237 822.244C974.308 818.714 967.198 822.837 964.754 818.936C963.947 817.646 963.961 815.753 962.701 814.934C961.659 814.256 960.309 814.695 959.076 814.634C955.172 814.449 947.313 806.246 946.178 802.556C945.146 799.202 948.224 796.265 950.914 794.911C955.31 792.7 955.545 794.668 958.079 797.398C959.021 798.412 960.51 798.562 961.448 799.548C962.268 800.409 962.154 802.11 963.213 802.685C965.176 803.739 967.423 801.049 969.514 801.974Z" stroke="#353332"/>
<path d="M988.861 864.901C990.36 864.588 991.825 864.172 993.18 863.425C995.049 862.394 996.616 860.783 998.554 859.896C1002.12 858.269 1006.24 859.38 1010.04 858.556C1012.73 857.975 1015.64 856.455 1018.04 857.894C1019.27 858.633 1020.03 859.999 1020.86 861.224C1022.59 863.789 1024.85 865.946 1027.41 867.499C1031.43 869.931 1036.73 871.495 1038.13 876.224C1039.19 879.831 1038.15 883.04 1040.71 886.087C1043.32 889.182 1046.27 887.931 1049.21 889.745C1051.77 891.32 1051.6 895.313 1050.88 898.389C1050.16 901.466 1049.36 905.15 1051.38 907.461C1052.13 908.329 1053.23 908.896 1053.69 909.978C1054.45 911.755 1053.11 913.691 1052.75 915.609C1051.63 921.53 1059.87 927.168 1056.95 932.331C1056.12 933.81 1054.56 934.62 1053.07 935.256C1047.93 937.446 1041.95 938.543 1037 935.893C1029.79 932.029 1025.9 920.952 1017.84 921.173C1017.15 921.191 1016.37 921.265 1015.89 920.735C1015.48 920.289 1015.47 919.598 1015.41 918.979C1014.81 913.051 1008.27 910.615 1003.21 908.175C1001.74 907.468 1000.26 906.611 999.303 905.223C998.612 904.226 998.222 903.001 997.438 902.088C995.686 900.045 992.718 900.229 990.138 900.086C980.008 899.53 969.511 891.357 968.364 880.129C967.338 870.053 977.886 866.987 985.182 865.57C986.397 865.342 987.639 865.154 988.861 864.901Z" stroke="#353332"/>
<path d="M1031.87 809.885C1031.78 810.054 1031.68 810.222 1031.6 810.394C1028.78 815.824 1027.79 832.222 1033.89 835.801C1035.49 836.744 1037.38 837.003 1039.21 837.239C1048.5 838.451 1057.78 839.664 1067.07 840.876C1070.45 841.317 1073.85 841.762 1077.26 841.783C1080.76 841.805 1084.25 841.382 1087.74 841.382C1089.93 841.382 1092.12 841.547 1094.31 841.525C1099.53 841.468 1104.68 840.334 1109.78 839.205C1125.35 835.765 1140.92 832.322 1156.48 828.883C1159.45 828.226 1162.59 827.484 1164.79 825.321C1166.99 823.162 1167.71 819.077 1165.45 816.983C1161.39 813.217 1155.42 819.838 1149.97 819.314C1145.1 818.848 1142.57 812.973 1138.19 810.731C1133.53 808.35 1127.69 810.502 1122.87 808.497C1116.75 805.958 1113.86 797.443 1107.34 796.396C1104.34 795.912 1101.1 797.196 1098.32 795.937C1096.54 795.134 1095.29 793.412 1093.53 792.576C1090.47 791.12 1086.9 792.681 1083.54 792.516C1081.16 792.401 1078.91 791.414 1076.6 790.816C1065.97 788.054 1055.13 793.495 1045.44 798.77C1040.26 801.597 1034.8 804.699 1031.87 809.885Z" stroke="#353332"/>
<path d="M1197.83 805.647C1198.66 804.925 1199.44 804.097 1200.39 803.57C1202.77 802.258 1206.04 803.321 1207.34 805.832C1208.65 808.343 1207.77 811.891 1205.49 813.379C1203.92 814.402 1201.96 814.467 1200.15 814.192C1199.81 814.142 1199.43 814.087 1199.16 814.304C1198.75 814.619 1198.82 815.272 1198.85 815.811C1199.05 819.247 1195.84 822.022 1192.66 822.361C1188.28 822.827 1176.31 818.726 1182.84 812.537C1186.6 808.986 1193.51 809.383 1197.83 805.647Z" stroke="#353332"/>
<path d="M1220.93 809.815C1220.73 810.294 1220.68 810.844 1220.46 811.323C1220.25 811.798 1219.75 812.202 1219.32 811.982C1219.14 811.898 1219.02 811.731 1218.89 811.571C1218.38 810.892 1217.87 810.214 1217.36 809.535C1215.91 807.619 1215.82 805.372 1216.93 803.228C1218.03 801.12 1218.72 801.456 1220.58 802.665C1222.04 803.619 1225.04 805.252 1224.28 806.98C1223.7 808.314 1221.59 808.314 1220.93 809.815Z" stroke="#353332"/>
<path d="M1231.1 819.377C1230.47 820.794 1228.41 820.318 1227.04 820.964C1226.19 821.367 1225.6 822.297 1225.57 823.27C1225.56 823.891 1225.81 824.572 1226.35 824.846C1226.87 825.11 1227.49 824.936 1228.03 824.7C1231.59 823.124 1233.95 819.134 1237.72 818.204C1238.5 818.009 1239.43 817.874 1239.8 817.131C1240.15 816.426 1239.78 815.554 1239.94 814.777C1240.16 813.718 1241.25 813.176 1242.08 812.526C1243.71 811.256 1244.6 809.033 1244.32 806.94C1244.28 806.62 1244.2 806.287 1244 806.047C1242.14 803.881 1237.86 809.988 1236.83 811.238C1235.66 812.662 1234.17 813.419 1232.81 814.603C1230.78 816.36 1232.02 817.301 1231.1 819.377Z" stroke="#353332"/>
<path d="M1270.65 798.975C1270.95 798.649 1271.26 798.308 1271.68 798.167C1272.16 798.004 1272.69 798.124 1273.19 798.069C1273.66 798.019 1274.12 797.819 1274.59 797.845C1275.53 797.895 1276.16 798.776 1276.65 799.561C1277.03 800.174 1277.41 800.88 1277.21 801.564C1277.05 802.086 1276.58 802.445 1276.14 802.785C1274.98 803.698 1273.89 804.705 1272.89 805.795C1271.5 807.323 1270.28 809.022 1268.66 810.311C1267.04 811.601 1264.86 812.444 1262.85 811.89C1262.64 811.832 1262.43 811.756 1262.27 811.608C1261.96 811.307 1261.97 810.822 1262.02 810.394C1262.71 804.965 1267.29 802.68 1270.65 798.975Z" stroke="#353332"/>
<path d="M1310.43 795.742C1311.97 794.565 1313.94 794.212 1315.85 794.056C1320.25 793.693 1324.91 794.267 1328.54 796.853C1329.72 797.688 1330.76 798.713 1331.94 799.541C1334.62 801.415 1337.98 802.196 1341.17 801.677C1341.62 801.604 1342.1 801.513 1342.5 801.724C1343.58 802.291 1342.9 804.012 1342.01 804.866C1338.25 808.484 1332.61 809.853 1327.69 808.353C1326.87 808.106 1326.06 807.779 1325.21 807.816C1322.42 807.928 1321.08 811.531 1318.57 812.785C1317.27 813.435 1315.76 813.388 1314.32 813.297C1312.5 813.181 1310.68 813.006 1308.87 812.774C1305.57 812.356 1299.95 810.605 1300.86 805.898C1301.52 802.516 1306.1 801.978 1308.59 800.932C1308.11 798.956 1308.84 796.947 1310.43 795.742Z" stroke="#353332"/>
<path d="M1320.69 871.41C1319.23 873.659 1317.2 875.416 1315.21 877.14C1311.58 880.283 1307.02 883.627 1302.59 881.999C1302.99 878.459 1298.95 875.978 1295.62 876.408C1292.29 876.842 1289.43 879.037 1286.31 880.356C1281.49 882.396 1275.61 882.587 1272.16 886.711C1269.74 889.619 1269.21 893.746 1268.88 897.617C1268.48 902.208 1268.21 906.81 1268.06 911.419C1266.22 911.257 1264.81 913.15 1264.15 914.984C1263.5 916.818 1263.17 918.892 1261.87 920.277C1261.31 920.873 1260.59 921.306 1260.12 921.979C1258.12 924.817 1261.56 929.481 1259.43 932.212C1258.66 933.208 1257.38 933.546 1256.34 934.23C1255.31 934.914 1254.48 936.435 1255.23 937.457C1260.07 937.362 1264.88 936.138 1269.25 933.903C1271.89 932.55 1274.48 930.79 1277.41 930.602C1282.34 930.286 1286.81 934.52 1291.73 934.109C1296.48 933.715 1300.01 929.202 1304.57 927.779C1309.04 926.386 1314.01 928.106 1318.42 926.504C1324.1 924.434 1326.83 917.785 1329.16 911.908C1329.81 910.272 1330.5 908.603 1331.69 907.361C1333.27 905.707 1335.62 904.917 1336.82 902.928C1338.22 900.591 1337.49 897.558 1337.47 894.787C1337.37 883.19 1353.42 872.512 1343.13 862.323C1339.71 858.931 1336.31 857.758 1331.76 859.203C1329.55 859.905 1325.28 861.25 1323.66 862.992C1321.9 864.9 1322.48 868.653 1320.69 871.41Z" stroke="#353332"/>
<path d="M1379.52 764.603C1381.25 762.884 1384.14 763.894 1386.58 763.763C1388.18 763.677 1389.69 763.053 1391.17 762.467C1397.37 760.017 1403.78 758.073 1410.31 756.667C1410.99 756.519 1411.7 756.378 1412.38 756.523C1413.91 756.846 1414.8 758.556 1414.71 760.099C1414.62 761.643 1413.78 763.039 1412.93 764.331C1410.86 767.467 1407.48 770.793 1403.87 769.648C1402.96 769.359 1402.11 768.784 1401.15 768.797C1399.34 768.825 1398.27 770.882 1398.13 772.674C1398 774.466 1398.36 776.355 1397.63 777.998C1396.36 780.852 1392.46 781.462 1389.39 780.759C1386.32 780.059 1383.42 778.47 1380.27 778.446C1379.29 778.439 1378.3 778.584 1377.34 778.367C1376.66 778.212 1376.04 777.881 1375.39 777.633C1373.74 776.992 1371.92 776.916 1370.2 777.316C1368.85 777.63 1366.91 779.494 1365.58 779.335C1362.4 778.956 1362.58 775.562 1364.01 773.556C1365.68 771.206 1369.88 769.249 1372.61 768.518C1374.11 768.115 1376.03 768.487 1377.36 767.65C1378.42 766.995 1378.67 765.462 1379.52 764.603Z" stroke="#353332"/>
<path d="M803.747 402.779C799.151 403.004 790.877 396.224 789.995 407.809C789.076 419.431 784.48 417.195 779.885 423.159C775.29 429.082 777.126 425.133 773.485 437.724C769.809 450.352 770.726 445.51 763.375 452.29C756.055 459.034 751.459 453.259 750.54 463.875C749.62 474.492 756.974 479.334 747.781 481.272C738.625 483.21 735.865 482.463 734.946 489.616C734.026 496.73 737.705 492.858 734.026 496.731C730.347 500.603 728.084 510.85 728.084 510.85C725.714 516.886 724.725 517.481 722.744 520.835C720.764 524.188 722.745 518.973 720.764 524.188C718.783 529.404 718.855 535.959 718.855 535.959C714.791 535.066 713.199 529.292 708.638 529.292C704.68 529.292 698.704 538.119 694.743 531.789C693.719 530.148 693.93 527.916 692.834 526.352C689.582 521.622 682.438 528.958 677.171 527.059C670.065 524.453 675.37 509.96 668.614 506.498C665.008 504.672 660.871 507.688 658.504 511.078C656.172 514.468 654.298 518.602 650.654 520.392C646.165 522.551 640.223 520.319 636.334 523.484C632.621 526.54 632.232 530.003 627.144 531.121C623.148 532.014 619.366 529.556 615.511 529.778C610.702 530.076 599.283 543.04 595.783 535.774C597.199 527.393 596.703 518.675 594.333 510.516C593.486 507.499 592.352 504.295 593.306 501.315C593.944 499.304 595.497 497.514 595.394 495.391C595.111 490.734 587.509 489.765 587.154 485.109C586.979 482.651 589.028 480.042 587.791 477.995C587.192 477.025 586.059 476.579 585.353 475.686C584.116 474.122 584.612 471.661 583.692 469.839C582.524 467.643 579.59 467.233 577.292 467.901C574.96 468.608 572.945 470.136 570.682 470.917C565.415 472.743 558.66 470.841 554.877 475.087C553.641 476.503 552.969 478.329 551.977 479.929C546.886 488.422 534.371 489.577 529.952 498.48C528.078 502.316 528.112 506.824 527.017 510.998C525.956 515.172 522.88 519.455 518.78 519.194C513.62 518.86 511.216 511.855 506.407 509.808C502.377 508.095 497.957 510.291 493.786 511.597C489.614 512.9 483.992 512.639 482.332 508.392C479.363 500.756 472.043 498.335 471.405 488.35C471.299 486.19 471.44 483.954 470.451 482.092C469.497 480.267 467.589 479.036 467.02 477.062C466.135 474.006 468.787 470.917 468.364 467.785C468.012 464.99 465.463 463.204 463.414 461.378C458.677 457.168 457.544 448.301 460.727 442.864C462.883 439.14 466.032 435.75 466.597 431.427C468.26 418.389 455.742 411.533 451.182 401.998C450.441 400.434 451.395 398.423 450.723 396.859C450.227 395.665 448.212 395.817 447.682 394.402C446.514 391.273 446.373 390.006 446.834 386.689C447.434 382.478 451.853 377.6 448.143 373.575C446.693 371.974 444.254 371.375 443.372 369.365C441.533 365.042 448.887 361.949 449.101 357.184C449.418 350.255 432.59 346.121 428.136 343.997C424.885 342.433 421.526 340.793 419.156 337.925C414.42 332.227 418.874 326.786 418.168 320.452C417.603 315.273 415.374 308.42 413.607 303.538C410.179 293.964 400.879 285.398 408.481 275.485C411.168 271.983 414.595 269.264 417.355 265.838C421.209 261.069 423.648 255.109 427.644 250.452C431.64 245.795 438.216 242.518 443.555 245.349C445.853 246.539 448.081 248.811 450.555 248.144C452.394 247.621 453.49 245.646 455.043 244.529C456.07 243.784 457.199 243.447 458.402 243.338C461.974 243.077 466.107 244.979 469.855 244.456C474.202 243.861 478.801 239.984 482.442 242.558C484.034 243.712 484.778 245.723 485.942 247.363C489.087 251.759 495.064 252.652 500.224 251.871C505.422 251.087 510.441 249.04 515.639 248.964C520.341 248.888 525.325 250.343 529.531 248.144C531.264 247.211 532.749 245.723 534.623 245.276C537.909 244.456 541.198 247.026 544.557 246.804C546.855 246.619 548.904 245.164 551.167 244.608C553.961 243.864 556.858 244.532 559.652 245.131C567.712 246.772 575.88 247.628 584.082 247.664C591.402 247.701 599.569 246.659 604.164 240.699C607.878 235.93 617.774 228.518 623.575 226.878C625.308 226.395 627.147 226.395 628.949 226.431C635.559 226.544 642.173 226.653 648.783 226.765C651.398 226.802 654.76 227.509 655.149 230.228C655.222 230.899 655.115 231.567 655.325 232.202C655.997 233.992 658.47 233.545 660.24 234.028C661.267 234.326 662.149 235.034 663.068 235.629C670.495 240.547 681.949 234.957 689.055 240.362C691.601 242.3 695.101 239.915 696.975 237.269C698.814 234.587 700.509 231.273 703.585 230.638C705.283 230.304 707.016 230.899 708.642 231.418C714.298 233.317 721.229 234.398 725.576 230.152C721.191 237.752 724.87 251.272 715.676 254.18C706.52 257.087 703.513 259.061 700.898 266.771C698.246 274.48 701.005 286.588 696.444 288.748C705.6 290.907 716.172 273.141 725.576 279.137C734.946 285.096 736.785 282.824 745.021 279.137C753.296 275.449 760.612 271.054 765.211 274.705C769.806 278.32 769.806 278.244 765.211 288.937C760.616 299.589 762.455 305.513 763.371 311.734C764.291 317.955 755.132 321.345 759.692 327.381C764.288 333.417 773.482 332.931 776.203 327.381C778.962 321.832 786.313 322.314 783.557 331.74C780.798 341.166 776.523 356.774 784.157 360.574C791.794 364.334 799.148 365.194 801.904 375.401C804.663 385.607 811.06 385.161 812.899 391.643C814.742 398.158 808.307 402.554 803.747 402.779Z" stroke="#353332"/>
<path d="M1004.52 274.202C1002.62 275.023 1000.44 274.726 998.428 275.245C994.586 276.215 991.84 280.091 987.998 280.912C983.769 281.805 979.402 278.75 975.241 279.978C973.69 280.389 972.354 281.395 970.803 281.805C969.182 282.252 967.456 281.991 965.763 281.729C953.679 279.866 940.431 280.538 931.585 271.478C928.553 268.347 924.575 263.835 919.923 266.294C912.734 270.098 918.656 277.443 917.07 282.514C916.682 283.705 915.45 284.265 914.32 284.639C910.338 286.056 905.865 287.621 903.997 291.61C902.834 294.109 903.046 297.204 904.492 299.514C907.169 303.764 913.335 304.807 915.203 309.544C916.964 313.906 914.005 318.676 911.292 322.479C908.615 326.283 905.903 331.354 908.155 335.491C909.037 337.169 910.657 338.361 911.22 340.188C911.996 342.575 910.726 345.11 909.775 347.457C907.451 353.087 908.471 357.374 908.155 362.928C907.801 369.339 905.161 367.552 902.377 372.696C901.639 374 901.848 375.642 901.392 377.059C900.159 380.713 895.473 381.272 893.043 384.142C890.894 386.678 890.962 390.481 891.457 393.837C891.951 397.194 892.761 400.699 891.738 403.903C890.681 407.147 886.805 409.57 884.2 407.594C882.648 406.439 882.013 404.089 880.252 403.231C878.806 402.523 877.08 403.119 875.6 403.678C872.006 405.095 867.673 408.041 868.834 411.88C869.187 413.148 870.173 414.154 870.348 415.459C870.663 417.994 868.092 419.709 866.685 421.797C863.125 426.941 866.86 433.876 868.902 439.88C871.192 446.63 871.089 454.273 868.621 460.982C867.951 462.809 866.472 464.898 864.673 464.375C863.053 463.852 862.699 461.654 861.642 460.273C860.759 459.155 859.318 458.781 857.941 459.042C856.496 459.304 855.157 460.31 854.769 461.839C854.027 464.673 856.214 467.916 854.944 470.565C854.309 471.869 853.004 472.613 851.878 473.511C848.143 476.529 846.451 482.087 847.824 486.857C848.459 488.945 849.585 490.845 850.007 492.97C850.996 497.852 847.505 503.261 842.822 504.042C838.171 504.827 833.272 500.798 832.815 495.84C830.206 496.323 827.46 496.846 824.957 495.953C822.454 495.059 820.34 492.262 821.047 489.577C818.51 488.31 815.376 490.286 814.14 492.97C812.588 496.363 811.884 504.9 811.919 508.779C811.953 514.744 813.47 521.232 810.473 526.303C810.473 527.945 806.845 531.185 806.21 533.052C805.259 535.773 805.822 538.944 805.012 541.777C803.886 545.955 801.064 555.425 798.352 558.255C796.343 560.343 792.502 558.999 790.566 561.124C789.581 562.207 789.402 563.809 788.592 565.04C787.359 566.904 784.929 567.391 782.78 567.351C780.631 567.274 778.41 566.868 776.333 567.5C774.537 568.059 772.738 569.439 770.905 568.88C767.029 567.649 767.383 560.082 764.493 557.249C760.864 553.707 754.801 554.749 750.785 551.803C747.791 549.602 747.438 545.577 744.726 543.303C742.014 540.993 738.594 541.701 735.601 540.208C732.147 538.454 730.493 534.578 726.191 534.131C723.726 533.906 722.034 536.256 719.25 535.62C719.25 535.62 719.178 529.06 721.152 523.84C723.125 518.62 721.151 523.84 723.125 520.483C725.099 517.127 726.085 516.531 728.447 510.49C728.447 510.49 730.702 500.239 734.368 496.359C738.031 492.484 734.368 496.359 735.285 489.24C736.202 482.08 738.951 482.828 748.076 480.888C757.239 478.949 749.909 474.103 750.826 463.477C751.742 452.852 756.322 458.632 763.617 451.882C770.946 445.097 770.03 449.942 773.693 437.305C777.321 424.703 775.492 428.656 780.071 422.727C784.651 416.763 789.23 419 790.147 407.365C791.029 395.77 799.272 402.556 803.851 402.33C808.397 402.105 814.809 397.706 812.976 391.182C811.143 384.694 804.768 385.141 802.018 374.926C799.268 364.712 791.942 363.854 784.332 360.087C776.721 356.284 780.984 340.664 783.734 331.23C786.484 321.796 779.155 321.313 776.405 326.867C773.693 332.422 764.53 332.908 759.951 326.867C755.406 320.826 764.53 317.434 763.617 311.207C762.701 304.981 760.867 299.053 765.45 288.391C770.03 277.69 770.03 277.766 765.45 274.148C760.871 270.494 753.576 274.893 745.33 278.583C737.122 282.274 735.288 284.548 725.951 278.583C716.579 272.582 706.043 290.364 696.918 288.202C701.463 286.041 698.714 273.923 701.357 266.207C703.963 258.488 706.96 256.512 716.084 253.606C725.244 250.696 721.581 237.165 725.951 229.558C727.114 228.403 727.993 226.91 729.404 226.093C731.694 224.712 734.691 225.533 737.015 224.229C738.742 223.223 739.727 221.283 740.609 219.42C743.006 214.385 745.436 209.354 747.832 204.283C748.395 203.164 748.958 201.933 748.821 200.668C748.68 199.586 748.045 198.656 747.589 197.686C746.284 194.965 746.109 191.572 747.448 188.888C748.787 186.167 751.677 184.34 754.53 184.674C755.869 184.823 757.314 185.419 758.512 184.71C759.498 184.151 759.923 182.96 760.346 181.877C762.038 177.551 765.031 173.824 768.801 171.401C770.878 170.06 773.312 168.978 774.51 166.74C775.354 165.175 775.426 163.162 774.723 161.52C774.16 160.252 773.171 159.246 772.399 158.127C769.367 153.543 770.356 146.569 774.513 143.139C781.032 137.694 789.56 140.604 793.048 130.948C794.071 128.079 796.254 125.841 797.205 123.044C797.593 121.853 797.559 120.545 797.593 119.277C797.734 116.146 798.582 113.015 800.024 110.254C804.603 101.492 800.13 87.0997 805.52 76.1403C810.522 65.9618 820.635 48.1405 832.122 45.9791C836.808 45.0855 841.634 45.4197 846.214 44.1156C853.437 42.0668 859.146 36.2874 865.874 32.7819C870.948 30.1338 876.551 28.7934 882.081 27.4893C885.923 26.5957 889.867 25.6621 893.781 26.1852C899.102 26.8936 903.894 30.25 909.25 30.9584C913.829 31.5905 918.553 30.2501 923.133 31.071C926.058 31.5941 928.735 32.9708 931.554 33.9044C936.312 35.5463 941.314 35.9532 946.315 36.3637C954.736 37.0357 963.158 37.744 971.579 38.4124C974.963 38.674 978.767 39.1571 980.916 41.9542C983.807 45.6812 981.901 51.7222 978.239 54.5556C974.538 57.4253 969.749 57.9484 965.204 58.3588C955.9 59.2161 946.6 60.1098 937.297 60.967C933.28 61.3412 928.948 61.8607 925.986 64.734C924.259 66.4123 923.167 68.7589 921.368 70.3282C915.803 75.2103 906.359 71.1491 900.825 76.0313C896.702 79.6857 896.352 87.1797 891.488 89.6389C889.974 90.4236 888.247 90.5325 886.767 91.3535C882.679 93.5912 882.294 99.5195 882.435 104.402C882.469 105.557 882.648 106.901 883.599 107.42C884.481 107.903 885.535 107.384 886.486 107.01C892.404 104.809 899.947 113.944 904.598 117.337C912.772 123.342 910.764 133.855 918.093 140.23C919.078 141.087 920.136 141.872 920.877 142.95C922.817 145.86 921.828 150.11 923.768 153.056C925.141 155.181 927.712 156.002 929.865 157.23C932.014 158.462 934.128 160.848 933.425 163.344C933.002 164.873 931.732 165.843 930.713 166.998C927.753 170.427 927.4 176.094 929.937 179.897C931.416 182.135 933.919 184.409 933.178 187.057C932.687 188.808 930.96 189.742 929.583 190.897C920.036 199.175 929.865 207.076 935.536 212.187C940.61 216.735 943.888 223.597 949.875 226.688C951.53 227.546 953.398 228.105 954.843 229.337C957.486 231.647 958.19 235.748 960.761 238.175C963.827 241.008 974.785 246.003 978.836 245.407C980.494 245.185 982.076 244.437 983.735 244.401C987.432 244.325 990.216 247.717 993.072 250.18C997.123 253.686 1002.34 255.774 1005.72 259.985C1009.14 264.246 1009.39 272.15 1004.52 274.202Z" stroke="#353332"/>
<path d="M831.722 523.119C830.763 529.486 830.076 535.91 829.67 542.356C830.789 541.275 832.073 543.457 833.396 544.175C835.547 545.347 837.564 542.353 838.533 539.855C839.937 536.229 841.345 532.608 842.75 528.983C843.49 527.079 844.226 524.851 843.408 522.988C842.799 521.601 841.398 520.659 841.254 519.115C841.034 516.808 843.706 514.242 842.233 512.65C841.748 512.128 841.015 512.079 840.35 512.135C835.108 512.586 830.678 518.427 831.018 524.445" stroke="#353332"/>
<path d="M1213.15 349.836C1211.78 353.469 1209.25 356.618 1208.65 360.435C1208.19 363.179 1208.82 366.104 1208.15 368.813C1206.64 374.855 1200.27 377.115 1196.68 381.416C1191.96 387.086 1190.45 388.126 1182.28 386.978C1177.81 386.31 1172.99 385.642 1168.97 387.794C1164.93 389.943 1162.67 396.28 1165.91 399.581C1167.28 400.953 1169.39 401.77 1169.71 403.734C1169.92 404.919 1169.29 406.107 1168.59 407.107C1166.3 410.516 1154.58 417.042 1155.56 420.671C1155.91 422.043 1157.07 423.192 1157.07 424.6C1157.04 425.936 1155.98 427.009 1154.78 427.417C1153.59 427.825 1152.28 427.677 1151.05 427.529C1147.88 427.157 1144.47 426.677 1142.22 424.34C1140.78 422.82 1140 420.743 1138.49 419.375C1130.92 412.369 1133.67 429.122 1136.09 432.458C1139.3 436.868 1143.98 439.797 1148.52 442.649C1151.76 444.686 1154.99 446.69 1158.24 448.727C1162.88 451.62 1166.15 454.953 1170.1 458.662C1175.03 463.259 1174.6 463.887 1175.87 470.745C1176.64 475.007 1181.19 477.047 1185.09 478.419C1189.53 479.94 1193.96 481.46 1198.4 482.977C1200.37 483.645 1202.34 484.349 1204.06 485.609C1204.06 485.609 1197.16 488.278 1193.61 489.018C1190.02 489.723 1190.72 487.166 1185.27 486.906C1179.78 486.646 1183.58 487.534 1179.29 487.278C1174.99 486.982 1174.64 486.39 1169.43 487.722C1169.43 487.722 1155.56 495.764 1150.35 493.8C1145.14 491.799 1142.12 489.39 1135.39 487.278C1128.63 490.799 1125.96 487.982 1121.24 487.278C1117.4 486.686 1109.1 485.165 1106.21 484.609C1103.46 480.272 1099.45 476.159 1097.06 474.23C1095.36 472.858 1093.46 471.598 1091.35 471.562C1090.09 471.562 1088.82 471.97 1087.55 472.042C1085.79 472.19 1084.07 471.634 1082.31 471.562C1076.39 471.229 1071.33 475.675 1066.96 479.9C1064.53 482.236 1062.03 484.645 1060.52 487.722C1058.97 490.799 1058.59 494.728 1060.35 497.657C1061.01 498.805 1062 499.769 1062.42 501.03C1062.88 502.51 1062.45 504.143 1062.39 505.699C1062.17 513.557 1071.15 519.859 1069.5 527.529C1068.16 533.831 1063.3 539.317 1064.04 546.247C1064.81 553.513 1071.96 557.254 1073.44 564.04C1073.82 565.856 1073.68 567.784 1074.32 569.525C1075.87 574.01 1081.78 576.307 1081.78 581.088C1081.81 584.425 1078.82 586.906 1078.12 590.167C1076.43 597.653 1087.2 603.623 1085.44 611.109C1084.95 613.298 1083.33 615.259 1083.61 617.523C1084 621.228 1088.96 622.525 1090.05 626.085C1091.25 629.939 1087.41 633.239 1084.46 635.908C1080.23 639.761 1077.06 644.915 1072.38 648.176C1066.12 652.549 1058.16 652.845 1050.63 653.033C1048.03 653.109 1045 652.957 1043.41 650.772C1041.72 648.436 1042.14 644.398 1039.58 643.322C1037.92 642.618 1036.09 643.766 1034.29 643.878C1030.56 644.062 1028.06 639.837 1027.19 636.02C1026.27 632.163 1025.92 627.83 1023.14 625.197C1022.08 624.197 1020.74 623.528 1019.65 622.528C1013.46 616.746 1019.51 604.403 1014.06 597.881C1012.19 595.657 1008.95 593.692 1009.66 590.803C1009.94 589.579 1010.96 588.69 1011.66 587.69C1016.84 580.316 1006.91 568.196 1012.69 561.374C1014.2 559.558 1016.45 558.706 1018.24 557.221C1021.41 554.517 1022.61 550.031 1023.45 545.842C1024.09 542.693 1024.58 539.244 1023.21 536.352C1021.8 533.499 1017.72 531.903 1015.57 534.203C1014.48 535.388 1014.2 537.168 1013.67 538.761C1012.23 543.062 1008.29 546.323 1003.99 546.731C999.663 547.175 995.225 544.766 993.01 540.837C992.375 539.652 991.813 538.244 990.616 537.688C990.616 537.688 991.672 533.539 994.557 530.906C997.407 528.237 996.35 530.906 998.501 525.977C1000.65 521.083 1003.85 524.124 1006.53 520.083C1006.53 520.083 1014.24 512.781 1010.85 512.261C1007.51 511.705 1010.85 508.516 1010.85 500.029C1010.85 491.503 1010.85 500.029 1013.53 500.029C1016.17 500.029 1018.95 492.951 1015.57 486.538C1012.19 480.164 1013.56 480.164 1015.57 476.271C1017.58 472.342 1020.29 473.786 1024.12 475.938C1027.92 478.051 1029.01 469.564 1030.07 463.151C1031.09 456.777 1026.34 456.777 1024.05 450.399C1021.73 444.025 1024.33 442.617 1027.78 437.388C1031.23 432.198 1030.39 431.978 1027.78 425.601C1025.18 419.227 1027.01 417.114 1027.68 409.996C1028.34 402.918 1025 402.918 1020.46 397.949C1015.92 392.983 1018.95 392.983 1019.68 386.606C1020.46 380.232 1020.95 383.085 1019.68 375.375C1022.22 374.042 1022.04 370.297 1021.76 367.368C1021.41 363.403 1021.48 359.438 1022.08 355.509C1022.22 354.433 1022.78 353.064 1023.8 353.212C1024.15 353.284 1024.43 353.508 1024.72 353.732C1027.46 356.177 1029.04 359.958 1028.87 363.739C1028.83 365.111 1028.59 366.592 1029.26 367.74C1030.53 369.965 1034.12 368.965 1035.17 366.664C1036.26 364.367 1035.7 361.623 1035.06 359.102C1033.62 353.136 1032.18 347.167 1030.7 341.201C1029.11 334.679 1027.71 327.005 1031.72 321.743C1035.34 316.926 1034.57 309.848 1035.56 303.806C1036.23 299.877 1036.86 295.948 1037.49 292.019C1037.74 290.426 1038.02 288.83 1038.73 287.422C1040.03 284.789 1042.63 283.16 1044.36 280.824C1045.1 279.86 1045.66 278.747 1046.58 277.935C1048.65 276.118 1051.86 276.45 1054.18 274.97C1055.66 274.081 1056.61 272.525 1057.74 271.189C1061.78 266.335 1066.57 265.147 1072.59 266.147C1081 261.922 1090.47 256.289 1091.88 246.578C1092.3 243.577 1092.86 239.276 1095.78 239.352C1098.18 239.388 1099.23 242.649 1101.31 243.949C1102.5 244.689 1103.98 244.729 1105.43 244.801C1112.89 245.209 1120 248.138 1126.93 250.991C1135.17 254.4 1143.44 257.813 1151.68 261.222C1151.68 261.222 1133.34 264.002 1129.33 268.264C1125.28 272.525 1123.94 266.855 1117.89 268.264C1111.8 269.672 1115.18 272.525 1111.13 275.342C1107.12 278.195 1108.46 284.572 1108.42 289.166C1106.48 290.35 1104.58 291.759 1102.37 292.058C1094.13 293.135 1087.83 285.573 1078.75 290.538C1074.14 293.059 1071.46 300.177 1074.98 304.178C1071.64 304.846 1068.15 305.586 1065.37 307.699C1062.63 309.848 1060.83 313.853 1062.2 317.15C1062.77 318.558 1063.86 319.743 1064.1 321.227C1064.91 326.12 1056.75 330.121 1059.28 334.311C1060.37 336.163 1062.94 336.311 1064.63 337.608C1068.15 340.388 1066.18 346.43 1063.22 349.875C1060.3 353.36 1056.39 357.029 1056.92 361.626C1057.2 363.775 1058.44 365.667 1058.72 367.816C1059.14 371.077 1057.27 374.23 1057.2 377.527C1057.03 383.605 1063.26 388.274 1068.99 387.866C1074.77 387.458 1079.69 383.309 1083.29 378.563C1085.43 375.711 1087.4 372.449 1090.61 371.077C1095.54 369.001 1101.87 372.262 1106.16 368.928C1112.54 363.963 1113.55 360.662 1122.25 359.662C1129.61 358.846 1137.98 361.403 1144.64 356.881C1146.26 355.769 1147.7 354.212 1149.57 353.544C1151.26 352.916 1153.12 353.064 1154.92 352.988C1158.43 352.804 1161.85 351.544 1164.7 349.391C1166.25 348.243 1167.66 346.795 1169.35 345.982C1171.71 344.834 1174.38 344.87 1176.95 344.39C1186.31 342.573 1194.94 333.234 1203.84 336.719C1204.12 339.464 1208.03 338.868 1210.49 339.796C1213.96 341.089 1214.49 346.203 1213.15 349.836Z" stroke="#353332"/>
<path d="M1029.24 462.596C1028.17 469.067 1027.06 477.631 1023.19 475.499C1019.29 473.331 1016.53 471.87 1014.49 475.834C1012.45 479.763 1011.06 479.763 1014.49 486.194C1017.93 492.666 1015.1 499.808 1012.42 499.808C1009.7 499.808 1009.7 491.205 1009.7 499.808C1009.7 508.372 1006.3 511.589 1009.7 512.15C1013.13 512.675 1005.3 520.043 1005.3 520.043C1002.58 524.121 999.319 521.053 997.136 525.99C994.953 530.964 996.027 528.272 993.125 530.964C990.192 533.621 989.118 537.808 989.118 537.808C988.044 537.36 986.861 537.658 985.717 537.844C980.922 538.591 975.767 536.124 973.151 531.861C970.288 527.149 970.504 521.166 970.825 515.63C970.968 513.273 971.111 510.842 971.756 508.598C974.762 498.387 987.615 491.955 986.432 481.333C986.254 479.799 985.752 478.265 985.752 476.694C985.822 472.693 989.079 469.661 991.228 466.371C993.805 462.406 994.949 456.685 995.525 451.973C995.988 448.308 993.805 440.867 995.919 437.948C996.456 437.201 997.314 436.752 997.889 436.042C999.93 433.498 997.209 429.198 998.998 426.429C999.999 424.895 1002.08 424.523 1003.44 423.211C1005.66 421.08 1005.05 417.264 1003.76 414.422C1002.47 411.543 1000.61 408.774 1000.72 405.596C1000.86 402.379 1003.12 399.576 1003.4 396.322C1003.69 393.254 1002.15 390.04 1003.15 387.121C1003.98 384.764 1006.3 383.27 1007.23 380.948C1008.09 378.78 1007.77 375.938 1009.52 374.517C1012.03 372.498 1015.9 375.49 1018.69 374.032C1019.98 381.812 1019.48 378.929 1018.69 385.365C1017.94 391.796 1014.86 391.796 1019.48 396.811C1024.1 401.821 1027.5 401.821 1026.82 408.967C1026.14 416.149 1024.27 418.281 1026.92 424.713C1029.58 431.144 1030.43 431.37 1026.92 436.607C1023.42 441.88 1020.77 443.301 1023.13 449.736C1025.45 456.164 1030.28 456.164 1029.24 462.596Z" stroke="#353332"/>
<path d="M1235.57 511.191C1238.25 515.661 1238 522.42 1233.81 525.302C1229.89 528.034 1223.96 526.558 1220.58 530.031C1217.55 533.169 1217.72 539.338 1213.77 540.965C1210.84 542.185 1206.86 540.151 1204.74 542.591C1202.59 544.992 1204.64 549.645 1202.28 551.862C1201.54 552.6 1200.48 552.859 1199.49 553.082C1192.51 554.633 1185.45 555.853 1178.36 556.702C1177.24 560.69 1172.05 562.392 1168.52 560.435C1165 558.477 1163.34 553.895 1163.76 549.76C1164.12 546.251 1165.67 542.3 1163.66 539.493C1160.9 535.653 1155.16 538.089 1150.64 537.387C1143.41 536.279 1139.22 526.713 1131.91 526.195C1127.47 525.9 1122.74 529.113 1118.86 526.821C1112.83 523.312 1116.78 511.641 1111 507.725C1109.52 506.692 1107.54 506.397 1106.48 504.918C1104.26 501.888 1107.68 498.012 1108.63 494.356C1109.3 491.696 1107.96 488.259 1105.88 484.973C1108.77 485.527 1117.1 487.043 1120.95 487.633C1125.67 488.335 1128.35 491.142 1135.12 487.633C1141.86 489.738 1144.89 492.139 1150.11 494.132C1155.33 496.09 1169.23 488.075 1169.23 488.075C1174.45 486.747 1174.8 487.338 1179.11 487.633C1183.41 487.892 1179.6 487.007 1185.1 487.262C1190.57 487.521 1189.86 490.069 1193.46 489.367C1197.02 488.63 1203.93 485.97 1203.93 485.97C1206.76 488.039 1208.41 491.401 1210.81 493.985C1214.27 497.789 1219.1 499.783 1223.65 501.963C1228.23 504.137 1232.89 506.757 1235.57 511.191Z" stroke="#353332"/>
<path d="M1330.13 226.516C1325.8 232.002 1321.51 237.452 1317.22 242.938C1312.62 248.796 1308.01 254.69 1303.72 260.805C1297.08 270.292 1290.82 280.748 1281.15 286.678C1272.64 291.904 1262.51 292.98 1252.74 293.981C1247.57 294.501 1242.4 295.017 1237.23 295.573C1230.86 296.205 1224.36 296.834 1218.17 295.129C1215.6 294.425 1213.14 293.312 1210.57 292.536C1206.28 291.276 1201.78 291.015 1197.32 290.755C1189.97 290.311 1182.58 289.903 1175.23 289.459C1171.44 289.235 1167.53 289.015 1163.91 290.163C1160.75 291.091 1157.86 293.016 1154.63 293.388C1148.97 294.056 1143.9 289.979 1138.73 287.422C1129.17 282.716 1117.39 283.308 1108.28 288.942C1108.32 284.345 1106.98 277.97 1110.99 275.117C1115.03 272.3 1111.66 269.447 1117.74 268.039C1123.78 266.63 1125.12 272.3 1129.17 268.039C1133.18 263.777 1151.49 260.996 1151.49 260.996C1154.52 262.256 1157.58 263.517 1160.81 263.777C1169.15 264.445 1177.55 258.403 1185.46 261.144C1189.83 262.665 1193.03 266.558 1197 268.967C1200.97 271.412 1207.02 271.748 1209.23 267.522C1209.97 266.114 1210.26 264.333 1211.56 263.517C1212.37 263.037 1213.39 263.109 1214.3 263.185C1228.51 264.333 1242.68 265.482 1256.85 266.63C1259.91 266.854 1263.07 267.11 1266.02 266.15C1268.35 265.446 1270.39 264.001 1272.5 262.813C1276.01 260.776 1279.81 259.327 1283.33 257.251C1291.59 252.433 1297.82 244.574 1304.85 237.94C1311.88 231.334 1320.71 225.588 1330.13 226.516Z" stroke="#353332"/>
<path d="M1272.22 324.672C1273.05 328.04 1272.32 331.637 1270.84 334.78C1270.45 335.605 1270 336.431 1269.9 337.336C1269.79 338.249 1270.04 339.162 1270.06 340.083C1270.09 340.999 1269.82 342.036 1269.01 342.487C1268.54 342.752 1267.96 342.763 1267.42 342.763C1265.04 342.763 1262.09 342.25 1261.38 340.006C1260.64 337.689 1262.92 335.012 1261.73 332.885C1261.04 331.644 1259.4 331.204 1257.99 331.393C1256.56 331.582 1255.27 332.255 1253.92 332.735C1252.35 333.296 1250.69 333.601 1249.02 333.634C1245.44 333.707 1244.98 326.505 1246.05 323.97C1247.24 321.115 1249.8 321.3 1252.55 320.922C1259.41 319.973 1270.33 313.506 1272.22 324.672Z" stroke="#353332"/>
<path d="M1156.3 582.202C1156.51 581.669 1156.5 581.076 1156.71 580.544C1157.13 579.436 1158.31 578.864 1159.43 578.546C1161.92 577.846 1164.6 577.903 1167.05 578.707C1168.12 579.057 1169.24 579.64 1169.66 580.708C1170.07 581.744 1169.7 582.938 1169.94 584.031C1170.21 585.317 1171.29 586.321 1171.5 587.622C1172 590.827 1167.38 592.292 1166.26 595.329C1165.29 597.963 1167.24 601.05 1166.21 603.658C1165.23 606.156 1161.9 607.167 1161.24 609.779C1161.01 610.662 1161.15 611.594 1161.08 612.505C1160.72 617.976 1154.65 619.698 1150.84 616.618C1148.01 614.335 1145.73 609.836 1145.69 606.149C1145.64 601.654 1148.02 597.144 1149.09 592.871C1149.64 590.688 1149.69 587.604 1151.2 585.818C1152.54 584.217 1155.49 584.292 1156.3 582.202Z" stroke="#353332"/>
<path d="M1181.94 584.875C1182.01 583.398 1181.97 581.87 1182.51 580.499C1182.83 579.677 1183.34 578.949 1183.6 578.105C1183.93 577.065 1183.87 575.908 1184.28 574.9C1184.96 573.252 1187.02 572.426 1188.56 573.175C1190.06 573.903 1190.81 575.784 1190.79 577.53C1190.76 579.277 1190.1 580.935 1189.46 582.543C1188.67 584.512 1187.88 586.491 1187.38 588.561C1186.35 592.857 1186.62 597.496 1188.15 601.621C1188.29 602.018 1188.47 602.432 1188.79 602.687C1189.11 602.938 1189.52 603.004 1189.92 603.029C1193.17 603.226 1196.89 601.396 1199.42 603.56C1201.24 605.121 1201.33 608.272 1199.98 610.305C1198.64 612.343 1196.23 613.35 1193.88 613.499C1191.54 613.649 1189.22 613.056 1186.94 612.47C1185.6 612.128 1184.15 611.797 1182.9 612.397C1182.08 612.794 1181.46 613.539 1180.87 614.267C1179.18 616.359 1177.49 618.447 1175.8 620.539C1175.39 621.041 1174.96 621.561 1174.39 621.83C1173.32 622.336 1172.01 621.79 1171.23 620.863C1170.45 619.935 1170.09 618.709 1169.76 617.516C1169.31 615.828 1168.91 614.012 1169.43 612.346C1170.24 609.741 1172.68 608.85 1174.33 607.02C1176.14 605.012 1176.3 603.324 1177.08 600.883C1178.84 595.389 1181.66 590.922 1181.94 584.875Z" stroke="#353332"/>
<path d="M1180.72 669.986C1183.92 670.325 1187.12 670.659 1190.33 670.997C1189.49 672.833 1188.49 674.654 1186.95 675.969C1185.41 677.284 1183.23 678.003 1181.3 677.36C1179.38 676.718 1178.03 674.433 1178.8 672.571C1179.71 670.405 1182.54 669.964 1184.89 669.842" stroke="#353332"/>
<path d="M1170.91 635.951C1171.95 637.487 1172.78 639.304 1172.7 641.216C1172.62 643.124 1171.38 645.067 1169.65 645.262C1168.56 645.384 1167.52 644.837 1166.54 644.304C1165.17 643.556 1163.8 642.807 1162.43 642.058C1162.05 641.853 1161.67 641.644 1161.39 641.313C1161.08 640.969 1160.91 640.512 1160.75 640.067C1159.7 637.145 1158.75 631.626 1162.24 630.042C1165.53 628.552 1169.23 633.447 1170.91 635.951Z" stroke="#353332"/>
<path d="M1358.64 421.709C1360.5 422.305 1363.04 421.574 1363.97 423.472C1364.91 425.396 1362.82 427.476 1360.93 428.018C1355.68 429.51 1349.97 426.767 1344.79 428.541C1342.76 429.235 1340.95 430.585 1338.95 431.389C1328.94 435.415 1314.48 417.178 1326.4 414.268C1331.99 412.907 1338.16 415.474 1343.8 415.229C1347.3 415.079 1349.97 413.306 1353.02 415.558C1355.25 417.208 1355.79 420.788 1358.64 421.709Z" stroke="#353332"/>
<path d="M1390.74 420.334C1394.42 422.188 1398.11 424.042 1401.79 425.899C1399.88 427.604 1397.53 428.743 1395.08 429.166C1392.95 429.531 1390.78 429.364 1388.63 429.194C1387.09 429.072 1385.54 428.951 1384 428.833C1383.54 428.798 1383.06 428.753 1382.67 428.489C1382.14 428.128 1381.89 427.43 1381.84 426.764C1381.65 424.577 1383.18 422.532 1385.05 421.629C1386.93 420.727 1389.07 420.744 1391.12 420.959" stroke="#353332"/>
<path d="M1131.63 673.727C1135.54 675.581 1139.44 677.438 1143.34 679.292C1141.31 680.997 1138.83 682.135 1136.23 682.559C1133.98 682.924 1131.68 682.757 1129.41 682.59C1127.77 682.469 1126.13 682.351 1124.5 682.229C1124.01 682.194 1123.5 682.149 1123.09 681.886C1122.53 681.528 1122.27 680.827 1122.21 680.164C1122.01 677.973 1123.63 675.932 1125.62 675.029C1127.6 674.127 1129.87 674.144 1132.04 674.359" stroke="#353332"/>
<path d="M1232.67 337.6C1236.57 339.718 1240.47 341.837 1244.37 343.96C1242.35 345.908 1239.86 347.209 1237.26 347.693C1235.01 348.11 1232.71 347.919 1230.44 347.729C1228.8 347.59 1227.16 347.451 1225.53 347.316C1225.04 347.276 1224.53 347.225 1224.12 346.923C1223.56 346.511 1223.3 345.713 1223.24 344.951C1223.04 342.448 1224.66 340.115 1226.65 339.083C1228.63 338.052 1230.9 338.072 1233.07 338.318" stroke="#353332"/>
<path d="M1399.22 497.284C1399.3 499.095 1401.79 499.601 1403.25 498.676C1404.71 497.747 1405.62 496.063 1407.04 495.054C1410.47 492.602 1415.02 494.981 1418.51 497.342C1422.58 500.096 1426.81 503.026 1429.19 507.492C1431.52 511.864 1432.39 517.941 1436.8 519.726C1438.91 520.579 1441.44 520.174 1443.31 521.515C1445.64 523.187 1445.81 527.071 1444.2 529.526C1442.59 531.982 1439.73 533.173 1436.94 533.537C1434.69 533.833 1432.36 533.687 1430.2 534.423C1426.2 535.785 1423.46 539.92 1419.47 541.319C1412.61 543.731 1406.02 537.334 1399.07 535.228C1396.12 534.335 1392.91 534.193 1390.25 532.583C1385.55 529.752 1383.91 523.304 1379.77 519.62C1378.82 518.779 1377.7 518.01 1377.29 516.771C1377.01 515.915 1377.13 514.975 1377.28 514.083C1378.02 509.66 1379.15 503.973 1382.9 501.667C1387.06 499.116 1394.52 498.606 1399.22 497.284Z" stroke="#353332"/>
<path d="M1224.4 799.135C1224.79 798.71 1225.18 798.276 1225.57 797.843" stroke="#353332"/>
<path d="M1381.82 837.445C1381.57 838.451 1381.66 839.526 1381.53 840.562C1381.31 842.26 1380.47 843.848 1379.25 844.873C1375.77 847.799 1370.17 845.841 1366.99 849.172C1365.05 851.207 1364.4 854.891 1361.88 855.832C1359.73 856.639 1357.37 854.734 1356.53 852.362C1355.7 849.991 1355.97 847.333 1356.26 844.8C1356.45 843.182 1356.67 841.48 1357.55 840.195C1361.19 834.943 1379.07 827.913 1385.24 828.98C1385.96 832.889 1382.69 834.002 1381.82 837.445Z" stroke="#353332"/>
<path d="M-53.7729 257.446C-49.3241 263.89 -48.9188 265.757 -48.9188 275.131C-48.9188 284.508 -49.3241 290.692 -46.088 292.323C-42.8519 293.959 -40.0211 292.24 -37.1904 294.816C-34.3596 297.392 -25.864 299.972 -25.864 305.985C-25.864 311.998 -21.0098 311.998 -21.0098 318.014C-21.0098 324.027 -21.0098 326.607 -18.9863 329.183C-16.9629 331.759 -10.4941 340.091 -5.6399 345.807C-0.785725 351.52 2.85234 353.669 7.30116 359.682C11.75 365.695 16.1988 366.126 19.4349 367.844C22.671 369.563 26.7145 369.657 28.7379 375.409C30.7613 381.162 28.7379 390.702 28.7379 396.672C28.7379 402.641 27.5252 404.36 21.053 409.942C14.5807 415.528 7.70652 409.512 3.65967 413.806C-0.383779 418.101 -3.21452 418.531 -2.00182 423.256C-0.789128 427.981 2.44697 429.269 4.4704 434.425C6.49382 439.58 6.49384 444.305 4.06505 448.169C1.63625 452.033 -3.8822 447.793 -6.98546 458.292L-8.87264 464.295" stroke="#353332" stroke-miterlimit="10"/>
<path d="M3.79175 448.782C7.46262 455.254 13.9837 452.721 18.4684 458.949C22.9531 465.178 23.7704 462.591 27.0292 467.765C30.2914 472.944 27.843 470.785 33.9623 475.099C40.0781 479.412 41.7093 482.003 45.3801 484.591C49.051 487.178 53.1271 491.495 57.6118 493.65C62.0965 495.808 64.9501 499.69 68.621 502.281C72.2919 504.868 72.6971 504.148 76.368 508.607C80.0389 513.066 86.1547 512.634 90.2308 512.634C94.3068 512.634 100.017 513.495 100.831 518.673C101.649 523.852 103.685 524.713 97.1605 529.459C90.636 534.205 85.3374 526.871 85.7426 535.07C86.1512 543.268 91.0446 546.288 95.9345 547.581C100.824 548.875 102.868 550.601 108.166 554.486C113.465 558.37 115.096 556.644 119.581 562.252C124.065 567.862 126.919 566.997 130.181 574.763C133.443 582.529 137.928 578.648 139.151 585.549C140.373 592.453 140.373 593.314 139.151 596.767C137.928 600.219 136.654 602.654 136.654 602.654L133.533 614.26" stroke="#353332" stroke-miterlimit="10"/>
<path d="M44.9094 484.99C53.9757 483.82 53.4183 476.165 58.9991 476.753C64.58 477.342 65.0582 474.923 71.5164 476.721C77.9747 478.518 86.9033 475.577 88.0181 470.275C89.1329 464.973 84.6703 464.352 88.0181 459.362C91.3659 454.372 93.5989 444.621 96.9467 449.201C100.295 453.78 103.085 460.851 106.433 456.137C109.781 451.423 110.899 450.483 113.689 448.01C116.48 445.536 119.27 449.658 123.175 452.603C127.08 455.549 129.871 454.859 127.641 447.251C125.408 439.646 125.322 430.81 128.436 428.453C131.55 426.097 130.735 419.03 139.794 421.975C148.85 424.92 155.546 424.096 158.897 421.267C162.245 418.438 162.802 418.205 169.501 421.267C176.197 424.328 187.695 427.353 187.695 427.353C191.26 431.079 192.884 427.23 196.125 430.651C199.37 434.075 199.776 432.361 201.396 434.075C203.017 435.786 216.429 444.331 216.429 444.331" stroke="#353332" stroke-miterlimit="10"/>
<path d="M19.064 368.395C19.064 368.395 35.7488 374.809 37.4135 367.875C39.0782 360.942 40.1857 364.587 45.0398 363.986C49.8938 363.385 52.9395 364.587 57.9268 362.785C62.9175 360.979 66.7973 368.799 71.4702 376.148C76.143 383.5 76.7754 374.809 79.5477 368.799C82.3199 362.785 82.8737 362.184 87.8644 358.176C92.8552 354.168 92.8552 360.378 99.5072 357.998C106.159 355.617 110.025 357.827 118.13 357.998C122.663 358.094 125.914 358.595 130.559 360.36C135.201 362.125 135.434 360.864 140.079 361.62C144.721 362.377 143.562 361.368 147.511 361.368C151.459 361.368 156.514 349.229 156.514 349.229" stroke="#353332" stroke-miterlimit="10"/>
<path d="M138.893 596.102C140.158 596.899 143.849 599.904 145.217 598.238C145.941 597.36 145.976 596.109 146.252 594.993C147.013 591.9 149.674 589.757 152.17 587.858C153.648 586.732 155.22 585.569 157.047 585.339C159.229 585.063 161.552 586.161 163.582 585.293C165.737 584.376 166.481 581.878 167.918 580.199C169.676 578.144 172.037 577.024 174.343 575.752C178.18 573.634 182.967 573.251 186.459 570.626C189.782 568.128 189.175 568.752 194.642 567.505C200.108 566.254 198.895 560.419 204.362 559.278C209.828 558.138 215.299 558.138 217.729 553.766C220.159 549.394 219.486 546.896 223.771 543.775C228.055 540.654 231.702 534.408 235.345 537.529C238.992 540.65 244.459 544.399 244.459 549.394C244.459 554.389 246.889 560.419 249.925 559.278C252.962 558.138 257.546 556.834 257.546 556.834" stroke="#353332" stroke-miterlimit="10"/>
<path d="M326.859 672.423C325.669 677.847 325.065 683.664 321.436 686.25C317.81 688.835 311.159 686.25 305.715 686.25C300.274 686.25 299.064 684.31 296.041 690.13C293.019 695.946 291.809 696.596 291.809 701.117C291.809 705.643 299.064 708.229 295.438 712.105C291.809 715.985 289.997 717.276 291.809 720.507C293.623 723.738 297.249 727.618 294.227 730.204C291.205 732.79 292.803 734.084 291.095 736.67C289.387 739.255 285.061 746.586 285.061 746.586C282.506 752.421 284.049 753.654 279.864 757.501C275.679 761.348 278.369 761.627 278.369 761.627" stroke="#353332" stroke-miterlimit="10"/>
<path d="M430.241 717.689C430.081 723.336 426.333 724.201 423.206 729.015C420.082 733.829 415.082 737.988 412.582 738.993C410.082 739.998 411.958 744.738 415.706 745.76C419.458 746.786 421.599 749.87 420.841 752.338C420.082 754.807 418.206 756.039 418.206 759.127C418.206 762.211 413.398 770.694 413.398 770.694" stroke="#353332" stroke-miterlimit="10"/>
<path d="M496.029 784.701C496.787 776.408 500.333 768.818 505.656 768.818C510.976 768.818 515.116 768.491 518.074 771.818C521.029 775.144 520.439 779.569 524.578 782.103C528.718 784.632 526.353 789.728 531.673 790.026C536.993 790.324 542.907 789.692 545.272 785.896C547.637 782.099 548.818 780.592 551.776 779.451C554.731 778.306 559.461 777.983 558.28 771.818C557.1 765.656 555.325 765.656 553.551 759.33C551.776 753.003 550.005 751.481 554.735 744.652C559.464 737.823 557.69 737.662 563.013 739.323C568.334 740.985 576.022 739.722 574.838 734.03C573.657 728.339 571.292 728.339 571.882 724.542C572.473 720.746 580.614 715.108 580.614 715.108" stroke="#353332" stroke-miterlimit="10"/>
<path d="M1019.1 375.095C1020.33 382.818 1019.84 379.973 1019.1 386.373C1018.36 392.773 1015.42 392.773 1019.85 397.752C1024.29 402.731 1027.58 402.731 1026.92 409.841C1026.27 416.955 1024.46 419.086 1027.01 425.49C1029.56 431.89 1030.39 432.092 1027.01 437.325C1023.63 442.558 1021.1 443.979 1023.35 450.383C1025.61 456.782 1030.25 456.782 1029.24 463.186C1028.24 469.586 1027.17 478.12 1023.42 475.989C1019.68 473.855 1017.04 472.391 1015.07 476.323C1013.09 480.255 1011.77 480.255 1015.07 486.658C1018.36 493.058 1015.66 500.172 1013.06 500.172C1010.45 500.172 1010.45 491.638 1010.45 500.172C1010.45 508.706 1007.16 511.914 1010.45 512.443C1013.75 512.972 1006.2 520.299 1006.2 520.299C1003.6 524.34 1000.44 521.314 998.338 526.232C996.236 531.15 997.287 528.501 994.484 531.15C991.68 533.799 990.616 537.988 990.616 537.988" stroke="#353332" stroke-miterlimit="10"/>
<path d="M1027.03 437.481C1039.06 437.732 1045.12 431.768 1053.19 431.93C1061.26 432.088 1063.95 426.121 1070.01 431.927C1076.06 437.732 1072.7 437.732 1080.77 441.259C1088.85 444.785 1092.89 442.276 1094.9 447.766C1096.92 453.255 1096.25 452.547 1104.32 452.547C1112.4 452.547 1117.11 446.96 1121.14 452.576C1125.18 458.191 1129.89 460.304 1131.91 463.835C1133.93 467.361 1146.52 465.952 1142.58 473.005C1138.64 480.058 1141.33 483.588 1134.6 487.115C1127.87 490.642 1125.18 487.82 1120.47 487.115C1115.76 486.41 1104.4 484.271 1104.4 484.271" stroke="#353332" stroke-miterlimit="10"/>
<path d="M1133.94 487.791C1140.85 489.733 1143.97 491.939 1149.32 493.746C1154.67 495.557 1168.89 488.223 1168.89 488.223C1174.23 487.009 1174.59 487.54 1179 487.791C1183.41 488.041 1179.52 487.217 1185.14 487.458C1190.76 487.698 1190.03 490.04 1193.7 489.384C1197.37 488.731 1204.43 486.277 1204.43 486.277" stroke="#353332" stroke-miterlimit="10"/>
<path d="M1108.28 288.469C1108.32 283.795 1106.97 277.297 1111.01 274.41C1115.05 271.523 1111.68 268.637 1117.75 267.195C1123.81 265.75 1125.15 271.523 1129.19 267.195C1133.23 262.863 1151.56 260.028 1151.56 260.028" stroke="#353332" stroke-miterlimit="10"/>
<path d="M1213.83 262.609C1219.54 268.882 1228.27 267.855 1230.41 274.38C1232.55 280.906 1240.08 275.126 1240.77 281.197C1241.46 287.269 1237.15 294.929 1237.15 294.929" stroke="#353332" stroke-miterlimit="10"/>
<path d="M726.288 230.303C721.923 237.889 725.586 251.372 716.427 254.263C707.27 257.153 704.285 259.132 701.657 266.813C699.029 274.489 701.774 286.562 697.196 288.714C692.618 290.867 701.774 281.236 692.618 290.867C683.462 300.497 681.628 306.39 677.05 311.632C672.472 316.874 686.206 319.291 677.05 327.232C667.894 335.173 656.904 346.322 647.745 346.525C638.588 346.731 631.262 348.482 623.021 357.237C614.779 365.992 619.327 351.546 601.485 362.139C583.644 372.735 587.307 368.633 580.896 378.871C574.484 389.109 560.75 385.77 555.254 391.29C549.761 396.815 552.505 394.434 546.097 402.364C539.686 410.298 543.349 411.039 546.097 418.854C548.846 426.668 558.002 428.48 551.591 437.687C545.179 446.894 536.023 436.262 532.36 451.691C528.697 467.121 540.601 461.568 532.36 473.01C524.118 484.457 516.128 490.278 516.128 490.278C512.094 494.804 510.611 496.884 506.659 498.439C502.707 499.999 504.189 498.439 500.733 501.558C497.276 504.673 494.854 510.841 494.854 510.841" stroke="#353332" stroke-miterlimit="10"/>
<path d="M696.918 288.349C706.05 290.507 716.584 272.772 725.932 278.742C735.276 284.712 737.105 282.427 745.324 278.742C753.543 275.057 760.85 270.694 765.416 274.324C769.981 277.955 769.981 277.868 765.416 288.534C760.85 299.201 762.675 305.105 763.587 311.325C764.5 317.545 755.368 320.937 759.934 326.964C764.5 332.996 773.631 332.521 776.372 326.964C779.113 321.408 786.42 321.905 783.679 331.313C780.938 340.721 776.667 356.335 784.283 360.114C791.898 363.897 799.205 364.76 801.942 374.951C804.68 385.143 811.074 384.689 812.902 391.189C814.731 397.692 808.336 402.066 803.771 402.29C799.205 402.519 790.986 395.758 790.07 407.346C789.157 418.934 784.591 416.718 780.022 422.655C775.456 428.592 777.281 424.628 773.628 437.232C769.975 449.835 770.887 445.007 763.58 451.764C756.274 458.525 751.708 452.729 750.795 463.352C749.883 473.975 757.19 478.802 748.055 480.732C738.923 482.665 736.182 481.94 735.27 489.059C734.357 496.182 738.011 492.32 734.357 496.182C730.704 500.045 728.433 510.309 728.433 510.309C726.076 516.322 725.092 516.921 723.123 520.265C721.154 523.612 723.123 518.404 721.154 523.612C719.185 528.82 719.243 535.399 719.243 535.399" stroke="#353332" stroke-miterlimit="10"/>
<path d="M802.799 402.239C805.524 413.142 801.892 413.828 802.799 422.705C803.706 431.582 802.799 432.438 808.246 437.834C813.694 443.229 817.327 442.635 817.327 447.786C817.327 452.938 818.234 455.847 821.867 452.938C825.5 450.025 840.549 455.599 840.549 455.599C846.522 455.61 847.528 451.603 851.42 455.599C855.312 459.591 860.214 460.415 860.214 460.415" stroke="#353332" stroke-miterlimit="10"/>
</svg>
