<svg width="12" height="12" viewBox="0 0 12 12" fill="none" xmlns="http://www.w3.org/2000/svg">
<g clip-path="url(#clip0_1266_27329)">
<path d="M4.00018 10.0744V11.9999H8.00018V10.1574C7.99039 9.73116 8.07147 9.30775 8.23803 8.91531C8.40459 8.52288 8.65281 8.17041 8.96618 7.88136C9.65013 7.28187 10.1364 6.48921 10.3608 5.60785C10.5853 4.72649 10.5374 3.7978 10.2235 2.9442C9.90959 2.09059 9.3444 1.35214 8.60243 0.826163C7.86046 0.300188 6.97653 0.011384 6.06714 -0.00218452C5.15775 -0.015753 4.26559 0.246551 3.50826 0.750156C2.75092 1.25376 2.16396 1.97502 1.82473 2.81888C1.48551 3.66274 1.40994 4.58959 1.60799 5.47725C1.80605 6.36492 2.26843 7.17173 2.93418 7.79136C3.26028 8.07733 3.52342 8.42792 3.70692 8.82092C3.89042 9.21392 3.99029 9.64075 4.00018 10.0744ZM7.00018 10.9999H5.00018V10.0744C5.00018 10.0494 4.99668 10.0244 4.99618 9.99986H7.00818C7.00818 10.0524 7.00018 10.1044 7.00018 10.1574V10.9999ZM2.53018 4.03736C2.60451 3.47645 2.81372 2.94192 3.13989 2.47958C3.46605 2.01723 3.89944 1.64085 4.40293 1.38269C4.90642 1.12454 5.46499 0.99229 6.03078 0.99729C6.59657 1.00229 7.15272 1.14439 7.65156 1.41141C8.15041 1.67842 8.57708 2.0624 8.89502 2.53044C9.21297 2.99848 9.4127 3.53662 9.4771 4.09876C9.54151 4.6609 9.46867 5.23027 9.26482 5.75809C9.06098 6.28591 8.73221 6.75644 8.30668 7.12936C7.75018 7.62763 7.35164 8.27785 7.16018 8.99986H6.50018V5.40786C6.79164 5.30482 7.04414 5.11425 7.22314 4.86221C7.40214 4.61018 7.4989 4.30899 7.50018 3.99986H6.50018C6.50018 4.13247 6.4475 4.25965 6.35373 4.35342C6.25997 4.44718 6.13279 4.49986 6.00018 4.49986C5.86757 4.49986 5.7404 4.44718 5.64663 4.35342C5.55286 4.25965 5.50018 4.13247 5.50018 3.99986H4.50018C4.50146 4.30899 4.59822 4.61018 4.77723 4.86221C4.95623 5.11425 5.20873 5.30482 5.50018 5.40786V8.99986H4.83918C4.61368 8.25447 4.19074 7.58396 3.61518 7.05936C3.20495 6.67979 2.89218 6.207 2.70332 5.68098C2.51446 5.15496 2.45507 4.59119 2.53018 4.03736Z" fill="#F9F8F7"/>
</g>
<defs>
<clipPath id="clip0_1266_27329">
<rect width="12" height="12" fill="white"/>
</clipPath>
</defs>
</svg>
