<svg width="491" height="300" viewBox="0 0 491 300" fill="none" xmlns="http://www.w3.org/2000/svg">
<path fill-rule="evenodd" clip-rule="evenodd" d="M237.662 -116C237.662 -133.673 251.989 -148 269.662 -148H472.169C489.842 -148 504.169 -133.673 504.169 -116V189.198C504.169 206.871 489.842 221.198 472.169 221.198H298.858C281.185 221.198 266.858 235.525 266.858 253.198V417.772C266.858 441.603 241.741 457.073 220.458 446.348L18.095 344.376C7.30302 338.938 0.495117 327.884 0.495117 315.799V105.945C0.495117 88.2722 14.822 73.9453 32.4951 73.9453H205.662C223.335 73.9453 237.662 59.6184 237.662 41.9453V-116ZM571.14 341.945C571.14 359.618 556.813 373.945 539.14 373.945H358.494C340.821 373.945 326.494 388.272 326.494 405.945V553.604C326.494 571.277 340.821 585.604 358.494 585.604H560.858C578.531 585.604 592.858 571.277 592.858 553.604V501.729C592.858 484.056 607.184 469.729 624.858 469.729H805.503C823.176 469.729 837.503 455.403 837.503 437.729V320.407C837.503 307.784 830.083 296.341 818.558 291.191L616.195 200.767C595.027 191.309 571.14 206.798 571.14 229.983V341.945Z" fill="#A84118"/>
</svg>
