<svg width="24" height="24" viewBox="0 0 24 24" fill="none" xmlns="http://www.w3.org/2000/svg">
<g clip-path="url(#clip0_1972_7672)">
<path d="M24.0008 22.586L17.7388 16.324C19.3654 14.3346 20.1651 11.7961 19.9726 9.23359C19.7801 6.67106 18.61 4.28056 16.7043 2.55655C14.7987 0.832537 12.3034 -0.0930816 9.7344 -0.0288498C7.16545 0.035382 4.71946 1.08455 2.90237 2.90164C1.08528 4.71873 0.0361144 7.16472 -0.0281174 9.73367C-0.0923492 12.3026 0.833269 14.798 2.55728 16.7036C4.28129 18.6092 6.67179 19.7793 9.23432 19.9719C11.7969 20.1644 14.3354 19.3646 16.3248 17.738L22.5868 24L24.0008 22.586ZM10.0008 18C8.41851 18 6.87179 17.5308 5.5562 16.6518C4.2406 15.7727 3.21522 14.5233 2.60972 13.0615C2.00422 11.5997 1.84579 9.99115 2.15448 8.4393C2.46316 6.88746 3.22508 5.46199 4.3439 4.34317C5.46272 3.22435 6.88819 2.46243 8.44004 2.15374C9.99188 1.84506 11.6004 2.00349 13.0622 2.60899C14.524 3.21449 15.7735 4.23987 16.6525 5.55546C17.5316 6.87106 18.0008 8.41778 18.0008 10C17.9984 12.121 17.1548 14.1545 15.655 15.6542C14.1552 17.154 12.1218 17.9976 10.0008 18Z" fill="#4F4D4A"/>
</g>
<defs>
<clipPath id="clip0_1972_7672">
<rect width="24" height="24" fill="white"/>
</clipPath>
</defs>
</svg>
